<svg id="Calque_1" data-name="Calque 1" xmlns="http://www.w3.org/2000/svg" viewBox="0 0 73.98 121.33"><defs><style>.cls-1{fill:#d1d2d4;}.cls-2{font-size:19.05px;font-family:IntroScriptR-H2Base, Intro Script R;}.cls-11,.cls-2{fill:#fff;}.cls-3{fill:#725248;}.cls-4{fill:#e8582d;}.cls-5{fill:#5fc2d5;}.cls-6{fill:#44b1e5;}.cls-7{fill:#86ac49;}.cls-8{fill:#f7a62e;}.cls-9{fill:#3b9ece;}.cls-10{fill:#dd922c;}.cls-12{fill:#95d1ee;}.cls-13{fill:#e1b684;}.cls-14{fill:#d0c6c3;}.cls-15{fill:#247196;}.cls-16{fill:#b2341a;}</style></defs><title>Icônes Activité-kids</title><rect fill-opacity="0" stroke="none" class="cls-1" x="-12.04" y="-6.81" width="92.44" height="141.04"/><text class="cls-2" transform="translate(15.58 66.42)">Cours<tspan x="-5.79" y="22.86">en ligne</tspan></text><path class="cls-3" d="M21.3,35.38a4.38,4.38,0,0,1-2.08-3.27,8.37,8.37,0,0,1,.35-4.8A4.09,4.09,0,0,1,21,25.39a1.86,1.86,0,0,0,.79-1.28,16.94,16.94,0,0,1,3.64-9,.81.81,0,0,0,.24-.62A1.93,1.93,0,0,1,26.38,13a17.14,17.14,0,0,1,23.72-.2,2.05,2.05,0,0,1,.78,1.85.51.51,0,0,0,.17.42,17,17,0,0,1,3.73,9,1.81,1.81,0,0,0,.71,1.26,4.57,4.57,0,0,1,1.85,2.91,8.65,8.65,0,0,1-.25,5,4.36,4.36,0,0,1-1.85,2.27,5.57,5.57,0,0,1-.9,1,1.63,1.63,0,0,0-.67.85,1.21,1.21,0,0,1-1.08.85,9,9,0,0,1-3.67-.22v1.43l0,1.13a1.52,1.52,0,0,1-1.65,1c-.45,0-.9,0-1.34,0a1.69,1.69,0,0,1-1.55-.61,1.92,1.92,0,0,1-1.6.61c-.59,0-1.18,0-1.77,0a10.79,10.79,0,0,1-2.35-.06c-.65-.15-1.21-.4-1.82,0-.08.06-.24,0-.36,0-.45,0-.9,0-1.34,0s-1-.38-1.43-.4-.88.42-1.43.4c-.88,0-1.75,0-2.63,0a2,2,0,0,1-1.74-.74,4,4,0,0,1-.18-1.38v-1.5a2,2,0,0,1-1.05.33c-.75,0-1.5,0-2.25,0a1.59,1.59,0,0,1-1.57-1.13c0-.12,0-.26-.16-.33a5.43,5.43,0,0,1-1.25-1.14h0C21.43,35.5,21.41,35.41,21.3,35.38Zm25.15-24.6a.25.25,0,0,0-.22-.12h0a5.72,5.72,0,0,0-1.7-.79h0c-.05-.11-.16-.13-.26-.17a15.47,15.47,0,0,0-4.79-1.06,16.46,16.46,0,0,0-12.7,4.67,1.26,1.26,0,0,0-.46.77,1.21,1.21,0,0,0,.56,1.43,1.28,1.28,0,0,0,1.81-.26,13.77,13.77,0,0,1,16.5-2.1A14,14,0,0,1,48,15.29a1.36,1.36,0,1,0,1.86-2c-.41-.39-.86-.75-1.29-1.12A10.08,10.08,0,0,0,46.82,11a.68.68,0,0,0-.38-.21ZM28.72,39.49c-.33-.08-.48,0-.46.38a.88.88,0,0,0,.46.86.45.45,0,0,0,.42.19c1.16,0,2.32,0,3.48,0a1,1,0,0,0,.91-1.07c0-.27-.08-.39-.37-.38l-3.7,0ZM28.83,38h-.44c-.06,0-.09,0-.08.06a5.65,5.65,0,0,1,0,.59c0,.35.12.45.43.38,1.47,0,2.93,0,4.39,0,.39,0,.46-.18.44-.5s0-.59-.42-.58c-.93,0-1.85,0-2.78,0Zm5.27,2.11a.61.61,0,0,0,.37.75,8.79,8.79,0,0,0,2.29.06.59.59,0,0,0,.54-.64c0-.39,0-.78,0-1.18s-.1-.4-.4-.4c-.8,0-1.61,0-2.41,0-.31-.05-.47,0-.43.39S34.09,39.77,34.1,40.11Zm8-18.33-4,0c-.23,0-.31.08-.31.31s0,.35.29.33h5.71c.47,0,.49-.21.36-.56A10,10,0,0,0,42.06,21.78Zm-10.88.52c-.8,0-1.6,0-2.4,0-.6-.05-.48.31-.51.65s.18.51.53.44h4.39c.14,0,.27,0,.33-.18.19-.6,0-.92-.62-.91l-.22,0ZM19.88,32.38c0,.16,0,.32.13.44a3.29,3.29,0,0,0,1,1.63,27,27,0,0,1-.32-3.6c.09-1.32.13-2.64.18-4l.12-.72c-1.3,1.26-1.81,4.41-1.07,6.21ZM33.12,20.81c-.24,0-.43-.25-.69-.25-1.07,0-2.15,0-3.22,0a1,1,0,0,0-.94.85c-.05.37.09.5.44.41h4.08c.23,0,.55.17.68-.11a.75.75,0,0,0-.22-.82A.35.35,0,0,0,33.12,20.81Zm5.52.49h5c.14,0,.34.08.39-.06s-.13-.3-.26-.41a1.26,1.26,0,0,0-.84-.27c-1.32,0-2.64,0-3.95,0a1.84,1.84,0,0,0-.47.07c-.29.09-.62.29-.58.55s.42.07.64.13Zm10.59,16,.13.11c.15.14.32.28.52.19s.1-.32.11-.48c0-1,0-2,0-2.94V23.26c0-.35-.2-.29-.37-.23a1,1,0,0,0-.71,1q0,6.27,0,12.53a.79.79,0,0,0,.32.74Zm-4.08,2.52c-.34-.12-.47,0-.42.35a.6.6,0,0,0,.34.56,5.77,5.77,0,0,0,2.83.07c.3,0,.41-.36.45-.66s-.05-.35-.32-.35Zm0-.48c.93,0,1.86,0,2.79,0,.54,0,.36-.36.38-.63s.07-.57-.4-.55c-.93,0-1.86,0-2.79,0-.74-.1-.36.47-.43.75S44.83,39.45,45.18,39.36Zm0-17.11H48c.15,0,.37,0,.36-.2,0-.39.14-.83-.21-1.16-.16-.31-.46-.31-.74-.32-.48,0-.95,0-1.43,0-1.11,0-1.27.19-1.26,1.31C44.71,22.24,44.84,22.31,45.14,22.25Zm-5,16.45a7.75,7.75,0,0,0-1.8-.11c-.39,0-.46.14-.47.49s.22.41.51.38c1.77,0,3.54,0,5.3,0,.33,0,.53,0,.53-.45s-.24-.42-.54-.43C42.47,38.56,41.3,38.78,40.12,38.7ZM27.34,23.24c-.18-.18-.43-.35-.66-.24s-.09.39-.09.59c0,4.36,0,8.73,0,13.09,0,.23,0,.46,0,.7s.08.3.3.24a1.06,1.06,0,0,0,.84-1.18V24.16a.83.83,0,0,0-.2-.69A.36.36,0,0,0,27.34,23.24ZM23.66,37.32l.12.11s0,.07.07.08a6.31,6.31,0,0,0,2.21.12c.16,0,.16-.16.16-.29l0-5.71c0-2.61,0-5.23,0-7.85a1.23,1.23,0,0,0,0-.54c0-.22-.08-.3-.27-.3-.54,0-1.08,0-1.61,0a1,1,0,0,0-1,1.16q0,6.21,0,12.41a.85.85,0,0,0,.33.8Zm33.2-5.48c.52-1.79-.13-4.92-1.17-5.55a1.35,1.35,0,0,0,.09.69,38.32,38.32,0,0,1-.08,7.34A4.13,4.13,0,0,0,56.86,31.84Zm-18.5,9a1.08,1.08,0,0,0,.56.16c1.34,0,2.68,0,4,0A1.17,1.17,0,0,0,44,40.38c.18-.3.2-.48-.26-.48-1.8,0-3.6,0-5.41,0-.16,0-.38-.11-.47.1a.48.48,0,0,0,.18.57A3.21,3.21,0,0,0,38.36,40.79ZM22.63,22.49c-.06.35-.12.7-.17,1.06,0,.1-.15.27,0,.32s.29-.07.34-.26a1.56,1.56,0,0,1,.77-1,.39.39,0,0,0,.19-.3,15.5,15.5,0,0,1,2.78-5.92c.08-.1.17-.18.07-.33-.38-.58-.77-.6-1.14,0A16.07,16.07,0,0,0,22.63,22.49Zm27.89-4.3h0a8.44,8.44,0,0,0-1.19-1.77.35.35,0,0,0-.31-.16,2.24,2.24,0,0,1-1.6-.75,13.25,13.25,0,0,0-18.32.12c-.31.29-.63.65-1.08.64-.74,0-1.06.45-1.39,1-.24.36-.46.72-.69,1.09A15.17,15.17,0,0,0,24.41,22c-.09.36,0,.41.33.35.7,0,1.39,0,2.09,0,.32,0,.66.4.84.18s0-.66,0-1A1.49,1.49,0,0,1,29.29,20c1.06,0,2.12,0,3.17,0a1.52,1.52,0,0,1,1.6,1.63c0,.44,0,.89,0,1.34,0,.19,0,.28.27.24a12.42,12.42,0,0,1,2.86,0V21.78A1.63,1.63,0,0,1,38.94,20c1.32,0,2.65,0,4,0a1.1,1.1,0,0,1,.58.07,1.23,1.23,0,0,0,1.65,0c.11-.09.34-.06.52-.06h1.72a1.37,1.37,0,0,1,1.53,1.52V22.8a2.25,2.25,0,0,1,1.45-.39c.49,0,1,0,1.45,0,.22,0,.52.12.4-.3a13.38,13.38,0,0,0-1.57-3.74C50.63,18.28,50.62,18.2,50.52,18.19ZM45.16,22.7c-.35-.08-.46.07-.44.42a9.84,9.84,0,0,1,0,1.33c0,.37.12.47.45.4s1,0,1.44,0,1.31.24,1.65-.13.07-1.09.09-1.65a.41.41,0,0,0,0-.11c0-.19,0-.29-.26-.3A15.93,15.93,0,0,0,45.16,22.7Zm7.93-.09c.48.3.56.94,1.06,1.35a4.38,4.38,0,0,0,0-.52,16.61,16.61,0,0,0-3-7.41c-.42-.58-.42-.58-1-.15l-.33.24.48.58a16.54,16.54,0,0,1,2.55,5.56C52.86,22.4,52.87,22.59,53.09,22.61Zm.79,9.87v3.64a3.1,3.1,0,0,0,1.25-2.46,3.89,3.89,0,0,0,.09-.47,30.67,30.67,0,0,0-.11-6.84,2.39,2.39,0,0,0-1.23-1.94ZM22.76,24.55s0-.1,0-.11-.12,0-.15.08a2.3,2.3,0,0,0-1.05,1.77,29.89,29.89,0,0,0-.08,7.26c0,.22,0,.45.1.68a3.09,3.09,0,0,0,.9,1.66c.07.06.15.16.27.11s.07-.15.07-.24c0-1,.06-2,0-3.08C22.81,30,22.76,27.26,22.76,24.55Zm30.14-1.3a1,1,0,0,0-.82-.31,11.61,11.61,0,0,1-1.18,0c-.4,0-.51.12-.5.51,0,1.79,0,3.57,0,5.36,0,2.78,0,5.57,0,8.35,0,.17-.17.47.22.48l1.45,0a1.09,1.09,0,0,0,1.22-1.23V24.18A1,1,0,0,0,52.9,23.25ZM30.54,37.54c.8,0,1.61,0,2.41,0,.44,0,.58-.1.58-.56,0-4.11,0-8.23,0-12.34,0-.9.23-.92-.94-.86H28.71c-.29-.06-.45,0-.45.36q0,6.51,0,13c0,.36.15.43.45.35Zm3.94-.42h2.46c.28,0,.37-.09.37-.37,0-3.55,0-7.1,0-10.66,0-.27-.08-.37-.36-.37-.83,0-1.65,0-2.47,0-.26,0-.42,0-.42.37q0,5.32,0,10.66C34.06,37.08,34.2,37.15,34.48,37.12ZM45.15,25.31c-.3-.07-.44,0-.44.36q0,5.86,0,11.73c0,.37.15.42.45.35.94,0,1.89,0,2.83,0,.28,0,.38-.1.37-.37,0-.45,0-.9,0-1.34,0-3.41,0-6.82,0-10.24,0-.42-.11-.55-.53-.53C46.93,25.33,46,25.31,45.15,25.31ZM38.36,38.14c1.82,0,3.65,0,5.47,0,.35,0,.35-.21.35-.46q0-7.22,0-14.43c0-.34-.09-.47-.45-.46H38.37c-.48-.1-.69,0-.64.57s.13,1,.13,1.54c0,4.22,0,8.45,0,12.67C37.84,38,37.88,38.26,38.36,38.14ZM37.07,24a.6.6,0,0,0-.62-.27H35.17c-1,0-1.11.14-1.08,1.12,0,.17-.12.44.21.45s.2-.27.21-.44c0-.65.22-.85.88-.85Zm-3,14c0,.11,0,.31.2.33s.23-.2.23-.36.06-.34-.19-.35S34.1,37.75,34.08,37.94Z"/><path class="cls-3" d="M54.22,11.33a1.46,1.46,0,0,0-.07-.19c-.06-.13-.15-.27,0-.4s.27,0,.38,0a.43.43,0,0,0,.46,0c.1-.06.23-.14.34,0s.05.26,0,.38,0,0,0,.05c-.22.28.31.55,0,.78s-.47-.24-.75-.06c-.12.08-.27.16-.4,0s0-.29.05-.44S54.2,11.39,54.22,11.33Z"/><path class="cls-3" d="M18.48,18.83a.51.51,0,0,1,.58-.54.5.5,0,0,1,.54.53.52.52,0,0,1-.56.58C18.67,19.4,18.5,19.19,18.48,18.83Z"/><path class="cls-3" d="M22.32,44.13c-.44.09-.58.62-.79.59s-.45-.43-.67-.67c.32-.12.43-.47.7-.63A1.88,1.88,0,0,0,22.32,44.13Z"/><path class="cls-3" d="M55.25,45.75a.44.44,0,0,1-.46.42.4.4,0,0,1-.41-.45.39.39,0,0,1,.41-.4C55.06,45.31,55.21,45.48,55.25,45.75Z"/><path class="cls-3" d="M24.27,47.42c-.05.21-.16.35-.4.34a.33.33,0,0,1-.34-.38.34.34,0,0,1,.38-.35A.37.37,0,0,1,24.27,47.42Z"/><path class="cls-3" d="M16.89,22.27c-.05.2-.16.35-.39.33a.33.33,0,0,1-.35-.38.34.34,0,0,1,.38-.35C16.75,21.88,16.87,22,16.89,22.27Z"/><path class="cls-3" d="M57.83,15a.33.33,0,0,1-.38.35.31.31,0,0,1-.33-.34.36.36,0,0,1,.71,0Z"/><path class="cls-4" d="M38.37,22.83h5.36c.36,0,.45.12.45.46q0,7.21,0,14.43c0,.25,0,.46-.35.46-1.82,0-3.65,0-5.47,0Q38.36,30.49,38.37,22.83Zm4.22,7.4h0c0-.38,0-.76,0-1.13.11-1.93-.49-2-2-2a1.09,1.09,0,0,0-1.22,1.22c0,1.26,0,2.51,0,3.76a1.1,1.1,0,0,0,1.09,1.19,4.61,4.61,0,0,0,1.23,0,1,1,0,0,0,.94-1.1C42.6,31.51,42.59,30.87,42.59,30.23Z"/><path class="cls-5" d="M45.15,25.31c.89,0,1.78,0,2.68,0,.42,0,.54.11.53.53,0,3.42,0,6.83,0,10.24,0,.44,0,.89,0,1.34,0,.27-.09.37-.37.37-.94,0-1.89,0-2.83,0Q45.15,31.53,45.15,25.31Z"/><path class="cls-6" d="M46.82,11a10.08,10.08,0,0,1,1.77,1.21c0,.16-.13.18-.26.2a7.84,7.84,0,0,1-3.79-.28c-1-.29-1.91-.78-2.91-1a13.65,13.65,0,0,0-6.75.1,14.4,14.4,0,0,0-4.08,1.88,6.2,6.2,0,0,1-2.53,1.41,13.88,13.88,0,0,1-1.59-.08,2.25,2.25,0,0,1,.64-.91,17,17,0,0,1,4.31-2.95,5.35,5.35,0,0,1,2.2-.76,4.32,4.32,0,0,0,2.36-.56,1.49,1.49,0,0,1,.55-.18,16.5,16.5,0,0,1,5.94.35,7.83,7.83,0,0,0,1.85.46h0a3.7,3.7,0,0,0,1.7.79h0c0,.11.12.12.22.12h0A.34.34,0,0,0,46.82,11Z"/><path class="cls-7" d="M34.48,25.72c.82,0,1.64,0,2.47,0,.28,0,.36.1.36.37,0,3.56,0,7.11,0,10.66,0,.28-.09.38-.37.37H34.48c.16-2.76-.26-5.54.33-8.28C35,27.79,34.34,26.79,34.48,25.72Z"/><path class="cls-6" d="M28.71,23.81h.11c0,.05.07.05.11,0h3.65c0,1.23-.16,2.45-.24,3.67a2.76,2.76,0,0,1-.16,1.24,5.17,5.17,0,0,0-.28-.64c-.23-.4-.49-.8-1-.79a1.09,1.09,0,0,0-1,.8,6.48,6.48,0,0,0,0,5.33,1.14,1.14,0,0,0,1.31.78c.18,0,.23.11.19.29a25,25,0,0,1-.83,3H28.71Z"/><path class="cls-8" d="M26.2,23.78c0,2.62,0,5.24,0,7.85a4.49,4.49,0,0,1-2.52,2.8V24.34a1,1,0,0,1,1.07-1.09c.46,0,.93,0,1.39,0C26.15,23.43,26.09,23.61,26.2,23.78Z"/><path class="cls-9" d="M26.68,14.44a13.88,13.88,0,0,0,1.59.08,6.2,6.2,0,0,0,2.53-1.41,14.4,14.4,0,0,1,4.08-1.88,13.65,13.65,0,0,1,6.75-.1c1,.21,1.93.7,2.91,1a7.84,7.84,0,0,0,3.79.28c.13,0,.24,0,.26-.2.43.37.88.73,1.29,1.12a1.36,1.36,0,1,1-1.86,2,14,14,0,0,0-2.83-2.12,13.77,13.77,0,0,0-16.5,2.1,1.28,1.28,0,0,1-1.81.26,1.73,1.73,0,0,1-.21-1.09Z"/><path class="cls-10" d="M52.9,23.25a1,1,0,0,1,.41.93V36.42a1.09,1.09,0,0,1-1.22,1.23l-1.45,0c0-1.42,0-2.85,0-4.27a.49.49,0,0,0,.28-.23A8.36,8.36,0,0,0,52,30.75a22.17,22.17,0,0,0,.74-6.33c0-.39.14-.79-.08-1.16Z"/><path class="cls-9" d="M32.18,28.72a2.76,2.76,0,0,0,.16-1.24c.08-1.22.26-2.44.24-3.67,1.17-.06.94,0,.94.86,0,4.11,0,8.23,0,12.34,0,.46-.14.58-.58.56-.8,0-1.61,0-2.41,0a25,25,0,0,0,.83-3c0-.18,0-.27-.19-.29A2.17,2.17,0,0,0,32.09,33,7.39,7.39,0,0,0,32.18,28.72Z"/><path class="cls-11" d="M21.44,33.55a29.89,29.89,0,0,1,.08-7.26,2.3,2.3,0,0,1,1.05-1.77l.19,0c0,2.71,0,5.42,0,8.13C22.41,33.13,22.15,33.67,21.44,33.55Z"/><path class="cls-11" d="M53.88,32.48V24.41a2.39,2.39,0,0,1,1.23,1.94,30.67,30.67,0,0,1,.11,6.84,3.89,3.89,0,0,1-.09.47,1.68,1.68,0,0,1-1-.72C54.07,32.79,54.13,32.53,53.88,32.48Z"/><path class="cls-10" d="M23.67,34.43a4.49,4.49,0,0,0,2.52-2.8l0,5.71c0,.13,0,.29-.16.29a6.31,6.31,0,0,1-2.21-.12s-.05,0-.07-.08l-.12-.11h0Z"/><path class="cls-10" d="M27.53,23.47a.83.83,0,0,1,.2.69V36.44a1.06,1.06,0,0,1-.84,1.18c0-2.75,0-5.5,0-8.25A23,23,0,0,0,27.53,23.47Z"/><path class="cls-12" d="M44.53,9.89a7.83,7.83,0,0,1-1.85-.46,16.5,16.5,0,0,0-5.94-.35,1.49,1.49,0,0,0-.55.18,4.32,4.32,0,0,1-2.36.56,5.35,5.35,0,0,0-2.2.76,17,17,0,0,0-4.31,2.95,2.25,2.25,0,0,0-.64.91h0c-.22,0-.31-.15-.35-.34a1.26,1.26,0,0,1,.46-.77,16.46,16.46,0,0,1,12.7-4.67,15.47,15.47,0,0,1,4.79,1.06C44.37,9.76,44.48,9.78,44.53,9.89Z"/><path class="cls-13" d="M38.37,22.83q0,7.65,0,15.31c-.48.12-.52-.15-.52-.53,0-4.22,0-8.45,0-12.67,0-.52-.08-1-.13-1.54S37.89,22.73,38.37,22.83Z"/><path class="cls-8" d="M50,23.26q0,5.46,0,10.94c-.28,0-.45.29-.73.33,0-3.31,0-6.63,0-10A1.25,1.25,0,0,1,50,23.26Z"/><path class="cls-14" d="M50.28,16.7l-.48-.58.33-.24c.57-.43.57-.43,1,.15a16.61,16.61,0,0,1,3,7.41,4.38,4.38,0,0,1,0,.52c-.5-.41-.58-1.05-1.06-1.35-.06-.36-.08-.72-.17-1.08a13.53,13.53,0,0,0-2-4.31C50.74,17,50.66,16.67,50.28,16.7Z"/><path class="cls-15" d="M45.16,22.7a15.93,15.93,0,0,1,2.93,0c.22,0,.28.11.26.3a.41.41,0,0,1,0,.11c0,.56.24,1.29-.09,1.65s-1.08.11-1.65.13-1,0-1.44,0C45.17,24.13,45.17,23.41,45.16,22.7Z"/><path class="cls-9" d="M29.46,39.49l3.7,0c.29,0,.37.11.37.38a1,1,0,0,1-.91,1.07c-1.16,0-2.32,0-3.48,0a.45.45,0,0,1-.42-.19v-.61C29,40,29.34,39.84,29.46,39.49Z"/><path class="cls-14" d="M25.49,16c.37-.56.76-.54,1.14,0,.1.15,0,.23-.07.33a15.5,15.5,0,0,0-2.78,5.92.39.39,0,0,1-.19.3,1.56,1.56,0,0,0-.77,1c-.05.19-.16.31-.34.26s0-.22,0-.32c.05-.36.11-.71.17-1.06.51,0,.51-.46.59-.77a15.09,15.09,0,0,1,2.15-4.85A.75.75,0,0,0,25.49,16Z"/><path class="cls-7" d="M34.5,38.71c.8,0,1.61,0,2.41,0,.3,0,.42.09.4.4s0,.79,0,1.18a.59.59,0,0,1-.54.64,8.79,8.79,0,0,1-2.29-.06,2.76,2.76,0,0,0,0-1Z"/><path class="cls-4" d="M38.35,39.91c1.81,0,3.61,0,5.41,0,.46,0,.44.18.26.48a1.17,1.17,0,0,1-1.09.56c-1.33,0-2.67,0-4,0a1.08,1.08,0,0,1-.56-.16C38.36,40.5,38.36,40.21,38.35,39.91Z"/><path class="cls-12" d="M28.71,23.81V37.54c-.3.08-.45,0-.45-.35q0-6.51,0-13C28.26,23.79,28.42,23.75,28.71,23.81Z"/><path class="cls-5" d="M56.86,31.84a4.13,4.13,0,0,1-1.16,2.48A38.32,38.32,0,0,0,55.78,27l0-.1h0a4.51,4.51,0,0,1,.77,1.68A11.28,11.28,0,0,1,56.86,31.84Z"/><path class="cls-14" d="M34.48,25.72c-.14,1.07.55,2.07.33,3.12-.59,2.74-.17,5.52-.33,8.28-.28,0-.42,0-.41-.37q0-5.34,0-10.66C34.06,25.74,34.22,25.7,34.48,25.72Z"/><path class="cls-13" d="M23.67,34.43v2.9a.85.85,0,0,1-.33-.8q0-6.21,0-12.41a1,1,0,0,1,1-1.16c.53-.05,1.07,0,1.61,0,.19,0,.3.08.27.3l-.08,0c-.46,0-.93,0-1.39,0a1,1,0,0,0-1.07,1.09Z"/><path class="cls-12" d="M45.15,25.31q0,6.23,0,12.44c-.3.07-.45,0-.45-.35q0-5.86,0-11.73C44.71,25.3,44.85,25.24,45.15,25.31Z"/><path class="cls-5" d="M20.85,26.9c-.05,1.31-.09,2.63-.18,4a27,27,0,0,0,.32,3.6,3.29,3.29,0,0,1-1-1.63c0-.15.06-.33-.13-.44h0A16.46,16.46,0,0,1,19.81,30,5.6,5.6,0,0,1,20.85,26.9Z"/><path class="cls-15" d="M30.33,38c.93,0,1.85,0,2.78,0,.45,0,.4.3.42.58s-.05.51-.44.5c-1.46,0-2.92,0-4.39,0,.1-.28-.17-.65.22-.86C29.39,38.15,29.89,38.31,30.33,38Z"/><path class="cls-13" d="M26.9,29.37c0,2.75,0,5.5,0,8.25-.22.06-.3,0-.3-.24s0-.47,0-.7c0-4.36,0-8.73,0-13.09,0-.2-.12-.49.09-.59s.48.06.66.24c-.34,0-.46.09-.46.45C26.9,25.59,26.9,27.48,26.9,29.37Z"/><path class="cls-13" d="M50,23.26a1.25,1.25,0,0,0-.76,1.32c0,3.32,0,6.64,0,10,0,.93,0,1.86,0,2.79a.79.79,0,0,1-.32-.74q0-6.27,0-12.53a1,1,0,0,1,.71-1C49.78,23,50,22.91,50,23.26Z"/><path class="cls-15" d="M32.68,22.29l.22,0c.6,0,.81.31.62.91-.06.18-.19.18-.33.18H28.8c0-1,0-1,1-1l1.39,0A4,4,0,0,0,32.68,22.29Z"/><path class="cls-16" d="M40.12,38.7c1.18.08,2.35-.14,3.53-.1.3,0,.54,0,.54.43s-.2.45-.53.45c-1.76,0-3.53,0-5.3,0,0-.73,0-.73.75-.75Z"/><path class="cls-5" d="M48.14,20.89c.35.33.19.77.21,1.16,0,.24-.21.2-.36.2H45.14c0-1.25.15-1.36,1.39-1.36Z"/><path class="cls-13" d="M52.9,23.25H51.4c-.72,0-.76,0-.76.74v7.87c0,.5,0,1,0,1.5,0,1.42,0,2.85,0,4.27-.39,0-.21-.31-.22-.48,0-2.78,0-5.57,0-8.35,0-1.79,0-3.57,0-5.36,0-.39.1-.54.5-.51a11.61,11.61,0,0,0,1.18,0A1,1,0,0,1,52.9,23.25Z"/><path class="cls-15" d="M45.16,38.21c.93,0,1.86,0,2.79,0,.47,0,.42.27.4.55s.16.64-.38.63c-.93,0-1.86,0-2.79,0C45.17,39,45.17,38.59,45.16,38.21Z"/><path class="cls-5" d="M45.15,39.84l2.88,0c.27,0,.36.1.32.35s-.15.62-.45.66a5.77,5.77,0,0,1-2.83-.07C45.23,40.46,45.11,40.15,45.15,39.84Z"/><path class="cls-6" d="M32.79,21.82h-.21a1.23,1.23,0,0,0-1,0H28.71A1.18,1.18,0,0,1,30,20.89H32.7C32.65,21.22,32.86,21.51,32.79,21.82Z"/><path class="cls-16" d="M44.11,21.83c.13.35.11.57-.36.56H38.36c0-.43.17-.55.57-.54,1,0,2.09,0,3.13,0Z"/><path class="cls-8" d="M26.9,29.37c0-1.89,0-3.78,0-5.68,0-.36.12-.49.46-.45a.36.36,0,0,1,.19.23A23,23,0,0,1,26.9,29.37Z"/><path class="cls-14" d="M21.44,33.55c.71.12,1-.42,1.3-.87.1,1,0,2.06,0,3.08,0,.09,0,.2-.07.24s-.2,0-.27-.11a3.09,3.09,0,0,1-.9-1.66C21.49,34,21.47,33.77,21.44,33.55Z"/><path class="cls-14" d="M53.88,32.48c.25.05.19.31.3.46a1.68,1.68,0,0,0,1,.72,3.1,3.1,0,0,1-1.25,2.46Z"/><path class="cls-11" d="M25.49,16a.75.75,0,0,1-.12.84,15.09,15.09,0,0,0-2.15,4.85c-.08.31-.08.75-.59.77A16.07,16.07,0,0,1,25.49,16Z"/><path class="cls-10" d="M49.23,37.32c0-.93,0-1.86,0-2.79.28,0,.45-.32.73-.33,0,1,0,2,0,2.94,0,.16.1.38-.11.48s-.37,0-.52-.19l-.13-.11Z"/><path class="cls-4" d="M43.74,20.84c.13.11.34.21.26.41s-.25.06-.39.06h-5a1.2,1.2,0,0,1,1-.44Z"/><path class="cls-13" d="M43.74,20.84l-4.06,0a1.2,1.2,0,0,0-1,.44l-.1,0c-.22-.06-.6.16-.64-.13s.29-.46.58-.55a1.84,1.84,0,0,1,.47-.07c1.31,0,2.63,0,3.95,0A1.26,1.26,0,0,1,43.74,20.84Z"/><path class="cls-12" d="M32.7,20.9H30a1.18,1.18,0,0,0-1.31.94c-.35.09-.49,0-.44-.41a1,1,0,0,1,.94-.85c1.07,0,2.15,0,3.22,0,.26,0,.45.2.69.25C33,20.93,32.84,20.86,32.7,20.9Z"/><path class="cls-11" d="M50.28,16.7c.38,0,.46.31.61.52a13.53,13.53,0,0,1,2,4.31c.09.36.11.72.17,1.08-.22,0-.23-.21-.26-.35A16.54,16.54,0,0,0,50.28,16.7Z"/><path class="cls-12" d="M48.14,20.89H46.53c-1.24,0-1.35.11-1.39,1.36-.3.06-.43,0-.43-.37,0-1.12.15-1.31,1.26-1.31.48,0,1,0,1.43,0C47.68,20.58,48,20.58,48.14,20.89Z"/><path class="cls-12" d="M20.85,26.9a5.6,5.6,0,0,0-1,3.06,16.46,16.46,0,0,0,.09,2.43c-.74-1.8-.23-4.95,1.07-6.21Z"/><path class="cls-13" d="M37.07,24H35.39c-.66,0-.85.2-.88.85,0,.17.12.44-.21.44s-.21-.28-.21-.45c0-1,.11-1.12,1.08-1.12h1.28A.6.6,0,0,1,37.07,24Z"/><path class="cls-12" d="M56.86,31.84a11.28,11.28,0,0,0-.23-3.28,4.51,4.51,0,0,0-.77-1.68h0l0,.1a1.35,1.35,0,0,1-.09-.69C56.73,26.92,57.38,30.05,56.86,31.84Z"/><path class="cls-5" d="M45.16,22.7c0,.71,0,1.43,0,2.15-.33.07-.48,0-.45-.4a9.84,9.84,0,0,0,0-1.33C44.7,22.77,44.81,22.62,45.16,22.7Z"/><path class="cls-5" d="M31.17,22.37l-1.39,0c-1,0-1,0-1,1-.35.07-.58,0-.53-.44s-.09-.7.51-.65c.8.06,1.6,0,2.4,0C31.18,22.32,31.17,22.35,31.17,22.37Z"/><path class="cls-13" d="M42.06,21.82c-1,0-2.09,0-3.13,0-.4,0-.61.11-.57.54H38c-.25,0-.29-.13-.29-.33s.08-.31.31-.31l4,0Z"/><path class="cls-9" d="M32.7,20.9c.14,0,.3,0,.42-.09a.35.35,0,0,1,.13.08.75.75,0,0,1,.22.82c-.13.28-.45.1-.68.11C32.86,21.51,32.65,21.22,32.7,20.9Z"/><path class="cls-13" d="M40.12,38.7h-1c-.73,0-.73,0-.75.75-.29,0-.53.06-.51-.38s.08-.53.47-.49A7.75,7.75,0,0,1,40.12,38.7Z"/><path class="cls-14" d="M34.5,38.71c0,.4,0,.8,0,1.2-.17,0-.23.16-.36.2,0-.34,0-.67,0-1S34.19,38.66,34.5,38.71Z"/><path class="cls-5" d="M45.16,38.21c0,.38,0,.77,0,1.15-.35.09-.54,0-.45-.4S44.42,38.11,45.16,38.21Z"/><path class="cls-5" d="M28.92,38.17c-.39.21-.12.58-.22.86-.31.07-.47,0-.43-.38a5.65,5.65,0,0,0,0-.59.09.09,0,0,0,.08-.06h.44Z"/><path class="cls-12" d="M28.73,40.12v.61a.88.88,0,0,1-.46-.86c0-.37.13-.46.46-.38Z"/><path class="cls-5" d="M26.32,14.1c0,.19.13.33.35.34a1.73,1.73,0,0,0,.21,1.09A1.21,1.21,0,0,1,26.32,14.1Z"/><path class="cls-13" d="M38.35,39.91c0,.3,0,.59,0,.88a3.21,3.21,0,0,1-.3-.21.48.48,0,0,1-.18-.57C38,39.8,38.19,39.93,38.35,39.91Z"/><path class="cls-12" d="M45.15,39.84c0,.31.08.62-.08.91a.6.6,0,0,1-.34-.56C44.68,39.84,44.81,39.72,45.15,39.84Z"/><path class="cls-6" d="M28.73,40.12v-.63h.74C29.34,39.84,29,40,28.73,40.12Z"/><path class="cls-13" d="M34.1,40.11c.13,0,.19-.22.36-.2a2.76,2.76,0,0,1,0,1A.61.61,0,0,1,34.1,40.11Z"/><path class="cls-13" d="M34.08,37.94c0-.19,0-.4.24-.38s.19.21.19.35.06.38-.23.36S34.11,38.05,34.08,37.94Z"/><path class="cls-12" d="M46.24,10.67a3.7,3.7,0,0,1-1.7-.79A5.72,5.72,0,0,1,46.24,10.67Z"/><path class="cls-9" d="M28.92,38.17,28.83,38h1.5C29.89,38.31,29.39,38.15,28.92,38.17Z"/><path class="cls-10" d="M42.06,21.82v0a10,10,0,0,1,2,0Z"/><path class="cls-9" d="M31.17,22.37s0-.05,0-.07h1.5A4,4,0,0,1,31.17,22.37Z"/><path class="cls-9" d="M31.62,21.83a1.23,1.23,0,0,1,1,0Z"/><path class="cls-10" d="M26.13,23.26l.08,0a1.23,1.23,0,0,1,0,.54C26.09,23.61,26.15,23.43,26.13,23.26Z"/><path class="cls-12" d="M19.88,32.38c.19.11.11.29.13.44C19.88,32.7,19.9,32.54,19.88,32.38Z"/><path class="cls-12" d="M46.82,11a.34.34,0,0,1-.38-.21A.68.68,0,0,1,46.82,11Z"/><path class="cls-14" d="M22.76,24.55l-.19,0c0-.07.08-.11.15-.08S22.75,24.51,22.76,24.55Z"/><path class="cls-12" d="M46.45,10.78c-.1,0-.18,0-.22-.12A.25.25,0,0,1,46.45,10.78Z"/><path class="cls-13" d="M49.23,37.32l.13.11Z"/><path class="cls-9" d="M28.39,38a.09.09,0,0,1-.08.06C28.3,38,28.33,38,28.39,38Z"/><path class="cls-9" d="M28.93,23.81c0,.05-.07.05-.11,0Z"/><path class="cls-13" d="M23.66,37.32l.12.11Z"/><path class="cls-3" d="M42.59,30.23c0,.64,0,1.28,0,1.93a1,1,0,0,1-.94,1.1,4.61,4.61,0,0,1-1.23,0,1.1,1.1,0,0,1-1.09-1.19c0-1.25,0-2.5,0-3.76a1.09,1.09,0,0,1,1.22-1.22c1.55-.06,2.15,0,2,2,0,.37,0,.75,0,1.13Zm-2.71,2.35a2.15,2.15,0,0,0,2,.15.57.57,0,0,0,.23-.4,18.3,18.3,0,0,0,0-3.47c0-.36.17-.86-.3-1.12s-.82-.16-1.23-.18c-.73,0-1,.22-1,.94v3.43A.84.84,0,0,0,39.88,32.58Z"/><path class="cls-3" d="M32.18,28.72A7.39,7.39,0,0,1,32.09,33a2.17,2.17,0,0,1-.91,1.21,1.14,1.14,0,0,1-1.31-.78,6.48,6.48,0,0,1,0-5.33,1.09,1.09,0,0,1,1-.8c.55,0,.81.39,1,.79A5.17,5.17,0,0,1,32.18,28.72Zm-1-.83c-.38-.3-.66-.23-.92.31A5.92,5.92,0,0,0,30,32.54c0,.24.11.41.2.6s.3.61.65.62.58-.3.71-.63a6.48,6.48,0,0,0,.12-4.49A1.25,1.25,0,0,0,31.2,27.89Z"/><path class="cls-8" d="M50.68,33.36c0-.5,0-1,0-1.5V24c0-.71,0-.74.76-.74h1.29c.22.37.08.77.08,1.16A22.17,22.17,0,0,1,52,30.75,8.36,8.36,0,0,1,51,33.13.49.49,0,0,1,50.68,33.36Z"/><path class="cls-16" d="M41.9,27.74c.47.26.28.76.3,1.12a18.3,18.3,0,0,1,0,3.47.57.57,0,0,1-.23.4,2.15,2.15,0,0,1-2-.15c0-1.29,0-2.57,0-3.86,0-.72.27-1,1-1Z"/><path class="cls-13" d="M41.9,27.74h-1c-.71,0-1,.25-1,1,0,1.29,0,2.57,0,3.86a.84.84,0,0,1-.18-.65V28.5c0-.72.24-1,1-.94C41.08,27.58,41.53,27.39,41.9,27.74Z"/><path class="cls-15" d="M31.2,27.89a1.25,1.25,0,0,1,.48.75,6.48,6.48,0,0,1-.12,4.49c-.13.33-.31.65-.71.63s-.53-.32-.65-.62-.24-.36-.2-.6a11.93,11.93,0,0,1,0-2.39C30.23,29.3,30.23,28.34,31.2,27.89Z"/><path class="cls-9" d="M31.2,27.89c-1,.45-1,1.41-1.19,2.26a11.93,11.93,0,0,0,0,2.39,5.92,5.92,0,0,1,.28-4.34C30.54,27.66,30.82,27.59,31.2,27.89Z"/></svg>
