<svg id="Calque_1" data-name="Calque 1" xmlns="http://www.w3.org/2000/svg" viewBox="0 0 73.98 101.78"><defs><style>.cls-1{fill:#d1d2d4;}.cls-2{font-size:19.05px;font-family:IntroScriptR-H2Base, Intro Script R;}.cls-2,.cls-6{fill:#fff;}.cls-3{letter-spacing:0em;}.cls-4{fill:#f59a1c;}.cls-5{fill:#11aea2;}.cls-7{fill:#46b2e6;}.cls-8{fill:#147b34;}.cls-9{fill:#b2341a;}.cls-10{fill:#257ec2;}.cls-11{fill:#819880;}.cls-12{fill:#b74a3a;}.cls-13{fill:#725248;}.cls-14{fill:#86ac49;}</style></defs><title>Icônes Activité-kids</title><rect fill-opacity="0" stroke="none" class="cls-1" x="-12.04" y="-6.81" width="92.44" height="127.41"/><text class="cls-2" transform="translate(19.28 62.51) rotate(0.12)"><tspan class="cls-3">J</tspan><tspan x="9.26" y="0">eux</tspan><tspan x="-9.48" y="22.86">en ligne</tspan></text><path d="M45,30a2.5,2.5,0,0,0,.39-.17c1.14-.79,2.27-1.59,3.4-2.39.36-.26.37-.54,0-.82s-.86-.67-1.28-1l-2.33-2a.67.67,0,0,0-.93-.08L40.91,25.8c-.35.24-.37.51,0,.79.57.49,1.16,1,1.73,1.45s1.29,1.14,1.95,1.7A2.84,2.84,0,0,0,45,30ZM49.42,19.9a.87.87,0,0,0-.28.08c-.35.23-.68.47-1,.7l-2.32,1.6a.32.32,0,0,0,0,.53c.6.48,1.2,1,1.8,1.46s1.3,1.1,2,1.64a.78.78,0,0,0,1.19,0l3.05-2.24c.27-.2.29-.33,0-.56s-.58-.5-.89-.74c-.88-.7-1.77-1.4-2.67-2.09A1.09,1.09,0,0,0,49.42,19.9Zm-8.84,9.65a3.93,3.93,0,0,0-.06-.48c-.27-1.17-.56-2.34-.83-3.51-.09-.37-.21-.45-.59-.36a1,1,0,0,0-.3.14l-3.72,2.29a.63.63,0,0,0-.34.81c.35,1.32.74,2.63,1,4,.1.42.46.49.81.24,1.1-.76,2.23-1.49,3.33-2.25C40.24,30.18,40.7,30.05,40.58,29.55ZM33.72,14.27a4.08,4.08,0,0,0-.54.19c-1.17.71-2.34,1.42-3.5,2.14-.29.18-.3.27,0,.5l1,.83,2.57,2.21a.71.71,0,0,0,.87.07l1.5-1,2-1.32a.35.35,0,0,0,.11-.56l-.66-.55c-.9-.72-1.78-1.45-2.69-2.17A5.14,5.14,0,0,0,33.72,14.27ZM44.2,15.62a3.58,3.58,0,0,0-.49.2c-.3.17-.58.36-.87.54l-2.38,1.48c-.25.16-.27.3-.05.5s.7.61,1.07.9c.87.72,1.76,1.42,2.63,2.14a.63.63,0,0,0,.9,0c.25-.18.52-.34.78-.51l2.5-1.65a.36.36,0,0,0,.05-.55c-.19-.16-.38-.32-.58-.47C46.84,17.5,45.91,16.76,45,16,44.76,15.87,44.58,15.61,44.2,15.62ZM39.07,18.7a4.6,4.6,0,0,0-.52.23l-3.44,2.15c-.31.19-.34.43-.08.67s.46.44.71.64a2.59,2.59,0,0,0,.65.4c.84.31,1.7.6,2.54.9a2.24,2.24,0,0,1,1.13.71.3.3,0,0,0,.24,0c.93-.6,1.85-1.2,2.76-1.82a.44.44,0,0,0,.06-.73c-.18-.17-.39-.31-.58-.47-.94-.76-1.87-1.53-2.82-2.28C39.52,19,39.3,18.85,39.07,18.7Zm4-4.17A.76.76,0,0,0,43,14.3c-.51-.42-1-.83-1.55-1.24l-2.11-1.65c-.28-.23-.42-.27-.74-.09L35,13.43c-.23.14-.23.3,0,.45s.56.41.83.63l2.79,2.27a.68.68,0,0,0,.82,0l1.64-1ZM37.91,38.48c.3-.16.55-.27.78-.41s.61-.45.91-.67c.7-.51,1.39-1,2.11-1.52a.85.85,0,0,0,.37-1c-.27-1.16-.57-2.32-.87-3.48-.06-.24-.22-.32-.48-.23a1.12,1.12,0,0,0-.24.13c-1.07.73-2.12,1.49-3.2,2.2a.89.89,0,0,0-.43,1.12C37.22,35.85,37.54,37.11,37.91,38.48Zm5.44,2.28a3.47,3.47,0,0,0-.06-.45c-.21-1-.43-1.89-.64-2.83-.17-.77-.39-.64-.92-.28l0,0c-1,.67-2,1.35-3,2-.72.48-.87.72-.71,1.31l.86,3.08c.15.54.24.57.72.24l.23-.14,2.88-2.08C43.05,41.4,43.47,41.24,43.35,40.76ZM38.47,24l-.24-.07-3-1.21a1.58,1.58,0,0,0-1.48.06L30,25c-.29.18-.27.39,0,.53s.56.24.85.35l2.51,1a1,1,0,0,0,.94-.05c.24-.13.47-.28.69-.42,1.1-.69,2.18-1.39,3.29-2.06C38.5,24.28,38.5,24.15,38.47,24Zm-9.18,2.32-.08.1a2.43,2.43,0,0,0,.08.47c.39,1.23.78,2.46,1.18,3.69a1.27,1.27,0,0,0,.76.84l3.3,1.37c.12,0,.25,0,.48.1-.1-.39-.16-.71-.26-1-.34-1.19-.7-2.39-1-3.58a.82.82,0,0,0-.54-.6c-1-.35-1.93-.73-2.9-1.08A9.92,9.92,0,0,0,29.29,26.27Zm-1-1.36a3.89,3.89,0,0,0,.64-.25c.52-.3,1-.63,1.54-.95l2.35-1.46A.52.52,0,0,0,33,22s-.13-.13-.22-.17c-1-.36-2-.75-3-1.06a1.65,1.65,0,0,0-1.1,0c-1.32.72-2.59,1.52-3.87,2.29-.23.14-.21.36,0,.48l.19.09,2.12.86ZM37,38.85a3.58,3.58,0,0,0-.05-.45c-.34-1.21-.68-2.42-1-3.62a.87.87,0,0,0-.56-.66c-1.11-.46-2.2-1-3.29-1.45a1.21,1.21,0,0,0-.32-.11c-.16,0-.27,0-.26.19a1.37,1.37,0,0,0,.05.28c.32,1.19.66,2.37,1,3.56a1,1,0,0,0,.6.68c1.12.5,2.24,1,3.36,1.46A2.29,2.29,0,0,0,37,38.85ZM19.86,21.62a3.77,3.77,0,0,0,.41.25c.86.34,1.72.69,2.59,1a1.26,1.26,0,0,0,1.07-.06l3.76-2.17a.27.27,0,0,0,0-.49L27.38,20c-.72-.26-1.44-.51-2.15-.79a1.41,1.41,0,0,0-1.19,0c-.46.24-.9.5-1.35.75Zm4.5,3a1.79,1.79,0,0,0,.05.36c.43,1.24.84,2.49,1.31,3.72a1.21,1.21,0,0,0,.59.61c.93.44,1.88.81,2.83,1.2a1.94,1.94,0,0,0,.47.1,1.89,1.89,0,0,0,0-.44l-1.17-3.58a1.19,1.19,0,0,0-.77-.82c-.86-.3-1.69-.66-2.54-1C24.89,24.76,24.65,24.73,24.36,24.66Zm7.12,11.71.06-.06c-.12-.43-.25-.85-.37-1.28-.23-.83-.47-1.66-.69-2.5a1.05,1.05,0,0,0-.66-.75c-.92-.38-1.83-.81-2.74-1.2a2.72,2.72,0,0,0-.49-.13,1.35,1.35,0,0,0,0,.49c.34,1.11.69,2.21,1.07,3.31a1.13,1.13,0,0,0,.5.54c.87.46,1.77.9,2.66,1.33A6.63,6.63,0,0,0,31.48,36.37Zm1.58,1.76c0,.22,0,.34.06.46.28,1,.57,2,.86,3a1,1,0,0,0,.53.67l2.6,1.43c.27.15.56.29.83.43l.08-.06c0-.21-.06-.42-.12-.63-.26-.92-.56-1.82-.78-2.74a1.54,1.54,0,0,0-.95-1.07c-.56-.26-1.11-.55-1.66-.82ZM19.91,22.75a2.38,2.38,0,0,0,0,.61c.38,1.15.76,2.29,1.18,3.42a1.17,1.17,0,0,0,.57.59c.83.39,1.7.73,2.55,1.07a1.1,1.1,0,0,0,.31,0,1,1,0,0,0,0-.29c-.12-.39-.24-.78-.37-1.17l-.87-2.57a1,1,0,0,0-.63-.65l-1.51-.58C20.78,23.06,20.37,22.92,19.91,22.75ZM33,41.61a2.55,2.55,0,0,0,0-.36c-.32-1.09-.64-2.19-1-3.28a1,1,0,0,0-.6-.68c-.78-.36-1.54-.75-2.32-1.12-.3-.15-.61-.27-1-.43a3.11,3.11,0,0,0,.08.55c.31,1,.64,2,.95,3a1.14,1.14,0,0,0,.59.7c.94.52,1.9,1,2.85,1.52A2.18,2.18,0,0,0,33,41.61ZM26.5,34a1.18,1.18,0,0,0,0-.28c-.33-1.08-.66-2.16-1-3.24a1.13,1.13,0,0,0-.58-.8q-1.29-.54-2.61-1.05a.41.41,0,0,0-.31,0,.3.3,0,0,0,0,.28c.37,1.07.75,2.14,1.15,3.2a1.15,1.15,0,0,0,.49.63c.92.44,1.87.82,2.82,1.23Zm1.55,5.08a1.27,1.27,0,0,0,0-.35c-.34-1.11-.69-2.21-1.05-3.31a.79.79,0,0,0-.29-.4c-.82-.45-1.66-.87-2.5-1.3a6.62,6.62,0,0,0-.67-.27c0,.14,0,.22.08.29.31,1,.65,1.89.92,2.84a1.73,1.73,0,0,0,.93,1.1l1.06.58Zm16-5.34.08.05.84-.58,2.11-1.52a2.84,2.84,0,0,0,.82-.7c.51-.86.94-1.76,1.4-2.65,0-.06,0-.14.07-.22a4.33,4.33,0,0,0-.73.46c-1,.69-2,1.37-3,2.09a2.08,2.08,0,0,0-.56.69c-.23.42-.42.86-.61,1.3S44.17,33.37,44,33.73ZM54.27,24.6l-.07-.07-.86.63c-.64.48-1.29.95-1.93,1.44a2.76,2.76,0,0,0-1,1c-.27.6-.59,1.18-.88,1.78-.12.24-.22.49-.34.78l.15-.05c.87-.61,1.72-1.23,2.61-1.8A2.86,2.86,0,0,0,53,27.06c.34-.69.72-1.36,1.07-2C54.16,24.88,54.21,24.74,54.27,24.6ZM43,37l.44-.32c.61-.44,1.23-.87,1.82-1.34.37-.29.85-.48,1-1,.13-.32.32-.63.48-1L47.46,32a1.49,1.49,0,0,0-.48.21c-.82.59-1.64,1.17-2.45,1.77-.52.39-1.14.72-1.31,1.4a4,4,0,0,1-.3.71A.89.89,0,0,0,43,37Zm9.27-8.41a1,1,0,0,0-.23.09c-.83.57-1.66,1.13-2.48,1.72-.36.26-.8.45-1,.89-.37.76-.79,1.51-1.19,2.27a2.34,2.34,0,0,0-.11.28l.4-.23c.85-.6,1.72-1.19,2.56-1.8.32-.23.7-.42.82-.82a3.55,3.55,0,0,1,.21-.44ZM43,37.4l.29,1.27c.32-.23.65-.44.94-.68a3.57,3.57,0,0,0,.61-.62,3.26,3.26,0,0,0,.31-.62l.54-1.19-.07-.06Z"/><path class="cls-4" d="M45,30a2.84,2.84,0,0,1-.46-.24c-.66-.56-1.29-1.14-1.95-1.7s-1.16-1-1.73-1.45c-.32-.28-.3-.55,0-.79l3.37-2.29a.67.67,0,0,1,.93.08l2.33,2c.42.35.85.68,1.28,1s.33.56,0,.82c-1.13.8-2.26,1.6-3.4,2.39A2.5,2.5,0,0,1,45,30Z"/><path class="cls-5" d="M49.42,19.9a1.09,1.09,0,0,1,.83.4c.9.69,1.79,1.39,2.67,2.09.31.24.61.49.89.74s.24.36,0,.56l-3.05,2.24a.78.78,0,0,1-1.19,0c-.66-.54-1.3-1.1-2-1.64s-1.2-1-1.8-1.46a.32.32,0,0,1,0-.53l2.32-1.6c.33-.23.66-.47,1-.7A.87.87,0,0,1,49.42,19.9Z"/><path class="cls-6" d="M40.58,29.55c.12.5-.34.63-.65.84-1.1.76-2.23,1.49-3.33,2.25-.35.25-.71.18-.81-.24-.31-1.33-.7-2.64-1-4a.63.63,0,0,1,.34-.81l3.72-2.29a1,1,0,0,1,.3-.14c.38-.09.5,0,.59.36.27,1.17.56,2.34.83,3.51A3.93,3.93,0,0,1,40.58,29.55Z"/><path class="cls-7" d="M33.72,14.27a5.14,5.14,0,0,1,.64.38c.91.72,1.79,1.45,2.69,2.17l.66.55a.35.35,0,0,1-.11.56l-2,1.32-1.5,1a.71.71,0,0,1-.87-.07l-2.57-2.21-1-.83c-.26-.23-.25-.32,0-.5,1.16-.72,2.33-1.43,3.5-2.14A4.08,4.08,0,0,1,33.72,14.27Z"/><path class="cls-8" d="M44.2,15.62c.38,0,.56.25.78.42.93.72,1.86,1.46,2.78,2.19.2.15.39.31.58.47a.36.36,0,0,1-.05.55l-2.5,1.65c-.26.17-.53.33-.78.51a.63.63,0,0,1-.9,0c-.87-.72-1.76-1.42-2.63-2.14-.37-.29-.72-.59-1.07-.9s-.2-.34.05-.5l2.38-1.48c.29-.18.57-.37.87-.54A3.58,3.58,0,0,1,44.2,15.62Z"/><path class="cls-9" d="M39.07,18.7c.23.15.45.28.65.44,1,.75,1.88,1.52,2.82,2.28.19.16.4.3.58.47a.44.44,0,0,1-.06.73c-.91.62-1.83,1.22-2.76,1.82a.3.3,0,0,1-.24,0,2.24,2.24,0,0,0-1.13-.71c-.84-.3-1.7-.59-2.54-.9a2.59,2.59,0,0,1-.65-.4c-.25-.2-.48-.42-.71-.64s-.23-.48.08-.67l3.44-2.15A4.6,4.6,0,0,1,39.07,18.7Z"/><path class="cls-10" d="M43.1,14.53,41,15.82l-1.64,1a.68.68,0,0,1-.82,0l-2.79-2.27c-.27-.22-.55-.42-.83-.63s-.21-.31,0-.45l3.62-2.11c.32-.18.46-.14.74.09l2.11,1.65c.52.41,1,.82,1.55,1.24A.76.76,0,0,1,43.1,14.53Z"/><path class="cls-6" d="M37.91,38.48c-.37-1.37-.69-2.63-1-3.88a.89.89,0,0,1,.43-1.12c1.08-.71,2.13-1.47,3.2-2.2a1.12,1.12,0,0,1,.24-.13c.26-.09.42,0,.48.23.3,1.16.6,2.32.87,3.48a.85.85,0,0,1-.37,1c-.72.48-1.41,1-2.11,1.52-.3.22-.6.46-.91.67S38.21,38.32,37.91,38.48Z"/><path class="cls-6" d="M43.35,40.76c.12.48-.3.64-.61.87l-2.88,2.08-.23.14c-.48.33-.57.3-.72-.24l-.86-3.08c-.16-.59,0-.83.71-1.31,1-.65,2-1.33,3-2l0,0c.53-.36.75-.49.92.28.21.94.43,1.88.64,2.83A3.47,3.47,0,0,1,43.35,40.76Z"/><path class="cls-6" d="M38.47,24c0,.2,0,.33-.19.46-1.11.67-2.19,1.37-3.29,2.06-.22.14-.45.29-.69.42a1,1,0,0,1-.94.05l-2.51-1c-.29-.11-.57-.22-.85-.35s-.33-.35,0-.53l3.75-2.29a1.58,1.58,0,0,1,1.48-.06l3,1.21Z"/><path class="cls-4" d="M29.29,26.27a9.92,9.92,0,0,1,1,.29c1,.35,1.93.73,2.9,1.08a.82.82,0,0,1,.54.6c.35,1.19.71,2.39,1,3.58.1.31.16.63.26,1-.23-.05-.36-.06-.48-.1l-3.3-1.37a1.27,1.27,0,0,1-.76-.84c-.4-1.23-.79-2.46-1.18-3.69a2.43,2.43,0,0,1-.08-.47Z"/><path class="cls-6" d="M28.27,24.91l-1.09-.41-2.12-.86-.19-.09c-.25-.12-.27-.34,0-.48,1.28-.77,2.55-1.57,3.87-2.29a1.65,1.65,0,0,1,1.1,0c1,.31,2,.7,3,1.06.09,0,.23.13.22.17a.52.52,0,0,1-.19.27l-2.35,1.46c-.52.32-1,.65-1.54.95A3.89,3.89,0,0,1,28.27,24.91Z"/><path class="cls-11" d="M37,38.85a2.29,2.29,0,0,1-.5-.12c-1.12-.48-2.24-1-3.36-1.46a1,1,0,0,1-.6-.68c-.32-1.19-.66-2.37-1-3.56a1.37,1.37,0,0,1-.05-.28c0-.17.1-.22.26-.19a1.21,1.21,0,0,1,.32.11c1.09.48,2.18,1,3.29,1.45a.87.87,0,0,1,.56.66c.33,1.2.67,2.41,1,3.62A3.58,3.58,0,0,1,37,38.85Z"/><path class="cls-6" d="M19.86,21.62,22.69,20c.45-.25.89-.51,1.35-.75a1.41,1.41,0,0,1,1.19,0c.71.28,1.43.53,2.15.79l.31.13a.27.27,0,0,1,0,.49l-3.76,2.17a1.26,1.26,0,0,1-1.07.06c-.87-.31-1.73-.66-2.59-1A3.77,3.77,0,0,1,19.86,21.62Z"/><path class="cls-12" d="M24.36,24.66c.29.07.53.1.74.17.85.32,1.68.68,2.54,1a1.19,1.19,0,0,1,.77.82l1.17,3.58a1.89,1.89,0,0,1,0,.44,1.94,1.94,0,0,1-.47-.1c-.95-.39-1.9-.76-2.83-1.2a1.21,1.21,0,0,1-.59-.61c-.47-1.23-.88-2.48-1.31-3.72A1.79,1.79,0,0,1,24.36,24.66Z"/><path class="cls-13" d="M31.48,36.37a6.63,6.63,0,0,1-.67-.25c-.89-.43-1.79-.87-2.66-1.33a1.13,1.13,0,0,1-.5-.54c-.38-1.1-.73-2.2-1.07-3.31a1.35,1.35,0,0,1,0-.49,2.72,2.72,0,0,1,.49.13c.91.39,1.82.82,2.74,1.2a1.05,1.05,0,0,1,.66.75c.22.84.46,1.67.69,2.5.12.43.25.85.37,1.28Z"/><path class="cls-5" d="M33.06,38.13l1.45.68c.55.27,1.1.56,1.66.82a1.54,1.54,0,0,1,.95,1.07c.22.92.52,1.82.78,2.74.06.21.08.42.12.63l-.08.06c-.27-.14-.56-.28-.83-.43l-2.6-1.43A1,1,0,0,1,34,41.6c-.29-1-.58-2-.86-3C33.09,38.47,33.09,38.35,33.06,38.13Z"/><path class="cls-8" d="M19.91,22.75c.46.17.87.31,1.27.47l1.51.58a1,1,0,0,1,.63.65L24.19,27c.13.39.25.78.37,1.17a1,1,0,0,1,0,.29,1.1,1.1,0,0,1-.31,0c-.85-.34-1.72-.68-2.55-1.07a1.17,1.17,0,0,1-.57-.59c-.42-1.13-.8-2.27-1.18-3.42A2.38,2.38,0,0,1,19.91,22.75Z"/><path class="cls-10" d="M33,41.61a2.18,2.18,0,0,1-.42-.12c-1-.5-1.91-1-2.85-1.52a1.14,1.14,0,0,1-.59-.7c-.31-1-.64-2-.95-3a3.11,3.11,0,0,1-.08-.55c.38.16.69.28,1,.43.78.37,1.54.76,2.32,1.12A1,1,0,0,1,32,38c.31,1.09.63,2.19,1,3.28A2.55,2.55,0,0,1,33,41.61Z"/><path class="cls-14" d="M26.5,34h-.12c-.95-.41-1.9-.79-2.82-1.23a1.15,1.15,0,0,1-.49-.63c-.4-1.06-.78-2.13-1.15-3.2a.3.3,0,0,1,0-.28.41.41,0,0,1,.31,0q1.32.51,2.61,1.05a1.13,1.13,0,0,1,.58.8c.35,1.08.68,2.16,1,3.24A1.18,1.18,0,0,1,26.5,34Z"/><path class="cls-7" d="M28.05,39.07l-1.53-.82-1.06-.58a1.73,1.73,0,0,1-.93-1.1c-.27-1-.61-1.89-.92-2.84,0-.07,0-.15-.08-.29a6.62,6.62,0,0,1,.67.27c.84.43,1.68.85,2.5,1.3a.79.79,0,0,1,.29.4c.36,1.1.71,2.2,1.05,3.31A1.27,1.27,0,0,1,28.05,39.07Z"/><path class="cls-6" d="M44,33.73c.15-.36.3-.72.47-1.08s.38-.88.61-1.3a2.08,2.08,0,0,1,.56-.69c1-.72,2-1.4,3-2.09a4.33,4.33,0,0,1,.73-.46c0,.08,0,.16-.07.22-.46.89-.89,1.79-1.4,2.65a2.84,2.84,0,0,1-.82.7L44.94,33.2l-.84.58Z"/><path class="cls-6" d="M54.27,24.6c-.06.14-.11.28-.18.41-.35.69-.73,1.36-1.07,2A2.86,2.86,0,0,1,52,28.27c-.89.57-1.74,1.19-2.61,1.8l-.15.05c.12-.29.22-.54.34-.78.29-.6.61-1.18.88-1.78a2.76,2.76,0,0,1,1-1c.64-.49,1.29-1,1.93-1.44l.86-.63Z"/><path class="cls-6" d="M43,37a.89.89,0,0,1,0-.9,4,4,0,0,0,.3-.71c.17-.68.79-1,1.31-1.4.81-.6,1.63-1.18,2.45-1.77a1.49,1.49,0,0,1,.48-.21l-.72,1.42c-.16.32-.35.63-.48,1-.18.48-.66.67-1,1-.59.47-1.21.9-1.82,1.34Z"/><path class="cls-6" d="M52.24,28.55l-1,2A3.55,3.55,0,0,0,51,31c-.12.4-.5.59-.82.82-.84.61-1.71,1.2-2.56,1.8l-.4.23a2.34,2.34,0,0,1,.11-.28c.4-.76.82-1.51,1.19-2.27.21-.44.65-.63,1-.89.82-.59,1.65-1.15,2.48-1.72A1,1,0,0,1,52.24,28.55Z"/><path class="cls-6" d="M45.91,37l-.37.13c.06-.12.1-.24.16-.36a19.81,19.81,0,0,1,1-1.94,3.61,3.61,0,0,1,1-.84c.71-.52,1.44-1,2.16-1.5a.7.7,0,0,1,.35-.14c-.43.8-.82,1.62-1.31,2.39a3.42,3.42,0,0,1-.93.73c-.59.41-1.19.81-1.77,1.22a1.63,1.63,0,0,0-.27.31Z"/><path class="cls-6" d="M43,37.4l2.62-1.9.07.06-.54,1.19a3.26,3.26,0,0,1-.31.62,3.57,3.57,0,0,1-.61.62c-.29.24-.62.45-.94.68Z"/></svg>
