<svg id="Calque_1" data-name="Calque 1" xmlns="http://www.w3.org/2000/svg" viewBox="0 0 97.09 88.74"><defs><style>.cls-1{fill:#d1d2d4;}.cls-2{font-size:19.05px;fill:#fff;font-family:IntroScriptR-H2Base, Intro Script R;}.cls-3{fill:#2b3469;}.cls-4{fill:#323b71;}.cls-5{fill:#95c357;}.cls-6{fill:#3fa1db;}.cls-7{fill:#fcc82d;}.cls-8{fill:#ea582e;}.cls-9{fill:#cfa838;}.cls-10{fill:#b74a3a;}.cls-11{fill:#257ec2;}.cls-12{fill:#f5e2a3;}.cls-13{fill:#a4d5f3;}.cls-14{fill:#ccd0e0;}.cls-15{fill:#f6b333;}.cls-16{fill:#c8963d;}.cls-17{fill:#dfa537;}</style></defs><title>Icônes Activité-kids</title><rect fill-opacity="0" stroke="none" class="cls-1" x="-12.04" y="-6.81" width="116.74" height="99.56"/><text class="cls-2" transform="translate(5.26 82.37)">Récompense</text><path class="cls-3" d="M34.43,23.07a4.88,4.88,0,0,1,5-5.32,2.74,2.74,0,0,0,2.64-1.44,4.87,4.87,0,0,1,7.25-1.24,2.47,2.47,0,0,0,2.72.37,4.84,4.84,0,0,1,6.7,3.15,2.65,2.65,0,0,0,2.08,2,4.85,4.85,0,0,1,3.48,6.53,2.48,2.48,0,0,0,.5,2.7,4.89,4.89,0,0,1-.8,7.27,4.4,4.4,0,0,0-.64.47,1.5,1.5,0,0,0-.41,2c1.82,3.71,3.55,7.46,5.34,11.18a2.33,2.33,0,0,1-.19,2.67,2.29,2.29,0,0,1-2.62.77c-1.24-.34-2.49-.63-3.71-1-.49-.14-.7-.06-.9.42-.44,1.09-1,2.16-1.42,3.26a2.42,2.42,0,0,1-4.65,0c-1.09-2.5-2.23-5-3.33-7.48a.78.78,0,0,0-.82-.59,4.61,4.61,0,0,1-2.94-1.1,3.81,3.81,0,0,0-.41-.29c-.43-.3-.69-.3-.94.28-1.34,3.09-2.74,6.15-4.1,9.23a2.4,2.4,0,0,1-4.6,0c-.48-1.16-1-2.3-1.52-3.45-.15-.36-.29-.44-.68-.33-1.27.37-2.57.68-3.85,1A2.32,2.32,0,0,1,29,53.4a2.35,2.35,0,0,1-.2-2.67c1.54-3.19,3.05-6.39,4.58-9.57a.83.83,0,0,0-.06-1,4.69,4.69,0,0,1-.53-4.48A2.52,2.52,0,0,0,32.26,33a4.86,4.86,0,0,1,.88-7.26A2.47,2.47,0,0,0,34.43,23.07Zm6,22.1a.51.51,0,0,0,.3.34,3.27,3.27,0,0,0,3.69.67,3.9,3.9,0,0,1,4.32.57,3.45,3.45,0,0,0,5.06-.82,4.25,4.25,0,0,1,4.12-2.21A3.48,3.48,0,0,0,61.34,40a3.92,3.92,0,0,1,1.87-4,3.49,3.49,0,0,0,.43-5.44l0,0-.2-.23-.45-.8a5.4,5.4,0,0,1,.18-3.13,3.14,3.14,0,0,0-.87-3.44l-.12-.13a1.69,1.69,0,0,0-.83-.64c-.69-.25-1.39-.47-2.08-.7a4.26,4.26,0,0,1-1.58-1.81,3.66,3.66,0,0,0-1.21-2.27l-.05,0a3.19,3.19,0,0,0-3.63-.75,4.39,4.39,0,0,1-3.37.17h0c0-.13-.18-.15-.3-.18l-.37-.24a3.52,3.52,0,0,0-5.44.53,4.16,4.16,0,0,1-4,2.2,3.46,3.46,0,0,0-3.49,3.7,4.07,4.07,0,0,1-1.95,4.1A3.44,3.44,0,0,0,33.27,32h0l.15.2.38.51L34,33h0a4.77,4.77,0,0,1,0,3.39A3.29,3.29,0,0,0,34.88,40a2.91,2.91,0,0,0,1.56.9,6.13,6.13,0,0,1,1.82.72,7.29,7.29,0,0,1,1,1.12c.42.81.39,1.82,1.19,2.44Zm-2-.55v0a2.33,2.33,0,0,0-1.72-2.25L35.42,42c-.32,0-.61-.79-.94-.1q-2.31,4.76-4.55,9.54c-.32.69-.1,1.12.62,1.45.33.21.65,0,.94-.07,1.74-.44,3.46-.9,5.19-1.36l2.21,4.94c.21.46.45.91,1.06.9s.86-.41,1.08-.89c1.13-2.56,2.28-5.12,3.42-7.68l.62-1.35a5.44,5.44,0,0,1-4.94-.5h0L40,46.73a6.5,6.5,0,0,1-1.48-2ZM62,42.88a5.36,5.36,0,0,1-4.88,2.19,1.45,1.45,0,0,0-1.27.52,1,1,0,0,0-.51.47,6.08,6.08,0,0,1-2.13,2.23c-.44.09-.63.23-.39.75,1.13,2.47,2.22,5,3.34,7.43.42.93,1,1.07,1.76.45a6.42,6.42,0,0,0,.37-.68c.72-1.6,1.43-3.2,2.15-4.79l.41.09c1.82.43,3.6,1,5.44,1.36.93-.1,1.27-.64.88-1.52-.61-1.34-1.25-2.66-1.88-4-.9-1.9-1.82-3.79-2.77-5.77Z"/><path class="cls-4" d="M73.27,37.7a3,3,0,0,0-.7,1c-.22.54-.44,1.09.46,1.25a.82.82,0,0,1,.41.26c.29.3.59.63.25,1.05s-.79.35-1.2.06c-.1-.07-.16-.17-.26-.25s-.12-.66-.44-.63-.56.41-.75.71-.26.51-.39.76-.15.27-.33.2-.18-.24-.11-.41a3.17,3.17,0,0,1,1.27-1.67.7.7,0,0,0,.39-.61A3.39,3.39,0,0,1,73,37.25c.23-.19.18-.41.2-.64.25-2.48,2.24-2.94,4-2.71.18,0,.33.12.28.33s-.23.19-.4.16a4.07,4.07,0,0,0-1.63.06,2.24,2.24,0,0,0-1.75,1.85c-.08.4,0,.5.4.38,1.06-.3,1.68,0,2.06.72a1,1,0,0,1-.12,1.26,1.39,1.39,0,0,1-1.52.31A2.1,2.1,0,0,1,73.27,37.7Zm1.5-.66c-.31.11-.85,0-1,.52s.78,1,1.31,1,.76-.16.76-.66A1,1,0,0,0,74.77,37Zm-2.32,3.33a.77.77,0,0,0,.6.75c.13,0,.29-.08.28-.17a.94.94,0,0,0-.71-.62S72.53,40.35,72.45,40.37Z"/><path class="cls-4" d="M23.68,26.79c-.77,1.16-1.63,1.56-2.41,1.14a.92.92,0,0,1-.48-1.25c.32-.91.92-1.13,2.29-.82a2,2,0,0,0-1.86-2.09,10.15,10.15,0,0,0-1.35,0c-.14,0-.3,0-.34-.16s0-.24.22-.31a3,3,0,0,1,3.81,2,2.35,2.35,0,0,0,.63,1.36c.54.52.54,1.38.89,2s1.08.88,1.37,1.56c.09.21.31.47,0,.62s-.34-.21-.46-.38-.23-.42-.37-.6c-.46-.61-.55-.6-1,0a1,1,0,0,1-.66.5.75.75,0,0,1-.77-.25.57.57,0,0,1,.06-.78,1.61,1.61,0,0,1,.47-.43c.75-.46.8-.62.36-1.42C24,27.27,23.86,27.06,23.68,26.79Zm-1.9.8c.51.05,1.35-.51,1.32-.91s-.5-.41-.81-.47a.89.89,0,0,0-1.08.76C21.17,27.39,21.46,27.53,21.78,27.59Zm2.67,1.53c-.41.2-.71.28-.79.63,0,.12.09.16.18.15C24.24,29.87,24.34,29.59,24.45,29.12Z"/><path class="cls-5" d="M46.72,11.16a.59.59,0,0,1-.54-.86,3.45,3.45,0,0,1,2-1.65c.24-.08.54-.19.6.22s.33.61-.25.76a2.49,2.49,0,0,0-1.51,1.21C47,11,46.93,11.16,46.72,11.16Z"/><path class="cls-6" d="M24.28,39.42c0,.6-.35.78-.86.51a3.5,3.5,0,0,1-1.75-2c-.12-.35.08-.42.32-.48s.45-.37.62.06a2.93,2.93,0,0,0,1.48,1.65C24.23,39.18,24.36,39.23,24.28,39.42Z"/><path class="cls-3" d="M26.9,58.63a2.52,2.52,0,0,0,1.92.41,3.17,3.17,0,0,0-.07,2.29,2.07,2.07,0,0,0-2.05-.71A1.77,1.77,0,0,0,26.9,58.63Z"/><path class="cls-7" d="M24.26,47c0,.22-.18.25-.31.34a2.42,2.42,0,0,0-1.12,1.41c-.1.46-.38.18-.6.17s-.43-.16-.32-.48a3.51,3.51,0,0,1,1.58-1.93A.51.51,0,0,1,24.26,47Z"/><path class="cls-8" d="M54.89,3c0,.21,0,.52-.57.4a3.42,3.42,0,0,1-2-1.43c-.14-.19-.13-.36.1-.44s.39-.47.65-.1a2.63,2.63,0,0,0,1.67,1.1C54.88,2.56,55,2.66,54.89,3Z"/><path class="cls-8" d="M74.94,51.22a3.18,3.18,0,0,1-2.23-1.35c-.15-.2-.14-.35.09-.44s.36-.49.64-.12a2.47,2.47,0,0,0,1.66,1c.37,0,.29.29.26.53S75.2,51.29,74.94,51.22Z"/><path class="cls-6" d="M57.68,9a3.22,3.22,0,0,1-.81,2c-.17.2-.33.35-.57.09s-.47-.37-.17-.7a2.2,2.2,0,0,0,.58-1.42c0-.33-.1-.71.49-.7S57.64,8.6,57.68,9Z"/><path class="cls-7" d="M72.4,27.93a3.34,3.34,0,0,1-1.7,2.13c-.3.09-.34-.1-.41-.26s-.33-.41,0-.59a2.48,2.48,0,0,0,1.24-1.56c.08-.29.25-.24.43-.17S72.45,27.59,72.4,27.93Z"/><path class="cls-4" d="M64.84,60.63a1.73,1.73,0,0,0,1.5-1.25,2.42,2.42,0,0,0,1.13,1.56,2.83,2.83,0,0,0-1.61,1.47A1.94,1.94,0,0,0,64.84,60.63Z"/><path class="cls-4" d="M38,9.51a.31.31,0,0,1-.43.23c-.5-.14-1-.29-1.49-.45-.15,0-.31-.15-.26-.36s.22-.24.39-.19c.52.14,1,.3,1.55.46A.3.3,0,0,1,38,9.51Z"/><path class="cls-4" d="M75,21.86a.59.59,0,0,1,.62.64.58.58,0,0,1-.63.62.58.58,0,0,1-.63-.68A.58.58,0,0,1,75,21.86Z"/><path class="cls-4" d="M34,9.86c.12,0,.25.14.18.37-.15.52-.31,1-.47,1.55-.06.18-.18.31-.37.24a.3.3,0,0,1-.17-.41c.16-.5.31-1,.45-1.49C33.71,10,33.77,9.86,34,9.86Z"/><path class="cls-4" d="M32.83,9c.21,0,.32,0,.38.15a.25.25,0,0,1-.12.36c-.49.28-1,.55-1.49.81a.27.27,0,0,1-.37-.1c-.09-.11-.09-.25,0-.31C31.79,9.61,32.35,9.31,32.83,9Z"/><path class="cls-4" d="M60.12,64.16c.36.07.61.26.6.66a.63.63,0,1,1-1.26,0A.63.63,0,0,1,60.12,64.16Z"/><path class="cls-4" d="M29.13,18.79a.63.63,0,0,1-.64.64.58.58,0,0,1-.64-.67.56.56,0,0,1,.64-.59C28.9,18.17,29.07,18.43,29.13,18.79Z"/><path class="cls-4" d="M35.28,9.71c.07,0,.19.1.24.19.26.45.5.91.74,1.37.09.18.12.38-.11.48s-.31-.05-.4-.2c-.25-.46-.51-.9-.74-1.37C34.91,10,34.93,9.76,35.28,9.71Z"/><path class="cls-4" d="M33.13,8c-.05.26-.2.36-.41.3-.52-.14-1-.31-1.55-.47-.15,0-.26-.14-.24-.3a.24.24,0,0,1,.28-.24c.59.15,1.17.33,1.76.52C33,7.81,33.08,7.92,33.13,8Z"/><path class="cls-4" d="M37.71,6.86a.43.43,0,0,1-.27.36c-.42.22-.82.46-1.24.67-.17.09-.37.18-.5,0s0-.35.19-.45l1.3-.7C37.46,6.55,37.63,6.63,37.71,6.86Z"/><path class="cls-4" d="M32.8,5.23a.49.49,0,0,1,.36.28c.22.42.45.83.67,1.24.09.17.16.37,0,.51s-.36,0-.45-.2c-.25-.45-.5-.91-.73-1.37C32.47,5.43,32.63,5.31,32.8,5.23Z"/><path class="cls-4" d="M35.37,5c.23,0,.37.12.32.31-.16.58-.35,1.16-.54,1.74a.23.23,0,0,1-.3.13.24.24,0,0,1-.18-.27c.16-.59.33-1.18.51-1.76C35.2,5.07,35.31,5,35.37,5Z"/><path class="cls-4" d="M67.12,11.57c0,.22,0,.33-.11.41a.24.24,0,0,1-.36-.1c-.26-.45-.5-.91-.75-1.37-.09-.16,0-.27.11-.37a.2.2,0,0,1,.31,0C66.62,10.66,66.89,11.16,67.12,11.57Z"/><path class="cls-4" d="M67.41,14.74c-.13.39-.28.89-.45,1.38a.24.24,0,0,1-.34.16.29.29,0,0,1-.18-.35c.14-.49.3-1,.46-1.48a.26.26,0,0,1,.35-.17C67.42,14.34,67.43,14.48,67.41,14.74Z"/><path class="cls-4" d="M68.73,10.34l-.44,1.37a.25.25,0,0,1-.33.18.26.26,0,0,1-.18-.34c.14-.5.29-1,.44-1.5,0-.17.19-.2.34-.16S68.76,10.06,68.73,10.34Z"/><path class="cls-4" d="M70.83,13.93a.31.31,0,0,1-.44.28L69,13.81a.29.29,0,0,1-.24-.37c0-.13.15-.23.26-.19.55.15,1.09.32,1.62.5C70.75,13.77,70.79,13.88,70.83,13.93Z"/><path class="cls-4" d="M66.54,13.78a.34.34,0,0,1-.2.3c-.42.22-.83.46-1.25.67-.15.08-.33.11-.43-.09a.26.26,0,0,1,.1-.37c.45-.25.91-.5,1.38-.73C66.36,13.45,66.49,13.58,66.54,13.78Z"/><path class="cls-4" d="M70.56,11.55a.35.35,0,0,1-.22.38l-1.19.64c-.16.09-.33.11-.44-.06a.29.29,0,0,1,.13-.42c.44-.24.87-.49,1.31-.71A.27.27,0,0,1,70.56,11.55Z"/><path class="cls-4" d="M64.73,11.91c.5.15,1,.29,1.45.45a.28.28,0,0,1,.21.38.26.26,0,0,1-.35.16c-.48-.13-1-.27-1.42-.42a.28.28,0,0,1-.21-.39A.29.29,0,0,1,64.73,11.91Z"/><path class="cls-4" d="M68.26,14.16a.33.33,0,0,1,.33.16l.67,1.25c.09.16.11.34-.06.44s-.35,0-.45-.18c-.21-.4-.44-.79-.63-1.19C68,14.44,68,14.22,68.26,14.16Z"/><path class="cls-7" d="M33.8,32.74l-.38-.51a.2.2,0,0,0-.15-.2h0a3.49,3.49,0,0,0-.2-1,3.22,3.22,0,0,1,1.2-3.43,4.52,4.52,0,0,0,2.16-4.4,3.29,3.29,0,0,1,3.46-3.51,4.15,4.15,0,0,0,4-2.12,3.32,3.32,0,0,1,3.23-1.69,10.75,10.75,0,0,1,1.65.41l.37.24a.24.24,0,0,0,.3.18h0c0,.36.34.44.58.55a3.26,3.26,0,0,0,2.76.14,4.93,4.93,0,0,1,3.66-.11l.05,0a2.73,2.73,0,0,0,1.21,2.27,4.26,4.26,0,0,0,1.58,1.81c.1.33.39.46.65.6a12.19,12.19,0,0,0,2.26.74l.12.13a.26.26,0,0,0-.16.29,7,7,0,0,1-.35,2.61A3.43,3.43,0,0,0,63,29.47l.45.8c0,.13,0,.29.2.23l0,0a1.24,1.24,0,0,0-.08.41,3.59,3.59,0,0,1-1.73,3.75,3.55,3.55,0,0,0-1.59,3.67A2.88,2.88,0,0,1,60,39.9a3.68,3.68,0,0,1-3.67,2.4,3.62,3.62,0,0,0-3.53,1.91A3.44,3.44,0,0,1,49.46,46a4.44,4.44,0,0,1-2.29-1,3.13,3.13,0,0,0-3.08-.53,5.05,5.05,0,0,1-3.72.26c-.09-.23-.17-.47-.26-.71-.2-.49-.35-1-.89-1.28a7.29,7.29,0,0,0-1-1.12A3.66,3.66,0,0,0,36.74,40a9.28,9.28,0,0,0-2.06-.64,3.66,3.66,0,0,1,.12-3A3,3,0,0,0,34,33h0A.26.26,0,0,0,33.8,32.74Zm24.72-7.09-.13-.25c-.24-.11-.3-.36-.44-.54-2.77-3.71-6.48-5.43-11-4.76A10.8,10.8,0,0,0,37.68,28c-1.41,4.44-.3,8.37,3,11.7a19.51,19.51,0,0,0,2.28,1.79c.36.3.69.66,1.22.58h0c0,.22.16.25.31.32a10.38,10.38,0,0,0,4.2.95A11.48,11.48,0,0,0,59.76,28c-.16-.52-.23-1.17-.83-1.49h0a.31.31,0,0,0-.14-.32v0a.52.52,0,0,0-.31-.57Z"/><path class="cls-6" d="M38.5,44.76a6.5,6.5,0,0,0,1.48,2l.15.15h0a6.54,6.54,0,0,0,0,1,3.3,3.3,0,0,1-3.46,3.59c-1.73.46-3.45.92-5.19,1.36-.29.08-.61.28-.94.07a2.48,2.48,0,0,1,.25-1.09c1.11-2.27,2.2-4.55,3.29-6.84.46-1,.89-2,1.33-3l1.26.35A4.58,4.58,0,0,0,38.4,44.6v0Z"/><path class="cls-8" d="M53.17,48.29a6.08,6.08,0,0,0,2.13-2.23,1,1,0,0,1,.51-.47,4.49,4.49,0,0,0,.64,0,3.36,3.36,0,0,1,3.43,1.8c.67,1.32.49,2.71.52,4.1C59.68,53,59,54.64,58.25,56.24a6.42,6.42,0,0,1-.37.68,1.14,1.14,0,0,1-1.19-.8C55.52,53.5,54.34,50.9,53.17,48.29Z"/><path class="cls-9" d="M40.37,44.73a5.05,5.05,0,0,0,3.72-.26,3.13,3.13,0,0,1,3.08.53,4.44,4.44,0,0,0,2.29,1,3.44,3.44,0,0,0,3.38-1.82,3.62,3.62,0,0,1,3.53-1.91A3.68,3.68,0,0,0,60,39.9a2.88,2.88,0,0,0,.2-1.53,3.55,3.55,0,0,1,1.59-3.67A3.59,3.59,0,0,0,63.56,31a1.24,1.24,0,0,1,.08-.41A3.49,3.49,0,0,1,63.21,36a3.92,3.92,0,0,0-1.87,4,3.48,3.48,0,0,1-3.45,3.75,4.25,4.25,0,0,0-4.12,2.21,3.45,3.45,0,0,1-5.06.82,3.9,3.9,0,0,0-4.32-.57,3.27,3.27,0,0,1-3.69-.67.59.59,0,0,0-.3-.34h0Z"/><path class="cls-10" d="M60.4,51.45c0-1.39.15-2.78-.52-4.1a3.36,3.36,0,0,0-3.43-1.8,4.49,4.49,0,0,1-.64,0,1.45,1.45,0,0,1,1.27-.52A5.36,5.36,0,0,0,62,42.88c.35,0,.38.32.49.54,1.19,2.48,2.4,5,3.57,7.46.29.63.8,1.28.23,2-1.84-.34-3.62-.93-5.44-1.36Z"/><path class="cls-11" d="M36.68,51.46a3.3,3.3,0,0,0,3.46-3.59,6.54,6.54,0,0,1,0-1,5.44,5.44,0,0,0,4.94.5l-.62,1.35c-1.14,2.56-2.29,5.12-3.42,7.68-.22.48-.49.88-1.08.89s-.85-.44-1.06-.9Z"/><path class="cls-12" d="M48.74,16.34a10.75,10.75,0,0,0-1.65-.41,3.32,3.32,0,0,0-3.23,1.69,4.15,4.15,0,0,1-4,2.12,3.29,3.29,0,0,0-3.46,3.51,4.52,4.52,0,0,1-2.16,4.4,3.22,3.22,0,0,0-1.2,3.43,3.49,3.49,0,0,1,.2,1,3.44,3.44,0,0,1,.54-5.17,4.07,4.07,0,0,0,1.95-4.1,3.46,3.46,0,0,1,3.49-3.7,4.16,4.16,0,0,0,4-2.2A3.52,3.52,0,0,1,48.74,16.34Z"/><path class="cls-13" d="M35.42,42c-.44,1-.87,2-1.33,3C33,47.25,31.91,49.53,30.8,51.8a2.48,2.48,0,0,0-.25,1.09c-.72-.33-.94-.76-.62-1.45q2.25-4.78,4.55-9.54C34.81,41.21,35.1,42,35.42,42Z"/><path class="cls-8" d="M66.25,52.9c.57-.74.06-1.39-.23-2-1.17-2.5-2.38-5-3.57-7.46-.11-.22-.14-.53-.49-.54l.52-1.26c1,2,1.87,3.87,2.77,5.77.63,1.33,1.27,2.65,1.88,4C67.52,52.26,67.18,52.8,66.25,52.9Z"/><path class="cls-12" d="M53.17,48.29c1.17,2.61,2.35,5.21,3.52,7.83a1.14,1.14,0,0,0,1.19.8c-.76.62-1.34.48-1.76-.45C55,54,53.91,51.51,52.78,49,52.54,48.52,52.73,48.38,53.17,48.29Z"/><path class="cls-9" d="M63,29.47a3.43,3.43,0,0,1-1.2-3.67,7,7,0,0,0,.35-2.61.26.26,0,0,1,.16-.29,3.14,3.14,0,0,1,.87,3.44A5.4,5.4,0,0,0,63,29.47Z"/><path class="cls-12" d="M56.41,17.33a4.93,4.93,0,0,0-3.66.11A3.26,3.26,0,0,1,50,17.3c-.24-.11-.55-.19-.58-.55a4.39,4.39,0,0,0,3.37-.17A3.19,3.19,0,0,1,56.41,17.33Z"/><path class="cls-12" d="M34,33a3,3,0,0,1,.81,3.33,3.66,3.66,0,0,0-.12,3c.07.23.14.46.2.69A3.29,3.29,0,0,1,34,36.42,4.77,4.77,0,0,0,34,33Z"/><path class="cls-9" d="M34.88,40c-.06-.23-.13-.46-.2-.69a9.28,9.28,0,0,1,2.06.64,3.66,3.66,0,0,1,1.52,1.67,6.13,6.13,0,0,0-1.82-.72A2.91,2.91,0,0,1,34.88,40Z"/><path class="cls-11" d="M38.4,44.6a4.58,4.58,0,0,1-1.72-2.25A2.33,2.33,0,0,1,38.4,44.6Z"/><path class="cls-12" d="M62.16,22.77A12.19,12.19,0,0,1,59.9,22c-.26-.14-.55-.27-.65-.6.69.23,1.39.45,2.08.7A1.69,1.69,0,0,1,62.16,22.77Z"/><path class="cls-9" d="M57.67,19.62a2.73,2.73,0,0,1-1.21-2.27A3.66,3.66,0,0,1,57.67,19.62Z"/><path class="cls-12" d="M40.37,44.73l0,.45c-.8-.62-.77-1.63-1.19-2.44.54.25.69.79.89,1.28C40.2,44.26,40.28,44.5,40.37,44.73Z"/><path class="cls-12" d="M40.4,45.17a.59.59,0,0,1,.3.34A.51.51,0,0,1,40.4,45.17Z"/><path class="cls-12" d="M49.41,16.76a.24.24,0,0,1-.3-.18C49.23,16.61,49.36,16.63,49.41,16.76Z"/><path class="cls-12" d="M33.8,32.74A.26.26,0,0,1,34,33Z"/><path class="cls-9" d="M63.62,30.5c-.22.06-.2-.1-.2-.23Z"/><path class="cls-11" d="M38.5,44.76l-.09-.14Z"/><path class="cls-11" d="M40.13,46.88,40,46.73Z"/><path class="cls-12" d="M33.27,32a.2.2,0,0,1,.15.2Z"/><path class="cls-3" d="M42.91,41.44a19.51,19.51,0,0,1-2.28-1.79c-3.25-3.33-4.36-7.26-3-11.7a10.8,10.8,0,0,1,9.23-7.85c4.56-.67,8.27,1,11,4.76.14.18.2.43.44.54a.2.2,0,0,0,.13.25l0,0a.86.86,0,0,0,.31.57v0c0,.13,0,.26.14.32h0a12.44,12.44,0,0,1,.91,6.82A11.52,11.52,0,0,1,47.66,42.8,21,21,0,0,1,44.13,42h0A3.61,3.61,0,0,0,42.91,41.44Zm-4.12-6.63v0l0,0c1.22,4.36,6.51,7.58,11.17,6.78a10.28,10.28,0,0,0,8.8-11.73,9.33,9.33,0,0,0-4.67-7.19c0-.12-.07-.13-.16-.13h0a1.24,1.24,0,0,0-.58-.4A10.29,10.29,0,0,0,40.91,24.4a9.92,9.92,0,0,0-2.13,10.38Z"/><path class="cls-12" d="M44.13,42a21,21,0,0,0,3.53.78,11.52,11.52,0,0,0,12.18-9.49,12.44,12.44,0,0,0-.91-6.82c.6.32.67,1,.83,1.49A11.48,11.48,0,0,1,48.64,43.29a10.38,10.38,0,0,1-4.2-.95C44.29,42.27,44.11,42.24,44.13,42Z"/><path class="cls-12" d="M42.91,41.44a3.61,3.61,0,0,1,1.22.58C43.6,42.1,43.27,41.74,42.91,41.44Z"/><path class="cls-12" d="M58.81,26.2a.86.86,0,0,1-.31-.57A.52.52,0,0,1,58.81,26.2Z"/><path class="cls-12" d="M59,26.5c-.14-.06-.15-.19-.14-.32A.31.31,0,0,1,59,26.5Z"/><path class="cls-12" d="M58.52,25.65a.2.2,0,0,1-.13-.25C58.43,25.48,58.48,25.56,58.52,25.65Z"/><path class="cls-14" d="M54.13,22.75,54,22.62C54.06,22.62,54.14,22.63,54.13,22.75Z"/><path class="cls-14" d="M38.79,34.81h.1l-.06.08,0,0Z"/><path class="cls-3" d="M54.72,30.06a1.77,1.77,0,0,1-.81,1.49c-.53.4-1.35.65-1.49,1.24s.3,1.2.48,1.81a1.75,1.75,0,0,1-2.77,2c-.52-.37-1-1-1.57-1s-1.05.64-1.57,1a1.74,1.74,0,0,1-2.23.1,1.78,1.78,0,0,1-.55-2.11c.18-.61.68-1.27.47-1.81s-.91-.78-1.41-1.15a1.76,1.76,0,0,1,1.07-3.28c.63,0,1.42.26,1.86-.13s.44-1.11.63-1.7a1.76,1.76,0,0,1,3.44,0c.22.62.19,1.48.72,1.78s1.25.07,1.89.08A1.71,1.71,0,0,1,54.72,30.06Zm-1.31-.33h0c-.1-.35-.4-.27-.64-.27H50.26l0,0a1.68,1.68,0,0,1-.43-.7c-.22-.71-.48-1.41-.73-2.11-.47-.57-.86-.54-1.12.12s-.48,1.34-.67,2a.85.85,0,0,1-1,.71q-1,0-2.07,0c-.67,0-.82.3-.57,1l.11.11,1.52,1.13c.29.22.67.36.73.8l-.7,2.29c-.09.31-.26.63.06.92s.65.17,1,0a14.85,14.85,0,0,1,2.2-1.48,18,18,0,0,1,2.17,1.47c.31.2.59.43,1,.1s.18-.63.09-1a12.1,12.1,0,0,1-.68-2.44c.56-.71,1.43-1,2-1.66.34-.16.53-.39.39-.79C53.53,29.79,53.53,29.72,53.41,29.73Z"/><path class="cls-15" d="M51.68,35.72c-.36.33-.64.1-1-.1a18,18,0,0,0-2.17-1.47V33.9c.09,0,.09-.1,0-.16v-2H49c.09.41.43.66.65,1A22.57,22.57,0,0,1,51.68,35.72Z"/><path class="cls-15" d="M53.53,29.87c.14.4-.05.63-.39.79-.24-.33-.53-.16-.82-.09-1,.23-2.1.43-3.15.67-.21.05-.31,0-.33-.2.16-.23.31-.48.49-.69s.37-.85.9-.93l0,0c.09.29.32.31.57.3l2.6,0h0Z"/><path class="cls-16" d="M48.56,31.75v2.4a14.85,14.85,0,0,0-2.2,1.48c-.33.22-.64.44-1,0l0,0c.42.13.42-.28.56-.47.84-1.12,1.5-2.37,2.43-3.42Z"/><path class="cls-16" d="M50.23,29.42c-.53.08-.61.61-.9.93s-.33.46-.49.69h-.28v-.56c.14-.1.13-.2,0-.3v-.84l0,0,0-.11V26.61h.52c.25.7.51,1.4.73,2.11A1.68,1.68,0,0,0,50.23,29.42Z"/><path class="cls-17" d="M48.56,31h.28c0,.21.12.25.33.2,1-.24,2.1-.44,3.15-.67.29-.07.58-.24.82.09-.62.63-1.49.95-2,1.66-.17.13-.29,0-.44-.07a3.69,3.69,0,0,0-1.68-.5h0c0-.1,0-.25-.15-.22s0,.14,0,.21H48.4v-.29s0-.09,0-.13A.34.34,0,0,0,48.56,31Z"/><path class="cls-16" d="M49,31.75a3.69,3.69,0,0,1,1.68.5c.15.07.27.2.44.07a12.1,12.1,0,0,0,.68,2.44c.09.33.29.68-.09,1a22.57,22.57,0,0,0-2.06-3C49.4,32.41,49.06,32.16,49,31.75Z"/><path class="cls-16" d="M48.4,31.33s0,.09,0,.13c-.72.44-1.62.48-2.28,1l-.11,0c-.06-.44-.44-.58-.73-.8l-1.52-1.13.07-.08Z"/><path class="cls-12" d="M49.07,26.61h-.52c-.32.1-.4.37-.48.65-.19.58-.4,1.16-.57,1.75a.87.87,0,0,1-1,.75c-.63,0-1.28,0-1.92,0-.41,0-.75.1-.86.56a.36.36,0,0,0,0,.11c-.25-.67-.1-.95.57-1s1.38,0,2.07,0a.85.85,0,0,0,1-.71c.19-.68.42-1.36.67-2S48.6,26,49.07,26.61Z"/><path class="cls-12" d="M46,32.47l.11,0c.19.3,0,.59-.05.88a17.43,17.43,0,0,0-.67,2.27l0,0c-.32-.29-.15-.61-.06-.92Z"/><path class="cls-12" d="M53.43,29.73l-2.6,0c-.25,0-.48,0-.57-.3h2.53C53,29.46,53.33,29.38,53.43,29.73Z"/><path class="cls-12" d="M53.53,29.87l-.12-.14C53.53,29.72,53.53,29.79,53.53,29.87Z"/><path class="cls-16" d="M43.66,30.43a.36.36,0,0,1,0-.11l.14.14-.07.08Z"/><path class="cls-16" d="M48.84,31.74c0-.07-.12-.19,0-.21s.13.12.15.22Z"/><path class="cls-17" d="M48.56,33.9v-.16C48.65,33.8,48.65,33.85,48.56,33.9Z"/><path class="cls-15" d="M45.41,35.64a17.43,17.43,0,0,1,.67-2.27c.09-.29.24-.58.05-.88.66-.55,1.56-.59,2.28-1v.29c-.93,1-1.59,2.3-2.43,3.42C45.83,35.36,45.83,35.77,45.41,35.64Z"/><path class="cls-15" d="M43.84,30.46l-.14-.14c.11-.46.45-.57.86-.56.64,0,1.29,0,1.92,0a.87.87,0,0,0,1-.75c.17-.59.38-1.17.57-1.75.08-.28.16-.55.48-.65,0,.86,0,1.71,0,2.56V31a.34.34,0,0,1-.16.3Z"/><path class="cls-17" d="M48.56,30.47v-.3C48.69,30.27,48.7,30.37,48.56,30.47Z"/><path class="cls-17" d="M48.56,29.33v-.16l0,.11Z"/></svg>
