<svg id="Calque_1" data-name="Calque 1" xmlns="http://www.w3.org/2000/svg" viewBox="0 0 73.98 73.33"><defs><style>.cls-1{fill:#d1d2d4;}.cls-2{font-size:19.05px;font-family:IntroScriptR-H2Base, Intro Script R;}.cls-2,.cls-3{fill:#fff;}.cls-4{fill:#11aea2;}.cls-5{fill:#e30954;}.cls-6{fill:#257ec2;}.cls-7{fill:#46b2e6;}.cls-8{fill:#147b34;}.cls-9{fill:#60b235;}</style></defs><title>Icônes Activité-kids</title><rect fill-opacity="0" stroke="none" class="cls-1" x="-12.04" y="-6.81" width="92.44" height="84.15"/><text class="cls-2" transform="translate(18.01 65.86) rotate(0.12)">Suivi</text><path class="cls-3" d="M17.64,35.33h38.7v2.78H17.64Z"/><path class="cls-4" d="M55.15,19.77q0,7.2,0,14.41c0,.3-.08.38-.38.37-1,0-2.08,0-3.12,0-.25,0-.34,0-.34-.31q0-14.49,0-29c0-.24.07-.31.32-.31,1.06,0,2.12,0,3.18,0,.33,0,.34.15.34.38Q55.15,12.55,55.15,19.77Z"/><path class="cls-5" d="M48.23,2.29c.23,1.69.43,3.34.7,5a1.28,1.28,0,0,1-1.74,1.37,1.16,1.16,0,0,1-.92-1.05c0-.18-.05-.36-.08-.61-.23.28-.43.51-.62.75A47.46,47.46,0,0,1,40,13.62c-1.32,1.19-2.67,2.37-4,3.51-1.17,1-2.37,1.89-3.58,2.81C31,21,29.62,22,28.19,23c-1.8,1.24-3.62,2.44-5.44,3.65a1.47,1.47,0,0,1-1.42.11,1,1,0,0,1-.72-.86,1.06,1.06,0,0,1,.54-1.05c2.18-1.49,4.39-2.93,6.53-4.48S31.9,17.22,34,15.58a64.76,64.76,0,0,0,6.89-6.25c.94-1,1.8-2.06,2.69-3.1a1.69,1.69,0,0,0,.11-.17l-.52.14a1.51,1.51,0,0,1-1.37-.28,1,1,0,0,1,.15-1.64,13.46,13.46,0,0,1,1.88-.65c1.34-.42,2.69-.82,4-1.23Z"/><path class="cls-6" d="M44.45,11.56h3.77v23H44.45Z"/><path class="cls-7" d="M37.75,34.52V18.4l.28,0h3.22c.24,0,.32.07.32.31q0,7.77,0,15.56c0,.23-.05.31-.3.31H38Z"/><path class="cls-8" d="M30.85,25.5h3.77v9H30.85Z"/><path class="cls-9" d="M23.54,34.54c0-.13,0-.22,0-.3,0-1.63,0-3.26,0-4.89,0-.25.08-.32.34-.32h3.48c0,.12,0,.21,0,.31,0,1.62,0,3.24,0,4.86,0,.27-.08.33-.35.33Z"/></svg>
