<svg id="Calque_1" data-name="Calque 1" xmlns="http://www.w3.org/2000/svg" viewBox="0 0 73.98 73.33"><defs>
<style>
@font-face {
  font-family: 'IntroScriptR-H2Base';
  src: url(IntroScriptR-H2Base.otf);
}
.cls-1{fill:#d1d2d4;}.cls-2{font-size:19.05px;font-family:IntroScriptR-H2Base;}.cls-2,.cls-3{fill:#fff;}</style></defs><title>Icônes Activité-kids</title>
<rect fill-opacity="0" stroke="none" class="cls-1" x="-12.04" y="-6.81" width="92.44" height="84.15"/><text class="cls-2" transform="translate(9.2 59.1) rotate(0.12)" >Ajouter</text><path class="cls-3" d="M33.82,24.53c-2,0-3.79,0-5.56,0-2.12-.06-3.47-1.36-3.47-3.24s1.34-3.17,3.48-3.23c1.76-.05,3.52,0,5.55,0,0-2,0-3.74,0-5.5C33.87,10.33,35,9.06,37,9s3.27,1.23,3.33,3.53c0,1.71,0,3.42,0,5.49,1.8,0,3.48,0,5.16,0,2.53,0,3.85,1.14,3.87,3.21S48,24.5,45.54,24.53c-1.64,0-3.28,0-5.23,0,0,1.84,0,3.52,0,5.21,0,2.43-1.28,3.85-3.3,3.81s-3.14-1.42-3.18-3.74C33.79,28.18,33.82,26.54,33.82,24.53Z"/></svg>
