<svg id="Calque_1" data-name="Calque 1" xmlns="http://www.w3.org/2000/svg" viewBox="0 0 87.02 88.74"><defs><style>.cls-1{fill:#d1d2d4;}.cls-2{font-size:19.05px;fill:#fff;font-family:IntroScriptR-H2Base, Intro Script R;}.cls-3{letter-spacing:0.02em;}.cls-4{letter-spacing:0em;}.cls-5{fill:#ead733;}.cls-6{fill:#11aea2;}.cls-7{fill:#257ec2;}.cls-8{fill:#46b2e6;}.cls-9{fill:#e30954;}.cls-10{fill:#f59a1c;}</style></defs><title>Icônes Activité-kids</title><rect fill-opacity="0" stroke="none" class="cls-1" x="-5.08" y="-6.3" width="101.33" height="101.33"/><text class="cls-2"><tspan class="cls-3"><tspan x="13.66" y="56.92">D</tspan><tspan class="cls-4" x="26.89" y="56.92">evoirs </tspan></tspan><tspan x="2.98" y="79.78">et Activités</tspan></text><path class="cls-5" d="M36.21,8.63H45a1,1,0,0,1,.82.32c1.89,2,3.8,3.88,5.69,5.83a1.11,1.11,0,0,1,.27.64q0,10,0,20.07a1.7,1.7,0,0,1-1.93,1.92H30.7c-1.41,0-2.07-.65-2.07-2q0-6.54,0-13.07c0-.16-.05-.36,0-.46s.39-.47.59-.48.44.27.6.47,0,.33,0,.5V35.25c0,.88.05.93.92.93H49.68c.75,0,.8,0,.8-.8V16.87H46.6a1.87,1.87,0,0,1-2-2c0-1.45,0-2.9,0-4.36,0-.18,0-.37,0-.61h-14c-.63,0-.72.07-.73.73,0,1.13,0,2.25,0,3.37a2.91,2.91,0,0,1,0,.42.59.59,0,0,1-.62.58.58.58,0,0,1-.62-.58c0-1.39-.05-2.79,0-4.17.07-1.09.71-1.58,1.82-1.58H35c0-.88.05-1.72,0-2.56a2.08,2.08,0,0,1,2.24-2.22c4.83,0,9.65,0,14.47,0a.93.93,0,0,1,.61.22q2.94,3,5.85,5.94a1,1,0,0,1,.24.6q0,10.09,0,20.17a1.71,1.71,0,0,1-1.87,1.86H54.24c-.54,0-.81-.22-.8-.63s.28-.62.82-.62c.75,0,1.5,0,2.24,0,.54,0,.63-.09.63-.63,0-1.31,0-2.63,0-3.94V12.52c0-.12,0-.24,0-.41H54.19c-.4,0-.81,0-1.21,0a1.74,1.74,0,0,1-1.74-1.59c-.06-1.78,0-3.55,0-5.39H37.32c-.94,0-1.11.17-1.11,1.12ZM52.47,6.26a1.23,1.23,0,0,0,0,.18c0,1.19,0,2.37,0,3.56,0,.7.18.87.89.87,1.07,0,2.13,0,3.19,0h.7Zm-1.85,9.35L45.81,11c0,1.32,0,2.68,0,4.05,0,.42.27.6.68.61Z"/><path class="cls-6" d="M40.09,19.4h6.7c.14,0,.33,0,.41,0s.48.39.48.58-.29.42-.48.6-.21,0-.31,0H33.35a1.19,1.19,0,0,1-.46-.06.57.57,0,0,1-.33-.7.56.56,0,0,1,.6-.47h6.93Z"/><path class="cls-7" d="M39.3,30.47h5.89c.16,0,.36,0,.46,0a1.28,1.28,0,0,1,.45.62c0,.29-.17.52-.5.56a3.7,3.7,0,0,1-.47,0H33.25c-.47,0-.72-.23-.71-.62s.26-.61.72-.61h6Z"/><path class="cls-8" d="M38.12,24.77h4.53c.16,0,.36,0,.46,0s.44.39.45.61-.26.41-.45.56-.3.05-.45.05H33.49c-.66,0-1-.19-1-.63s.29-.63.94-.63Z"/><path class="cls-9" d="M36.77,15.26c-1.14,0-2.28,0-3.41,0a1.06,1.06,0,0,1-.72-.31c-.32-.41,0-.92.6-.94h7c.66,0,1,.5.69.94a1.06,1.06,0,0,1-.71.31c-1.16,0-2.31,0-3.46,0Z"/><path class="cls-10" d="M28.64,18c0-.36,0-.72,0-1.08a.62.62,0,1,1,1.24,0c0,.74,0,1.47,0,2.2a.57.57,0,0,1-.62.62.58.58,0,0,1-.62-.62c0-.37,0-.75,0-1.12Z"/></svg>
