<svg xmlns="http://www.w3.org/2000/svg" viewBox="0 0 10.19 8.5"><defs><style>.cls-1{fill:#616160;}</style></defs><g id="Calque_2" data-name="Calque 2"><g id="Calque_1-2" data-name="Calque 1"><path class="cls-1" d="M1.8,7.46A3.32,3.32,0,0,1,1,7.36a.28.28,0,0,1-.2-.22.29.29,0,0,1,.1-.28,3.2,3.2,0,0,0,.62-.6l0,0A3.31,3.31,0,0,1,0,3.47C0,1.56,1.84,0,4.1,0S8.2,1.56,8.2,3.47,6.36,6.94,4.1,6.94a4.35,4.35,0,0,1-.51,0A3.32,3.32,0,0,1,1.8,7.46ZM1.73,6.9a2.82,2.82,0,0,0,1.64-.5.25.25,0,0,1,.19-.05,4.9,4.9,0,0,0,.54,0c2,0,3.54-1.31,3.54-2.92S6.05.56,4.1.56.56,1.87.56,3.47A2.8,2.8,0,0,0,2.11,5.88a.28.28,0,0,1,.14.18.31.31,0,0,1,0,.21A2.7,2.7,0,0,1,2,6.6,3.48,3.48,0,0,1,1.73,6.9Z"/><path class="cls-1" d="M8.6,8.5A2.86,2.86,0,0,1,7,8,3.92,3.92,0,0,1,3.86,7a.27.27,0,0,1,0-.39.28.28,0,0,1,.4,0,3.27,3.27,0,0,0,2.35.93,3.44,3.44,0,0,0,.46,0,.35.35,0,0,1,.2,0A2.43,2.43,0,0,0,8.57,8l-.17-.2-.19-.29a.26.26,0,0,1,0-.21.27.27,0,0,1,.13-.18A2.37,2.37,0,0,0,9.63,5,2.47,2.47,0,0,0,8,2.82a.27.27,0,0,1-.15-.36c.06-.15-1.3-.71,0-.34A3.33,3.33,0,0,1,10.19,5,2.87,2.87,0,0,1,8.84,7.4h0a2.51,2.51,0,0,0,.52.51.27.27,0,0,1,.11.28.29.29,0,0,1-.21.22A3,3,0,0,1,8.6,8.5Z"/><path class="cls-1" d="M4.3,2.06V3.19H5.39v.39H4.3V4.72H3.89V3.58H2.81V3.19H3.89V2.06Z"/></g></g></svg>