<svg xmlns="http://www.w3.org/2000/svg" width="38.621" height="38.62" viewBox="0 0 38.621 38.62">
  <g id="Groupe_564" data-name="Groupe 564" transform="translate(-996.496 -450.851)">
    <g id="Groupe_561" data-name="Groupe 561">
      <g id="Groupe_558" data-name="Groupe 558">
        <path id="Tracé_1745" data-name="Tracé 1745" d="M1034.434,470.161a18.518,18.518,0,0,1-3.61,11.018,18.783,18.783,0,0,1-2.312,2.6.257.257,0,0,1-.043.038,17.621,17.621,0,0,1-1.631,1.353c-.08.059-.16.118-.243.174q-.352.252-.718.488a17.872,17.872,0,0,1-1.866,1.055l-.118.059c-.478.229-.966.44-1.465.627-.348.136-.7.256-1.06.369q-.461.144-.929.264c-.113.029-.222.056-.334.08q-.777.189-1.581.3c-.155.024-.312.046-.472.062-.505.061-1.012.1-1.53.12a.2.2,0,0,1-.043,0l0,0-.006,0c-.221.01-.443.013-.665.013-.146,0-.293,0-.437-.005-.091,0-.179-.006-.267-.011-.582-.019-1.159-.067-1.725-.142a18.086,18.086,0,0,1-2.309-.451,18.619,18.619,0,0,1-1.795-.568c-.165-.062-.323-.126-.488-.2h-.006c-.443-.179-.878-.377-1.3-.59-.171-.086-.339-.174-.508-.265-.184-.1-.365-.2-.544-.3-.136-.08-.273-.163-.406-.246a18.628,18.628,0,1,1,28.415-15.85Z" fill="#f5f6f5" stroke="#040405" stroke-miterlimit="10" stroke-width="0.298"/>
      </g>
      <g id="Groupe_559" data-name="Groupe 559">
        <path id="Tracé_1746" data-name="Tracé 1746" d="M1006.66,459.78l.994-2.563a.316.316,0,0,1,.111-.137.312.312,0,0,1,.169-.058.288.288,0,0,1,.193.033.338.338,0,0,1,.145.145l.328.817.387.955.306.8a.3.3,0,0,1,0,.238.321.321,0,0,1-.415.164.308.308,0,0,1-.169-.167l-.258-.586q-.5-.014-.986.009l-.217.586a.325.325,0,0,1-.173.167.3.3,0,0,1-.24,0,.308.308,0,0,1-.169-.167A.28.28,0,0,1,1006.66,459.78Zm1.55-.986-.236-.639-.253.639Z" fill="#d52647" stroke="#040405" stroke-miterlimit="10" stroke-width="0.298"/>
        <path id="Tracé_1747" data-name="Tracé 1747" d="M1011.358,460.122a.278.278,0,0,1-.209.08.286.286,0,0,1-.2-.093.28.28,0,0,1-.08-.209c0-.051.007-.138.013-.262l.009-.258c0-.074,0-.166,0-.277s-.009-.2-.018-.273a.148.148,0,0,1,0-.036,1.165,1.165,0,0,0-.035-.164.267.267,0,0,0-.107-.14.4.4,0,0,0-.2-.065.47.47,0,0,0-.229.029.322.322,0,0,0-.153.118c0,.009-.007.025-.013.049v.018q.009.807.009,1.248a.3.3,0,0,1-.091.219.311.311,0,0,1-.531-.219q0-.423-.013-1.724a.3.3,0,0,1,.088-.219.308.308,0,0,1,.436-.011,1.05,1.05,0,0,1,.546-.094.966.966,0,0,1,.577.244.952.952,0,0,1,.364-.2,1.123,1.123,0,0,1,.405-.04,1.049,1.049,0,0,1,.5.182.811.811,0,0,1,.316.431,1.9,1.9,0,0,1,.069.4c.013.167.019.3.017.391s-.006.225-.013.4-.011.259-.011.262a.286.286,0,0,1-.093.2.276.276,0,0,1-.209.08.286.286,0,0,1-.2-.093.275.275,0,0,1-.08-.209c0-.035,0-.132.011-.291s.011-.276.013-.353,0-.18-.011-.31a1.257,1.257,0,0,0-.049-.3.261.261,0,0,0-.107-.14.392.392,0,0,0-.2-.065.468.468,0,0,0-.229.029.307.307,0,0,0-.153.118.429.429,0,0,0-.013.049v.026l-.009.036v.027l-.009.07q.014.138.018.333c0,.131,0,.236,0,.316s-.008.173-.014.277-.009.173-.009.2A.286.286,0,0,1,1011.358,460.122Z" fill="#d52647" stroke="#040405" stroke-miterlimit="10" stroke-width="0.298"/>
        <path id="Tracé_1748" data-name="Tracé 1748" d="M1013.8,460.14a.984.984,0,0,1-.386-.263.8.8,0,0,1-.187-.386,1.382,1.382,0,0,1,.089-.826,1.493,1.493,0,0,1,.448-.6,1.038,1.038,0,0,1,.658-.226,1.335,1.335,0,0,1,.288.035.657.657,0,0,1,.2.093h.022l.045,0a.282.282,0,0,1,.2.08.3.3,0,0,1,.1.2l.031.307c.006.13.014.352.022.666l.009.24c.006.148.01.245.011.291a.692.692,0,0,1-.006.13.417.417,0,0,1-.1.22.266.266,0,0,1-.2.1.3.3,0,0,1-.184-.051.327.327,0,0,1-.118-.2.606.606,0,0,1-.249.182,1.053,1.053,0,0,1-.346.08A1.112,1.112,0,0,1,1013.8,460.14Zm.626-.649a.507.507,0,0,0,.08-.066l.066-.063.076-.106a.15.15,0,0,1,.062-.045q0-.372-.022-.63l-.044-.031-.063-.049-.04-.027a.416.416,0,0,0-.419.107.863.863,0,0,0-.238.346.84.84,0,0,0-.071.311.342.342,0,0,0,.056.2.3.3,0,0,0,.157.115.4.4,0,0,0,.125.023A.545.545,0,0,0,1014.431,459.491Z" fill="#d52647" stroke="#040405" stroke-miterlimit="10" stroke-width="0.298"/>
        <path id="Tracé_1749" data-name="Tracé 1749" d="M1016.412,460.193l-.418-.005a.309.309,0,0,1-.191-.053.333.333,0,0,1-.091-.109.293.293,0,0,1-.033-.135.244.244,0,0,1,.022-.1.924.924,0,0,1,.084-.14c.042-.056.169-.209.382-.457q.133-.152.285-.327c.1-.117.207-.243.319-.379q-.116,0-.24,0c-.082,0-.167-.007-.253-.009-.136-.006-.236-.009-.3-.009a.322.322,0,0,1-.226-.089.279.279,0,0,1-.084-.2.318.318,0,0,1,.071-.205.245.245,0,0,1,.2-.088q.582,0,1.359.022a.3.3,0,0,1,.215.093.283.283,0,0,1,.087.2.36.36,0,0,1-.049.174,1.45,1.45,0,0,1-.151.213l-.519.63c-.11.134-.225.264-.347.391.281,0,.569-.007.861-.022a.274.274,0,0,1,.227.08.315.315,0,0,1,.013.413.277.277,0,0,1-.2.093q-.435.023-.839.022C1016.52,460.2,1016.459,460.2,1016.412,460.193Z" fill="#d52647" stroke="#040405" stroke-miterlimit="10" stroke-width="0.298"/>
        <path id="Tracé_1750" data-name="Tracé 1750" d="M1018.614,457.3a.32.32,0,1,1-.319-.322.324.324,0,0,1,.319.322Zm-.608.832a.293.293,0,0,1,.1-.215.3.3,0,0,1,.224-.082.29.29,0,0,1,.215.1.3.3,0,0,1,.083.224c-.018.554-.023,1.129-.014,1.728a.311.311,0,0,1-.306.313.3.3,0,0,1-.22-.087.307.307,0,0,1-.1-.218Q1017.98,458.955,1018.006,458.132Z" fill="#d52647" stroke="#040405" stroke-miterlimit="10" stroke-width="0.298"/>
        <path id="Tracé_1751" data-name="Tracé 1751" d="M1020.995,460.122a.28.28,0,0,1-.209.08.287.287,0,0,1-.2-.093.276.276,0,0,1-.08-.209c0-.033,0-.131.011-.293s.012-.289.013-.378,0-.192-.011-.308a1.2,1.2,0,0,0-.049-.282.264.264,0,0,0-.106-.14.4.4,0,0,0-.2-.065.47.47,0,0,0-.229.029.311.311,0,0,0-.153.118.431.431,0,0,0-.02.078.47.47,0,0,0,0,.06c0,.1,0,.289,0,.557s0,.471,0,.611a.309.309,0,0,1-.31.31.311.311,0,0,1-.311-.31q0-.187-.007-.765c0-.384-.017-.679-.038-.883a.306.306,0,0,1,.063-.256.277.277,0,0,1,.217-.1.267.267,0,0,1,.28.231.715.715,0,0,1,.564-.271.8.8,0,0,1,.515.171.938.938,0,0,1,.289.442,1.84,1.84,0,0,1,.069.382,3.879,3.879,0,0,1,.017.388c0,.106-.006.245-.013.42s-.011.264-.011.267A.286.286,0,0,1,1020.995,460.122Z" fill="#d52647" stroke="#040405" stroke-miterlimit="10" stroke-width="0.298"/>
        <path id="Tracé_1752" data-name="Tracé 1752" d="M1022.152,461.039a1.321,1.321,0,0,1-.336-.224.645.645,0,0,1-.14-.16.318.318,0,0,1-.042-.156.288.288,0,0,1,.084-.213.284.284,0,0,1,.209-.084.27.27,0,0,1,.231.115.692.692,0,0,0,.2.185.427.427,0,0,0,.209.055.391.391,0,0,0,.338-.178,1.033,1.033,0,0,0,.164-.448.519.519,0,0,1-.255.209.97.97,0,0,1-.358.066.854.854,0,0,1-.475-.14,1,1,0,0,1-.349-.4,1.265,1.265,0,0,1-.131-.584,1.492,1.492,0,0,1,.134-.646,1.029,1.029,0,0,1,.377-.44,1.009,1.009,0,0,1,.56-.157,1.035,1.035,0,0,1,.492.142.2.2,0,0,1,.1-.1.386.386,0,0,1,.179-.038.247.247,0,0,1,.193.082.348.348,0,0,1,.078.229q.014.836,0,1.736a1.351,1.351,0,0,1-.117.509,1.6,1.6,0,0,1-.3.442.919.919,0,0,1-.293.2.946.946,0,0,1-.369.067A.928.928,0,0,1,1022.152,461.039Zm.717-1.574a.574.574,0,0,0,.086-.116,1.123,1.123,0,0,0,.06-.12c0-.373,0-.593,0-.662a.692.692,0,0,0-.2-.113.773.773,0,0,0-.244-.033.409.409,0,0,0-.367.178.878.878,0,0,0-.118.488.607.607,0,0,0,.121.393.388.388,0,0,0,.319.149A.491.491,0,0,0,1022.869,459.465Z" fill="#d52647" stroke="#040405" stroke-miterlimit="10" stroke-width="0.298"/>
        <path id="Tracé_1753" data-name="Tracé 1753" d="M1024.121,457.382a.311.311,0,0,1,.531-.22.3.3,0,0,1,.091.22v1.812a.311.311,0,0,1-.307.313.3.3,0,0,1-.219-.087.308.308,0,0,1-.1-.218Zm.622,2.606a.311.311,0,0,1-.531.22.311.311,0,0,1,.22-.53.32.32,0,0,1,.311.31Z" fill="#d52647" stroke="#040405" stroke-miterlimit="10" stroke-width="0.298"/>
      </g>
      <g id="Groupe_560" data-name="Groupe 560">
        <path id="Tracé_1754" data-name="Tracé 1754" d="M1015.806,489.322c-.14,0-.28,0-.418-.005h-.029c-.1,0-.2-.006-.29-.012-.576-.018-1.174-.067-1.762-.145a18.927,18.927,0,0,1-2.375-.464,19.142,19.142,0,0,1-1.846-.585c-.158-.059-.311-.121-.47-.187l-.037-.013h0c-.45-.182-.9-.387-1.342-.608-.175-.088-.348-.178-.521-.272s-.374-.2-.56-.313c-.142-.083-.281-.168-.418-.253a19.3,19.3,0,0,1-6.138-6.08,19.174,19.174,0,1,1,31.654,1.111,19.351,19.351,0,0,1-2.378,2.674.842.842,0,0,1-.063.057,18.531,18.531,0,0,1-1.659,1.374c-.085.062-.171.125-.259.185-.222.159-.47.328-.728.495a18.825,18.825,0,0,1-1.922,1.086l-.077.039-.035.017c-.516.248-1.024.465-1.519.65-.314.124-.662.245-1.087.378-.316.1-.637.191-.956.272-.117.031-.234.059-.355.085-.518.126-1.066.232-1.616.311-.158.024-.326.047-.5.064-.505.062-1.014.1-1.544.122h0a.534.534,0,0,1-.12.005C1016.243,489.319,1016.025,489.322,1015.806,489.322Zm-6.865-2.417a.424.424,0,0,1,.05.018c.159.067.31.128.468.187a18.035,18.035,0,0,0,3.986.991c.555.073,1.118.119,1.674.137.1.006.18.009.265.011h.023c.342.007.692.009,1.038-.008h.024l.034,0c.505-.018.991-.056,1.484-.116.162-.016.31-.037.456-.059.521-.076,1.036-.175,1.536-.3.118-.025.22-.05.324-.078.3-.077.607-.164.905-.257.4-.125.725-.239,1.024-.356.473-.177.952-.382,1.43-.611l.1-.048a17.785,17.785,0,0,0,1.829-1.033c.243-.158.478-.317.7-.474.088-.06.163-.115.238-.17a17.151,17.151,0,0,0,1.582-1.313c.011-.01.023-.021.035-.03l.008-.008a18.27,18.27,0,0,0,2.247-2.526,18,18,0,0,0,3.506-10.7,18.094,18.094,0,1,0-27.6,15.4c.13.081.262.162.4.24.17.1.344.2.521.291s.334.177.5.26C1008.118,486.551,1008.53,486.738,1008.941,486.9Zm19.232-3.533h0Zm0,0h0Z" fill="#f0da30" stroke="#040405" stroke-miterlimit="10" stroke-width="0.298"/>
      </g>
    </g>
    <g id="Groupe_562" data-name="Groupe 562">
      <circle id="Ellipse_79" data-name="Ellipse 79" cx="6.749" cy="6.749" r="6.749" transform="translate(999.271 473.485) rotate(-70.875)" fill="#dc091d"/>
      <circle id="Ellipse_80" data-name="Ellipse 80" cx="5.728" cy="5.728" r="5.728" transform="translate(1001.641 474.512) rotate(-84.864)" fill="#dc091d" stroke="#fff" stroke-miterlimit="22.926" stroke-width="0.185" stroke-dasharray="0.369 0.185"/>
      <path id="Tracé_1755" data-name="Tracé 1755" d="M1007.858,467.869c1.684-2.617,5.8-1.042,3.875,2.034a12.083,12.083,0,0,1-3.875,3.531,11.238,11.238,0,0,1-4.048-3.839C1002.326,466.785,1006.215,465.314,1007.858,467.869Z" fill="#fff" fill-rule="evenodd"/>
    </g>
    <g id="Groupe_563" data-name="Groupe 563">
      <circle id="Ellipse_81" data-name="Ellipse 81" cx="6.749" cy="6.749" r="6.749" transform="translate(1009.147 483.361) rotate(-70.875)" fill="#dc091d"/>
      <circle id="Ellipse_82" data-name="Ellipse 82" cx="5.728" cy="5.728" r="5.728" transform="translate(1011.516 484.388) rotate(-84.864)" fill="#dc091d" stroke="#fff" stroke-miterlimit="22.926" stroke-width="0.185" stroke-dasharray="0.369 0.185"/>
      <path id="Tracé_1756" data-name="Tracé 1756" d="M1017.734,477.745c1.684-2.618,5.8-1.043,3.875,2.034a12.1,12.1,0,0,1-3.875,3.531,11.238,11.238,0,0,1-4.048-3.839C1012.2,476.661,1016.091,475.19,1017.734,477.745Z" fill="#fff" fill-rule="evenodd"/>
    </g>
  </g>
</svg>
