<svg xmlns="http://www.w3.org/2000/svg" width="140.371" height="140.167" viewBox="0 0 140.371 140.167">
  <g id="Groupe_426" data-name="Groupe 426" transform="translate(-1180.389 -478.817)" opacity="0.45">
    <g id="Groupe_383" data-name="Groupe 383">
      <g id="Groupe_382" data-name="Groupe 382">
        <path id="Tracé_1268" data-name="Tracé 1268" d="M1210.843,565a3.749,3.749,0,0,0-.042.99c.083.082,13.3.448,13.3.448l-.335-1.551Z" fill="#b05d2e"/>
        <path id="Tracé_1269" data-name="Tracé 1269" d="M1209.153,563.8l-.081.841,1.775.447.133.492,1.772-.086-1.145-.933Z" fill="#c5b98d"/>
        <path id="Tracé_1270" data-name="Tracé 1270" d="M1206.415,563.464l1.444.639,2.316.373-1.1.164,1.463.647,1.121.17-.675.123,11.431.588-1.319-1.972Z" fill="#f8e8b0"/>
        <path id="Tracé_1271" data-name="Tracé 1271" d="M1211.364,536.66s-6.234,26.45-6.078,26.639,13.649,1.854,13.649,1.854,7.557-27.209,6.995-27.7S1211.364,536.66,1211.364,536.66Z" fill="#cf6c37"/>
        <path id="Tracé_1272" data-name="Tracé 1272" d="M1225.93,537.456a1.586,1.586,0,0,1,1.041.012c.4.22,4.439,2.637,4.593,2.795s-7.486,26.24-7.486,26.24-4.6-.855-5.143-1.35Z" fill="#e7783d"/>
        <path id="Tracé_1273" data-name="Tracé 1273" d="M1226.843,537.415l-7.052,28.1s-.773-.149-.856-.366l6.995-27.7A1.318,1.318,0,0,1,1226.843,537.415Z" fill="#b05d2e"/>
        <path id="Tracé_1274" data-name="Tracé 1274" d="M1211.364,536.66s-4.759,24.7.218,27.56l-6.3-.921S1210.793,538.829,1211.364,536.66Z" fill="#b05d2e"/>
        <path id="Tracé_1275" data-name="Tracé 1275" d="M1229.8,539.483a13.913,13.913,0,0,1,1.712,1.066c-.024.1-7.3,25.654-7.3,25.654s6.344-24.368,6.2-25.151A5.745,5.745,0,0,0,1229.8,539.483Z" fill="#f28243"/>
        <path id="Tracé_1276" data-name="Tracé 1276" d="M1212.014,536.948s13.153.4,13.431.861S1212.014,536.948,1212.014,536.948Z" fill="#e7783d"/>
        <path id="Tracé_1277" data-name="Tracé 1277" d="M1222.307,543.9l-9.911-1.292-.127,1.2,9.869,1.5Z" fill="#7e5a45"/>
        <path id="Tracé_1278" data-name="Tracé 1278" d="M1213.275,545.931l5.972.969-.347,1.521-5.972-1.268Z" fill="#7e5a45"/>
        <path id="Tracé_1279" data-name="Tracé 1279" d="M1212.571,548.129l5.972.969-.347,1.521-5.972-1.268Z" fill="#7e5a45"/>
        <path id="Tracé_1280" data-name="Tracé 1280" d="M1212.279,550.214l5.972.969-.347,1.52-5.972-1.268Z" fill="#7e5a45"/>
      </g>
    </g>
    <g id="Groupe_386" data-name="Groupe 386">
      <g id="Groupe_385" data-name="Groupe 385">
        <g id="Groupe_384" data-name="Groupe 384">
          <path id="Tracé_1281" data-name="Tracé 1281" d="M1182.225,560.024a3.465,3.465,0,0,0,.123.841c.082.082,15.03.844,15.03.844l.172-.842Z" fill="#7f701f"/>
          <path id="Tracé_1282" data-name="Tracé 1282" d="M1181.419,559.594l1.34,1.012,14.312.793-2.31-1.545Z" fill="#f8e8b0"/>
          <path id="Tracé_1283" data-name="Tracé 1283" d="M1197.9,536.533s1.6,1.538,1.586,2.309c-.006.334-1.859,22.652-2.051,22.843s-2.159-.82-2.159-.82Z" fill="#ab9628"/>
          <path id="Tracé_1284" data-name="Tracé 1284" d="M1180.462,536.017s-.164,23.519,0,23.691,14.818,1.157,14.818,1.157,2.241-24.291,2.023-24.366S1180.462,536.017,1180.462,536.017Z" fill="#ab9628"/>
          <path id="Tracé_1285" data-name="Tracé 1285" d="M1197.9,536.492s1.565,1.3,1.586,2.35-1.586,19.047-1.586,19.047,1.313-18.8.793-19.7S1197.9,536.974,1197.9,536.492Z" fill="#d0b531"/>
          <path id="Tracé_1286" data-name="Tracé 1286" d="M1180.462,536.017s1.078,21.944,5.444,24.185c0,0-5.253-.365-5.444-.494C1180.462,559.708,1180.339,538.644,1180.462,536.017Z" fill="#978423"/>
          <path id="Tracé_1287" data-name="Tracé 1287" d="M1197.3,536.5l-2.16,24.366.458.16,2.3-24.533Z" fill="#7f701f"/>
          <path id="Tracé_1288" data-name="Tracé 1288" d="M1180.462,536.017s15.706.653,15.973.9.42.738.54.738c.164,0,.355-.928.133-1.171S1180.451,535.814,1180.462,536.017Z" fill="#d0b531"/>
        </g>
      </g>
    </g>
    <g id="Groupe_389" data-name="Groupe 389">
      <g id="Groupe_388" data-name="Groupe 388">
        <g id="Groupe_387" data-name="Groupe 387">
          <path id="Tracé_1289" data-name="Tracé 1289" d="M1243.738,513.406a3.774,3.774,0,0,0-.887.262c-.076.1,1.392,16.322,1.392,16.322l.934.057Z" fill="#377788"/>
          <path id="Tracé_1290" data-name="Tracé 1290" d="M1244.078,512.471l-.885,1.6,1.337,15.542,1.311-2.726Z" fill="#f8e8b0"/>
          <path id="Tracé_1291" data-name="Tracé 1291" d="M1271.449,526.7s-1.413,1.958-2.245,2.062c-.361.046-24.691,1.466-24.926,1.289s.553-2.453.553-2.453Z" fill="#469ab1"/>
          <path id="Tracé_1292" data-name="Tracé 1292" d="M1269.334,507.83s-25.366,3.425-25.526,3.628,1.023,16.142,1.023,16.142,26.515-1.3,26.563-1.551S1269.334,507.83,1269.334,507.83Z" fill="#469ab1"/>
          <path id="Tracé_1293" data-name="Tracé 1293" d="M1271.493,526.7s-1.164,1.886-2.289,2.068-20.765,1.208-20.765,1.208,20.458-1.464,21.35-2.162S1270.974,526.77,1271.493,526.7Z" fill="#377788"/>
          <path id="Tracé_1294" data-name="Tracé 1294" d="M1269.334,507.83s-23.479,4.522-25.224,9.569c0,0-.412-5.715-.3-5.941C1243.808,511.458,1266.485,508.1,1269.334,507.83Z" fill="#4eaec9"/>
          <path id="Tracé_1295" data-name="Tracé 1295" d="M1271.394,526.049l-26.584,1.4-.1.518,26.786-1.275Z" fill="#377788"/>
          <path id="Tracé_1296" data-name="Tracé 1296" d="M1269.334,507.83s1.7,17.023,1.477,17.348-.731.566-.712.7c.025.176,1.054.241,1.282-.036S1269.551,507.788,1269.334,507.83Z" fill="#377788"/>
        </g>
      </g>
    </g>
    <g id="Groupe_392" data-name="Groupe 392">
      <g id="Groupe_391" data-name="Groupe 391">
        <g id="Groupe_390" data-name="Groupe 390">
          <path id="Tracé_1297" data-name="Tracé 1297" d="M1281.306,517.676s-.64.506-.661.629S1289.223,532,1289.223,532l.845-.371Z" fill="#fea837"/>
          <path id="Tracé_1298" data-name="Tracé 1298" d="M1281.183,516.7l-.056,1.8,8.178,13.033-.079-2.982Z" fill="#f8e8b0"/>
          <path id="Tracé_1299" data-name="Tracé 1299" d="M1311.61,516.852s-.357,2.354-1.04,2.821c-.3.2-21,12.413-21.288,12.364s-.62-2.4-.62-2.4Z" fill="#ffc234"/>
          <path id="Tracé_1300" data-name="Tracé 1300" d="M1301.25,501.248s-20.712,14.436-20.761,14.687,8.173,13.7,8.173,13.7,22.675-13.094,22.6-13.332S1301.25,501.248,1301.25,501.248Z" fill="#ffc234"/>
          <path id="Tracé_1301" data-name="Tracé 1301" d="M1311.646,516.827s-.171,2.179-1.076,2.846-17.673,10.418-17.673,10.418,17.288-10.505,17.756-11.519S1311.224,517.125,1311.646,516.827Z" fill="#fea837"/>
          <path id="Tracé_1302" data-name="Tracé 1302" d="M1301.25,501.248s-18.561,14.549-17.818,19.763c0,0-2.937-4.829-2.943-5.076C1280.489,515.935,1298.871,502.769,1301.25,501.248Z" fill="#ffe346"/>
          <path id="Tracé_1303" data-name="Tracé 1303" d="M1311.267,516.3l-22.69,13.213.144.5,22.925-13.191Z" fill="#fea837"/>
          <path id="Tracé_1304" data-name="Tracé 1304" d="M1301.25,501.248s9.164,14.168,9.114,14.554-.386.826-.312.93c.1.144,1.033-.263,1.109-.609S1301.421,501.113,1301.25,501.248Z" fill="#fea837"/>
        </g>
      </g>
    </g>
    <g id="Groupe_395" data-name="Groupe 395">
      <g id="Groupe_394" data-name="Groupe 394">
        <g id="Groupe_393" data-name="Groupe 393">
          <path id="Tracé_1305" data-name="Tracé 1305" d="M1267.9,615.814a3.465,3.465,0,0,0,.447.723c.107.043,14.131-5.187,14.131-5.187l-.176-.841Z" fill="#fea837"/>
          <path id="Tracé_1306" data-name="Tracé 1306" d="M1266.991,615.739l1.631.4,13.452-4.949-2.733-.5Z" fill="#f8e8b0"/>
          <path id="Tracé_1307" data-name="Tracé 1307" d="M1272.976,588.031s2.078.778,2.372,1.49c.127.309,7.279,21.531,7.179,21.783s-2.308.1-2.308.1Z" fill="#ffc234"/>
          <path id="Tracé_1308" data-name="Tracé 1308" d="M1256.76,594.476s9.179,21.655,9.4,21.748,14.061-4.816,14.061-4.816-7.578-23.188-7.808-23.17S1256.76,594.476,1256.76,594.476Z" fill="#ffc234"/>
          <path id="Tracé_1309" data-name="Tracé 1309" d="M1272.96,587.993s1.954.575,2.388,1.528,6.1,18.114,6.1,18.114-6.253-17.779-7.088-18.4S1273.151,588.436,1272.96,587.993Z" fill="#fea837"/>
          <path id="Tracé_1310" data-name="Tracé 1310" d="M1256.76,594.476s9.695,19.716,14.591,20.041c0,0-4.966,1.749-5.193,1.707C1266.158,616.224,1257.69,596.936,1256.76,594.476Z" fill="#ffe346"/>
          <path id="Tracé_1311" data-name="Tracé 1311" d="M1272.411,588.238l7.683,23.224.484-.034-7.618-23.434Z" fill="#fea837"/>
          <path id="Tracé_1312" data-name="Tracé 1312" d="M1256.76,594.476s14.677-5.631,15.019-5.511.679.511.789.464c.15-.065-.042-.993-.342-1.129S1256.67,594.294,1256.76,594.476Z" fill="#fea837"/>
        </g>
      </g>
    </g>
    <g id="Groupe_399" data-name="Groupe 399">
      <g id="Groupe_397" data-name="Groupe 397">
        <path id="Tracé_1313" data-name="Tracé 1313" d="M1196.36,502.287s-1.236,22.333-1.106,22.705,12.422,3.949,12.422,3.949a2.519,2.519,0,0,0,.3.594,9.488,9.488,0,0,0,2.35.421,6.239,6.239,0,0,0,.441-.612s13.95-.619,14.1-.995,1.379-20.64,1.274-20.8a50.365,50.365,0,0,0-5.035.493l-11.4,2.366S1196.386,501.811,1196.36,502.287Z" fill="#e44236"/>
        <path id="Tracé_1314" data-name="Tracé 1314" d="M1196.581,524.311l11.5,4.021.125.012s.012.56.211.683,1.836.457,1.9.282.207-.494.207-.494l13.5-.97-.652-.913Z" fill="#da372b"/>
        <path id="Tracé_1315" data-name="Tracé 1315" d="M1200.736,502.57l-1.689-.578-1.725.771-.89,21.527s9.755,1.269,11.7,4.109c0,0,1.921-1.511,2.35.422,0,0,10.373-1.492,13.615-.965l1.459-19.566-1.455-1.8-4.32-.087-9.052,2.314Z" fill="#d5c897"/>
        <path id="Tracé_1316" data-name="Tracé 1316" d="M1196.432,524.29s2.482-.189,3.25-1.5c0,0,9.017,1.77,9.935,4.666-.2.035,8.775-3.377,12.646-1.214-5.233-.126-8.72,0-10.97,1.779,0,0,6.237-1.158,8.482-.718-1.3.09-9.159,1.53-9.159,1.53s.21-.9-.939-1.1a1.415,1.415,0,0,0-1.557.554A102.191,102.191,0,0,0,1196.432,524.29Z" fill="#bcb086"/>
        <path id="Tracé_1317" data-name="Tracé 1317" d="M1199.047,501.992s.672,15.075.635,20.8l.61-20.372Z" fill="#bcb086"/>
        <path id="Tracé_1318" data-name="Tracé 1318" d="M1199.91,501.441s.686,17.827-.228,21.349c0,0,8.051,2.146,9.935,4.666,0,0,7.488-2.956,12.646-1.214,0,0,.718-20.8.78-21.473,0,0-10.046-.082-12.154,3.194C1210.365,506.336,1206.862,502.313,1199.91,501.441Z" fill="#f8e8b0"/>
        <path id="Tracé_1319" data-name="Tracé 1319" d="M1210.889,507.963s-.6,16.129-1.272,19.493S1210.032,511.85,1210.889,507.963Z" fill="#d5c897"/>
        <g id="Groupe_396" data-name="Groupe 396">
          <path id="Tracé_1320" data-name="Tracé 1320" d="M1222.263,526.242s.718-20.8.78-21.473a36.54,36.54,0,0,0-7.964.885,97.754,97.754,0,0,1,1.659,20.126A13.617,13.617,0,0,1,1222.263,526.242Z" fill="#fff4b9"/>
          <path id="Tracé_1321" data-name="Tracé 1321" d="M1205.244,524.7h0c.876-2.551,1.549-14.643,1.031-21.252a17.655,17.655,0,0,0-6.365-2.005s.686,17.827-.228,21.349A48.049,48.049,0,0,1,1205.244,524.7Z" fill="#fff4b9"/>
        </g>
        <path id="Tracé_1322" data-name="Tracé 1322" d="M1224.1,506.487s-1.61,15.854-1.416,20.065l1.412,1.3,1.459-19.566S1224.553,507.046,1224.1,506.487Z" fill="#f8e8b0"/>
        <path id="Tracé_1323" data-name="Tracé 1323" d="M1224.984,507.581s-2.442,14.622-1.679,19.543C1223.42,524.953,1224.984,507.581,1224.984,507.581Z" fill="#d5c897"/>
        <path id="Tracé_1324" data-name="Tracé 1324" d="M1198.188,505.412s.528,15.648-.379,18.607l.842-.335S1199.492,512.233,1198.188,505.412Z" fill="#bcb086"/>
      </g>
      <g id="Groupe_398" data-name="Groupe 398">
        <path id="Tracé_1325" data-name="Tracé 1325" d="M1209.751,507.6c-2.682-2.5-8.285-3.838-8.559-3.9l-.164.7c.069.016,6.375,1.525,8.636,4.14Z" fill="#8d7064"/>
        <path id="Tracé_1326" data-name="Tracé 1326" d="M1209.6,509.221c-2.745-1.777-8.048-3.119-8.3-3.183l-.174.7c.064.016,5.925,1.5,8.4,3.3Z" fill="#8d7064"/>
        <path id="Tracé_1327" data-name="Tracé 1327" d="M1209.455,510.787c-2.562-1.624-7.806-2.863-8.065-2.923l-.163.7c.065.015,5.93,1.4,8.153,3.03Z" fill="#8d7064"/>
        <path id="Tracé_1328" data-name="Tracé 1328" d="M1209.314,512.295a42.83,42.83,0,0,0-7.693-2.531l-.167.7a38.332,38.332,0,0,1,7.789,2.595Z" fill="#8d7064"/>
        <path id="Tracé_1329" data-name="Tracé 1329" d="M1209.176,513.781a43.449,43.449,0,0,0-7.4-2.319l-.16.7a37.888,37.888,0,0,1,7.49,2.38Z" fill="#8d7064"/>
        <path id="Tracé_1330" data-name="Tracé 1330" d="M1208.979,515.9c-2.4-1.587-7.207-2.283-7.432-2.315l-.1.711c.056.008,5.4.783,7.455,2.435Z" fill="#8d7064"/>
        <path id="Tracé_1331" data-name="Tracé 1331" d="M1208.825,517.553c-2.465-1.423-7.269-1.763-7.508-1.779l-.048.716c1.609.11,5.713.643,7.482,1.86Z" fill="#8d7064"/>
        <path id="Tracé_1332" data-name="Tracé 1332" d="M1208.663,519.3c-2.275-1.176-6.92-1.442-7.543-1.472l-.035.718c1.7.083,5.9.509,7.506,1.521Z" fill="#8d7064"/>
        <path id="Tracé_1333" data-name="Tracé 1333" d="M1208.466,521.417c-2.551-1.58-7.3-1.663-7.538-1.666l-.009.718c.058,0,5.265.092,7.472,1.757Z" fill="#8d7064"/>
        <path id="Tracé_1334" data-name="Tracé 1334" d="M1208.249,523.743c-2.636-1.918-7.174-2.614-7.4-2.648l-.1.711c.055.008,5.038.772,7.425,2.784Z" fill="#8d7064"/>
        <path id="Tracé_1335" data-name="Tracé 1335" d="M1212.861,507.611l-.078.84a16.2,16.2,0,0,1,8.659-1.581l.083-.713A16.56,16.56,0,0,0,1212.861,507.611Z" fill="#8d7064"/>
        <path id="Tracé_1336" data-name="Tracé 1336" d="M1212.693,509.41l-.073.789c2.164-.756,6.449-2.069,8.591-1.462l.2-.692C1219.158,507.408,1215.006,508.617,1212.693,509.41Z" fill="#8d7064"/>
        <path id="Tracé_1337" data-name="Tracé 1337" d="M1212.538,511.076l-.074.8c1.991-.746,6.336-2.156,9.043-1.426l.187-.694C1218.91,509,1214.717,510.28,1212.538,511.076Z" fill="#8d7064"/>
        <path id="Tracé_1338" data-name="Tracé 1338" d="M1212.345,513.157l-.074.8c1.7-.639,6.172-2.148,9.094-1.636l.124-.707C1218.538,511.09,1214.3,512.442,1212.345,513.157Z" fill="#8d7064"/>
        <path id="Tracé_1339" data-name="Tracé 1339" d="M1212.154,515.211l-.072.77c1.921-.565,7.145-2,9.036-1.438l.2-.689C1219.317,513.262,1214.313,514.583,1212.154,515.211Z" fill="#8d7064"/>
        <path id="Tracé_1340" data-name="Tracé 1340" d="M1211.965,517.244l-.072.772c1.888-.567,6.986-1.975,9.019-1.331l.216-.685C1218.981,515.323,1214.093,516.616,1211.965,517.244Z" fill="#8d7064"/>
        <path id="Tracé_1341" data-name="Tracé 1341" d="M1211.767,519.373l-.073.778c1.72-.536,6.165-1.791,8.9-1.366l.111-.71C1217.935,517.641,1213.7,518.78,1211.767,519.373Z" fill="#8d7064"/>
        <path id="Tracé_1342" data-name="Tracé 1342" d="M1211.576,521.421l-.073.781c1.128-.375,6.468-2.05,9.454-1.127l.212-.686C1218.163,519.46,1213.206,520.9,1211.576,521.421Z" fill="#8d7064"/>
        <path id="Tracé_1343" data-name="Tracé 1343" d="M1221.384,522.284c-2.689-.916-8.261.544-9.985,1.038l-.071.769c1.265-.371,7.482-2.1,9.987-1.067Z" fill="#8d7064"/>
        <path id="Tracé_1344" data-name="Tracé 1344" d="M1221.246,523.767c-2.644-.793-8.542.67-9.986,1.052l-.071.763c.646-.176,7.475-1.989,9.989-1.082Z" fill="#8d7064"/>
      </g>
    </g>
    <g id="Groupe_403" data-name="Groupe 403">
      <g id="Groupe_401" data-name="Groupe 401">
        <path id="Tracé_1345" data-name="Tracé 1345" d="M1292.4,565.549s-14.074,14.812-14.2,15.149,6.309,10.1,6.309,10.1a2.282,2.282,0,0,0-.139.594,8.663,8.663,0,0,0,1.386,1.684,5.716,5.716,0,0,0,.669-.166s10.076,7.825,10.407,7.655,13.172-13.55,13.194-13.724a45.994,45.994,0,0,0-3.8-2.636l-9.334-5.1S1292.7,565.233,1292.4,565.549Z" fill="#469ab1"/>
        <path id="Tracé_1346" data-name="Tracé 1346" d="M1279.522,581.009l5.626,9.6.08.082s-.323.4-.258.6,1.008,1.4,1.154,1.319.436-.222.436-.222l9.971,7.313.086-1.021Z" fill="#377788"/>
        <path id="Tracé_1347" data-name="Tracé 1347" d="M1295.278,568.336l-.834-1.4-1.657-.484-13.357,14.456s6.039,6.655,5.712,9.783c0,0,2.232.085,1.386,1.684,0,0,8.1,5.1,10.047,7.384L1309.168,587l.055-2.116-2.956-2.617-7.669-3.745Z" fill="#d5c897"/>
        <path id="Tracé_1348" data-name="Tracé 1348" d="M1279.43,580.906s1.84,1.337,3.15.879c0,0,5.229,6.568,4.154,9.126-.158-.092,8.1,2.842,9.52,6.639-3.568-3.185-6.07-5.16-8.688-5.254,0,0,5.026,2.885,6.328,4.52-.958-.708-7.28-4.355-7.28-4.355s.681-.506,0-1.323a1.291,1.291,0,0,0-1.411-.535A93.47,93.47,0,0,0,1279.43,580.906Z" fill="#bcb086"/>
        <path id="Tracé_1349" data-name="Tracé 1349" d="M1294.444,566.934s-8.453,10.89-11.864,14.851l12.479-13.818Z" fill="#bcb086"/>
        <path id="Tracé_1350" data-name="Tracé 1350" d="M1295.371,567.061s-10.071,12.813-12.791,14.724c0,0,4.333,6.257,4.154,9.126,0,0,6.961,2.374,9.52,6.639,0,0,12.806-14.053,13.249-14.485,0,0-6.944-6-10.349-4.968C1299.751,576.654,1299.693,571.781,1295.371,567.061Z" fill="#f8e8b0"/>
        <path id="Tracé_1351" data-name="Tracé 1351" d="M1299.154,578.1s-9.961,10.871-12.42,12.814S1296.257,580.295,1299.154,578.1Z" fill="#d5c897"/>
        <g id="Groupe_400" data-name="Groupe 400">
          <path id="Tracé_1352" data-name="Tracé 1352" d="M1296.254,597.55s12.806-14.053,13.249-14.485a33.454,33.454,0,0,0-6.067-4.1,89.229,89.229,0,0,1-10.754,14.99A12.432,12.432,0,0,1,1296.254,597.55Z" fill="#fff4b9"/>
          <path id="Tracé_1353" data-name="Tracé 1353" d="M1285.322,586.4h0c2.119-1.257,9.743-9.275,13.293-14.181a16.121,16.121,0,0,0-3.244-5.162s-10.071,12.813-12.791,14.724A44.038,44.038,0,0,1,1285.322,586.4Z" fill="#fff4b9"/>
        </g>
        <path id="Tracé_1354" data-name="Tracé 1354" d="M1309.223,584.887s-10.5,10.082-12.859,13.128l.211,1.742L1309.168,587S1309.206,585.544,1309.223,584.887Z" fill="#f8e8b0"/>
        <path id="Tracé_1355" data-name="Tracé 1355" d="M1309.19,586.171s-10.352,8.732-12.733,12.609C1297.822,597.336,1309.19,586.171,1309.19,586.171Z" fill="#d5c897"/>
        <path id="Tracé_1356" data-name="Tracé 1356" d="M1291.823,568.8s-8.892,11.2-11.274,12.728l.784.265S1288.694,574.325,1291.823,568.8Z" fill="#bcb086"/>
      </g>
      <g id="Groupe_402" data-name="Groupe 402">
        <path id="Tracé_1357" data-name="Tracé 1357" d="M1298.618,576.975c-.388-3.325-3.494-7.573-3.647-7.781l-.528.39c.038.052,3.535,4.833,3.561,7.991Z" fill="#8d7064"/>
        <path id="Tracé_1358" data-name="Tracé 1358" d="M1297.555,578.014c-.86-2.862-3.757-6.934-3.9-7.13l-.534.382c.035.049,3.237,4.549,3.9,7.271Z" fill="#8d7064"/>
        <path id="Tracé_1359" data-name="Tracé 1359" d="M1296.527,579.018c-.822-2.646-3.739-6.612-3.884-6.807l-.527.39c.036.05,3.3,4.483,3.881,6.933Z" fill="#8d7064"/>
        <path id="Tracé_1360" data-name="Tracé 1360" d="M1295.537,579.984a39.189,39.189,0,0,0-3.857-6.314l-.53.388a35.078,35.078,0,0,1,3.886,6.415Z" fill="#8d7064"/>
        <path id="Tracé_1361" data-name="Tracé 1361" d="M1294.561,580.936a39.626,39.626,0,0,0-3.779-5.993l-.525.393a34.579,34.579,0,0,1,3.805,6.089Z" fill="#8d7064"/>
        <path id="Tracé_1362" data-name="Tracé 1362" d="M1293.169,582.3c-.731-2.525-3.665-5.854-3.8-6.009l-.491.435c.034.039,3.294,3.739,3.748,6.106Z" fill="#8d7064"/>
        <path id="Tracé_1363" data-name="Tracé 1363" d="M1292.085,583.355c-.874-2.45-4.016-5.529-4.173-5.682l-.457.471c1.055,1.028,3.6,3.827,4.107,5.721Z" fill="#8d7064"/>
        <path id="Tracé_1364" data-name="Tracé 1364" d="M1290.937,584.475c-.887-2.164-3.963-5.1-4.379-5.488l-.448.479c1.131,1.061,3.8,3.843,4.324,5.5Z" fill="#8d7064"/>
        <path id="Tracé_1365" data-name="Tracé 1365" d="M1289.549,585.831c-.841-2.608-4.1-5.477-4.261-5.62l-.431.495c.04.034,3.61,3.179,4.16,5.644Z" fill="#8d7064"/>
        <path id="Tracé_1366" data-name="Tracé 1366" d="M1288.021,587.322c-.7-2.9-3.446-6.065-3.582-6.22l-.494.432c.034.038,3.05,3.518,3.521,6.331Z" fill="#8d7064"/>
        <path id="Tracé_1367" data-name="Tracé 1367" d="M1300.777,578.823l-.552.538a14.8,14.8,0,0,1,6.963,4.024l.479-.447A15.128,15.128,0,0,0,1300.777,578.823Z" fill="#8d7064"/>
        <path id="Tracé_1368" data-name="Tracé 1368" d="M1299.6,579.976l-.518.505c1.953.755,5.713,2.376,6.844,4.066l.546-.365C1305.28,582.408,1301.674,580.792,1299.6,579.976Z" fill="#8d7064"/>
        <path id="Tracé_1369" data-name="Tracé 1369" d="M1298.5,581.043l-.524.512c1.827.659,5.685,2.248,7.138,4.358l.541-.372C1304.164,583.37,1300.49,581.779,1298.5,581.043Z" fill="#8d7064"/>
        <path id="Tracé_1370" data-name="Tracé 1370" d="M1297.136,582.377l-.523.511c1.565.564,5.567,2.157,7.3,4.243l.505-.419C1302.669,584.6,1298.917,583.035,1297.136,582.377Z" fill="#8d7064"/>
        <path id="Tracé_1371" data-name="Tracé 1371" d="M1295.788,583.694l-.506.494c1.671.743,6.155,2.838,7.14,4.345l.549-.359C1301.926,586.576,1297.662,584.535,1295.788,583.694Z" fill="#8d7064"/>
        <path id="Tracé_1372" data-name="Tracé 1372" d="M1294.453,585l-.507.495c1.65.723,6.031,2.759,7.065,4.41l.556-.349C1300.473,587.812,1296.306,585.819,1294.453,585Z" fill="#8d7064"/>
        <path id="Tracé_1373" data-name="Tracé 1373" d="M1293.055,586.362l-.51.5c1.514.645,5.35,2.4,7,4.313l.5-.428C1298.374,588.806,1294.752,587.094,1293.055,586.362Z" fill="#8d7064"/>
        <path id="Tracé_1374" data-name="Tracé 1374" d="M1291.711,587.675l-.513.5c1.007.406,5.714,2.4,7.247,4.809l.553-.352C1297.456,590.207,1293.156,588.273,1291.711,587.675Z" fill="#8d7064"/>
        <path id="Tracé_1375" data-name="Tracé 1375" d="M1298.027,594.078c-1.33-2.228-6.072-4.509-7.564-5.185l-.505.493c1.1.49,6.45,2.966,7.583,5.167Z" fill="#8d7064"/>
        <path id="Tracé_1376" data-name="Tracé 1376" d="M1297.053,595.029c-1.371-2.117-6.342-4.588-7.572-5.177l-.5.489c.553.26,6.38,3.039,7.592,5.158Z" fill="#8d7064"/>
      </g>
    </g>
    <g id="Groupe_407" data-name="Groupe 407">
      <g id="Groupe_406" data-name="Groupe 406">
        <g id="Groupe_405" data-name="Groupe 405">
          <g id="Groupe_404" data-name="Groupe 404">
            <path id="Tracé_1377" data-name="Tracé 1377" d="M1224.8,482.861l8.326,24.981s14.662-4.166,14.67-4.553-7.016-23.984-7.592-24.189S1224.8,482.861,1224.8,482.861Z" fill="#f17a1d"/>
            <path id="Tracé_1378" data-name="Tracé 1378" d="M1224.8,482.861l-.6.073,8.393,25.11.529-.2Z" fill="#e54821"/>
            <path id="Tracé_1379" data-name="Tracé 1379" d="M1224.2,482.934s-1.636,1.481-1.621,1.714c.021.286,7.29,24.088,7.487,24.119s2.528-.723,2.528-.723Z" fill="#ea5f20"/>
            <path id="Tracé_1380" data-name="Tracé 1380" d="M1228.774,481.811c4.426-.082,10.513.124,11.376,1.813,1.377,2.7,4.7,16.776,3.57,18.347a38.382,38.382,0,0,1-5.458,4.386c4.228-1.238,9.527-2.835,9.531-3.068.008-.386-7.016-23.984-7.592-24.189C1239.821,478.965,1233.21,480.652,1228.774,481.811Z" fill="#f99619"/>
            <path id="Tracé_1381" data-name="Tracé 1381" d="M1224.8,482.861l8.326,24.981S1226.2,484.865,1224.8,482.861Z" fill="#f99619"/>
            <path id="Tracé_1382" data-name="Tracé 1382" d="M1224.166,482.938s7.314,23.438,8.428,25.106C1232.508,507.895,1224.869,483.719,1224.166,482.938Z" fill="#f17a1d"/>
            <path id="Tracé_1383" data-name="Tracé 1383" d="M1224.071,489.657l1.46-.813.271.859-1.509.683Z" fill="#503f31"/>
            <path id="Tracé_1384" data-name="Tracé 1384" d="M1224.666,491.613l.266.872,1.455-.53-.321-.932Z" fill="#503f31"/>
          </g>
        </g>
      </g>
    </g>
    <g id="Groupe_411" data-name="Groupe 411">
      <g id="Groupe_410" data-name="Groupe 410">
        <g id="Groupe_409" data-name="Groupe 409">
          <g id="Groupe_408" data-name="Groupe 408">
            <path id="Tracé_1385" data-name="Tracé 1385" d="M1259.254,494.912l24.351,10.019s6.426-13.822,6.139-14.08-22.741-10.36-23.272-10.058S1259.254,494.912,1259.254,494.912Z" fill="#e44236"/>
            <path id="Tracé_1386" data-name="Tracé 1386" d="M1259.254,494.912l-.335.5,24.493,10.052.193-.533Z" fill="#da372b"/>
            <path id="Tracé_1387" data-name="Tracé 1387" d="M1258.919,495.412a10.931,10.931,0,0,0,.238,2.347c.231.171,23,10.22,23.151,10.091s1.1-2.386,1.1-2.386Z" fill="#da372b"/>
            <path id="Tracé_1388" data-name="Tracé 1388" d="M1261.058,491.216c2.829-3.4,6.962-7.879,8.8-7.428,2.941.719,15.771,7.4,16.223,9.284a38.456,38.456,0,0,1-.246,7c1.825-4.009,4.078-9.064,3.905-9.219-.288-.259-22.741-10.36-23.272-10.058C1266.12,480.993,1263.079,487.1,1261.058,491.216Z" fill="#e65248"/>
            <path id="Tracé_1389" data-name="Tracé 1389" d="M1259.254,494.912l24.351,10.019S1261.687,495.16,1259.254,494.912Z" fill="#da372b"/>
            <path id="Tracé_1390" data-name="Tracé 1390" d="M1258.9,495.44s22.523,9.777,24.512,10.024C1283.244,505.432,1259.95,495.418,1258.9,495.44Z" fill="#e44236"/>
            <path id="Tracé_1391" data-name="Tracé 1391" d="M1263.924,499.9l.338-1.636.827.356-.469,1.589Z" fill="#503f31"/>
            <path id="Tracé_1392" data-name="Tracé 1392" d="M1265.794,500.73l.834.368.55-1.448-.915-.366Z" fill="#503f31"/>
          </g>
        </g>
      </g>
    </g>
    <g id="Groupe_415" data-name="Groupe 415">
      <g id="Groupe_414" data-name="Groupe 414">
        <g id="Groupe_413" data-name="Groupe 413">
          <g id="Groupe_412" data-name="Groupe 412">
            <path id="Tracé_1393" data-name="Tracé 1393" d="M1227.521,581.407l24.889,8.6s5.618-14.17,5.316-14.411-23.3-9.03-23.814-8.7S1227.521,581.407,1227.521,581.407Z" fill="#e44236"/>
            <path id="Tracé_1394" data-name="Tracé 1394" d="M1227.521,581.407l-.305.518,25.032,8.622.161-.543Z" fill="#da372b"/>
            <path id="Tracé_1395" data-name="Tracé 1395" d="M1227.216,581.925a10.86,10.86,0,0,0,.373,2.33c.24.157,23.55,8.875,23.694,8.738s.965-2.446.965-2.446Z" fill="#da372b"/>
            <path id="Tracé_1396" data-name="Tracé 1396" d="M1229.109,577.613c2.628-3.562,6.5-8.267,8.361-7.924,2.977.548,16.172,6.481,16.731,8.333a38.386,38.386,0,0,1,.159,7c1.59-4.108,3.548-9.285,3.366-9.43-.3-.241-23.3-9.03-23.814-8.7C1233.573,567.115,1230.889,573.387,1229.109,577.613Z" fill="#e65248"/>
            <path id="Tracé_1397" data-name="Tracé 1397" d="M1227.521,581.407l24.889,8.6S1229.965,581.514,1227.521,581.407Z" fill="#da372b"/>
            <path id="Tracé_1398" data-name="Tracé 1398" d="M1227.2,581.955s23.049,8.461,25.049,8.592C1252.078,590.525,1228.246,581.872,1227.2,581.955Z" fill="#e44236"/>
            <path id="Tracé_1399" data-name="Tracé 1399" d="M1232.472,586.12l.243-1.653.846.308-.376,1.613Z" fill="#503f31"/>
            <path id="Tracé_1400" data-name="Tracé 1400" d="M1234.386,586.838l.854.319.465-1.477-.934-.312Z" fill="#503f31"/>
          </g>
        </g>
      </g>
    </g>
    <g id="Groupe_416" data-name="Groupe 416">
      <path id="Tracé_1401" data-name="Tracé 1401" d="M1222.978,595.531s-4.775,13.659-4.7,13.686,1.72.3,1.72.3l4.032-12.363Z" fill="#2e5e6b"/>
      <path id="Tracé_1402" data-name="Tracé 1402" d="M1223.021,595.937l-4.49,13.33s.322,1.475.371,2.063,4.545-13.334,4.59-14.189A1.354,1.354,0,0,0,1223.021,595.937Z" fill="#f8e8b0"/>
      <path id="Tracé_1403" data-name="Tracé 1403" d="M1247.709,604.44l-24.718-6.367-4.344,13.732s23.484,7.147,23.967,7.014S1247.709,604.44,1247.709,604.44Z" fill="#469ab1"/>
      <path id="Tracé_1404" data-name="Tracé 1404" d="M1247.709,604.44l.256-.721-24.778-6.2-.2.554Z" fill="#418b9d"/>
      <path id="Tracé_1405" data-name="Tracé 1405" d="M1247.965,603.718a3.4,3.4,0,0,0-1.09-2.532s-23.2-5.9-23.9-5.655l.209,1.988Z" fill="#377788"/>
      <path id="Tracé_1406" data-name="Tracé 1406" d="M1221.562,602.587l-2.922,9.237s23.485,7.147,23.967,7.013c.306-.084,2.27-5.836,3.668-10.038-1.867,3.3-4.6,7.808-5.61,7.784-1.582-.039-17.8-4.975-18.841-5.748C1221.193,610.364,1221.346,605.962,1221.562,602.587Z" fill="#4eaec9"/>
      <path id="Tracé_1407" data-name="Tracé 1407" d="M1247.206,604.261l-23.549-5.952S1244.861,604.823,1247.206,604.261Z" fill="#4eaec9"/>
    </g>
    <g id="Groupe_418" data-name="Groupe 418">
      <g id="Groupe_417" data-name="Groupe 417">
        <path id="Tracé_1408" data-name="Tracé 1408" d="M1203.615,603.714s17.858-18.669,17.79-19.049-11.144-11.208-11.5-11.108-17.751,16.691-17.942,17.03S1202.681,603.012,1203.615,603.714Z" fill="#f99619"/>
        <path id="Tracé_1409" data-name="Tracé 1409" d="M1200.879,600.881s-7.965-9.717-7.475-10.437,15-15.362,16.122-15.1,3.927,1.369,3.927,1.369l-3.547-3.152s-17.409,16.054-18.178,17.243Z" fill="#ffb60f"/>
        <path id="Tracé_1410" data-name="Tracé 1410" d="M1203.615,603.714s1.679,2.076,2.528,1.343,12.8-15.1,16.8-18.129c.431-.685-.679-2.115-1.533-2.263S1204.382,601.47,1203.615,603.714Z" fill="#ea5f20"/>
        <path id="Tracé_1411" data-name="Tracé 1411" d="M1204.195,602.744s13.141-15.147,16.438-17.591C1217.76,586.159,1205.4,600.781,1204.195,602.744Z" fill="#e05414"/>
      </g>
    </g>
    <g id="Groupe_420" data-name="Groupe 420">
      <g id="Groupe_419" data-name="Groupe 419">
        <path id="Tracé_1412" data-name="Tracé 1412" d="M1245.94,540.2s8.768,24.3,9.139,24.41,15-4.99,15.065-5.353-7.044-23.325-7.262-23.647S1246.985,539.68,1245.94,540.2Z" fill="#f99619"/>
        <path id="Tracé_1413" data-name="Tracé 1413" d="M1249.695,539.015s12.246-2.807,12.673-2.048,7.078,20.273,6.349,21.16-2.974,2.907-2.974,2.907l4.4-1.773s-6.626-22.734-7.349-23.953Z" fill="#ffb60f"/>
        <path id="Tracé_1414" data-name="Tracé 1414" d="M1245.94,540.2s-2.606.58-2.328,1.666,7.825,18.188,8.758,23.109c.422.691,2.2.334,2.709-.365S1247.608,541.89,1245.94,540.2Z" fill="#ea5f20"/>
        <path id="Tracé_1415" data-name="Tracé 1415" d="M1246.55,541.155s7.715,18.51,8.436,22.55C1255.363,560.684,1247.77,543.112,1246.55,541.155Z" fill="#e05414"/>
      </g>
    </g>
    <g id="Groupe_422" data-name="Groupe 422">
      <path id="Tracé_1416" data-name="Tracé 1416" d="M1305.883,555.937s11.868,3.482,11.945,3.432-.382-3.506-.382-3.506S1306.546,554.451,1305.883,555.937Z" fill="#377788"/>
      <path id="Tracé_1417" data-name="Tracé 1417" d="M1317.995,558.629l-.134-.85,1.306.248-.279-1.424s-4.908-1.888-4.856-1.028S1316.6,558.678,1317.995,558.629Z" fill="#bcb086"/>
      <path id="Tracé_1418" data-name="Tracé 1418" d="M1306.355,555.721l11.207,3.1.433-.192-1.092-.746,1.933.325.331-.181-3.853-1.095,4.331.754.53-.284s-10.209-2.992-11.407-3.006A4.072,4.072,0,0,0,1306.355,555.721Z" fill="#f8e8b0"/>
      <path id="Tracé_1419" data-name="Tracé 1419" d="M1308.592,555.057s11.909,2.534,12.143,2.407-1.207-21.3-1.438-21.52-12.139-4.646-12.513-4.676S1308.592,555.057,1308.592,555.057Z" fill="#469ab1"/>
      <path id="Tracé_1420" data-name="Tracé 1420" d="M1303.281,532.435s2.345,23.415,2.6,23.5a16.754,16.754,0,0,0,2.709-.88s-1.412-23.559-1.808-23.789S1303.222,531.945,1303.281,532.435Z" fill="#377788"/>
      <path id="Tracé_1421" data-name="Tracé 1421" d="M1308.07,531.7c2.546,1.206,8.279,4.194,9.54,7.192,1.269,3.016,1.335,13.27,1.05,18.238a16.148,16.148,0,0,0,2.075.338c.234-.128-1.207-21.3-1.438-21.52C1319.11,535.763,1311.233,532.817,1308.07,531.7Z" fill="#4eaec9"/>
      <g id="Groupe_421" data-name="Groupe 421">
        <path id="Tracé_1422" data-name="Tracé 1422" d="M1318.455,540.326l-8.053-2.477.142,1.3,8.008,2.07Z" fill="#3f5354"/>
        <path id="Tracé_1423" data-name="Tracé 1423" d="M1312.231,540.756l.043,1.15,4.9.828-.107-.978Z" fill="#3f5354"/>
        <path id="Tracé_1424" data-name="Tracé 1424" d="M1312.327,542.52l.043,1.15,4.9.828-.107-.978Z" fill="#3f5354"/>
        <path id="Tracé_1425" data-name="Tracé 1425" d="M1312.518,544.273l.043,1.15,4.9.828-.107-.978Z" fill="#3f5354"/>
        <path id="Tracé_1426" data-name="Tracé 1426" d="M1312.231,540.756l.043,1.15,4.9.828-.107-.978Z" fill="#3f5354"/>
      </g>
      <path id="Tracé_1427" data-name="Tracé 1427" d="M1307.346,532.516s2.017,13.97,1.675,21.928C1310.66,552.835,1309.119,536.173,1307.346,532.516Z" fill="#4eaec9"/>
    </g>
    <g id="Groupe_425" data-name="Groupe 425">
      <g id="Groupe_424" data-name="Groupe 424">
        <g id="Groupe_423" data-name="Groupe 423">
          <path id="Tracé_1428" data-name="Tracé 1428" d="M1299.784,557.222s-2.282-15.063-2.373-15.069-1.421.639-1.421.639S1298.308,557.164,1299.784,557.222Z" fill="#86821b"/>
          <path id="Tracé_1429" data-name="Tracé 1429" d="M1299.426,556.843l-2.254-14.321s-.236-.046-.758-.856,1.25,12.908,2.055,14.372S1299.426,556.843,1299.426,556.843Z" fill="#f8e8b0"/>
          <path id="Tracé_1430" data-name="Tracé 1430" d="M1275.226,547.472s21.087-7.106,21.136-6.8,2.093,15.138,2.093,15.138-21.6,7.031-21.635,6.819S1274.941,549.593,1275.226,547.472Z" fill="#b2ac23"/>
          <path id="Tracé_1431" data-name="Tracé 1431" d="M1276.474,560.157c-.28-4.209-.533-11.142.765-12.006,1.6-1.066,14.065-4.053,19.578-4.2-.255-1.846-.441-3.185-.455-3.275-.049-.308-21.136,6.8-21.136,6.8C1275.018,549.02,1275.945,556.27,1276.474,560.157Z" fill="#c5be28"/>
          <path id="Tracé_1432" data-name="Tracé 1432" d="M1276.82,562.631s1.34,1.566,2.153,1.631c2.731-.762,20.459-6.459,20.811-7.04l-1.329-1.41Z" fill="#86821b"/>
          <path id="Tracé_1433" data-name="Tracé 1433" d="M1277.528,562.1l19.725-6.593S1281.466,559.4,1277.528,562.1Z" fill="#86821b"/>
        </g>
      </g>
    </g>
    <path id="Tracé_1434" data-name="Tracé 1434" d="M1258.779,487.28h-1.522a.7.7,0,0,1-.421-.119.617.617,0,0,1-.23-.305l-.5-1.476h-3.218l-.5,1.476a.676.676,0,0,1-.639.424h-1.533l3.275-8.463h2.01Zm-5.437-3.235h2.312l-.778-2.318q-.077-.221-.178-.52t-.2-.647q-.093.354-.192.656c-.065.2-.127.376-.185.523Z" fill="#e44236"/>
    <path id="Tracé_1435" data-name="Tracé 1435" d="M1272.75,578.9h-1.521a.709.709,0,0,1-.422-.119.617.617,0,0,1-.229-.3l-.5-1.475h-3.218l-.5,1.475a.661.661,0,0,1-.227.293.653.653,0,0,1-.412.131h-1.534l3.276-8.462h2.01Zm-5.436-3.235h2.312l-.779-2.318-.177-.519c-.068-.2-.134-.416-.2-.648q-.093.354-.192.656t-.186.523Z" fill="#e44236"/>
    <path id="Tracé_1436" data-name="Tracé 1436" d="M1207.083,492.532l7.186-4.469,1.644,2.644a5.927,5.927,0,0,1,.65,1.354,2.828,2.828,0,0,1,.141,1.1,1.735,1.735,0,0,1-.313.861,2.417,2.417,0,0,1-.71.651,1.864,1.864,0,0,1-.509.221,1.638,1.638,0,0,1-.557.045,1.9,1.9,0,0,1-.593-.158,2.883,2.883,0,0,1-.626-.384,2.326,2.326,0,0,1,.094,1.4,1.705,1.705,0,0,1-.783.958,2.416,2.416,0,0,1-.963.353,2.3,2.3,0,0,1-1.012-.092,2.91,2.91,0,0,1-.985-.561,4.339,4.339,0,0,1-.879-1.046Zm5.2-.921.54.868a3.316,3.316,0,0,0,.349.473,1.218,1.218,0,0,0,.373.292.753.753,0,0,0,.418.068,1.2,1.2,0,0,0,.485-.189,1.44,1.44,0,0,0,.387-.329.719.719,0,0,0,.151-.368.971.971,0,0,0-.062-.429,2.773,2.773,0,0,0-.258-.514l-.607-.977Zm-1.115.693-1.79,1.113.73,1.174a1.736,1.736,0,0,0,.42.488,1,1,0,0,0,.421.193.867.867,0,0,0,.4-.024,1.549,1.549,0,0,0,.368-.168,1.333,1.333,0,0,0,.323-.272.7.7,0,0,0,.155-.343,1,1,0,0,0-.039-.438,2.267,2.267,0,0,0-.266-.559Z" fill="#f17a1d"/>
    <path id="Tracé_1437" data-name="Tracé 1437" d="M1237.937,560.071,1235,552.134l2.92-1.079a5.878,5.878,0,0,1,1.456-.365,2.844,2.844,0,0,1,1.1.082,1.739,1.739,0,0,1,.781.479,2.446,2.446,0,0,1,.494.827,1.841,1.841,0,0,1,.114.543,1.6,1.6,0,0,1-.068.554,1.893,1.893,0,0,1-.273.55,2.878,2.878,0,0,1-.5.535,2.335,2.335,0,0,1,1.389.19,1.708,1.708,0,0,1,.781.959,2.423,2.423,0,0,1,.153,1.015,2.313,2.313,0,0,1-.294.972,2.892,2.892,0,0,1-.748.852,4.323,4.323,0,0,1-1.2.652Zm.142-5.278.959-.354a3.526,3.526,0,0,0,.534-.247,1.233,1.233,0,0,0,.361-.307.751.751,0,0,0,.15-.4,1.2,1.2,0,0,0-.087-.513,1.43,1.43,0,0,0-.245-.445.715.715,0,0,0-.329-.222.978.978,0,0,0-.434-.025,2.7,2.7,0,0,0-.555.149l-1.079.4Zm.455,1.231.731,1.978,1.3-.48a1.719,1.719,0,0,0,.562-.313.992.992,0,0,0,.273-.373.855.855,0,0,0,.058-.4,1.562,1.562,0,0,0-.09-.394,1.346,1.346,0,0,0-.2-.371.7.7,0,0,0-.3-.222,1.03,1.03,0,0,0-.436-.049,2.285,2.285,0,0,0-.6.148Z" fill="#469ab1"/>
    <path id="Tracé_1438" data-name="Tracé 1438" d="M1235.973,527.813a.384.384,0,0,1,.138.031.377.377,0,0,1,.13.1l.748.847a3.241,3.241,0,0,1-1.317.96,4.486,4.486,0,0,1-1.832.272,4.332,4.332,0,0,1-1.715-.391,3.747,3.747,0,0,1-1.261-.953,3.989,3.989,0,0,1-.765-1.4,5.057,5.057,0,0,1-.221-1.732,4.539,4.539,0,0,1,.389-1.726,4.051,4.051,0,0,1,.959-1.333,4.1,4.1,0,0,1,1.429-.843,4.863,4.863,0,0,1,1.8-.253,4.616,4.616,0,0,1,.893.117,4.465,4.465,0,0,1,.778.261,3.725,3.725,0,0,1,.66.379,3.246,3.246,0,0,1,.529.476l-.694.863a.846.846,0,0,1-.156.143.4.4,0,0,1-.247.058.442.442,0,0,1-.2-.054,2.264,2.264,0,0,1-.194-.12l-.223-.154a1.86,1.86,0,0,0-.291-.156,2.489,2.489,0,0,0-.4-.128,2.828,2.828,0,0,0-.536-.066,2.458,2.458,0,0,0-.982.153,2.14,2.14,0,0,0-.777.512,2.515,2.515,0,0,0-.525.832,3.333,3.333,0,0,0-.218,1.113,3.475,3.475,0,0,0,.135,1.162,2.523,2.523,0,0,0,.45.868,2.042,2.042,0,0,0,.692.551,2.116,2.116,0,0,0,.864.212,4.057,4.057,0,0,0,.488-.008,2.018,2.018,0,0,0,.413-.075,1.881,1.881,0,0,0,.366-.152,2.3,2.3,0,0,0,.354-.24.691.691,0,0,1,.155-.09A.386.386,0,0,1,1235.973,527.813Z" fill="#ffc234"/>
    <path id="Tracé_1439" data-name="Tracé 1439" d="M1187.174,581.11l-.716-1.343a.7.7,0,0,1-.093-.427.61.61,0,0,1,.161-.346l1.067-1.135-1.514-2.839-1.537.253a.673.673,0,0,1-.674-.364l-.722-1.354,9.009-1.089.945,1.773Zm.3-6.319,1.087,2.04,1.679-1.777c.106-.114.231-.247.376-.4s.3-.314.477-.481c-.238.056-.461.1-.669.139s-.392.064-.549.082Z" fill="#ffc234"/>
    <path id="Tracé_1440" data-name="Tracé 1440" d="M1276.653,541.357l-1.283-.819a.715.715,0,0,1-.291-.327.614.614,0,0,1-.029-.38l.373-1.513-2.712-1.731-1.215.975a.676.676,0,0,1-.767.014l-1.292-.825,7.314-5.371,1.694,1.081Zm-2.842-5.652,1.949,1.244.59-2.372c.037-.151.081-.329.131-.534s.11-.422.179-.654c-.179.166-.351.316-.514.451s-.31.247-.438.34Z" fill="#ffc234"/>
    <path id="Tracé_1441" data-name="Tracé 1441" d="M1309.305,574.737v-8.462h3.114a5.887,5.887,0,0,1,1.492.163,2.854,2.854,0,0,1,1.005.458,1.744,1.744,0,0,1,.566.721,2.433,2.433,0,0,1,.177.946,1.863,1.863,0,0,1-.081.549,1.618,1.618,0,0,1-.255.5,1.93,1.93,0,0,1-.448.421,2.888,2.888,0,0,1-.656.328,2.335,2.335,0,0,1,1.237.659,1.709,1.709,0,0,1,.4,1.171,2.42,2.42,0,0,1-.209,1,2.316,2.316,0,0,1-.613.811,2.916,2.916,0,0,1-1,.54,4.353,4.353,0,0,1-1.353.194Zm1.963-4.9h1.023a3.365,3.365,0,0,0,.586-.046,1.209,1.209,0,0,0,.445-.163.751.751,0,0,0,.278-.319,1.2,1.2,0,0,0,.1-.511,1.448,1.448,0,0,0-.075-.5.722.722,0,0,0-.233-.322.977.977,0,0,0-.4-.174,2.725,2.725,0,0,0-.572-.053h-1.151Zm0,1.313v2.108h1.383a1.732,1.732,0,0,0,.636-.1,1,1,0,0,0,.386-.255.865.865,0,0,0,.192-.354,1.6,1.6,0,0,0,.052-.4,1.326,1.326,0,0,0-.061-.418.7.7,0,0,0-.209-.314,1.024,1.024,0,0,0-.392-.2,2.266,2.266,0,0,0-.616-.07Z" fill="#469ab1"/>
    <path id="Tracé_1442" data-name="Tracé 1442" d="M1257.231,616.7a.4.4,0,0,1,.139.026.368.368,0,0,1,.134.09l.778.819a3.241,3.241,0,0,1-1.281,1.008,4.489,4.489,0,0,1-1.82.339,4.333,4.333,0,0,1-1.728-.328,3.731,3.731,0,0,1-1.3-.906,3.979,3.979,0,0,1-.815-1.37,5.059,5.059,0,0,1-.285-1.723,4.534,4.534,0,0,1,.325-1.739,4.006,4.006,0,0,1,2.306-2.262,4.866,4.866,0,0,1,1.8-.32,4.507,4.507,0,0,1,.9.085,4.345,4.345,0,0,1,.787.232,3.769,3.769,0,0,1,.674.354,3.311,3.311,0,0,1,.546.456l-.663.889a.841.841,0,0,1-.15.148.4.4,0,0,1-.244.067.437.437,0,0,1-.2-.047,2.2,2.2,0,0,1-.2-.113l-.23-.145a1.736,1.736,0,0,0-.3-.146,2.5,2.5,0,0,0-.4-.113,2.736,2.736,0,0,0-.537-.046,2.472,2.472,0,0,0-.976.188,2.136,2.136,0,0,0-.758.541,2.5,2.5,0,0,0-.493.851,3.31,3.31,0,0,0-.178,1.12,3.461,3.461,0,0,0,.178,1.156,2.52,2.52,0,0,0,.482.851,2.035,2.035,0,0,0,.711.526,2.129,2.129,0,0,0,.871.18,4.263,4.263,0,0,0,.488-.026,2.109,2.109,0,0,0,.41-.09,1.926,1.926,0,0,0,.36-.166,2.4,2.4,0,0,0,.345-.253.724.724,0,0,1,.151-.1A.389.389,0,0,1,1257.231,616.7Z" fill="#b2ac23"/>
    <path id="Tracé_1443" data-name="Tracé 1443" d="M1189.343,528.841a.375.375,0,0,1,.273.116l.778.819a3.225,3.225,0,0,1-1.281,1.008,4.49,4.49,0,0,1-1.821.34,4.358,4.358,0,0,1-1.728-.328,3.754,3.754,0,0,1-1.295-.906,4.011,4.011,0,0,1-.816-1.371,5.083,5.083,0,0,1-.284-1.722,4.541,4.541,0,0,1,.325-1.74,4.013,4.013,0,0,1,2.306-2.262,4.864,4.864,0,0,1,1.794-.319,4.589,4.589,0,0,1,.9.084,4.375,4.375,0,0,1,.787.232,3.677,3.677,0,0,1,.673.355,3.192,3.192,0,0,1,.546.455l-.662.889a.821.821,0,0,1-.151.148.389.389,0,0,1-.244.067.424.424,0,0,1-.2-.047,2.108,2.108,0,0,1-.2-.113l-.229-.145a1.738,1.738,0,0,0-.3-.145,2.4,2.4,0,0,0-.4-.113,2.728,2.728,0,0,0-.537-.047,2.455,2.455,0,0,0-.976.189,2.147,2.147,0,0,0-.758.54,2.5,2.5,0,0,0-.494.851,3.344,3.344,0,0,0-.177,1.121,3.494,3.494,0,0,0,.177,1.156,2.542,2.542,0,0,0,.482.85,2.047,2.047,0,0,0,.712.526,2.126,2.126,0,0,0,.871.18,4.26,4.26,0,0,0,.488-.026,1.892,1.892,0,0,0,.77-.256,2.315,2.315,0,0,0,.345-.252.688.688,0,0,1,.151-.1A.4.4,0,0,1,1189.343,528.841Z" fill="#469ab1"/>
  </g>
</svg>
