<svg xmlns="http://www.w3.org/2000/svg" width="162.258" height="43.467" viewBox="0 0 162.258 43.467">
  <g id="Groupe_2503" data-name="Groupe 2503" transform="translate(-1342.312 -576.328)">
    <path id="Tracé_4158" data-name="Tracé 4158" d="M1423.844,599.266l.586,6.119,1.288-.167v-6.052Z" fill="#171716"/>
    <path id="Tracé_4159" data-name="Tracé 4159" d="M1420.916,605.461v11.133h19.09l-1.054-11.209Z" fill="#ffab2b"/>
    <path id="Tracé_4160" data-name="Tracé 4160" d="M1418.223,607.821l22.6-.776-1.991-4.369-18.739,1.007Z" fill="#ef7534"/>
    <path id="Tracé_4161" data-name="Tracé 4161" d="M1431.365,609.182q.153,2.058.307,4.117c2.211-.048,4.379-.042,6.591-.089-.1-1.526-.288-3.107-.388-4.633Z" fill="#f3f2f2"/>
    <path id="Tracé_4162" data-name="Tracé 4162" d="M1431.566,613.416l-.324-4.338,6.74-.626.008.118c.05.761.123,1.55.193,2.313s.144,1.555.194,2.319l.008.12-.12,0c-1.106.023-2.22.034-3.3.044s-2.189.021-3.294.045Zm-.078-4.13.291,3.9c1.07-.022,2.146-.032,3.187-.042s2.109-.02,3.174-.042c-.049-.723-.118-1.47-.185-2.193s-.137-1.473-.186-2.2Z" fill="#a86046"/>
    <path id="Tracé_4163" data-name="Tracé 4163" d="M1423.988,613.44q-.051-1.287-.1-2.573c1.168.013,2.371-.049,3.539-.036.011.982,0,1.953.009,2.934Z" fill="#f3f2f2"/>
    <path id="Tracé_4164" data-name="Tracé 4164" d="M1427.607,613.955l-3.785-.358-.117-2.9.181,0c.582.007,1.183,0,1.764-.017s1.189-.024,1.775-.018l.169,0,0,.169c.005.491,0,.988,0,1.469s0,.975.005,1.465Zm-3.452-.673,3.1.294c0-.429,0-.859,0-1.278s0-.861,0-1.3c-.528,0-1.069.009-1.595.019s-1.063.023-1.593.019Z" fill="#a86046"/>
    <path id="Tracé_4165" data-name="Tracé 4165" d="M1438,610.423l0-.115-1.531.042q-.062-.841-.162-1.677l-.114.014q.1.829.161,1.667l-2.839.078L1433.4,609l-.115.009.113,1.424-1.937.054,0,.115,1.942-.054.214,2.7.115-.009-.214-2.7,2.838-.079c.066.931.1,1.866.091,2.794h.115c.006-.93-.025-1.866-.091-2.8Z" fill="#a86046"/>
    <g id="Groupe_2502" data-name="Groupe 2502">
      <path id="Tracé_4166" data-name="Tracé 4166" d="M1436.462,603.692a.056.056,0,0,0-.073.035,1.379,1.379,0,0,1-2.492.238.057.057,0,0,0-.051-.029.06.06,0,0,0-.05.032,1.626,1.626,0,0,1-1.4.863h-.009a1.625,1.625,0,0,1-1.4-.846.06.06,0,0,0-.057-.03.057.057,0,0,0-.049.04,1.437,1.437,0,0,1-2.658.23.057.057,0,0,0-.05-.032.062.062,0,0,0-.051.029,1.51,1.51,0,0,1-1.263.739h-.017a1.507,1.507,0,0,1-1.263-.707.06.06,0,0,0-.047-.028.063.063,0,0,0-.049.023,1.384,1.384,0,0,1-1.109.52h-.011a1.387,1.387,0,0,1-1.106-.5.054.054,0,0,0-.047-.023.059.059,0,0,0-.046.026,1.237,1.237,0,0,1-1.794.216.057.057,0,1,0-.078.084,1.356,1.356,0,0,0,1.923-.174,1.517,1.517,0,0,0,1.148.49h.012a1.524,1.524,0,0,0,1.15-.5,1.595,1.595,0,0,0,2.644-.018,1.591,1.591,0,0,0,1.346.765c.041,0,.083,0,.124-.005a1.592,1.592,0,0,0,1.31-.976,1.747,1.747,0,0,0,1.442.8h.01a1.748,1.748,0,0,0,1.457-.839,1.493,1.493,0,0,0,2.646-.342A.057.057,0,0,0,1436.462,603.692Z" fill="#171716"/>
      <path id="Tracé_4167" data-name="Tracé 4167" d="M1434.7,605.977a.058.058,0,0,0-.074.033.988.988,0,0,1-1.863-.048.058.058,0,0,0-.045-.039.062.062,0,0,0-.056.021,1.682,1.682,0,0,1-2.516.035.057.057,0,0,0-.053-.02.058.058,0,0,0-.045.035,1.2,1.2,0,0,1-1.08.73h0a1.2,1.2,0,0,1-1.081-.722.057.057,0,0,0-.049-.035.056.056,0,0,0-.053.028,1.257,1.257,0,0,1-1.872.227.057.057,0,0,0-.081.081,1.307,1.307,0,0,0,1.082.342,1.187,1.187,0,0,1,2.054.193h0a1.315,1.315,0,0,0,1.148-.717,1.812,1.812,0,0,0,2.572-.029,1.1,1.1,0,0,0,2.044-.04A.058.058,0,0,0,1434.7,605.977Z" fill="#171716"/>
    </g>
    <path id="Tracé_4168" data-name="Tracé 4168" d="M1429.9,614.778l.138.722h1.2l.123-.722Z" fill="#ef7534"/>
    <path id="Tracé_4169" data-name="Tracé 4169" d="M1422.266,608.452l.138.892h1.3l.359-.892Z" fill="#ef7534"/>
    <path id="Tracé_4170" data-name="Tracé 4170" d="M1436.5,614.262v.877h1.311V614.09Z" fill="#ef7534"/>
  </g>
  <g id="Groupe_2511" data-name="Groupe 2511" transform="translate(-1342.312 -576.328)">
    <path id="Tracé_4171" data-name="Tracé 4171" d="M1380.465,616.485l-.9-29.264c3.619-.024,7.2-.253,10.819-.277-.221,9.756-.413,19.791-.634,29.547Z" fill="#e6e6e6"/>
    <path id="Tracé_4172" data-name="Tracé 4172" d="M1379.57,587.221l5.831-9,4.987,8.721Z" fill="#a2c19d"/>
    <g id="Groupe_2504" data-name="Groupe 2504">
      <path id="Tracé_4173" data-name="Tracé 4173" d="M1387.936,609.429h-4.108l.1,1.718,3.934-.45Z" fill="#72866d"/>
      <path id="Tracé_4174" data-name="Tracé 4174" d="M1387.86,610.7l-3.934.45.057.989,3.779.2Z" fill="#a2c19d"/>
      <path id="Tracé_4175" data-name="Tracé 4175" d="M1384.233,616.488l3.283,0,.12-2.022-3.493.45Z" fill="#72866d"/>
      <path id="Tracé_4176" data-name="Tracé 4176" d="M1384.106,614.266l.037.651,3.493-.45.024-.4Z" fill="#a2c19d"/>
      <path id="Tracé_4177" data-name="Tracé 4177" d="M1387.763,612.34l-3.779-.2.122,2.13,3.554-.2Z" fill="#72866d"/>
    </g>
    <g id="Groupe_2505" data-name="Groupe 2505">
      <path id="Tracé_4178" data-name="Tracé 4178" d="M1385.717,600.392h2.8v-2.844l-3.1.214Z" fill="#f3f2f2"/>
      <path id="Tracé_4179" data-name="Tracé 4179" d="M1384.979,597.424l.389,3.366h3.581v-3.64Zm3.536,2.968h-2.8l-.3-2.629,3.1-.215Z" fill="#a2c19d"/>
    </g>
    <g id="Groupe_2506" data-name="Groupe 2506">
      <path id="Tracé_4180" data-name="Tracé 4180" d="M1382.406,603.731v2.8h2.844l-.214-3.1Z" fill="#f3f2f2"/>
      <path id="Tracé_4181" data-name="Tracé 4181" d="M1385.373,602.993l-3.365.389v3.581h3.64Zm-2.967,3.536v-2.8l2.629-.3.215,3.1Z" fill="#a2c19d"/>
    </g>
    <g id="Groupe_2507" data-name="Groupe 2507">
      <path id="Tracé_4182" data-name="Tracé 4182" d="M1382.522,589.726v5.263h2.068l-.157-5.263Z" fill="#f3f2f2"/>
      <path id="Tracé_4183" data-name="Tracé 4183" d="M1384.764,588.733h-2.632v7.249h2.847Zm-2.242,6.256v-5.263h1.911l.156,5.263Z" fill="#a2c19d"/>
    </g>
    <g id="Groupe_2508" data-name="Groupe 2508">
      <path id="Tracé_4184" data-name="Tracé 4184" d="M1386.516,590.749l.259,3.107,2.58.259v-3.928Zm2.454,2.832-1.879-.188-.189-2.263,2.068-.409Z" fill="#a2c19d"/>
      <path id="Tracé_4185" data-name="Tracé 4185" d="M1387.091,593.393l1.879.189v-2.86l-2.068.409Z" fill="#f3f2f2"/>
    </g>
    <g id="Groupe_2509" data-name="Groupe 2509">
      <path id="Tracé_4186" data-name="Tracé 4186" d="M1384.038,583.628a1.417,1.417,0,0,0,.405,1.737,1.59,1.59,0,0,0,1.817.013C1388.305,583.959,1385.148,581.56,1384.038,583.628Z" fill="#171716"/>
      <path id="Tracé_4187" data-name="Tracé 4187" d="M1387.052,583.984a1.878,1.878,0,0,0-1.556-1.3,1.539,1.539,0,0,0-1.595.875,1.578,1.578,0,0,0,.448,1.934,1.658,1.658,0,0,0,1,.323,1.763,1.763,0,0,0,1-.306A1.389,1.389,0,0,0,1387.052,583.984Zm-.3.073.007.035-1.152.039-.051-1.127A1.549,1.549,0,0,1,1386.751,584.057Zm-1.507-1.079.052,1.163-1.248.042a1.1,1.1,0,0,1,.126-.481A1.232,1.232,0,0,1,1385.244,582.978Zm-.708,2.264a1.267,1.267,0,0,1-.462-.75l1.236-.041.047,1.052A1.346,1.346,0,0,1,1384.536,585.242Zm1.635.009a1.418,1.418,0,0,1-.505.218l-.046-1.029,1.152-.038A1.262,1.262,0,0,1,1386.171,585.251Z" fill="#f3f2f2"/>
    </g>
    <g id="Groupe_2510" data-name="Groupe 2510">
      <path id="Tracé_4188" data-name="Tracé 4188" d="M1381.547,598.162v1.144l1.662-.18-.245-.964Z" fill="#a2c19d"/>
      <path id="Tracé_4189" data-name="Tracé 4189" d="M1383.209,600.392v1.219l1.77.031-.39-1.251Z" fill="#a2c19d"/>
      <path id="Tracé_4190" data-name="Tracé 4190" d="M1387.414,606.462v1.129l1.555-.027-.021-1.01Z" fill="#a2c19d"/>
      <path id="Tracé_4191" data-name="Tracé 4191" d="M1386.516,587.909v.824l2.432.144v-1.232Z" fill="#a2c19d"/>
    </g>
  </g>
  <g id="Groupe_2516" data-name="Groupe 2516" transform="translate(-1342.312 -576.328)">
    <path id="Tracé_4192" data-name="Tracé 4192" d="M1439.053,618.062l-.869-28.411c3.513-.023,6.99-.246,10.5-.269-.214,9.472-.4,19.214-.615,28.686Z" fill="#f3f2f2"/>
    <path id="Tracé_4193" data-name="Tracé 4193" d="M1437.084,590.367l6.848-10.567,5.857,10.242Z" fill="#72866c"/>
    <g id="Groupe_2512" data-name="Groupe 2512">
      <path id="Tracé_4194" data-name="Tracé 4194" d="M1442.225,608.875h2.716v-2.761l-3.011.208Z" fill="#72866d"/>
      <path id="Tracé_4195" data-name="Tracé 4195" d="M1441.509,605.994l.377,3.268h3.477v-3.534Zm3.432,2.881h-2.716l-.295-2.552,3.011-.208Z" fill="#a2c19d"/>
    </g>
    <g id="Groupe_2513" data-name="Groupe 2513">
      <path id="Tracé_4196" data-name="Tracé 4196" d="M1442.055,600.349v2.716h2.761l-.208-3.011Z" fill="#72866d"/>
      <path id="Tracé_4197" data-name="Tracé 4197" d="M1444.936,599.633l-3.267.377v3.477h3.533Zm-2.881,3.432v-2.716l2.553-.295.208,3.011Z" fill="#a2c19d"/>
    </g>
    <g id="Groupe_2514" data-name="Groupe 2514">
      <path id="Tracé_4198" data-name="Tracé 4198" d="M1442.432,592.083v5.109h2.007l-.152-5.109Z" fill="#72866d"/>
      <path id="Tracé_4199" data-name="Tracé 4199" d="M1444.609,591.119h-2.556v7.037h2.765Zm-2.177,6.073v-5.109h1.855l.152,5.109Z" fill="#a2c19d"/>
    </g>
    <path id="Tracé_4200" data-name="Tracé 4200" d="M1439.614,598.331v1.111l1.614-.175-.237-.936Z" fill="#a2c19d"/>
    <path id="Tracé_4201" data-name="Tracé 4201" d="M1439.562,609.533v1.184l1.719.03-.379-1.214Z" fill="#a2c19d"/>
    <path id="Tracé_4202" data-name="Tracé 4202" d="M1445.909,610.293v1.1l1.51-.026-.02-.98Z" fill="#a2c19d"/>
    <path id="Tracé_4203" data-name="Tracé 4203" d="M1445.483,596.193v.8l2.362.14v-1.2Z" fill="#a2c19d"/>
    <path id="Tracé_4204" data-name="Tracé 4204" d="M1441.124,618.068c-.315-8.179,5.192-9.306,5.182-.005Z" fill="#7f5935"/>
    <path id="Tracé_4205" data-name="Tracé 4205" d="M1442.682,615.14a.462.462,0,0,0,0,.923A.462.462,0,0,0,1442.682,615.14Z" fill="#171716"/>
    <g id="Groupe_2515" data-name="Groupe 2515">
      <path id="Tracé_4206" data-name="Tracé 4206" d="M1446.228,588.461c.021-4.527-5.46-4.258-5.194.255Z" fill="#7f5935"/>
      <path id="Tracé_4207" data-name="Tracé 4207" d="M1441.08,587.683l5.056-.2C1445.485,584.315,1441.59,584.491,1441.08,587.683Z" fill="#f3f2f2"/>
      <path id="Tracé_4208" data-name="Tracé 4208" d="M1440.92,588.722l.007.113,5.414-.265v-.108a3.316,3.316,0,0,0-1.494-3.071,2.493,2.493,0,0,0-2.538.082A3.422,3.422,0,0,0,1440.92,588.722Zm2.739-3.41-.062,3.095a22.071,22.071,0,0,1-2.034-1.808,2.533,2.533,0,0,1,.868-.934A2.3,2.3,0,0,1,1443.659,585.312Zm1.6.674-1.507,2.483h0l.063-3.152a2.209,2.209,0,0,1,.926.273A2.27,2.27,0,0,1,1445.255,585.986Zm.858,2.367-2.182.107,1.431-2.358A3.474,3.474,0,0,1,1446.113,588.353Zm-4.623-1.612a22.184,22.184,0,0,0,1.959,1.742l-2.307.113A3.909,3.909,0,0,1,1441.49,586.741Z" fill="#d4d4d4"/>
    </g>
  </g>
  <g id="Groupe_2519" data-name="Groupe 2519" transform="translate(-1342.312 -576.328)">
    <g id="Groupe_2517" data-name="Groupe 2517">
      <path id="Tracé_4209" data-name="Tracé 4209" d="M1490.421,584.757v32.6h4.161c-.187-3.09-.408-9.521-.408-9.521h3.821l-.429,9.521h7V584.627l-.015-.449C1499.845,584.115,1495.119,584.351,1490.421,584.757Zm12.046,14.481a4.544,4.544,0,0,1-1.392.011c-.356-.053-.767-.208-.841-.56a.636.636,0,0,1,.176-.547,1.41,1.41,0,0,1,.5-.32c.591-.251,2.049-.605,2.62-.082C1504.286,598.435,1503.075,599.138,1502.467,599.238Zm-3.058-11.334h3.057l.251,8.42h-3.308Zm-2.756-1.171v4.228h-4.16l-.451-3.909Zm.879,18.438a1.885,1.885,0,0,1-.682.189,17.406,17.406,0,0,1-3.4,0,2.711,2.711,0,0,1-.91-.165.929.929,0,0,1-.582-.673.94.94,0,0,1,.594-.919,2.753,2.753,0,0,1,1.154-.162,13.205,13.205,0,0,1,3.162.047C1497.541,603.669,1498.45,604.656,1497.532,605.171Zm-3.358-8.947,3.3-.653v4.562l-3-.3Zm2.948-2.087a2.032,2.032,0,0,1-.917.023.876.876,0,0,1-.648-.6c-.271-1.137,1.52-1.17,2.192-.947C1498.9,593,1497.843,593.988,1497.122,594.137Zm1.577,7.089,3.909-.451.318,4.611H1498.7Zm4.113,10.3a4.425,4.425,0,0,1-1.223-.216c-.258-.084-.539-.228-.6-.492-.247-1.06,2.07-1.123,2.668-.9C1505.007,610.419,1503.8,611.562,1502.812,611.529Z" fill="#e6e6e6"/>
      <path id="Tracé_4210" data-name="Tracé 4210" d="M1494.174,607.832s.221,6.431.408,9.521h2.984l.429-9.521Zm2.83,5.2a.3.3,0,0,1,0-.6A.3.3,0,0,1,1497,613.027Z" fill="#369d98"/>
      <path id="Tracé_4211" data-name="Tracé 4211" d="M1496.148,590.5v-3.3l-3.6.249.352,3.054Z" fill="#f3f2f2"/>
      <path id="Tracé_4212" data-name="Tracé 4212" d="M1496.653,590.961v-4.228l-4.611.319.451,3.909Zm-.505-3.765v3.3H1492.9l-.353-3.054Z" fill="#369d98"/>
      <path id="Tracé_4213" data-name="Tracé 4213" d="M1499.161,601.632v3.25h3.3l-.249-3.6Z" fill="#f3f2f2"/>
      <path id="Tracé_4214" data-name="Tracé 4214" d="M1502.608,600.775l-3.909.451v4.16h4.227Zm-3.447,4.107v-3.25l3.054-.352.249,3.6Z" fill="#369d98"/>
      <path id="Tracé_4215" data-name="Tracé 4215" d="M1499.862,589.057v6.113h2.4l-.182-6.113Z" fill="#f3f2f2"/>
      <path id="Tracé_4216" data-name="Tracé 4216" d="M1502.466,587.9h-3.057v8.42h3.308Zm-2.6,7.266v-6.113h2.22l.182,6.113Z" fill="#369d98"/>
      <path id="Tracé_4217" data-name="Tracé 4217" d="M1497.471,595.571l-3.3.653.3,3.608,3,.3Zm-.448,3.942-2.182-.219-.219-2.628,2.4-.475Z" fill="#369d98"/>
      <path id="Tracé_4218" data-name="Tracé 4218" d="M1494.841,599.294l2.182.219v-3.322l-2.4.475Z" fill="#f3f2f2"/>
      <path id="Tracé_4219" data-name="Tracé 4219" d="M1487.739,583.11l16.831-.529v-2l-16.011.621C1488.276,581.835,1488,582.47,1487.739,583.11Z" fill="#7bc2bf"/>
      <path id="Tracé_4220" data-name="Tracé 4220" d="M1488.669,580.96l15.9-.617V579.5l-14.654-1.122Q1489.263,579.655,1488.669,580.96Z" fill="#7bc2bf"/>
      <path id="Tracé_4221" data-name="Tracé 4221" d="M1490.215,577.8l14.355,1.1v-2.57l-13.7.26Q1490.534,577.19,1490.215,577.8Z" fill="#7bc2bf"/>
      <path id="Tracé_4222" data-name="Tracé 4222" d="M1487.591,583.475c-.214.533-.424,1.067-.624,1.606q1.723-.179,3.454-.324c4.7-.406,9.424-.642,14.134-.579h.015v-1.237Z" fill="#7bc2bf"/>
      <path id="Tracé_4223" data-name="Tracé 4223" d="M1489.916,578.378l14.654,1.122v-.6l-14.355-1.1C1490.114,577.991,1490.015,578.184,1489.916,578.378Z" fill="#369d98"/>
      <path id="Tracé_4224" data-name="Tracé 4224" d="M1488.559,581.2l16.011-.621v-.24l-15.9.617C1488.632,581.041,1488.6,581.123,1488.559,581.2Z" fill="#369d98"/>
      <path id="Tracé_4225" data-name="Tracé 4225" d="M1487.739,583.11c-.05.121-.1.243-.148.365l16.979-.534v-.36Z" fill="#369d98"/>
      <path id="Tracé_4226" data-name="Tracé 4226" d="M1497,612.426a.3.3,0,0,0,0,.6A.3.3,0,0,0,1497,612.426Z" fill="#171716"/>
      <path id="Tracé_4227" data-name="Tracé 4227" d="M1503.656,609.919c-.6-.221-2.915-.158-2.668.9.062.264.343.408.6.492a4.425,4.425,0,0,0,1.223.216C1503.8,611.562,1505.007,610.419,1503.656,609.919Z" fill="#d4d4d4"/>
      <path id="Tracé_4228" data-name="Tracé 4228" d="M1496.867,603.485a13.205,13.205,0,0,0-3.162-.047,2.753,2.753,0,0,0-1.154.162.94.94,0,0,0-.594.919.929.929,0,0,0,.582.673,2.711,2.711,0,0,0,.91.165,17.406,17.406,0,0,0,3.4,0,1.885,1.885,0,0,0,.682-.189C1498.45,604.656,1497.541,603.669,1496.867,603.485Z" fill="#d4d4d4"/>
      <path id="Tracé_4229" data-name="Tracé 4229" d="M1500.908,597.822a1.41,1.41,0,0,0-.5.32.636.636,0,0,0-.176.547c.074.352.485.507.841.56a4.544,4.544,0,0,0,1.392-.011c.608-.1,1.819-.8,1.061-1.5C1502.957,597.217,1501.5,597.571,1500.908,597.822Z" fill="#d4d4d4"/>
      <path id="Tracé_4230" data-name="Tracé 4230" d="M1497.749,592.617c-.672-.223-2.463-.19-2.192.947a.876.876,0,0,0,.648.6,2.032,2.032,0,0,0,.917-.023C1497.843,593.988,1498.9,593,1497.749,592.617Z" fill="#d4d4d4"/>
    </g>
    <g id="Groupe_2518" data-name="Groupe 2518">
      <path id="Tracé_4231" data-name="Tracé 4231" d="M1342.505,616.636h4.017l-.073-.687h.658l-.179-5.627h-.637l-.177-1.436,3.175.345-.2,1.091h-.645v5.627h.676l-.11.687h.556c-.352-8.77,6.109-11.454,5.35,0h.52l-.111-.687H1356v-5.627h-.646l-.2-1.091,3.175-.345-.177,1.436h-.637l-.179,5.627H1358l-.073.687h3.969l-1.987-26.675h-17.4Zm16.874-13.74h-3.754v-.64h3.754Zm.2-5.112V601.5l-4.169.255,0-.112c.019-.641.041-1.287.062-1.933s.042-1.291.061-1.931l0-.1.1,0c.631.016,1.273.035,1.914.053s1.29.037,1.925.053Zm-4.548-1.732v-.784h3.185v.784Zm-.176-4.458,3.541-.217,0,.095c-.017.544-.035,1.092-.053,1.641s-.035,1.1-.052,1.64l0,.086-.087,0c-.536-.013-1.08-.029-1.625-.045l-1.634-.045-.085,0Zm-.6,11.3h-3.882v-.64h3.882Zm-.295-5.139,0,.1c-.016.632-.034,1.273-.053,1.914s-.037,1.29-.052,1.925l0,.1h-3.712l-.255-4.17.112,0,1.932.062c.646.021,1.292.042,1.932.061Zm-3.742-2.1v-.39h3.085v.39Zm-.375-.976c.013-.536.029-1.081.044-1.625s.032-1.1.045-1.634l0-.085h3.152l.217,3.54-.1,0c-.544-.016-1.092-.034-1.641-.052s-1.1-.036-1.64-.052l-.086,0Zm-4.771-3.088,3.54-.217,0,.095c-.017.544-.035,1.092-.052,1.641s-.036,1.1-.053,1.64l0,.086-.087,0c-.536-.013-1.08-.029-1.625-.045l-1.634-.045-.085,0Zm-.647,3.676h4.187v.78h-4.187Zm-.533,6.37c.019-.641.04-1.287.061-1.933s.042-1.291.061-1.931l0-.1.1,0c.632.016,1.273.035,1.915.053s1.289.037,1.924.053l.1,0V601.5l-4.17.255Zm4.166.813v.443h-4.17v-.443Z" fill="#7bc2bf"/>
      <path id="Tracé_4232" data-name="Tracé 4232" d="M1353.878,607.772h.743a.117.117,0,0,0,0-.235h-.626v-.64h.424a.117.117,0,1,0,0-.234h-.424v-.639h.653a.117.117,0,1,0,0-.234h-.77a.117.117,0,0,0-.117.117v1.748A.117.117,0,0,0,1353.878,607.772Z" fill="#fff"/>
      <path id="Tracé_4233" data-name="Tracé 4233" d="M1355.152,607.822a.117.117,0,0,0,.117-.117v-2.671a.117.117,0,1,0-.234,0v2.671A.117.117,0,0,0,1355.152,607.822Z" fill="#fff"/>
      <path id="Tracé_4234" data-name="Tracé 4234" d="M1361.092,585.808l-.412-1.345-18.367,1.379v.659Z" fill="#ef7534"/>
      <path id="Tracé_4235" data-name="Tracé 4235" d="M1358.819,578.4l-16.507.211v.819h16.823Z" fill="#ef7534"/>
      <path id="Tracé_4236" data-name="Tracé 4236" d="M1359.906,589.961h2.46l-1.036-3.376-19.018.7v2.673h17.594Z" fill="#ef7534"/>
      <path id="Tracé_4237" data-name="Tracé 4237" d="M1359.738,581.393h-17.425v2.483l17.777-1.335Z" fill="#ef7534"/>
      <path id="Tracé_4238" data-name="Tracé 4238" d="M1359.135,579.429h-16.823v1.964h17.425Z" fill="#ffab2b"/>
      <path id="Tracé_4239" data-name="Tracé 4239" d="M1360.68,584.464l-.59-1.923-17.777,1.335v1.967Z" fill="#ffab2b"/>
      <path id="Tracé_4240" data-name="Tracé 4240" d="M1361.33,586.585l-.238-.777-18.78.694v.786Z" fill="#ffab2b"/>
      <path id="Tracé_4241" data-name="Tracé 4241" d="M1345.254,591.757v1.254h1.4l.153-1.349Z" fill="#f3f2f2"/>
      <path id="Tracé_4242" data-name="Tracé 4242" d="M1348.441,591.562l-1.462.089-.154,1.36h1.57C1348.411,592.527,1348.427,592.042,1348.441,591.562Z" fill="#f3f2f2"/>
      <path id="Tracé_4243" data-name="Tracé 4243" d="M1348.342,594.661c.015-.489.031-.983.048-1.477h-1.585l-.162,1.43.161.005Z" fill="#f3f2f2"/>
      <path id="Tracé_4244" data-name="Tracé 4244" d="M1346.63,593.184h-1.376v1.392l1.215.033Z" fill="#f3f2f2"/>
      <path id="Tracé_4245" data-name="Tracé 4245" d="M1346.8,594.792c.545.016,1.089.032,1.625.045l.087,0,0-.086c.017-.544.035-1.092.053-1.64s.035-1.1.052-1.641l0-.095-3.54.217v3.151l.085,0Zm.006-1.608h1.585c-.017.494-.033.988-.048,1.477l-1.538-.042-.161-.005Zm-1.551-.173v-1.254l1.549-.1-.153,1.349Zm1.571,0,.154-1.36,1.462-.089c-.014.48-.03.965-.046,1.449Zm-1.571.173h1.376l-.161,1.425-1.215-.033Z" fill="#ef7534"/>
      <path id="Tracé_4246" data-name="Tracé 4246" d="M1351.677,594.653l1.449.046-.09-1.462-1.359-.155Z" fill="#f3f2f2"/>
      <path id="Tracé_4247" data-name="Tracé 4247" d="M1351.677,591.512v1.4l1.349.153-.095-1.549Z" fill="#f3f2f2"/>
      <path id="Tracé_4248" data-name="Tracé 4248" d="M1351.5,592.888v-1.376h-1.391c-.01.4-.022.807-.034,1.214Z" fill="#f3f2f2"/>
      <path id="Tracé_4249" data-name="Tracé 4249" d="M1351.5,594.647v-1.584l-1.43-.163,0,.162c-.015.515-.03,1.03-.043,1.538Z" fill="#f3f2f2"/>
      <path id="Tracé_4250" data-name="Tracé 4250" d="M1351.575,594.823c.549.018,1.1.036,1.641.052l.1,0-.217-3.54h-3.152l0,.085c-.013.539-.029,1.086-.045,1.634s-.031,1.089-.044,1.625l0,.086.086,0C1350.478,594.787,1351.027,594.8,1351.575,594.823Zm1.551-.124-1.449-.046v-1.571l1.359.155Zm-1.449-1.791v-1.4h1.254l.095,1.549Zm-.174-1.4v1.376l-1.425-.162c.012-.407.024-.813.034-1.214Zm-1.43,1.388,1.43.163v1.584l-1.477-.047c.013-.508.028-1.023.043-1.538Z" fill="#ef7534"/>
      <path id="Tracé_4251" data-name="Tracé 4251" d="M1355.033,591.757v1.254h1.4l.153-1.349Z" fill="#f3f2f2"/>
      <path id="Tracé_4252" data-name="Tracé 4252" d="M1356.409,593.184h-1.376v1.392l1.215.033Z" fill="#f3f2f2"/>
      <path id="Tracé_4253" data-name="Tracé 4253" d="M1358.121,594.661c.015-.489.031-.983.048-1.477h-1.585l-.162,1.43.161.005Z" fill="#f3f2f2"/>
      <path id="Tracé_4254" data-name="Tracé 4254" d="M1358.22,591.562l-1.462.089-.154,1.36h1.57C1358.19,592.527,1358.206,592.042,1358.22,591.562Z" fill="#f3f2f2"/>
      <path id="Tracé_4255" data-name="Tracé 4255" d="M1356.578,594.792c.545.016,1.089.032,1.625.045l.087,0,0-.086c.017-.544.035-1.092.052-1.64s.036-1.1.053-1.641l0-.095-3.541.217v3.151l.085,0Zm.006-1.608h1.585c-.017.494-.033.988-.048,1.477l-1.538-.042-.161-.005Zm-1.551-.173v-1.254l1.549-.1-.153,1.349Zm1.571,0,.154-1.36,1.462-.089c-.014.48-.03.965-.046,1.449Zm-1.571.173h1.376l-.161,1.425-1.215-.033Z" fill="#ef7534"/>
      <path id="Tracé_4256" data-name="Tracé 4256" d="M1355.625,601.534l1.722-.1.182-1.6h-1.85C1355.661,600.4,1355.642,600.968,1355.625,601.534Z" fill="#f3f2f2"/>
      <path id="Tracé_4257" data-name="Tracé 4257" d="M1355.741,597.883c-.017.577-.036,1.158-.055,1.74h1.866l.191-1.684-.19-.006Z" fill="#f3f2f2"/>
      <path id="Tracé_4258" data-name="Tracé 4258" d="M1357.758,599.623h1.621v-1.639l-1.43-.039Z" fill="#f3f2f2"/>
      <path id="Tracé_4259" data-name="Tracé 4259" d="M1359.379,601.3v-1.477h-1.644l-.18,1.589Z" fill="#f3f2f2"/>
      <path id="Tracé_4260" data-name="Tracé 4260" d="M1355.645,597.676l-.1,0,0,.1c-.019.64-.04,1.286-.061,1.931s-.043,1.292-.062,1.933l0,.112,4.169-.255v-3.713l-.1,0c-.635-.016-1.28-.034-1.925-.053S1356.276,597.692,1355.645,597.676Zm1.907,1.947h-1.866c.019-.582.038-1.163.055-1.74l1.812.05.19.006Zm1.827.2V601.3l-1.825.112.181-1.589Zm-1.85,0-.182,1.6-1.722.1c.017-.566.036-1.136.054-1.707Zm1.85-.2h-1.621l.191-1.678,1.43.039Z" fill="#ef7534"/>
      <path id="Tracé_4261" data-name="Tracé 4261" d="M1351.814,597.893l-1.706-.054.1,1.722,1.6.182Z" fill="#f3f2f2"/>
      <path id="Tracé_4262" data-name="Tracé 4262" d="M1351.814,601.593v-1.644l-1.589-.18.112,1.825Z" fill="#f3f2f2"/>
      <path id="Tracé_4263" data-name="Tracé 4263" d="M1352.019,599.972v1.621h1.639c.012-.473.025-.951.039-1.43Z" fill="#f3f2f2"/>
      <path id="Tracé_4264" data-name="Tracé 4264" d="M1352.019,597.9v1.866l1.684.192.005-.191c.018-.606.035-1.213.05-1.811Z" fill="#f3f2f2"/>
      <path id="Tracé_4265" data-name="Tracé 4265" d="M1350,597.631l-.112,0,.255,4.17h3.712l0-.1c.015-.635.034-1.28.052-1.925s.037-1.282.053-1.914l0-.1-.1,0c-.64-.019-1.286-.04-1.932-.061Zm.106.208,1.706.054v1.85l-1.6-.182Zm1.706,2.11v1.644h-1.477l-.111-1.824Zm.205,1.644v-1.621l1.678.191c-.014.479-.027.957-.039,1.43Zm1.684-1.635-1.684-.192V597.9l1.739.056c-.015.6-.032,1.205-.05,1.811Z" fill="#ef7534"/>
      <path id="Tracé_4266" data-name="Tracé 4266" d="M1344.224,597.883q-.027.866-.056,1.74h1.867l.191-1.684-.19-.006Z" fill="#f3f2f2"/>
      <path id="Tracé_4267" data-name="Tracé 4267" d="M1347.861,601.3v-1.477h-1.644l-.18,1.589Z" fill="#f3f2f2"/>
      <path id="Tracé_4268" data-name="Tracé 4268" d="M1346.24,599.623h1.621v-1.639l-1.43-.039Z" fill="#f3f2f2"/>
      <path id="Tracé_4269" data-name="Tracé 4269" d="M1344.107,601.534l1.723-.1.182-1.6h-1.85C1344.143,600.4,1344.125,600.968,1344.107,601.534Z" fill="#f3f2f2"/>
      <path id="Tracé_4270" data-name="Tracé 4270" d="M1348.066,597.784l-.1,0c-.635-.016-1.28-.034-1.924-.053s-1.283-.037-1.915-.053l-.1,0,0,.1c-.019.64-.04,1.286-.061,1.931s-.042,1.292-.061,1.933l0,.112,4.17-.255Zm-2.031,1.839h-1.867q.03-.873.056-1.74l1.812.05.19.006Zm1.826.2V601.3l-1.824.112.18-1.589Zm-1.849,0-.182,1.6-1.723.1c.018-.566.036-1.136.055-1.707Zm1.849-.2h-1.621l.191-1.678,1.43.039Z" fill="#ef7534"/>
      <path id="Tracé_4271" data-name="Tracé 4271" d="M1348.444,610.322h-1.515l.179,5.627h1.337Z" fill="#f6f5f5"/>
      <path id="Tracé_4272" data-name="Tracé 4272" d="M1349.089,610.322l.2-1.091-3.175-.345.177,1.436h2.8Z" fill="#f6f5f5"/>
      <path id="Tracé_4273" data-name="Tracé 4273" d="M1348.444,615.949h-1.995l.074.687h2.487l.111-.687Z" fill="#f6f5f5"/>
      <path id="Tracé_4274" data-name="Tracé 4274" d="M1357.518,610.322H1356v5.627h1.337Z" fill="#f6f5f5"/>
      <path id="Tracé_4275" data-name="Tracé 4275" d="M1358.155,610.322l.177-1.436-3.175.345.2,1.091h2.8Z" fill="#f6f5f5"/>
      <path id="Tracé_4276" data-name="Tracé 4276" d="M1357.339,615.949h-2.013l.111.687h2.488l.074-.687Z" fill="#f6f5f5"/>
      <path id="Tracé_4277" data-name="Tracé 4277" d="M1349.566,616.636h5.35C1355.675,605.182,1349.214,607.866,1349.566,616.636Z" fill="#a86046"/>
      <rect id="Rectangle_2293" data-name="Rectangle 2293" width="4.188" height="0.78" transform="translate(1344.433 595.27)" fill="#f6f5f5"/>
      <rect id="Rectangle_2294" data-name="Rectangle 2294" width="3.085" height="0.39" transform="translate(1350.226 595.268)" fill="#f6f5f5"/>
      <rect id="Rectangle_2295" data-name="Rectangle 2295" width="3.185" height="0.784" transform="translate(1355.035 595.268)" fill="#f6f5f5"/>
      <rect id="Rectangle_2296" data-name="Rectangle 2296" width="4.17" height="0.443" transform="translate(1343.896 602.453)" fill="#f6f5f5"/>
      <rect id="Rectangle_2297" data-name="Rectangle 2297" width="3.882" height="0.64" transform="translate(1350.381 602.256)" fill="#f6f5f5"/>
      <rect id="Rectangle_2298" data-name="Rectangle 2298" width="3.754" height="0.64" transform="translate(1355.625 602.256)" fill="#f6f5f5"/>
    </g>
  </g>
  <g id="Groupe_2524" data-name="Groupe 2524" transform="translate(-1342.312 -576.328)">
    <g id="Groupe_2520" data-name="Groupe 2520">
      <path id="Tracé_4278" data-name="Tracé 4278" d="M1450.914,593.651l.285,5.011h1.367l.4-5.011Z" fill="#171716"/>
      <rect id="Rectangle_2299" data-name="Rectangle 2299" width="3.673" height="1.504" transform="translate(1450.088 592.826)" fill="#171716"/>
    </g>
    <path id="Tracé_4279" data-name="Tracé 4279" d="M1448.04,600.877l10.558-9.4,7.21,8.409Z" fill="#ffab2b"/>
    <g id="Groupe_2521" data-name="Groupe 2521">
      <path id="Tracé_4280" data-name="Tracé 4280" d="M1456.644,595.4a1.728,1.728,0,0,0,.494,2.117,1.94,1.94,0,0,0,2.213.015C1461.843,595.807,1458,592.885,1456.644,595.4Z" fill="#171716"/>
      <path id="Tracé_4281" data-name="Tracé 4281" d="M1460.316,595.837a2.289,2.289,0,0,0-1.9-1.587,1.874,1.874,0,0,0-1.943,1.065,1.922,1.922,0,0,0,.546,2.356,2.017,2.017,0,0,0,1.218.393,2.144,2.144,0,0,0,1.217-.373A1.692,1.692,0,0,0,1460.316,595.837Zm-.367.09c0,.014.006.028.009.042l-1.4.047-.062-1.372A1.885,1.885,0,0,1,1459.949,595.927Zm-1.835-1.314.063,1.416-1.52.051a1.341,1.341,0,0,1,.154-.586A1.5,1.5,0,0,1,1458.114,594.613Zm-.862,2.757a1.538,1.538,0,0,1-.563-.913l1.505-.051.058,1.282A1.643,1.643,0,0,1,1457.252,597.37Zm1.991.011a1.743,1.743,0,0,1-.615.266l-.056-1.253,1.4-.047A1.535,1.535,0,0,1,1459.243,597.381Z" fill="#f3f2f2"/>
    </g>
    <path id="Tracé_4282" data-name="Tracé 4282" d="M1466.131,614.005l-18.6-.215-.038.947,18.65-.349Z" fill="#f3f2f2"/>
    <path id="Tracé_4283" data-name="Tracé 4283" d="M1465.807,599.891l-17.767.986q-.257,6.457-.512,12.913l18.6.215C1466.023,609.309,1465.917,604.554,1465.807,599.891Z" fill="#e6e6e6"/>
    <path id="Tracé_4284" data-name="Tracé 4284" d="M1466.14,614.388l-18.65.349-.035.9,18.7-.428Q1466.148,614.8,1466.14,614.388Z" fill="#e6e6e6"/>
    <path id="Tracé_4285" data-name="Tracé 4285" d="M1447.455,615.639q-.027.677-.054,1.355h18.8q-.021-.888-.041-1.782Z" fill="#f3f2f2"/>
    <g id="Groupe_2522" data-name="Groupe 2522">
      <path id="Tracé_4286" data-name="Tracé 4286" d="M1450.832,605.939v4.331c1.56.039,3.168.091,4.729.13.047-1.577.1-3.183.151-4.76Z" fill="#f3f2f2"/>
      <path id="Tracé_4287" data-name="Tracé 4287" d="M1450.706,605.82v4.572l.123,0c.782.02,1.576.043,2.37.066s1.58.045,2.358.064l.126,0,0-.126c.024-.788.05-1.584.076-2.379s.052-1.591.076-2.38l0-.138Zm4.809,2.056h-2.278l.223-1.972,2.122-.13C1455.561,606.471,1455.538,607.174,1455.515,607.876Zm-2.31-1.956-.222,1.956h-2.025v-1.819Zm-2.247,2.208h2l-.235,2.067-1.762-.048Zm2.249,2.081-.234-.007.235-2.074h2.3c-.024.716-.047,1.432-.069,2.142C1454.7,610.252,1453.954,610.23,1453.207,610.209Z" fill="#ef7534"/>
    </g>
    <path id="Tracé_4288" data-name="Tracé 4288" d="M1460.172,615.348l-.642-9.211h4.755l-.431,9.127Z" fill="#ef7534"/>
    <path id="Tracé_4289" data-name="Tracé 4289" d="M1460.821,610.1a.579.579,0,0,0,0,1.157A.579.579,0,0,0,1460.821,610.1Z" fill="#171716"/>
    <g id="Groupe_2523" data-name="Groupe 2523">
      <rect id="Rectangle_2300" data-name="Rectangle 2300" width="2.783" height="0.625" transform="translate(1449.155 611.036)" fill="#a1a1a1"/>
      <rect id="Rectangle_2301" data-name="Rectangle 2301" width="1.501" height="0.717" transform="translate(1456.943 607.876)" fill="#a1a1a1"/>
      <rect id="Rectangle_2302" data-name="Rectangle 2302" width="1.342" height="0.776" transform="translate(1455.582 612.2)" fill="#a1a1a1"/>
      <rect id="Rectangle_2303" data-name="Rectangle 2303" width="1.272" height="0.967" transform="translate(1464.285 602.24)" fill="#a1a1a1"/>
      <rect id="Rectangle_2304" data-name="Rectangle 2304" width="2.614" height="0.832" transform="translate(1448.344 602.522)" fill="#a1a1a1"/>
      <rect id="Rectangle_2305" data-name="Rectangle 2305" width="0.886" height="0.564" transform="translate(1464.921 612.024)" fill="#a1a1a1"/>
    </g>
  </g>
  <g id="Groupe_2527" data-name="Groupe 2527" transform="translate(-1342.312 -576.328)">
    <g id="Groupe_2525" data-name="Groupe 2525">
      <path id="Tracé_4290" data-name="Tracé 4290" d="M1369.736,607.072q.084,5.506.17,11.014a3.876,3.876,0,0,0,.13,1.14c.115.349.371.629.629.558.412-.113.509-.908.512-1.527q.034-5.844.068-11.688Z" fill="#a86046"/>
      <path id="Tracé_4291" data-name="Tracé 4291" d="M1376.475,605.037a1.418,1.418,0,0,0,1.718-.423,1.892,1.892,0,0,0,.2-1.828,2.873,2.873,0,0,0-1.282-1.385,6.009,6.009,0,0,0-1.834-.436,6.634,6.634,0,0,0,1.811-1.415,2,2,0,0,0-1.7-3.4,7.914,7.914,0,0,0-2.754.817,3.674,3.674,0,0,0,1.04-2.319,2.877,2.877,0,0,0-.965-2.314,2.371,2.371,0,0,0-2.433-.383,2.649,2.649,0,0,0-1.432,2.083,4.768,4.768,0,0,0,.176,2.6,3.67,3.67,0,0,0-2.272-1.7,2.049,2.049,0,0,0-2.339,1.263,3.5,3.5,0,0,0,.9,2.7,2.375,2.375,0,0,0-2.739,3.118,2.5,2.5,0,0,0,1.858,1.6,3.913,3.913,0,0,0-1.462,1.575,2.213,2.213,0,0,0,.069,2.086,2,2,0,0,0,2.159.754,3.262,3.262,0,0,0,2.883,5.26,2.777,2.777,0,0,0,1.751-.818,2.2,2.2,0,0,0,.594-1.322,2.322,2.322,0,0,0,1.163,1.536,2.022,2.022,0,0,0,2.219-.3,2.637,2.637,0,0,0,.455-2.542,2.248,2.248,0,0,0,2.825.267,2.732,2.732,0,0,0,1.069-2.719A3.339,3.339,0,0,0,1376.475,605.037Z" fill="#72866c"/>
    </g>
    <g id="Groupe_2526" data-name="Groupe 2526">
      <path id="Tracé_4292" data-name="Tracé 4292" d="M1368.379,598.6a.2.2,0,0,0-.2.2v.877a.2.2,0,1,0,.4,0V598.8A.2.2,0,0,0,1368.379,598.6Z" fill="#51604e"/>
      <path id="Tracé_4293" data-name="Tracé 4293" d="M1372.612,599.21a.2.2,0,0,0-.2.2v.877a.2.2,0,1,0,.4,0v-.877A.2.2,0,0,0,1372.612,599.21Z" fill="#51604e"/>
      <path id="Tracé_4294" data-name="Tracé 4294" d="M1370.7,602.047a.2.2,0,0,0-.2.2v.877a.2.2,0,0,0,.4,0v-.877A.2.2,0,0,0,1370.7,602.047Z" fill="#51604e"/>
      <path id="Tracé_4295" data-name="Tracé 4295" d="M1365.774,603.861a.2.2,0,0,0-.2.2v.877a.2.2,0,1,0,.4,0v-.877A.2.2,0,0,0,1365.774,603.861Z" fill="#51604e"/>
      <path id="Tracé_4296" data-name="Tracé 4296" d="M1367.681,609.023a.2.2,0,0,0-.2.2v.877a.2.2,0,1,0,.4,0v-.877A.2.2,0,0,0,1367.681,609.023Z" fill="#51604e"/>
      <path id="Tracé_4297" data-name="Tracé 4297" d="M1375.123,604.512a.2.2,0,0,0-.2.2v.877a.2.2,0,1,0,.4,0v-.877A.2.2,0,0,0,1375.123,604.512Z" fill="#51604e"/>
      <path id="Tracé_4298" data-name="Tracé 4298" d="M1372.007,608.93a.2.2,0,0,0-.2.2v.877a.2.2,0,0,0,.4,0v-.877A.2.2,0,0,0,1372.007,608.93Z" fill="#51604e"/>
      <path id="Tracé_4299" data-name="Tracé 4299" d="M1370.24,605.814a.2.2,0,0,0-.2.2v.877a.2.2,0,1,0,.4,0v-.877A.2.2,0,0,0,1370.24,605.814Z" fill="#51604e"/>
      <path id="Tracé_4300" data-name="Tracé 4300" d="M1370.984,594.977a.2.2,0,0,0-.2.2v.877a.2.2,0,1,0,.4,0v-.877A.2.2,0,0,0,1370.984,594.977Z" fill="#51604e"/>
    </g>
  </g>
  <g id="Groupe_2529" data-name="Groupe 2529" transform="translate(-1342.312 -576.328)">
    <path id="Tracé_4301" data-name="Tracé 4301" d="M1468.417,614.771a1.142,1.142,0,0,1-.6-.514.712.712,0,0,1,.109-.858.9.9,0,0,1,.533-.2,2.4,2.4,0,0,1,1.61.707,2.3,2.3,0,0,1-.084-.586,1.173,1.173,0,0,1,1.808-.955.927.927,0,0,1,.444.738.668.668,0,0,1-.506.665,1.944,1.944,0,0,1,1.281.287.839.839,0,0,1,.379.432.548.548,0,0,1-.13.535.593.593,0,0,1-.546.18,2.77,2.77,0,0,1,.833.307.936.936,0,0,1,.463.721.849.849,0,0,1-.54.767,1.393,1.393,0,0,1-.975-.007,4.37,4.37,0,0,1-.861-.54.739.739,0,0,1-.677.782.778.778,0,0,1-.8-.7,1.527,1.527,0,0,1-.883.852.731.731,0,0,1-.624-.012.606.606,0,0,1-.2-.733,1.122,1.122,0,0,1,.585-.555c-.157.054-.323.107-.48.161a2.435,2.435,0,0,1-.771.176.825.825,0,0,1-.692-.318.72.72,0,0,1-.018-.721,1.063,1.063,0,0,1,.566-.478A2.264,2.264,0,0,1,1468.417,614.771Z" fill="#a2c19d"/>
    <g id="Groupe_2528" data-name="Groupe 2528">
      <path id="Tracé_4302" data-name="Tracé 4302" d="M1469.87,614.535a.033.033,0,0,0-.029.035.192.192,0,0,1-.369.089.03.03,0,0,0-.036-.019.031.031,0,0,0-.025.032.251.251,0,0,1-.412.2.032.032,0,0,0-.045.005.031.031,0,0,0,0,.044.319.319,0,0,0,.2.071.309.309,0,0,0,.137-.031.326.326,0,0,0,.165-.205.254.254,0,0,0,.44-.195A.032.032,0,0,0,1469.87,614.535Z" fill="#72866c"/>
      <path id="Tracé_4303" data-name="Tracé 4303" d="M1472.067,615.4a.031.031,0,0,0-.04.02.314.314,0,0,1-.606-.039.032.032,0,0,0-.063.007.224.224,0,0,1-.186.219.221.221,0,0,1-.237-.162.035.035,0,0,0-.028-.024.031.031,0,0,0-.032.019.291.291,0,0,1-.555-.08.032.032,0,0,0-.036-.028.033.033,0,0,0-.027.036.355.355,0,0,0,.642.156.275.275,0,0,0,.5-.024.387.387,0,0,0,.307.2h.022a.388.388,0,0,0,.36-.26A.031.031,0,0,0,1472.067,615.4Z" fill="#72866c"/>
      <path id="Tracé_4304" data-name="Tracé 4304" d="M1472.372,614.349a.032.032,0,0,0-.036.026.288.288,0,0,1-.294.235.291.291,0,0,1-.264-.268.031.031,0,0,0-.021-.028.029.029,0,0,0-.034.009.288.288,0,0,1-.338.063.285.285,0,0,1-.139-.313.031.031,0,0,0-.023-.038.033.033,0,0,0-.039.022.34.34,0,0,0,.54.351.36.36,0,0,0,.314.265h.018a.357.357,0,0,0,.342-.288A.032.032,0,0,0,1472.372,614.349Z" fill="#72866c"/>
      <path id="Tracé_4305" data-name="Tracé 4305" d="M1469.564,616.477a.031.031,0,0,0-.034.029.253.253,0,0,1-.482.074.031.031,0,1,0-.057.025.324.324,0,0,0,.292.188.314.314,0,0,0,.044,0,.324.324,0,0,0,.266-.278A.033.033,0,0,0,1469.564,616.477Z" fill="#72866c"/>
      <path id="Tracé_4306" data-name="Tracé 4306" d="M1473.118,615.875a.032.032,0,1,0-.051.037.266.266,0,0,1-.278.416.267.267,0,0,1-.173-.119.032.032,0,1,0-.054.033.336.336,0,0,0,.212.148.371.371,0,0,0,.08.009.319.319,0,0,0,.177-.051.346.346,0,0,0,.087-.473Z" fill="#72866c"/>
    </g>
  </g>
  <g id="Groupe_2531" data-name="Groupe 2531" transform="translate(-1342.312 -576.328)">
    <path id="Tracé_4307" data-name="Tracé 4307" d="M1478.334,618.048a.84.84,0,0,1-.84-.839V598.734a.839.839,0,1,1,1.679,0v18.475A.839.839,0,0,1,1478.334,618.048Z" fill="#a86046"/>
    <path id="Tracé_4308" data-name="Tracé 4308" d="M1489.779,605.96a11,11,0,0,0-3.126-1.632,2.356,2.356,0,0,0,2.242-.432,2.168,2.168,0,0,0,.786-2.039,3.358,3.358,0,0,0-1.272-1.9,7.734,7.734,0,0,0-4.556-1.771c.019-.021.038-.042.056-.064a2.751,2.751,0,0,0,1.93-2.306,3.683,3.683,0,0,0-1.375-3.133,4.645,4.645,0,0,0-7.283,1.741,4.586,4.586,0,0,0-1.55-1.516,2.334,2.334,0,0,0-1.442-.3,1.853,1.853,0,0,0-1.427,1.734,2.992,2.992,0,0,0,.011.4,5.629,5.629,0,0,0-1.863-.463,3.569,3.569,0,0,0-2.2.5,2.835,2.835,0,0,0-.868,3.326,4.529,4.529,0,0,0,2.1,2.327,9.081,9.081,0,0,0-3.12.131,4.232,4.232,0,0,0-2.473,1.594,2.862,2.862,0,0,0-.294,2.848,3.268,3.268,0,0,0,2.566,1.606,9.641,9.641,0,0,0,3.124-.3c.646-.135,1.326-.258,1.973-.392a4.453,4.453,0,0,0-2.586,1.89,2.407,2.407,0,0,0,.406,2.987,2.913,2.913,0,0,0,2.451.365,6.069,6.069,0,0,0,3.911-2.907,3.09,3.09,0,0,0,2.8,3.176,2.933,2.933,0,0,0,3.063-2.737,17.289,17.289,0,0,0,3.12,2.564,5.53,5.53,0,0,0,3.837.523,3.369,3.369,0,0,0,2.515-2.744A3.718,3.718,0,0,0,1489.779,605.96Z" fill="#72866c"/>
    <g id="Groupe_2530" data-name="Groupe 2530">
      <path id="Tracé_4309" data-name="Tracé 4309" d="M1474.3,600.018v-1.841a.419.419,0,1,0-.839,0v1.841a.419.419,0,1,0,.839,0Z" fill="#a2c19d"/>
      <path id="Tracé_4310" data-name="Tracé 4310" d="M1480.235,595.528a.42.42,0,0,0-.42.419v1.841a.42.42,0,0,0,.84,0v-1.841A.42.42,0,0,0,1480.235,595.528Z" fill="#a2c19d"/>
      <path id="Tracé_4311" data-name="Tracé 4311" d="M1477.51,599.657a.42.42,0,0,0-.42.42v1.84a.42.42,0,0,0,.84,0v-1.84A.42.42,0,0,0,1477.51,599.657Z" fill="#a2c19d"/>
      <path id="Tracé_4312" data-name="Tracé 4312" d="M1483.7,602.3a.42.42,0,0,0-.42.42v1.841a.419.419,0,1,0,.839,0v-1.841A.42.42,0,0,0,1483.7,602.3Z" fill="#a2c19d"/>
      <path id="Tracé_4313" data-name="Tracé 4313" d="M1479.244,606.511a.42.42,0,0,0-.42.42v1.841a.42.42,0,0,0,.84,0v-1.841A.42.42,0,0,0,1479.244,606.511Z" fill="#a2c19d"/>
      <path id="Tracé_4314" data-name="Tracé 4314" d="M1467.683,601.887a.42.42,0,0,0-.42.419v1.841a.42.42,0,1,0,.839,0v-1.841A.42.42,0,0,0,1467.683,601.887Z" fill="#a2c19d"/>
      <path id="Tracé_4315" data-name="Tracé 4315" d="M1474.207,604.86a.419.419,0,0,0-.42.419v1.841a.419.419,0,1,0,.839,0v-1.841A.419.419,0,0,0,1474.207,604.86Z" fill="#a2c19d"/>
    </g>
  </g>
  <g id="Groupe_2543" data-name="Groupe 2543" transform="translate(-1342.312 -576.328)">
    <g id="Groupe_2533" data-name="Groupe 2533">
      <path id="Tracé_4316" data-name="Tracé 4316" d="M1389.3,616.824c-.478-7.158-.13-21.678,10.519-21.809,9.407-.115,12.657,14.7,13.838,21.842Z" fill="#a2c19d"/>
      <g id="Groupe_2532" data-name="Groupe 2532">
        <path id="Tracé_4317" data-name="Tracé 4317" d="M1394.529,600.838v-1.593a.148.148,0,1,0-.3,0v1.593a.148.148,0,0,0,.3,0Z" fill="#fff"/>
        <path id="Tracé_4318" data-name="Tracé 4318" d="M1397.714,596.819a.148.148,0,0,0-.147.148v1.814a.148.148,0,0,0,.3,0v-1.814A.148.148,0,0,0,1397.714,596.819Z" fill="#fff"/>
        <path id="Tracé_4319" data-name="Tracé 4319" d="M1396.659,601.9a.147.147,0,0,0-.147.148v1.585a.148.148,0,0,0,.3,0v-1.585A.148.148,0,0,0,1396.659,601.9Z" fill="#fff"/>
        <path id="Tracé_4320" data-name="Tracé 4320" d="M1403.346,597.557a.147.147,0,0,0-.295,0v1.688a.147.147,0,0,0,.295,0Z" fill="#fff"/>
        <path id="Tracé_4321" data-name="Tracé 4321" d="M1400.836,598.929a.147.147,0,0,0-.147.147v1.383a.147.147,0,1,0,.294,0v-1.383A.147.147,0,0,0,1400.836,598.929Z" fill="#fff"/>
        <path id="Tracé_4322" data-name="Tracé 4322" d="M1407.923,601.672a.147.147,0,0,0-.147.147v1.81a.148.148,0,0,0,.3,0v-1.81A.147.147,0,0,0,1407.923,601.672Z" fill="#fff"/>
        <path id="Tracé_4323" data-name="Tracé 4323" d="M1405.139,601.672a.147.147,0,0,0-.147.147v1.017a.147.147,0,0,0,.294,0v-1.017A.147.147,0,0,0,1405.139,601.672Z" fill="#fff"/>
        <path id="Tracé_4324" data-name="Tracé 4324" d="M1402.65,602.689a.147.147,0,0,0-.147.147v1.276a.147.147,0,1,0,.294,0v-1.276A.147.147,0,0,0,1402.65,602.689Z" fill="#fff"/>
        <path id="Tracé_4325" data-name="Tracé 4325" d="M1399.992,603.965a.147.147,0,0,0-.147.147V605.4a.148.148,0,0,0,.3,0v-1.292A.147.147,0,0,0,1399.992,603.965Z" fill="#fff"/>
        <path id="Tracé_4326" data-name="Tracé 4326" d="M1391.175,604.239a.147.147,0,0,0-.147.147v1.55a.148.148,0,0,0,.3,0v-1.55A.147.147,0,0,0,1391.175,604.239Z" fill="#fff"/>
        <path id="Tracé_4327" data-name="Tracé 4327" d="M1394.55,605.789a.147.147,0,0,0-.147.147V607.6a.147.147,0,1,0,.294,0v-1.661A.146.146,0,0,0,1394.55,605.789Z" fill="#fff"/>
        <path id="Tracé_4328" data-name="Tracé 4328" d="M1398.052,607.45a.147.147,0,0,0-.148.147v1.036a.147.147,0,1,0,.295,0V607.6A.147.147,0,0,0,1398.052,607.45Z" fill="#fff"/>
        <path id="Tracé_4329" data-name="Tracé 4329" d="M1409.695,606.619a.147.147,0,0,0-.147.148v1.349a.147.147,0,0,0,.294,0v-1.349A.147.147,0,0,0,1409.695,606.619Z" fill="#fff"/>
        <path id="Tracé_4330" data-name="Tracé 4330" d="M1406.7,605.789a.147.147,0,0,0-.148.147v1.24a.148.148,0,0,0,.3,0v-1.24A.147.147,0,0,0,1406.7,605.789Z" fill="#fff"/>
        <path id="Tracé_4331" data-name="Tracé 4331" d="M1403.451,607.028a.147.147,0,0,0-.147.148v1.457a.148.148,0,1,0,.3,0v-1.457A.148.148,0,0,0,1403.451,607.028Z" fill="#fff"/>
        <path id="Tracé_4332" data-name="Tracé 4332" d="M1401.411,609.149a.147.147,0,0,0-.147.148v1.14a.147.147,0,0,0,.294,0V609.3A.148.148,0,0,0,1401.411,609.149Z" fill="#fff"/>
        <path id="Tracé_4333" data-name="Tracé 4333" d="M1392.23,609.9a.147.147,0,0,0-.147.147v1.308a.147.147,0,1,0,.294,0v-1.308A.147.147,0,0,0,1392.23,609.9Z" fill="#fff"/>
        <path id="Tracé_4334" data-name="Tracé 4334" d="M1396.28,608.842a.148.148,0,0,0-.148.148v1.054a.148.148,0,1,0,.3,0V608.99A.148.148,0,0,0,1396.28,608.842Z" fill="#fff"/>
        <path id="Tracé_4335" data-name="Tracé 4335" d="M1408.556,610.412a.147.147,0,0,0-.147.148v1.559a.147.147,0,0,0,.294,0V610.56A.148.148,0,0,0,1408.556,610.412Z" fill="#fff"/>
        <path id="Tracé_4336" data-name="Tracé 4336" d="M1405.139,611.205a.147.147,0,0,0-.147.147v1.392a.147.147,0,0,0,.294,0v-1.392A.147.147,0,0,0,1405.139,611.205Z" fill="#fff"/>
        <path id="Tracé_4337" data-name="Tracé 4337" d="M1395.056,612.217a.147.147,0,0,0-.147.147v1.393a.147.147,0,0,0,.295,0v-1.393A.148.148,0,0,0,1395.056,612.217Z" fill="#fff"/>
        <path id="Tracé_4338" data-name="Tracé 4338" d="M1399.823,611.972a.147.147,0,0,0-.147.147v1.328a.147.147,0,0,0,.295,0v-1.328A.147.147,0,0,0,1399.823,611.972Z" fill="#fff"/>
        <path id="Tracé_4339" data-name="Tracé 4339" d="M1407.5,614.284a.147.147,0,0,0-.147.148V615.6a.148.148,0,1,0,.3,0v-1.172A.148.148,0,0,0,1407.5,614.284Z" fill="#fff"/>
        <path id="Tracé_4340" data-name="Tracé 4340" d="M1391.175,614.284a.147.147,0,0,0-.147.148V615.6a.148.148,0,1,0,.3,0v-1.172A.148.148,0,0,0,1391.175,614.284Z" fill="#fff"/>
        <path id="Tracé_4341" data-name="Tracé 4341" d="M1402.65,614.764a.147.147,0,0,0-.147.147v.693a.147.147,0,1,0,.294,0v-.693A.147.147,0,0,0,1402.65,614.764Z" fill="#fff"/>
        <path id="Tracé_4342" data-name="Tracé 4342" d="M1397.124,614.764a.148.148,0,0,0-.148.147v1.082a.148.148,0,0,0,.3,0v-1.082A.147.147,0,0,0,1397.124,614.764Z" fill="#fff"/>
        <path id="Tracé_4343" data-name="Tracé 4343" d="M1411.762,614.284a.147.147,0,0,0-.147.148v1.02a.147.147,0,0,0,.294,0v-1.02A.147.147,0,0,0,1411.762,614.284Z" fill="#fff"/>
      </g>
    </g>
    <g id="Groupe_2538" data-name="Groupe 2538">
      <g id="Groupe_2534" data-name="Groupe 2534">
        <path id="Tracé_4344" data-name="Tracé 4344" d="M1412.359,600.773l.185,3.261h.889l.259-3.261Z" fill="#171716"/>
        <rect id="Rectangle_2306" data-name="Rectangle 2306" width="2.39" height="0.978" transform="translate(1411.822 600.235)" fill="#171716"/>
      </g>
      <path id="Tracé_4345" data-name="Tracé 4345" d="M1402.262,615.987l-.54-10.35h13.795l-1.185,10.35Z" fill="#ffab2b"/>
      <path id="Tracé_4346" data-name="Tracé 4346" d="M1401.722,605.637l7.839-5.974,5.956,5.974Z" fill="#e6e6e6"/>
      <g id="Groupe_2535" data-name="Groupe 2535">
        <path id="Tracé_4347" data-name="Tracé 4347" d="M1409.535,615.987h3.35C1412.919,608.572,1409.177,609.546,1409.535,615.987Z" fill="#a86046"/>
      </g>
      <path id="Tracé_4348" data-name="Tracé 4348" d="M1403.844,607.569l0,4.165,3.356.619,0-.093c.039-.785.093-1.6.145-2.387s.106-1.6.144-2.386l.005-.09Z" fill="#f3f2f2"/>
      <path id="Tracé_4349" data-name="Tracé 4349" d="M1403.844,607.569l0,4.165,3.356.619,0-.093c.039-.785.093-1.6.145-2.387s.106-1.6.144-2.386l.005-.09Zm3.337,2.293c-.05.757-.1,1.539-.14,2.3l-3.036-.56,0-3.873,3.314-.156C1407.283,608.325,1407.231,609.106,1407.181,609.862Z" fill="#a86046"/>
      <path id="Tracé_4350" data-name="Tracé 4350" d="M1407.263,609.309l-.02-.163-1.454.175-.029-1.762-.164,0,.029,1.779-1.689.2.02.163,1.672-.2.041,2.5.164,0-.041-2.518Z" fill="#a86046"/>
      <g id="Groupe_2536" data-name="Groupe 2536">
        <path id="Tracé_4351" data-name="Tracé 4351" d="M1407.612,602.647a.492.492,0,0,0,.486-.293.464.464,0,0,0,.425.234.448.448,0,0,0,.357-.256.472.472,0,0,0,.115.152.43.43,0,0,0,.311.11.449.449,0,0,0,.3-.16c.009-.012.018-.023.026-.035a.574.574,0,0,0,.041.087.479.479,0,0,0,.347.241.342.342,0,0,0,.046,0,.473.473,0,0,0,.331-.149.46.46,0,0,0,.131-.383.041.041,0,0,0-.047-.034.042.042,0,0,0-.034.047.4.4,0,0,1-.418.434.422.422,0,0,1-.339-.356.414.414,0,0,0,.024-.18.041.041,0,0,0-.078-.012.382.382,0,0,0-.029.18.416.416,0,0,1-.064.1.36.36,0,0,1-.246.131.342.342,0,0,1-.251-.09.371.371,0,0,1-.128-.254.041.041,0,0,0-.041-.039h0a.041.041,0,0,0-.041.039.368.368,0,0,1-.324.338.384.384,0,0,1-.384-.288.041.041,0,0,0-.042-.032.041.041,0,0,0-.038.036.394.394,0,0,1-.784-.08.041.041,0,1,0-.082-.006A.491.491,0,0,0,1407.612,602.647Z" fill="#171716"/>
        <path id="Tracé_4352" data-name="Tracé 4352" d="M1410.922,603.516a.042.042,0,0,0-.044.039.474.474,0,0,1-.419.43.62.62,0,0,1-.538-.437.042.042,0,0,0-.049-.03.041.041,0,0,0-.032.047.371.371,0,0,1-.271.413c-.168.038-.4-.164-.451-.344a.044.044,0,0,0-.041-.03.043.043,0,0,0-.039.033.469.469,0,0,1-.415.364c-.2.014-.37-.179-.436-.367a.041.041,0,0,0-.079.009.485.485,0,0,1-.434.418.493.493,0,0,1-.465-.4.041.041,0,0,0-.042-.031.041.041,0,0,0-.039.035.476.476,0,0,1-.465.391.528.528,0,0,1-.464-.446.038.038,0,0,0-.043-.036.041.041,0,0,0-.039.041.463.463,0,0,1-.914.106.04.04,0,0,0-.049-.03.041.041,0,0,0-.031.049.569.569,0,0,0,.539.42.5.5,0,0,0,.055,0,.568.568,0,0,0,.45-.367.606.606,0,0,0,.494.348.554.554,0,0,1,1.018,0,.575.575,0,0,0,.482-.37.54.54,0,0,0,.468.31.557.557,0,0,0,.454-.322.534.534,0,0,0,.5.3.456.456,0,0,0,.325-.327.671.671,0,0,0,.554.336.56.56,0,0,0,.494-.507A.042.042,0,0,0,1410.922,603.516Z" fill="#171716"/>
      </g>
      <g id="Groupe_2537" data-name="Groupe 2537">
        <path id="Tracé_4353" data-name="Tracé 4353" d="M1410.708,607.449h1.652v-.935l-1.823.173Z" fill="#ffcb77"/>
        <rect id="Rectangle_2307" data-name="Rectangle 2307" width="1.419" height="0.796" transform="translate(1408.319 609.872)" fill="#ffcb77"/>
        <path id="Tracé_4354" data-name="Tracé 4354" d="M1413.017,610.807l.148.727H1414l.216-.727Z" fill="#ffcb77"/>
      </g>
    </g>
    <g id="Groupe_2542" data-name="Groupe 2542">
      <g id="Groupe_2539" data-name="Groupe 2539">
        <path id="Tracé_4355" data-name="Tracé 4355" d="M1394.189,589.436l.145,2.549h.7l.2-2.549Z" fill="#171716"/>
        <rect id="Rectangle_2308" data-name="Rectangle 2308" width="1.868" height="0.765" transform="translate(1393.769 589.016)" fill="#171716"/>
      </g>
      <path id="Tracé_4356" data-name="Tracé 4356" d="M1392.727,593.112l5.37-4.779,3.667,4.277Z" fill="#ffab2b"/>
      <g id="Groupe_2540" data-name="Groupe 2540">
        <path id="Tracé_4357" data-name="Tracé 4357" d="M1397.1,590.328a.879.879,0,0,0,.251,1.076.984.984,0,0,0,1.126.008C1399.748,590.533,1397.791,589.046,1397.1,590.328Z" fill="#171716"/>
        <path id="Tracé_4358" data-name="Tracé 4358" d="M1398.971,590.548a1.164,1.164,0,0,0-.964-.807.952.952,0,0,0-.988.542.978.978,0,0,0,.277,1.2,1.03,1.03,0,0,0,.62.2,1.089,1.089,0,0,0,.619-.19A.861.861,0,0,0,1398.971,590.548Zm-.187.046,0,.021-.714.024-.031-.7A.959.959,0,0,1,1398.784,590.594Zm-.933-.669.032.721-.773.026a.685.685,0,0,1,.078-.3A.764.764,0,0,1,1397.851,589.925Zm-.439,1.4a.786.786,0,0,1-.286-.464l.766-.026.029.652A.837.837,0,0,1,1397.412,591.328Zm1.013.005a.893.893,0,0,1-.313.136l-.028-.638.713-.024A.78.78,0,0,1,1398.425,591.333Z" fill="#f3f2f2"/>
      </g>
      <path id="Tracé_4359" data-name="Tracé 4359" d="M1401.929,599.789l-9.463-.109-.019.481,9.486-.177Z" fill="#f3f2f2"/>
      <path id="Tracé_4360" data-name="Tracé 4360" d="M1401.764,592.61l-9.037.5-.261,6.568,9.463.109C1401.873,597.4,1401.82,594.982,1401.764,592.61Z" fill="#e6e6e6"/>
      <path id="Tracé_4361" data-name="Tracé 4361" d="M1401.933,599.984l-9.486.177-.018.459,9.514-.218Z" fill="#e6e6e6"/>
      <path id="Tracé_4362" data-name="Tracé 4362" d="M1392.429,600.62q-.013.345-.027.689h9.562c-.007-.3-.014-.6-.021-.907Z" fill="#f3f2f2"/>
      <path id="Tracé_4363" data-name="Tracé 4363" d="M1394.147,594.54v2.2c.794.02,1.612.046,2.405.066.024-.8.053-1.619.077-2.421Z" fill="#f3f2f2"/>
      <path id="Tracé_4364" data-name="Tracé 4364" d="M1394.083,594.48V596.8l.062,0,1.206.033,1.2.033.064,0,0-.064c.012-.4.025-.806.039-1.21s.026-.81.038-1.211l0-.07Zm2.446,1.046h-1.159l.114-1,1.079-.066C1396.552,594.811,1396.541,595.168,1396.529,595.526Zm-1.175-1-.113,1h-1.03V594.6Zm-1.143,1.124h1.016l-.12,1.051-.9-.024Zm1.144,1.058-.119,0,.12-1.055h1.169c-.012.364-.024.728-.035,1.089C1396.115,596.734,1395.735,596.723,1395.355,596.712Z" fill="#ef7534"/>
      <path id="Tracé_4365" data-name="Tracé 4365" d="M1398.3,594.257q.327,1.936.655,3.875c.646.062,1.309.115,1.955.177-.052-1.507-.133-3.03-.186-4.537Z" fill="#f3f2f2"/>
      <path id="Tracé_4366" data-name="Tracé 4366" d="M1400.976,598.307c-.026-.754-.06-1.524-.093-2.269s-.066-1.515-.093-2.268l0-.076-2.559.512.673,3.985.049,0c.323.031.651.06.978.089s.654.058.977.089l.073.007Zm-.258-3.117-.9.141-.144-1.284.987-.2C1400.681,594.294,1400.7,594.744,1400.718,595.19Zm-1.166-1.118.143,1.279-1.113.175-.206-1.219Zm-.54,4-.409-2.42,1.107-.174.3,2.685-.072-.007C1399.63,598.129,1399.319,598.1,1399.012,598.072Zm1.13.1-.306-2.716.888-.139c.01.243.021.485.031.724.032.721.065,1.466.091,2.195Z" fill="#ef7534"/>
      <g id="Groupe_2541" data-name="Groupe 2541">
        <path id="Tracé_4367" data-name="Tracé 4367" d="M1396.129,598.076a.548.548,0,0,0,.5-.355.064.064,0,0,0-.121-.044.423.423,0,0,1-.383.271h0a.527.527,0,0,1-.4-.34.063.063,0,0,0-.063-.041.065.065,0,0,0-.059.049.366.366,0,0,1-.352.268.435.435,0,0,1-.352-.337.064.064,0,0,0-.063-.052h0a.064.064,0,0,0-.063.051.393.393,0,0,1-.755.052.064.064,0,0,0-.121.043,1.456,1.456,0,0,1,1.35.371.5.5,0,0,0,.423-.233.6.6,0,0,0,.456.3Z" fill="#f3f2f2"/>
        <path id="Tracé_4368" data-name="Tracé 4368" d="M1399.162,598.768a.064.064,0,0,0-.085.032.543.543,0,0,1-.485.317h0a.55.55,0,0,1-.464-.35.064.064,0,0,0-.12.009.5.5,0,0,1-.458.353.517.517,0,0,1-.482-.341.064.064,0,0,0-.059-.045.06.06,0,0,0-.062.042.388.388,0,0,1-.749-.093.064.064,0,0,0-.127.014.515.515,0,0,0,.931.243.649.649,0,0,0,.54.308h.01a.626.626,0,0,0,.525-.318.641.641,0,0,0,.515.306h0a.677.677,0,0,0,.6-.393A.064.064,0,0,0,1399.162,598.768Z" fill="#f3f2f2"/>
        <path id="Tracé_4369" data-name="Tracé 4369" d="M1394.334,598.776a.064.064,0,0,0-.082.038.662.662,0,0,1-1.2.1.065.065,0,0,0-.087-.024.063.063,0,0,0-.024.087.8.8,0,0,0,.693.405.6.6,0,0,0,.06,0,.8.8,0,0,0,.68-.518A.064.064,0,0,0,1394.334,598.776Z" fill="#f3f2f2"/>
        <path id="Tracé_4370" data-name="Tracé 4370" d="M1393.827,593.87a.552.552,0,0,0,.48-.283.909.909,0,0,0,.674.329.736.736,0,0,0,.287-.058.561.561,0,0,0,.306-.291.487.487,0,0,0,.507.083.48.48,0,0,0,.234-.56.064.064,0,0,0-.081-.041.063.063,0,0,0-.041.08.355.355,0,0,1-.169.407.387.387,0,0,1-.439-.142.064.064,0,0,0-.072-.024.065.065,0,0,0-.044.064.366.366,0,0,1-.252.306.738.738,0,0,1-.874-.315.064.064,0,0,0-.114.019.422.422,0,0,1-.4.3h-.005a.42.42,0,0,1-.392-.309.064.064,0,0,0-.124.032A.552.552,0,0,0,1393.827,593.87Z" fill="#f3f2f2"/>
      </g>
    </g>
  </g>
  <g id="Groupe_2545" data-name="Groupe 2545" transform="translate(-1342.312 -576.328)">
    <path id="Tracé_4371" data-name="Tracé 4371" d="M1414.725,613.844a1.62,1.62,0,0,1-.851-.727,1.012,1.012,0,0,1,.156-1.217,1.271,1.271,0,0,1,.755-.279,3.393,3.393,0,0,1,2.281,1,3.337,3.337,0,0,1-.119-.829,1.662,1.662,0,0,1,2.563-1.354,1.315,1.315,0,0,1,.63,1.046.947.947,0,0,1-.718.942,2.76,2.76,0,0,1,1.817.407,1.2,1.2,0,0,1,.537.613.773.773,0,0,1-.186.758.839.839,0,0,1-.773.255,3.92,3.92,0,0,1,1.181.435,1.323,1.323,0,0,1,.656,1.022,1.2,1.2,0,0,1-.765,1.087,1.975,1.975,0,0,1-1.382-.01,6.184,6.184,0,0,1-1.221-.766,1.047,1.047,0,0,1-.96,1.109,1.1,1.1,0,0,1-1.135-1,2.168,2.168,0,0,1-1.252,1.208,1.042,1.042,0,0,1-.884-.018.858.858,0,0,1-.28-1.039,1.59,1.59,0,0,1,.829-.787c-.223.077-.458.152-.681.229a3.431,3.431,0,0,1-1.092.249,1.165,1.165,0,0,1-.981-.451,1.02,1.02,0,0,1-.026-1.022,1.508,1.508,0,0,1,.8-.677A3.252,3.252,0,0,1,1414.725,613.844Z" fill="#a2c19d"/>
    <g id="Groupe_2544" data-name="Groupe 2544">
      <path id="Tracé_4372" data-name="Tracé 4372" d="M1416.785,613.511a.044.044,0,0,0-.041.048.272.272,0,0,1-.523.126.045.045,0,0,0-.087.019.366.366,0,0,1-.2.334.37.37,0,0,1-.387-.045.045.045,0,1,0-.057.069.459.459,0,0,0,.289.1.448.448,0,0,0,.194-.044.459.459,0,0,0,.234-.291.36.36,0,0,0,.624-.277A.044.044,0,0,0,1416.785,613.511Z" fill="#72866c"/>
      <path id="Tracé_4373" data-name="Tracé 4373" d="M1419.9,614.738a.043.043,0,0,0-.056.029.445.445,0,0,1-.859-.055.045.045,0,0,0-.089.009.3.3,0,0,1-.6.082.046.046,0,0,0-.04-.034.043.043,0,0,0-.045.027.428.428,0,0,1-.436.24.423.423,0,0,1-.351-.354.045.045,0,0,0-.051-.039.046.046,0,0,0-.038.051.5.5,0,0,0,.91.221.39.39,0,0,0,.707-.034.554.554,0,0,0,.435.281h.031a.55.55,0,0,0,.511-.368A.045.045,0,0,0,1419.9,614.738Z" fill="#72866c"/>
      <path id="Tracé_4374" data-name="Tracé 4374" d="M1420.331,613.247a.045.045,0,0,0-.052.037.406.406,0,0,1-.416.332.412.412,0,0,1-.374-.379.045.045,0,0,0-.079-.028.392.392,0,0,1-.676-.354.043.043,0,0,0-.032-.054.046.046,0,0,0-.055.032.482.482,0,0,0,.766.5.509.509,0,0,0,.445.376h.025a.507.507,0,0,0,.485-.409A.045.045,0,0,0,1420.331,613.247Z" fill="#72866c"/>
      <path id="Tracé_4375" data-name="Tracé 4375" d="M1416.352,616.263a.045.045,0,0,0-.05.04.357.357,0,0,1-.682.105.045.045,0,0,0-.082.036.461.461,0,0,0,.415.267.328.328,0,0,0,.062-.005.458.458,0,0,0,.376-.393A.045.045,0,0,0,1416.352,616.263Z" fill="#72866c"/>
      <path id="Tracé_4376" data-name="Tracé 4376" d="M1421.389,615.41a.045.045,0,0,0-.063-.01.044.044,0,0,0-.01.062.383.383,0,1,1-.639.421.045.045,0,0,0-.062-.015.044.044,0,0,0-.015.061.471.471,0,0,0,.3.21.491.491,0,0,0,.114.013.454.454,0,0,0,.249-.072.49.49,0,0,0,.125-.67Z" fill="#72866c"/>
    </g>
  </g>
  <g id="Groupe_2552" data-name="Groupe 2552" transform="translate(-1342.312 -576.328)">
    <g id="Groupe_2547" data-name="Groupe 2547">
      <rect id="Rectangle_2309" data-name="Rectangle 2309" width="54.086" height="3.641" transform="translate(1342.312 615.964)" fill="#171716"/>
      <g id="Groupe_2546" data-name="Groupe 2546">
        <rect id="Rectangle_2310" data-name="Rectangle 2310" width="0.91" height="0.364" transform="translate(1342.312 617.603)" fill="#fff"/>
        <path id="Tracé_4377" data-name="Tracé 4377" d="M1393.686,617.967h-1.8V617.6h1.8Zm-3.6,0h-1.8V617.6h1.8Zm-3.6,0h-1.8V617.6h1.8Zm-3.605,0h-1.8V617.6h1.8Zm-3.6,0h-1.8V617.6h1.8Zm-3.6,0h-1.8V617.6h1.8Zm-3.6,0h-1.8V617.6h1.8Zm-3.6,0h-1.8V617.6h1.8Zm-3.6,0h-1.8V617.6h1.8Zm-3.6,0h-1.8V617.6h1.8Zm-3.6,0h-1.8V617.6h1.8Zm-3.6,0h-1.8V617.6h1.8Zm-3.6,0h-1.8V617.6h1.8Zm-3.6,0h-1.8V617.6h1.8Z" fill="#fff"/>
        <rect id="Rectangle_2311" data-name="Rectangle 2311" width="0.91" height="0.364" transform="translate(1395.488 617.603)" fill="#fff"/>
      </g>
    </g>
    <g id="Groupe_2549" data-name="Groupe 2549">
      <rect id="Rectangle_2312" data-name="Rectangle 2312" width="54.086" height="3.641" transform="translate(1396.398 615.964)" fill="#171716"/>
      <g id="Groupe_2548" data-name="Groupe 2548">
        <rect id="Rectangle_2313" data-name="Rectangle 2313" width="0.91" height="0.364" transform="translate(1396.398 617.603)" fill="#fff"/>
        <path id="Tracé_4378" data-name="Tracé 4378" d="M1447.771,617.967h-1.8V617.6h1.8Zm-3.6,0h-1.8V617.6h1.8Zm-3.6,0h-1.8V617.6h1.8Zm-3.6,0h-1.8V617.6h1.8Zm-3.6,0h-1.8V617.6h1.8Zm-3.6,0h-1.8V617.6h1.8Zm-3.6,0h-1.8V617.6h1.8Zm-3.6,0h-1.8V617.6h1.8Zm-3.6,0h-1.8V617.6h1.8Zm-3.6,0h-1.8V617.6h1.8Zm-3.6,0h-1.8V617.6h1.8Zm-3.605,0h-1.8V617.6h1.8Zm-3.6,0h-1.8V617.6h1.8Zm-3.6,0h-1.8V617.6h1.8Z" fill="#fff"/>
        <rect id="Rectangle_2314" data-name="Rectangle 2314" width="0.91" height="0.364" transform="translate(1449.574 617.603)" fill="#fff"/>
      </g>
    </g>
    <g id="Groupe_2551" data-name="Groupe 2551">
      <rect id="Rectangle_2315" data-name="Rectangle 2315" width="54.086" height="3.641" transform="translate(1450.484 615.964)" fill="#171716"/>
      <g id="Groupe_2550" data-name="Groupe 2550">
        <rect id="Rectangle_2316" data-name="Rectangle 2316" width="0.91" height="0.364" transform="translate(1450.484 617.603)" fill="#fff"/>
        <path id="Tracé_4379" data-name="Tracé 4379" d="M1501.857,617.967h-1.8V617.6h1.8Zm-3.6,0h-1.8V617.6h1.8Zm-3.605,0h-1.8V617.6h1.8Zm-3.6,0h-1.8V617.6h1.8Zm-3.6,0h-1.8V617.6h1.8Zm-3.6,0h-1.8V617.6h1.8Zm-3.6,0h-1.8V617.6h1.8Zm-3.6,0h-1.8V617.6h1.8Zm-3.6,0h-1.8V617.6h1.8Zm-3.6,0h-1.8V617.6h1.8Zm-3.6,0h-1.8V617.6h1.8Zm-3.6,0h-1.8V617.6h1.8Zm-3.6,0h-1.8V617.6h1.8Zm-3.6,0h-1.8V617.6h1.8Z" fill="#fff"/>
        <rect id="Rectangle_2317" data-name="Rectangle 2317" width="0.91" height="0.364" transform="translate(1503.66 617.603)" fill="#fff"/>
      </g>
    </g>
  </g>
  <g id="Groupe_2558" data-name="Groupe 2558" transform="translate(-1342.312 -576.328)">
    <path id="Tracé_4380" data-name="Tracé 4380" d="M1493.368,613.679a.531.531,0,1,1,.106,1.028Z" fill="#cc1d24"/>
    <path id="Tracé_4381" data-name="Tracé 4381" d="M1491.015,608.8a1.712,1.712,0,0,0-.868-.577,3.539,3.539,0,0,0-3.4.792,4.668,4.668,0,0,0-1.445,3.258l6.125-.143a11.532,11.532,0,0,0-.092-2.357A2.126,2.126,0,0,0,1491.015,608.8Z" fill="#e6e6e6"/>
    <path id="Tracé_4382" data-name="Tracé 4382" d="M1490.452,611.53a2.085,2.085,0,0,0,.055.595.628.628,0,0,0,1.2.11,1.8,1.8,0,0,0,.167-.971,9.244,9.244,0,0,0-.119-1.187,1.459,1.459,0,0,0-.348-.84.537.537,0,0,0-.945.3A15.9,15.9,0,0,0,1490.452,611.53Z" fill="#a86046"/>
    <g id="Groupe_2553" data-name="Groupe 2553">
      <path id="Tracé_4383" data-name="Tracé 4383" d="M1485.585,611.752l.749-.54.091.2-.77.523Z" fill="#171716"/>
      <path id="Tracé_4384" data-name="Tracé 4384" d="M1485.969,610.716l.655,1.423c.131-.073.278-.151.409-.224-.256-.511-.508-1.025-.764-1.535Z" fill="#171716"/>
    </g>
    <path id="Tracé_4385" data-name="Tracé 4385" d="M1486.168,612.5l-.825-1.563a6.617,6.617,0,0,0-.311,1.058.692.692,0,0,0,.045.527.488.488,0,0,0,.446.179A2.583,2.583,0,0,0,1486.168,612.5Z" fill="#72866d"/>
    <path id="Tracé_4386" data-name="Tracé 4386" d="M1493.766,615.059a18.407,18.407,0,0,0-.511-3.432,6.2,6.2,0,0,0-1.716-2.968,3.754,3.754,0,0,0-3.2-.968,4.3,4.3,0,0,0-2.691,2.205,6.808,6.808,0,0,0-.829,2.522.441.441,0,0,0-.561.166,1.153,1.153,0,0,0-.11.6l-.006,2.147a1.931,1.931,0,0,0,1.593-.232c.245-.212.362-.537.585-.772a1.123,1.123,0,0,1,1.7.091,7.009,7.009,0,0,0,.454.709,1.714,1.714,0,0,0,1.252.34,1,1,0,0,0,.792-.232,1.716,1.716,0,0,0,.222-.551,1.141,1.141,0,0,1,2.119-.053c.058.135.089.28.152.412a.509.509,0,0,0,.307.294C1493.458,615.37,1493.779,615.2,1493.766,615.059Zm-2.339-2.933-6.125.143a4.668,4.668,0,0,1,1.445-3.258,3.539,3.539,0,0,1,3.4-.792,1.712,1.712,0,0,1,.868.577,2.126,2.126,0,0,1,.32.973A11.532,11.532,0,0,1,1491.427,612.126Z" fill="#a2c19d"/>
    <path id="Tracé_4387" data-name="Tracé 4387" d="M1492.835,615.624l1.058-.019a.747.747,0,0,0,.287-.042.258.258,0,0,0,.167-.221.25.25,0,0,0-.126-.2.618.618,0,0,0-.234-.075,2.9,2.9,0,0,0-.837.007,1.649,1.649,0,0,0-.788-1.091,1.423,1.423,0,0,0-1.33-.026,1.242,1.242,0,0,0-.628,1.148l-1.735.005a1.576,1.576,0,0,0-1.373-1.273,1.629,1.629,0,0,0-1.614,1.015l-1.241.023a1.2,1.2,0,0,0-.378.049.4.4,0,0,0-.262.259.406.406,0,0,0,.257.434,1.2,1.2,0,0,0,.54.056l1.549-.08a.992.992,0,0,1,.434-1.022,1.085,1.085,0,0,1,1.114.048,1.229,1.229,0,0,1,.531.995l2.483.018a1.115,1.115,0,0,1,.431-1.083,1.056,1.056,0,0,1,1.131-.016A1.233,1.233,0,0,1,1492.835,615.624Z" fill="#f3f2f2"/>
    <g id="Groupe_2554" data-name="Groupe 2554">
      <path id="Tracé_4388" data-name="Tracé 4388" d="M1483.968,613.076a.719.719,0,0,0,.025,1.438Z" fill="#ffab2b"/>
      <path id="Tracé_4389" data-name="Tracé 4389" d="M1483.927,612.991l-.1,1.7.533-.082-.057-1.617Z" fill="#72866d"/>
    </g>
    <g id="Groupe_2555" data-name="Groupe 2555">
      <path id="Tracé_4390" data-name="Tracé 4390" d="M1486.661,614.841a.691.691,0,0,0-.15.749.688.688,0,0,0,.929.308.674.674,0,0,0,.325-.567A.66.66,0,0,0,1486.661,614.841Z" fill="#171716"/>
      <path id="Tracé_4391" data-name="Tracé 4391" d="M1486.771,614.958a.528.528,0,0,0-.114.568.521.521,0,0,0,.7.232.508.508,0,0,0,.246-.429A.5.5,0,0,0,1486.771,614.958Z" fill="#545454"/>
      <path id="Tracé_4392" data-name="Tracé 4392" d="M1487.044,615.251a.1.1,0,0,0-.023.113.1.1,0,0,0,.049.048.1.1,0,0,0,.091,0,.1.1,0,0,0,.05-.086A.1.1,0,0,0,1487.044,615.251Z" fill="#171716"/>
    </g>
    <g id="Groupe_2556" data-name="Groupe 2556">
      <path id="Tracé_4393" data-name="Tracé 4393" d="M1491.281,614.841a.691.691,0,0,0-.15.749.688.688,0,0,0,.929.308.674.674,0,0,0,.325-.567A.66.66,0,0,0,1491.281,614.841Z" fill="#171716"/>
      <path id="Tracé_4394" data-name="Tracé 4394" d="M1491.391,614.958a.526.526,0,0,0-.114.568.521.521,0,0,0,.7.232.51.51,0,0,0,.246-.429A.5.5,0,0,0,1491.391,614.958Z" fill="#545454"/>
      <path id="Tracé_4395" data-name="Tracé 4395" d="M1491.663,615.251a.1.1,0,0,0-.022.113.1.1,0,0,0,.049.048.1.1,0,0,0,.091,0,.1.1,0,0,0,.05-.086A.1.1,0,0,0,1491.663,615.251Z" fill="#171716"/>
    </g>
    <path id="Tracé_4396" data-name="Tracé 4396" d="M1489.86,612.664c.1.424,1.4.466,1.285.016Z" fill="#d9e6d7"/>
    <g id="Groupe_2557" data-name="Groupe 2557">
      <path id="Tracé_4397" data-name="Tracé 4397" d="M1487.634,612.318a.02.02,0,0,0-.011-.026.02.02,0,0,0-.027.011,1.556,1.556,0,0,0,.167,1.484.02.02,0,0,0,.017.009l.012,0a.02.02,0,0,0,0-.028A1.513,1.513,0,0,1,1487.634,612.318Z" fill="#72866d"/>
      <path id="Tracé_4398" data-name="Tracé 4398" d="M1487.755,612.318a.019.019,0,0,0-.011-.026.019.019,0,0,0-.026.011,1.553,1.553,0,0,0,.167,1.484.019.019,0,0,0,.016.009l.012,0a.021.021,0,0,0,.005-.028A1.516,1.516,0,0,1,1487.755,612.318Z" fill="#72866d"/>
      <path id="Tracé_4399" data-name="Tracé 4399" d="M1492.238,612.863a1.483,1.483,0,0,0-.68-.714.02.02,0,0,0-.027.009.02.02,0,0,0,.009.027,1.44,1.44,0,0,1,.739,1.65.02.02,0,0,0,.014.025h.005a.021.021,0,0,0,.02-.015A1.491,1.491,0,0,0,1492.238,612.863Z" fill="#72866d"/>
    </g>
  </g>
  <g id="Groupe_2566" data-name="Groupe 2566" transform="translate(-1342.312 -576.328)">
    <g id="Groupe_2565" data-name="Groupe 2565">
      <path id="Tracé_4400" data-name="Tracé 4400" d="M1363.135,609.893a19.731,19.731,0,0,1,.506,3.365l-3.335.315.288-4.009A12.726,12.726,0,0,1,1363.135,609.893Z" fill="#e6e6e6"/>
      <path id="Tracé_4401" data-name="Tracé 4401" d="M1359.358,609.623a3.2,3.2,0,0,1,1.236-.059l-.288,4.009-2.086.2A33.311,33.311,0,0,1,1359.358,609.623Z" fill="#e6e6e6"/>
      <g id="Groupe_2559" data-name="Groupe 2559">
        <path id="Tracé_4402" data-name="Tracé 4402" d="M1363.436,612.657l-.53-.329-.08.113.529.41Z" fill="#171716"/>
        <path id="Tracé_4403" data-name="Tracé 4403" d="M1363.135,612.053l-.411.73-.124-.027.449-.882Z" fill="#171716"/>
      </g>
      <path id="Tracé_4404" data-name="Tracé 4404" d="M1363.641,612.17l-.755,1.171.837-.083Z" fill="#171716"/>
      <path id="Tracé_4405" data-name="Tracé 4405" d="M1360.907,609.531a1.044,1.044,0,0,0-.163-.63,1.067,1.067,0,0,0-1.062-.111c-.194.153-.275.747-.275.747Z" fill="#ffdda3"/>
      <path id="Tracé_4406" data-name="Tracé 4406" d="M1356.649,614.7c-.534-.061-.586.508-.036.368Z" fill="#cc1d24"/>
      <g id="Groupe_2560" data-name="Groupe 2560">
        <path id="Tracé_4407" data-name="Tracé 4407" d="M1359.138,615.076a.542.542,0,0,1,.117.587.539.539,0,0,1-.727.24.529.529,0,0,1-.254-.443A.517.517,0,0,1,1359.138,615.076Z" fill="#171716"/>
        <path id="Tracé_4408" data-name="Tracé 4408" d="M1359.052,615.168a.412.412,0,0,1,.089.444.408.408,0,0,1-.55.182.4.4,0,0,1-.192-.336A.39.39,0,0,1,1359.052,615.168Z" fill="#fff"/>
        <path id="Tracé_4409" data-name="Tracé 4409" d="M1358.839,615.4a.081.081,0,0,1,.017.089.082.082,0,0,1-.11.036.078.078,0,1,1,.093-.125Z" fill="#171716"/>
      </g>
      <g id="Groupe_2561" data-name="Groupe 2561">
        <path id="Tracé_4410" data-name="Tracé 4410" d="M1363.564,615.076a.542.542,0,0,1,.118.587.539.539,0,0,1-.727.24.529.529,0,0,1-.254-.443A.516.516,0,0,1,1363.564,615.076Z" fill="#171716"/>
        <path id="Tracé_4411" data-name="Tracé 4411" d="M1363.479,615.168a.412.412,0,0,1,.089.444.408.408,0,0,1-.55.182.4.4,0,0,1-.193-.336A.391.391,0,0,1,1363.479,615.168Z" fill="#fff"/>
        <path id="Tracé_4412" data-name="Tracé 4412" d="M1363.265,615.4a.083.083,0,0,1,.018.089.082.082,0,0,1-.11.036.078.078,0,1,1,.092-.125Z" fill="#171716"/>
      </g>
      <path id="Tracé_4413" data-name="Tracé 4413" d="M1356.508,615.4c-.172-1.247.476-1.541,1.58-1.662,1.131-.125,2.264-.232,3.4-.328a10.341,10.341,0,0,1,3.293-.125c1.039.28,1.192,1.277,1.222,2.216h-1.921a.88.88,0,0,0-.438-.664.844.844,0,0,0-1.242.626h-2.763a.713.713,0,0,0-.295-.52.928.928,0,0,0-.553-.172.949.949,0,0,0-.586.182.672.672,0,0,0-.268.539Z" fill="#ffab2b"/>
      <path id="Tracé_4414" data-name="Tracé 4414" d="M1364.08,615.649H1366a.153.153,0,1,0,0-.306h-1.793a1.038,1.038,0,0,0-.492-.646,1,1,0,0,0-1.44.608h-2.505a.928.928,0,0,0-.337-.489,1.076,1.076,0,0,0-.644-.2,1.1,1.1,0,0,0-.68.214.845.845,0,0,0-.314.5l-1.278-.082a.153.153,0,0,0-.019.306l1.426.092a.156.156,0,0,0,.117-.043.155.155,0,0,0,.046-.116.518.518,0,0,1,.209-.412.8.8,0,0,1,.491-.15.78.78,0,0,1,.462.141.568.568,0,0,1,.234.4.153.153,0,0,0,.045.109.157.157,0,0,0,.108.045h2.763a.153.153,0,0,0,.151-.133.692.692,0,0,1,1.018-.513.733.733,0,0,1,.359.546A.153.153,0,0,0,1364.08,615.649Z" fill="#dbdcc2"/>
      <g id="Groupe_2562" data-name="Groupe 2562">
        <path id="Tracé_4415" data-name="Tracé 4415" d="M1363.5,614.124l-.02-.263.306-.018.02.267Z" fill="#171716"/>
        <path id="Tracé_4416" data-name="Tracé 4416" d="M1362.886,614.148l-.02-.253.306-.017.02.258Z" fill="#171716"/>
        <path id="Tracé_4417" data-name="Tracé 4417" d="M1362.58,614.159l-.02-.248.306-.016.02.253Z" fill="#fff"/>
        <path id="Tracé_4418" data-name="Tracé 4418" d="M1363.192,614.136l-.02-.258.306-.017.02.263Z" fill="#fff"/>
        <path id="Tracé_4419" data-name="Tracé 4419" d="M1361.356,614.2l-.019-.229.306-.015.019.234Z" fill="#fff"/>
        <path id="Tracé_4420" data-name="Tracé 4420" d="M1361.968,614.181l-.019-.239.306-.015.02.244Z" fill="#fff"/>
        <path id="Tracé_4421" data-name="Tracé 4421" d="M1362.274,614.17l-.02-.244.306-.016.02.248Z" fill="#171716"/>
        <path id="Tracé_4422" data-name="Tracé 4422" d="M1361.662,614.191l-.019-.234.306-.015.019.239Z" fill="#171716"/>
        <path id="Tracé_4423" data-name="Tracé 4423" d="M1365.713,614.022l-.074,0-.011-.148A1.474,1.474,0,0,1,1365.713,614.022Z" fill="#fff"/>
        <path id="Tracé_4424" data-name="Tracé 4424" d="M1365.639,614.026l-.306.015-.021-.291.211-.014a1.445,1.445,0,0,1,.105.142Z" fill="#171716"/>
        <path id="Tracé_4425" data-name="Tracé 4425" d="M1364.109,614.1l-.02-.272.306-.018.02.277Z" fill="#171716"/>
        <path id="Tracé_4426" data-name="Tracé 4426" d="M1365.007,613.77l.306-.02.021.291-.306.015Z" fill="#fff"/>
        <path id="Tracé_4427" data-name="Tracé 4427" d="M1363.8,614.111l-.02-.267.306-.018.02.272Z" fill="#fff"/>
        <path id="Tracé_4428" data-name="Tracé 4428" d="M1364.721,614.07l-.021-.282.306-.019.021.286Z" fill="#171716"/>
        <path id="Tracé_4429" data-name="Tracé 4429" d="M1357.377,614.289l-.018-.167.306-.009.018.172Z" fill="#171716"/>
        <path id="Tracé_4430" data-name="Tracé 4430" d="M1357.99,614.28l-.018-.177.306-.01.018.182Z" fill="#171716"/>
        <path id="Tracé_4431" data-name="Tracé 4431" d="M1358.6,614.269l-.018-.186.306-.011.018.191Z" fill="#171716"/>
        <path id="Tracé_4432" data-name="Tracé 4432" d="M1358.3,614.275l-.018-.182.306-.01.018.186Z" fill="#fff"/>
        <path id="Tracé_4433" data-name="Tracé 4433" d="M1361.05,614.21l-.019-.225.306-.014.019.229Z" fill="#171716"/>
        <path id="Tracé_4434" data-name="Tracé 4434" d="M1357.684,614.285l-.018-.172.306-.009.018.177Z" fill="#fff"/>
        <path id="Tracé_4435" data-name="Tracé 4435" d="M1356.679,614.3a.864.864,0,0,1,.076-.093l.01.092Z" fill="#fff"/>
        <path id="Tracé_4436" data-name="Tracé 4436" d="M1357.071,614.293l-.018-.163.306-.009.018.167Z" fill="#fff"/>
        <path id="Tracé_4437" data-name="Tracé 4437" d="M1357.071,614.293l-.306,0-.01-.092c.023-.024.046-.046.071-.068l.228-.006Z" fill="#171716"/>
        <path id="Tracé_4438" data-name="Tracé 4438" d="M1360.132,614.235l-.019-.21.306-.013.019.215Z" fill="#fff"/>
        <path id="Tracé_4439" data-name="Tracé 4439" d="M1360.438,614.227l-.019-.215.306-.013.019.22Z" fill="#171716"/>
        <path id="Tracé_4440" data-name="Tracé 4440" d="M1360.744,614.219l-.019-.22.306-.014.019.225Z" fill="#fff"/>
        <path id="Tracé_4441" data-name="Tracé 4441" d="M1359.214,614.257l-.018-.2.306-.012.018.2Z" fill="#171716"/>
        <path id="Tracé_4442" data-name="Tracé 4442" d="M1358.908,614.263l-.018-.191.306-.011.018.2Z" fill="#fff"/>
        <path id="Tracé_4443" data-name="Tracé 4443" d="M1359.52,614.25l-.018-.2.306-.012.019.206Z" fill="#fff"/>
        <path id="Tracé_4444" data-name="Tracé 4444" d="M1359.826,614.243l-.019-.206.306-.012.019.21Z" fill="#171716"/>
        <path id="Tracé_4445" data-name="Tracé 4445" d="M1364.415,614.084l-.02-.277.306-.019.021.282Z" fill="#fff"/>
        <path id="Tracé_4446" data-name="Tracé 4446" d="M1359.214,614.257l.018.2-.306,0-.018-.192Z" fill="#171716"/>
        <path id="Tracé_4447" data-name="Tracé 4447" d="M1359.52,614.25l.019.2-.306,0-.018-.2Z" fill="#fff"/>
        <path id="Tracé_4448" data-name="Tracé 4448" d="M1358.6,614.269l.018.187h-.306l-.018-.182Z" fill="#171716"/>
        <path id="Tracé_4449" data-name="Tracé 4449" d="M1359.826,614.243l.019.206-.306,0-.019-.2Z" fill="#171716"/>
        <path id="Tracé_4450" data-name="Tracé 4450" d="M1361.05,614.21l.019.225-.306,0-.019-.22Z" fill="#171716"/>
        <path id="Tracé_4451" data-name="Tracé 4451" d="M1360.132,614.235l.019.211-.306,0-.019-.206Z" fill="#fff"/>
        <path id="Tracé_4452" data-name="Tracé 4452" d="M1365.639,614.026l.074,0a1.951,1.951,0,0,1,.121.294l-.174.006Z" fill="#171716"/>
        <path id="Tracé_4453" data-name="Tracé 4453" d="M1360.438,614.227l.019.216-.306,0-.019-.211Z" fill="#171716"/>
        <path id="Tracé_4454" data-name="Tracé 4454" d="M1358.908,614.263l.018.192h-.306l-.018-.187Z" fill="#fff"/>
        <path id="Tracé_4455" data-name="Tracé 4455" d="M1357.089,614.456h-.306l-.017-.158.306,0Z" fill="#fff"/>
        <path id="Tracé_4456" data-name="Tracé 4456" d="M1356.765,614.3l.018.159h-.195a.9.9,0,0,1,.091-.157Z" fill="#171716"/>
        <path id="Tracé_4457" data-name="Tracé 4457" d="M1357.99,614.28l.018.177h-.306l-.018-.173Z" fill="#171716"/>
        <path id="Tracé_4458" data-name="Tracé 4458" d="M1357.377,614.289l.018.168h-.306l-.017-.163Z" fill="#171716"/>
        <path id="Tracé_4459" data-name="Tracé 4459" d="M1358.3,614.275l.018.182h-.306l-.018-.177Z" fill="#fff"/>
        <path id="Tracé_4460" data-name="Tracé 4460" d="M1357.684,614.285l.018.173h-.306l-.018-.168Z" fill="#fff"/>
        <path id="Tracé_4461" data-name="Tracé 4461" d="M1360.744,614.219l.019.22-.306,0-.019-.216Z" fill="#fff"/>
        <path id="Tracé_4462" data-name="Tracé 4462" d="M1364.415,614.084l.02.277-.306.009-.02-.273Z" fill="#fff"/>
        <path id="Tracé_4463" data-name="Tracé 4463" d="M1363.8,614.111l.02.268-.306.008-.02-.263Z" fill="#fff"/>
        <path id="Tracé_4464" data-name="Tracé 4464" d="M1364.721,614.07l.02.282-.306.009-.02-.277Z" fill="#171716"/>
        <path id="Tracé_4465" data-name="Tracé 4465" d="M1364.109,614.1l.02.273-.306.008-.02-.268Z" fill="#171716"/>
        <path id="Tracé_4466" data-name="Tracé 4466" d="M1365.027,614.056l.021.287-.306.01-.02-.282Z" fill="#fff"/>
        <path id="Tracé_4467" data-name="Tracé 4467" d="M1365.639,614.026l.021.3-.306.01-.021-.292Z" fill="#fff"/>
        <path id="Tracé_4468" data-name="Tracé 4468" d="M1365.333,614.041l.021.292-.306.01-.021-.287Z" fill="#171716"/>
        <path id="Tracé_4469" data-name="Tracé 4469" d="M1363.192,614.136l.02.258-.306.007-.02-.254Z" fill="#fff"/>
        <path id="Tracé_4470" data-name="Tracé 4470" d="M1362.274,614.17l.02.244-.306.006-.02-.239Z" fill="#171716"/>
        <path id="Tracé_4471" data-name="Tracé 4471" d="M1361.968,614.181l.02.239-.306.005-.019-.235Z" fill="#fff"/>
        <path id="Tracé_4472" data-name="Tracé 4472" d="M1361.662,614.191l.019.235-.306.005-.019-.23Z" fill="#171716"/>
        <path id="Tracé_4473" data-name="Tracé 4473" d="M1362.886,614.148l.02.254-.306.007-.02-.249Z" fill="#171716"/>
        <path id="Tracé_4474" data-name="Tracé 4474" d="M1361.356,614.2l.019.23-.306,0-.019-.225Z" fill="#fff"/>
        <path id="Tracé_4475" data-name="Tracé 4475" d="M1363.5,614.124l.02.263-.306.008-.02-.258Z" fill="#171716"/>
        <path id="Tracé_4476" data-name="Tracé 4476" d="M1362.58,614.159l.02.249-.306.006-.02-.244Z" fill="#fff"/>
      </g>
      <g id="Groupe_2563" data-name="Groupe 2563">
        <path id="Tracé_4477" data-name="Tracé 4477" d="M1366.163,614.094l.063,1.125C1365.286,615.18,1365.339,614.137,1366.163,614.094Z" fill="#ffbc4f"/>
        <path id="Tracé_4478" data-name="Tracé 4478" d="M1366.4,614.106v1.109a1.451,1.451,0,0,1-.172,0l-.063-1.125A1.186,1.186,0,0,1,1366.4,614.106Z" fill="#ffdda3"/>
      </g>
      <path id="Tracé_4479" data-name="Tracé 4479" d="M1357.846,613.889l5.978-.548s-.337-3.352-.652-3.6a9.933,9.933,0,0,0-3.876-.247A32.812,32.812,0,0,0,1357.846,613.889Zm2.46-.316-2.086.2a33.311,33.311,0,0,1,1.138-4.147,3.2,3.2,0,0,1,1.236-.059,12.726,12.726,0,0,1,2.541.329,19.731,19.731,0,0,1,.506,3.365Z" fill="#ffab2b"/>
      <g id="Groupe_2564" data-name="Groupe 2564">
        <path id="Tracé_4480" data-name="Tracé 4480" d="M1360.433,609.029h.257a.016.016,0,0,1,.016.015.016.016,0,0,1-.016.016h-.119v.221a.015.015,0,0,1-.015.015.015.015,0,0,1-.015-.015v-.221h-.108a.016.016,0,0,1-.016-.016A.016.016,0,0,1,1360.433,609.029Z" fill="#171716"/>
        <path id="Tracé_4481" data-name="Tracé 4481" d="M1360.144,609.252a.016.016,0,0,0,.006.021.016.016,0,0,0,.021-.006l.049-.089h.131l.035.108a.015.015,0,0,0,.014.01h.005a.015.015,0,0,0,.01-.019l-.094-.292a.014.014,0,0,0-.013-.01.015.015,0,0,0-.015.007Zm.093-.105.066-.12.038.12Z" fill="#171716"/>
        <path id="Tracé_4482" data-name="Tracé 4482" d="M1359.891,609a.014.014,0,0,1,.021,0l.075.088.084-.11a.016.016,0,0,1,.022,0,.016.016,0,0,1,0,.021l-.089.116.088.1a.015.015,0,0,1,0,.022l-.01,0a.014.014,0,0,1-.011-.006l-.084-.1-.075.1a.017.017,0,0,1-.012.007l-.01,0a.015.015,0,0,1,0-.021l.079-.1-.079-.093A.015.015,0,0,1,1359.891,609Z" fill="#171716"/>
        <path id="Tracé_4483" data-name="Tracé 4483" d="M1359.782,609a.016.016,0,0,1,.016.015v.215a.016.016,0,1,1-.031,0v-.215A.015.015,0,0,1,1359.782,609Z" fill="#171716"/>
      </g>
      <path id="Tracé_4484" data-name="Tracé 4484" d="M1360.416,613.653l.29-4.121-.145-.052-.572,4.173Z" fill="#ffab2b"/>
    </g>
  </g>
  <g id="Groupe_2573" data-name="Groupe 2573" transform="translate(-1342.312 -576.328)">
    <path id="Tracé_4485" data-name="Tracé 4485" d="M1389.85,613.151a.625.625,0,1,1-.157,1.2Z" fill="#cc1d24"/>
    <path id="Tracé_4486" data-name="Tracé 4486" d="M1376.489,614.659c-2.023-7.946,15.191-9.12,13.412,0Z" fill="#ffab2b"/>
    <g id="Groupe_2567" data-name="Groupe 2567">
      <path id="Tracé_4487" data-name="Tracé 4487" d="M1378.624,614.132a1.16,1.16,0,0,0,.036,1.409,1.247,1.247,0,0,0,1.384.341,1.156,1.156,0,0,0,.73-.963A1.24,1.24,0,0,0,1378.624,614.132Z" fill="#171716"/>
      <path id="Tracé_4488" data-name="Tracé 4488" d="M1379.213,614.568a.453.453,0,0,0,.014.549.486.486,0,0,0,.539.132.451.451,0,0,0,.285-.375A.483.483,0,0,0,1379.213,614.568Z" fill="#e6e6e6"/>
    </g>
    <g id="Groupe_2568" data-name="Groupe 2568">
      <path id="Tracé_4489" data-name="Tracé 4489" d="M1386.279,614.132a1.16,1.16,0,0,0,.036,1.409,1.248,1.248,0,0,0,1.384.341,1.156,1.156,0,0,0,.73-.963A1.239,1.239,0,0,0,1386.279,614.132Z" fill="#171716"/>
      <path id="Tracé_4490" data-name="Tracé 4490" d="M1386.869,614.568a.45.45,0,0,0,.014.549.485.485,0,0,0,.539.132.449.449,0,0,0,.284-.375A.482.482,0,0,0,1386.869,614.568Z" fill="#e6e6e6"/>
    </g>
    <g id="Groupe_2569" data-name="Groupe 2569">
      <path id="Tracé_4491" data-name="Tracé 4491" d="M1385.384,608.862V612.4l1.986.033v-2.768A6.262,6.262,0,0,0,1385.384,608.862Z" fill="#e6e6e6"/>
      <path id="Tracé_4492" data-name="Tracé 4492" d="M1382.935,608.654v3.7l2.158.036V608.8A9.181,9.181,0,0,0,1382.935,608.654Z" fill="#e6e6e6"/>
      <path id="Tracé_4493" data-name="Tracé 4493" d="M1380.569,609.072v3.246l2.059.034v-3.679A9.154,9.154,0,0,0,1380.569,609.072Z" fill="#e6e6e6"/>
      <path id="Tracé_4494" data-name="Tracé 4494" d="M1377.021,612.259l3.187.053V609.2A4.853,4.853,0,0,0,1377.021,612.259Z" fill="#e6e6e6"/>
      <path id="Tracé_4495" data-name="Tracé 4495" d="M1389.064,612.459a3.328,3.328,0,0,0-1.443-2.624v2.6Z" fill="#ffab2b"/>
    </g>
    <g id="Groupe_2570" data-name="Groupe 2570">
      <path id="Tracé_4496" data-name="Tracé 4496" d="M1375.785,613.2c.4-.039,1.425-.052,1.367.653-.061.731-.915.384-1.344.5Z" fill="#ffbc4f"/>
      <path id="Tracé_4497" data-name="Tracé 4497" d="M1375.522,613.019l.07,1.46h.383v-1.505Z" fill="#ffdda3"/>
    </g>
    <g id="Groupe_2571" data-name="Groupe 2571">
      <path id="Tracé_4498" data-name="Tracé 4498" d="M1377.3,611.94l.561-.337.094.236-.566.247Z" fill="#171716"/>
      <path id="Tracé_4499" data-name="Tracé 4499" d="M1377.661,611.353l.322.737a.091.091,0,0,0,.123.046l.023-.011a.091.091,0,0,0,.043-.122l-.345-.725a.091.091,0,0,0-.128-.041h0A.092.092,0,0,0,1377.661,611.353Z" fill="#171716"/>
    </g>
    <g id="Groupe_2572" data-name="Groupe 2572">
      <path id="Tracé_4500" data-name="Tracé 4500" d="M1377.021,612.259l.588.01-.332-.67A3.707,3.707,0,0,0,1377.021,612.259Z" fill="#a86046"/>
    </g>
    <path id="Tracé_4501" data-name="Tracé 4501" d="M1377.476,612.751l.133.662h11.73l-.12-.439Z" fill="#ffdda3"/>
  </g>
</svg>
