<svg xmlns="http://www.w3.org/2000/svg" width="7.068" height="4.801" viewBox="0 0 7.068 4.801">
  <g id="Groupe_4109" data-name="Groupe 4109" transform="translate(-2198.227 -728.146)">
    <path id="Tracé_5883" data-name="Tracé 5883" d="M2201.285,730.235a.816.816,0,1,0,.816.816A.815.815,0,0,0,2201.285,730.235Zm0,1.428a.612.612,0,1,1,.612-.612A.612.612,0,0,1,2201.285,731.663Z" fill="#747474"/>
    <path id="Tracé_5884" data-name="Tracé 5884" d="M2203.826,731.354a1.736,1.736,0,0,1-1.375-.676,1.224,1.224,0,1,1-1.166-.851,1.222,1.222,0,0,1,.92.417,1.731,1.731,0,0,1,.347-1.813.358.358,0,0,0-.279-.133H2200.3a.358.358,0,0,0-.358.358v.263a.357.357,0,0,0,.018.113h-1.337a.394.394,0,0,0-.394.394v3.127a.394.394,0,0,0,.394.394h5.329a.394.394,0,0,0,.394-.394v-1.278A1.706,1.706,0,0,1,2203.826,731.354Zm-4.682-1.282a.245.245,0,1,1,.245-.245A.245.245,0,0,1,2199.144,730.072Z" fill="#747474"/>
    <path id="Tracé_5885" data-name="Tracé 5885" d="M2203.826,728.146a1.468,1.468,0,1,0,1.469,1.468A1.468,1.468,0,0,0,2203.826,728.146Zm.713,1.65H2204v.529h-.36V729.8h-.531v-.361h.531V728.9h.36v.532h.534Z" fill="#747474"/>
  </g>
</svg>
