<svg xmlns="http://www.w3.org/2000/svg" xmlns:xlink="http://www.w3.org/1999/xlink" viewBox="0 0 4.85 4.84"><defs><style>.cls-1{opacity:0.6;}.cls-2{fill:#91978f;}.cls-3{fill:url(#Dégradé_sans_nom_15);}</style><linearGradient id="Dégradé_sans_nom_15" x1="0.99" y1="2.42" x2="3.85" y2="2.42" gradientUnits="userSpaceOnUse"><stop offset="0" stop-color="#5c635b"/><stop offset="0.42" stop-color="#247238"/><stop offset="0.99" stop-color="#8ebf25"/></linearGradient></defs><g id="Calque_2" data-name="Calque 2"><g id="Calque_1-2" data-name="Calque 1"><g class="cls-1"><path class="cls-2" d="M4.85,2.43A2.43,2.43,0,0,1,2.42,4.84,2.39,2.39,0,0,1,0,2.43,2.4,2.4,0,0,1,2.45,0,2.41,2.41,0,0,1,4.85,2.43Z"/></g><path class="cls-3" d="M1.32,2a.33.33,0,0,1,.24.13l.5.5c.06.07.09.06.15,0L3.32,1.47a.31.31,0,0,1,.52.14.29.29,0,0,1-.1.3L2.43,3.23c-.06,0-.11.11-.17.17a.15.15,0,0,1-.23,0c-.23-.2-.44-.42-.65-.63a3.19,3.19,0,0,1-.31-.33.27.27,0,0,1,0-.33A.29.29,0,0,1,1.32,2Z"/></g></g></svg>