<svg xmlns="http://www.w3.org/2000/svg" viewBox="0 0 6.24 7.8"><defs><style>.cls-1{fill:#616160;}</style></defs><g id="Calque_2" data-name="Calque 2"><g id="Calque_1-2" data-name="Calque 1"><path class="cls-1" d="M6,7.8H.22A.22.22,0,0,1,0,7.58V.22A.22.22,0,0,1,.22,0H3.91a.22.22,0,0,1,.22.22.21.21,0,0,1-.22.21H.43V7.36H5.8V2.25A.22.22,0,0,1,6,2a.21.21,0,0,1,.21.22V7.58A.21.21,0,0,1,6,7.8Z"/><path class="cls-1" d="M6,2.44H4a.21.21,0,0,1-.22-.21v-2A.21.21,0,0,1,3.94,0a.21.21,0,0,1,.24,0l2,2a.22.22,0,0,1,.09.17A.21.21,0,0,1,6,2.44ZM4.24,2H5.5L4.24.74Z"/><path class="cls-1" d="M2.08,4.13V3.72a1,1,0,0,1,1.48-1,1,1,0,0,1,.59.9c0,.15,0,.3,0,.45l.13,0a.35.35,0,0,1,.22.33v1a1,1,0,0,1-.94,1,6.32,6.32,0,0,1-.87,0,1,1,0,0,1-.94-.88,2.84,2.84,0,0,1,0-.41c0-.21,0-.42,0-.63A.36.36,0,0,1,2.08,4.13Zm.35,0H3.76s0,0,0,0a2.94,2.94,0,0,0,0-.42A.67.67,0,0,0,3.21,3a.69.69,0,0,0-.73.43A1.9,1.9,0,0,0,2.43,4.12ZM3,5.48a.57.57,0,0,0,0,.13.17.17,0,0,0,.17.16.18.18,0,0,0,.17-.17V5.43a.23.23,0,0,1,.08-.2.34.34,0,0,0-.48-.49.33.33,0,0,0,0,.47A.31.31,0,0,1,3,5.48Z"/></g></g></svg>