<svg xmlns="http://www.w3.org/2000/svg" viewBox="0 0 7.65 10.14"><defs><style>.cls-1{fill:#616160;}</style></defs><g id="Calque_2" data-name="Calque 2"><g id="Calque_1-2" data-name="Calque 1"><path class="cls-1" d="M7.38,10.14H.27A.27.27,0,0,1,0,9.87V4.41a.27.27,0,0,1,.54,0V9.6H7.11V4.41a.27.27,0,0,1,.54,0V9.87A.27.27,0,0,1,7.38,10.14Z"/><path class="cls-1" d="M3.83,8.46a.27.27,0,0,1-.17-.06L.1,5.62A.3.3,0,0,1,0,5.4v-1a.27.27,0,0,1,.27-.27H1.56a.27.27,0,1,1,0,.54h-1v.59L3.83,7.84,7.11,5.27V4.68h-1a.27.27,0,1,1,0-.54H7.38a.27.27,0,0,1,.27.27v1a.27.27,0,0,1-.1.22L4,8.4A.23.23,0,0,1,3.83,8.46Z"/><path class="cls-1" d="M3.44,6.24a.28.28,0,0,1-.23-.13l-1-1.55a.28.28,0,0,1,.09-.38.29.29,0,0,1,.38.09l.73,1.18.73-1.18a.29.29,0,0,1,.38-.09.28.28,0,0,1,.09.38l-1,1.55A.28.28,0,0,1,3.44,6.24Z"/><path class="cls-1" d="M3.44,6.28A.27.27,0,0,1,3.17,6V2.58a.27.27,0,0,1,.54,0V6A.27.27,0,0,1,3.44,6.28Z"/><path class="cls-1" d="M6,2.14A.28.28,0,0,1,5.77,2L5,.83,4.3,2a.28.28,0,0,1-.38.09.28.28,0,0,1-.08-.38L4.8.17A.28.28,0,0,1,5,0H5a.26.26,0,0,1,.23.13l1,1.55a.28.28,0,0,1-.09.38A.23.23,0,0,1,6,2.14Z"/><path class="cls-1" d="M5,4a.27.27,0,0,1-.27-.27V.27A.27.27,0,0,1,5,0a.28.28,0,0,1,.28.27V3.7A.28.28,0,0,1,5,4Z"/></g></g></svg>