<svg xmlns="http://www.w3.org/2000/svg" width="8.936" height="8.504" viewBox="0 0 8.936 8.504">
  <g id="Groupe_113" data-name="Groupe 113" transform="translate(-289.427 -427.179)">
    <path id="Tracé_425" data-name="Tracé 425" d="M290.532,433.029a.941.941,0,0,1-.448-.7,1.8,1.8,0,0,1,.076-1.029.885.885,0,0,1,.316-.413.391.391,0,0,0,.168-.273,3.642,3.642,0,0,1,.781-1.921.181.181,0,0,0,.053-.133.413.413,0,0,1,.143-.337,3.674,3.674,0,0,1,5.085-.042.434.434,0,0,1,.167.4.113.113,0,0,0,.037.091,3.64,3.64,0,0,1,.8,1.937.383.383,0,0,0,.153.271.977.977,0,0,1,.395.624,1.84,1.84,0,0,1-.052,1.064.94.94,0,0,1-.4.486,1.2,1.2,0,0,1-.194.209.341.341,0,0,0-.143.182.262.262,0,0,1-.232.184,1.919,1.919,0,0,1-.786-.048v.308l-.008.242a.326.326,0,0,1-.354.214,2.781,2.781,0,0,0-.288,0,.363.363,0,0,1-.33-.13.417.417,0,0,1-.345.13c-.126,0-.253,0-.379,0a2.283,2.283,0,0,1-.5-.012c-.138-.032-.258-.087-.388.007-.019.013-.053,0-.08.005-.1,0-.192-.006-.287,0-.117.008-.215-.082-.3-.086s-.189.09-.307.086c-.188,0-.376-.006-.564,0a.416.416,0,0,1-.372-.161.825.825,0,0,1-.039-.3v-.32a.45.45,0,0,1-.226.071c-.161,0-.321,0-.482,0a.341.341,0,0,1-.337-.244c-.009-.024-.006-.054-.034-.069a1.161,1.161,0,0,1-.268-.246h0C290.559,433.054,290.555,433.035,290.532,433.029Zm5.391-5.274a.049.049,0,0,0-.048-.025h0a1.235,1.235,0,0,0-.364-.17l0,0c-.011-.024-.033-.029-.055-.037a3.332,3.332,0,0,0-1.027-.228,3.534,3.534,0,0,0-2.723,1,.3.3,0,0,0,.022.47.275.275,0,0,0,.388-.055,2.953,2.953,0,0,1,3.538-.45,3.022,3.022,0,0,1,.606.455.291.291,0,1,0,.4-.423c-.088-.085-.184-.161-.276-.241a2.069,2.069,0,0,0-.38-.258.153.153,0,0,0-.08-.047Zm-3.8,6.154c-.069-.016-.1,0-.1.083a.19.19,0,0,0,.1.184.1.1,0,0,0,.091.042c.248,0,.5.006.745,0a.213.213,0,0,0,.2-.229c0-.057-.017-.083-.079-.082-.264,0-.528,0-.791,0Zm.026-.318h-.1c-.012,0-.018,0-.016.013,0,.042,0,.084-.008.126-.01.075.025.1.093.082.313,0,.627,0,.941,0,.082,0,.1-.04.094-.107s.006-.127-.09-.125c-.2,0-.4,0-.6,0Zm1.128.451a.13.13,0,0,0,.08.161,1.8,1.8,0,0,0,.491.013.125.125,0,0,0,.116-.136c0-.084,0-.169,0-.253,0-.066-.022-.087-.086-.086-.172,0-.345,0-.517,0-.066-.01-.1.009-.092.084S293.273,433.97,293.275,434.042Zm1.707-3.929c-.285,0-.571,0-.857-.007-.049,0-.068.017-.067.066s.008.076.062.071c.023,0,.046,0,.069,0,.385,0,.77,0,1.155,0,.1,0,.106-.046.078-.121A2.311,2.311,0,0,0,294.982,430.113Zm-2.333.11c-.172,0-.344.006-.514-.008-.128-.01-.1.066-.11.141-.01.1.039.108.114.094l.941,0c.031,0,.059,0,.071-.04.041-.128,0-.2-.133-.194l-.046,0Zm-2.421,2.163a.136.136,0,0,0,.027.1.7.7,0,0,0,.209.349,5.551,5.551,0,0,1-.068-.773c.019-.282.027-.565.039-.847l.025-.153a1.443,1.443,0,0,0-.23,1.331Zm2.837-2.482c-.051-.011-.092-.052-.148-.052-.23,0-.46,0-.69,0a.2.2,0,0,0-.2.182c-.009.079.02.106.1.087l.622,0h.207l.045,0c.05,0,.117.035.145-.023a.166.166,0,0,0-.046-.178A.117.117,0,0,0,293.065,429.9Zm1.184.106c.356,0,.711,0,1.066,0,.029,0,.072.017.084-.013s-.028-.064-.057-.087a.266.266,0,0,0-.18-.059c-.282,0-.565,0-.847,0a.387.387,0,0,0-.1.016c-.061.019-.132.063-.124.117s.089.016.137.027C294.234,430.015,294.242,430.011,294.249,430.01Zm2.27,3.434.028.024c.032.03.068.059.111.04s.023-.068.023-.1c0-.21,0-.42,0-.63l0-2.347c.008-.075-.043-.062-.081-.048a.216.216,0,0,0-.152.219q0,1.342,0,2.686a.17.17,0,0,0,.069.159Zm-.875.542c-.072-.026-.1,0-.09.074a.13.13,0,0,0,.073.12,1.231,1.231,0,0,0,.606.016c.065-.01.089-.078.1-.142s-.01-.077-.068-.075C296.057,433.983,295.85,433.984,295.644,433.986Zm.007-.1c.2,0,.4,0,.6,0,.116,0,.078-.078.082-.134s.016-.123-.086-.12c-.2.007-.4,0-.6.005-.158-.021-.077.1-.092.161C295.536,433.873,295.576,433.9,295.651,433.882Zm-.007-3.669h.609c.032,0,.079.009.077-.043,0-.085.031-.178-.045-.25-.034-.065-.1-.066-.157-.067-.1,0-.206,0-.308,0-.237,0-.273.041-.27.282C295.55,430.212,295.579,430.227,295.644,430.213Zm-1.079,3.527a1.547,1.547,0,0,0-.384-.023c-.085-.009-.1.029-.1.1,0,.094.048.088.109.081.38,0,.759,0,1.138,0,.07,0,.113-.006.113-.1s-.052-.09-.117-.092C295.069,433.711,294.818,433.757,294.565,433.74Zm-2.739-3.314c-.039-.04-.091-.074-.141-.052s-.02.084-.02.127q0,1.4,0,2.806c0,.05,0,.1,0,.149s.017.065.063.053a.228.228,0,0,0,.181-.254v-2.631a.18.18,0,0,0-.043-.149A.08.08,0,0,0,291.826,430.426Zm-.789,3.018.025.025c0,.005.009.013.016.016a1.373,1.373,0,0,0,.474.026c.035,0,.035-.035.035-.061q0-.612-.007-1.225c.011-.561.009-1.122,0-1.684a.228.228,0,0,0,0-.116c.008-.046-.016-.063-.058-.063-.115,0-.231-.006-.345,0a.225.225,0,0,0-.216.25q0,1.331,0,2.66a.183.183,0,0,0,.072.171Zm7.118-1.175a1.35,1.35,0,0,0-.251-1.188.3.3,0,0,0,.02.146,8.191,8.191,0,0,1-.018,1.573A.877.877,0,0,0,298.155,432.269Zm-3.967,1.92a.241.241,0,0,0,.12.033c.287,0,.575,0,.862,0a.255.255,0,0,0,.233-.121c.038-.064.043-.1-.055-.1-.387,0-.774,0-1.16,0-.036,0-.083-.024-.1.021a.1.1,0,0,0,.039.122A.732.732,0,0,0,294.188,434.189Zm-3.371-3.924c-.013.076-.027.151-.038.226,0,.024-.031.059.006.07s.061-.016.072-.055a.33.33,0,0,1,.165-.212.086.086,0,0,0,.04-.065,3.333,3.333,0,0,1,.6-1.269c.016-.022.035-.039.014-.071-.081-.124-.165-.128-.245-.008A3.446,3.446,0,0,0,290.817,430.265Zm5.98-.922h0a1.753,1.753,0,0,0-.253-.381.078.078,0,0,0-.068-.034.484.484,0,0,1-.343-.161,2.843,2.843,0,0,0-3.927.026c-.067.063-.136.14-.231.137-.159-.006-.228.1-.3.206-.05.077-.1.155-.147.233a3.211,3.211,0,0,0-.331.8c-.021.076.007.087.07.074.149,0,.3.01.448.009.068,0,.142.087.181.038s.009-.14.011-.213a.317.317,0,0,1,.336-.34q.34,0,.679,0a.328.328,0,0,1,.344.349q0,.144,0,.288c0,.042.008.06.059.052a2.672,2.672,0,0,1,.613-.005c0-.1,0-.206,0-.309a.349.349,0,0,1,.372-.375c.284,0,.568,0,.852,0a.233.233,0,0,1,.123.015.263.263,0,0,0,.354,0c.024-.02.074-.013.112-.013.122,0,.245,0,.368,0a.292.292,0,0,1,.328.324c0,.083,0,.165,0,.27a.48.48,0,0,1,.313-.082c.1,0,.207,0,.31-.005.046,0,.11.026.085-.065a2.855,2.855,0,0,0-.336-.8C296.819,429.361,296.817,429.346,296.8,429.343Zm-1.15.967c-.076-.016-.1.016-.1.09a2.085,2.085,0,0,1,0,.285c-.006.079.025.1.1.085.1,0,.207.007.31,0,.12,0,.279.051.352-.027s.015-.234.021-.355a.175.175,0,0,1,0-.023c0-.041-.011-.062-.058-.065A3.646,3.646,0,0,0,295.647,430.31Zm1.7-.018c.1.063.121.2.228.288a.782.782,0,0,0,0-.112,3.558,3.558,0,0,0-.649-1.588c-.09-.124-.09-.124-.213-.031-.021.016-.043.03-.07.049l.1.125a3.568,3.568,0,0,1,.546,1.192C297.3,430.245,297.3,430.287,297.347,430.292Zm.168,2.114v.782a.664.664,0,0,0,.269-.529c.007-.033.017-.067.021-.1a6.655,6.655,0,0,0-.024-1.466.516.516,0,0,0-.266-.415Zm-6.671-1.7c0-.008,0-.021-.009-.023s-.025,0-.032.016a.5.5,0,0,0-.225.381,6.32,6.32,0,0,0-.016,1.555c.007.049.011.1.021.146a.653.653,0,0,0,.193.355c.016.014.032.036.058.025s.015-.033.015-.051c-.005-.22.013-.441-.01-.661C290.855,431.869,290.845,431.288,290.844,430.707Zm6.463-.279a.213.213,0,0,0-.176-.066c-.085,0-.169.005-.253,0s-.109.024-.108.109c0,.383,0,.766,0,1.149,0,.6,0,1.194.005,1.791,0,.035-.038.1.046.1.1,0,.207,0,.31,0a.233.233,0,0,0,.262-.263q0-1.312,0-2.624A.21.21,0,0,0,297.307,430.428Zm-4.8,3.063c.173,0,.345,0,.518.007.093.005.124-.021.124-.12,0-.882,0-1.764,0-2.646,0-.193.05-.2-.2-.184h-.829c-.062-.013-.1,0-.1.077q0,1.395,0,2.791c0,.078.032.092.1.077Zm.844-.09c.176,0,.352,0,.528,0,.06,0,.08-.021.08-.079q0-1.143,0-2.285c0-.06-.018-.081-.078-.08-.176,0-.352,0-.528,0-.057-.005-.09.005-.09.078q0,1.143,0,2.286C293.268,433.392,293.3,433.409,293.356,433.4Zm2.288-2.532c-.064-.013-.094,0-.094.078q0,1.257,0,2.514c0,.08.031.09.1.076.2,0,.4,0,.608,0,.06,0,.081-.019.079-.079,0-.1,0-.191,0-.287,0-.731,0-1.463,0-2.194,0-.091-.025-.118-.116-.114C296.027,430.873,295.836,430.869,295.644,430.869Zm-1.455,2.752c.391,0,.782,0,1.172.005.077,0,.075-.044.075-.1q0-1.548,0-3.094c0-.074-.019-.1-.1-.1-.383,0-.766,0-1.15,0-.1-.022-.146.008-.136.122s.027.219.027.33c0,.906,0,1.811,0,2.717C294.078,433.589,294.085,433.647,294.189,433.621Zm-.276-3.035a.132.132,0,0,0-.134-.058c-.092,0-.184,0-.275,0-.207,0-.237.03-.231.24,0,.035-.025.094.044.1s.045-.058.046-.093c.007-.14.048-.181.189-.182Zm-.642,2.992c.007.024-.011.067.043.07s.049-.042.049-.077.014-.073-.04-.076S293.275,433.537,293.271,433.578Z" fill="#5e4038"/>
    <path id="Tracé_426" data-name="Tracé 426" d="M297.59,427.873a.433.433,0,0,0-.015-.042c-.014-.027-.033-.058-.01-.085s.058-.007.083.007a.088.088,0,0,0,.1,0c.023-.014.05-.03.074-.008s.01.056-.005.083l0,.011c-.047.058.066.118.005.166s-.1-.052-.162-.013c-.025.017-.058.035-.084.011s0-.063.009-.094Z" fill="#5e4038"/>
    <path id="Tracé_427" data-name="Tracé 427" d="M289.926,429.481a.11.11,0,0,1,.125-.117.107.107,0,0,1,.115.115.11.11,0,0,1-.119.123C289.968,429.6,289.93,429.558,289.926,429.481Z" fill="#5e4038"/>
    <path id="Tracé_428" data-name="Tracé 428" d="M290.75,434.9c-.1.02-.124.134-.169.127s-.1-.093-.145-.144c.069-.024.093-.1.151-.135A.4.4,0,0,0,290.75,434.9Z" fill="#5e4038"/>
    <path id="Tracé_429" data-name="Tracé 429" d="M297.809,435.251a.089.089,0,0,1-.1.09.083.083,0,0,1-.087-.1.082.082,0,0,1,.088-.085A.09.09,0,0,1,297.809,435.251Z" fill="#5e4038"/>
    <path id="Tracé_430" data-name="Tracé 430" d="M291.167,435.609c-.01.046-.033.076-.085.074a.071.071,0,0,1-.073-.082.073.073,0,0,1,.082-.075A.077.077,0,0,1,291.167,435.609Z" fill="#5e4038"/>
    <path id="Tracé_431" data-name="Tracé 431" d="M289.586,430.217a.078.078,0,0,1-.085.072.071.071,0,0,1-.074-.082.074.074,0,0,1,.082-.075A.08.08,0,0,1,289.586,430.217Z" fill="#5e4038"/>
    <path id="Tracé_432" data-name="Tracé 432" d="M298.363,428.652a.072.072,0,0,1-.081.077.074.074,0,1,1,.081-.077Z" fill="#5e4038"/>
    <path id="Tracé_433" data-name="Tracé 433" d="M294.19,430.338c.384,0,.767,0,1.15,0,.077,0,.1.026.1.1q0,1.547,0,3.094c0,.053,0,.1-.075.1-.39,0-.781,0-1.172-.005Q294.189,431.98,294.19,430.338Zm.907,1.586h0c0-.081,0-.161,0-.242.022-.414-.106-.435-.438-.423a.235.235,0,0,0-.262.263c0,.269,0,.537,0,.8a.236.236,0,0,0,.234.256,1.009,1.009,0,0,0,.263-.009.222.222,0,0,0,.2-.237C295.1,432.2,295.1,432.062,295.1,431.924Z" fill="#e1401f"/>
    <path id="Tracé_434" data-name="Tracé 434" d="M295.644,430.869c.192,0,.383,0,.574,0,.091,0,.116.023.116.114,0,.731,0,1.463,0,2.194,0,.1,0,.191,0,.287,0,.06-.019.08-.079.079-.2,0-.4,0-.608,0Z" fill="#4cb6cd"/>
    <path id="Tracé_435" data-name="Tracé 435" d="M296,427.8a2.069,2.069,0,0,1,.38.258c0,.035-.027.038-.056.044a1.682,1.682,0,0,1-.813-.06c-.21-.062-.408-.168-.622-.213a2.945,2.945,0,0,0-1.448.021,3.068,3.068,0,0,0-.875.4,1.31,1.31,0,0,1-.542.3,2.553,2.553,0,0,1-.341-.016.492.492,0,0,1,.136-.2,3.661,3.661,0,0,1,.924-.632,1.151,1.151,0,0,1,.473-.163.937.937,0,0,0,.505-.12.315.315,0,0,1,.119-.039,3.515,3.515,0,0,1,1.272.076,1.747,1.747,0,0,0,.4.1l0,0a.782.782,0,0,0,.365.17h0c.009.023.028.025.048.025v0A.071.071,0,0,0,296,427.8Z" fill="#24a3e1"/>
    <path id="Tracé_436" data-name="Tracé 436" d="M293.358,430.958c.176,0,.352,0,.528,0,.06,0,.078.02.078.08q0,1.142,0,2.285c0,.058-.02.08-.08.079-.176,0-.352,0-.528,0a11.83,11.83,0,0,1,.071-1.775C293.475,431.4,293.327,431.187,293.358,430.958Z" fill="#7e9d35"/>
    <path id="Tracé_437" data-name="Tracé 437" d="M292.12,430.548h.024c.008.011.015.011.023,0h.782c.005.264-.033.525-.052.787a.566.566,0,0,1-.034.266,1.106,1.106,0,0,0-.059-.137c-.05-.086-.1-.173-.224-.169a.236.236,0,0,0-.21.17,1.393,1.393,0,0,0,0,1.143.241.241,0,0,0,.28.167c.038.005.05.025.04.063a5.3,5.3,0,0,1-.177.653l-.392,0Z" fill="#24a3e1"/>
    <path id="Tracé_438" data-name="Tracé 438" d="M291.581,430.541c.008.562.01,1.123,0,1.684a.966.966,0,0,1-.54.6c0-.721,0-1.442,0-2.163a.222.222,0,0,1,.229-.234c.1,0,.2,0,.3,0C291.571,430.467,291.557,430.506,291.581,430.541Z" fill="#f8921a"/>
    <path id="Tracé_439" data-name="Tracé 439" d="M291.685,428.539a2.553,2.553,0,0,0,.341.016,1.31,1.31,0,0,0,.542-.3,3.068,3.068,0,0,1,.875-.4,2.945,2.945,0,0,1,1.448-.021c.214.045.412.151.622.213a1.682,1.682,0,0,0,.813.06c.029-.006.052-.009.056-.044.092.08.188.156.276.241a.291.291,0,1,1-.4.423,3.022,3.022,0,0,0-.606-.455,2.953,2.953,0,0,0-3.538.45.275.275,0,0,1-.388.055.378.378,0,0,1-.046-.233Z" fill="#1f8ec5"/>
    <path id="Tracé_440" data-name="Tracé 440" d="M297.307,430.428a.21.21,0,0,1,.087.2q0,1.313,0,2.624a.233.233,0,0,1-.262.263c-.1,0-.207,0-.31,0l.008-.917a.1.1,0,0,0,.06-.05,1.754,1.754,0,0,0,.23-.508,4.793,4.793,0,0,0,.159-1.359c0-.082.03-.168-.018-.247Z" fill="#d77d1b"/>
    <path id="Tracé_441" data-name="Tracé 441" d="M292.863,431.6a.566.566,0,0,0,.034-.266c.019-.262.057-.523.052-.787.252-.012.2-.009.2.184,0,.882,0,1.764,0,2.646,0,.1-.031.125-.124.12-.173-.008-.345,0-.518-.007a5.3,5.3,0,0,0,.177-.653c.01-.038,0-.058-.04-.063a.463.463,0,0,0,.2-.259A1.593,1.593,0,0,0,292.863,431.6Z" fill="#1f8ec5"/>
    <path id="Tracé_442" data-name="Tracé 442" d="M290.562,432.636a6.32,6.32,0,0,1,.016-1.555.5.5,0,0,1,.225-.381l.041.007c0,.581.011,1.162-.005,1.743C290.77,432.547,290.714,432.663,290.562,432.636Z" fill="#fff"/>
    <path id="Tracé_443" data-name="Tracé 443" d="M297.515,432.406v-1.729a.516.516,0,0,1,.266.415,6.655,6.655,0,0,1,.024,1.466c0,.034-.014.068-.021.1a.364.364,0,0,1-.2-.154C297.558,432.472,297.57,432.417,297.515,432.406Z" fill="#fff"/>
    <path id="Tracé_444" data-name="Tracé 444" d="M291.04,432.825a.966.966,0,0,0,.54-.6q0,.612.007,1.225c0,.026,0,.062-.035.061a1.373,1.373,0,0,1-.474-.026c-.007,0-.011-.011-.016-.016l-.025-.025v0Z" fill="#d77d1b"/>
    <path id="Tracé_445" data-name="Tracé 445" d="M291.867,430.475a.18.18,0,0,1,.043.149v2.631a.228.228,0,0,1-.181.254l0-1.768A4.952,4.952,0,0,0,291.867,430.475Z" fill="#d77d1b"/>
    <path id="Tracé_446" data-name="Tracé 446" d="M295.511,427.564a1.747,1.747,0,0,1-.4-.1,3.515,3.515,0,0,0-1.272-.076.315.315,0,0,0-.119.039.937.937,0,0,1-.505.12,1.151,1.151,0,0,0-.473.163,3.661,3.661,0,0,0-.924.632.492.492,0,0,0-.136.2h0c-.047,0-.065-.033-.074-.073a.256.256,0,0,1,.1-.164,3.534,3.534,0,0,1,2.723-1,3.332,3.332,0,0,1,1.027.228C295.478,427.535,295.5,427.54,295.511,427.564Z" fill="#7fc8ea"/>
    <path id="Tracé_447" data-name="Tracé 447" d="M294.19,430.338q0,1.641,0,3.283c-.1.026-.111-.032-.111-.114,0-.906,0-1.811,0-2.717,0-.111-.017-.22-.027-.33S294.089,430.316,294.19,430.338Z" fill="#dda66f"/>
    <path id="Tracé_448" data-name="Tracé 448" d="M296.681,430.429l0,2.347c-.062,0-.1.062-.157.071,0-.711,0-1.422-.005-2.134A.271.271,0,0,1,296.681,430.429Z" fill="#f8921a"/>
    <path id="Tracé_449" data-name="Tracé 449" d="M296.745,429.023l-.1-.125c.027-.019.049-.033.07-.049.123-.093.123-.093.213.031a3.558,3.558,0,0,1,.649,1.588.782.782,0,0,1,0,.112c-.107-.087-.124-.225-.228-.288-.012-.078-.017-.156-.036-.232a2.9,2.9,0,0,0-.436-.924C296.843,429.09,296.826,429.016,296.745,429.023Z" fill="#c6bab6"/>
    <path id="Tracé_450" data-name="Tracé 450" d="M295.647,430.31a3.646,3.646,0,0,1,.627-.007c.047,0,.06.024.058.065a.175.175,0,0,0,0,.023c-.006.121.05.278-.021.355s-.232.023-.352.027c-.1,0-.207,0-.31,0Z" fill="#105f85"/>
    <path id="Tracé_451" data-name="Tracé 451" d="M292.282,433.909c.263,0,.527,0,.791,0,.062,0,.079.025.079.082a.213.213,0,0,1-.2.229c-.248.008-.5,0-.745,0a.1.1,0,0,1-.091-.042l0-.13C292.188,434.014,292.255,433.985,292.282,433.909Z" fill="#1f8ec5"/>
    <path id="Tracé_452" data-name="Tracé 452" d="M291.429,428.881c.08-.12.164-.116.245.008.021.032,0,.049-.014.071a3.333,3.333,0,0,0-.6,1.269.086.086,0,0,1-.04.065.33.33,0,0,0-.165.212c-.011.039-.035.066-.072.055s-.009-.046-.006-.07c.011-.075.025-.15.038-.226.108-.005.11-.1.125-.166a3.3,3.3,0,0,1,.461-1.038A.158.158,0,0,0,291.429,428.881Z" fill="#c6bab6"/>
    <path id="Tracé_453" data-name="Tracé 453" d="M293.361,433.743c.172,0,.345,0,.517,0,.064,0,.09.02.086.086,0,.084,0,.169,0,.253a.125.125,0,0,1-.116.136,1.8,1.8,0,0,1-.491-.013.6.6,0,0,0,0-.2Z" fill="#7e9d35"/>
    <path id="Tracé_454" data-name="Tracé 454" d="M294.188,434c.386,0,.773,0,1.16,0,.1,0,.093.038.055.1a.255.255,0,0,1-.233.121c-.287,0-.575,0-.862,0a.241.241,0,0,1-.12-.033Z" fill="#e1401f"/>
    <path id="Tracé_455" data-name="Tracé 455" d="M292.12,430.548v2.945c-.064.015-.1,0-.1-.077q0-1.4,0-2.791C292.023,430.544,292.058,430.535,292.12,430.548Z" fill="#7fc8ea"/>
    <path id="Tracé_456" data-name="Tracé 456" d="M298.155,432.269a.877.877,0,0,1-.249.531,8.191,8.191,0,0,0,.018-1.573.129.129,0,0,1,.007-.021h.011a1.01,1.01,0,0,1,.164.361A2.476,2.476,0,0,1,298.155,432.269Z" fill="#4cb6cd"/>
    <path id="Tracé_457" data-name="Tracé 457" d="M293.358,430.958c-.031.229.117.443.069.668a11.83,11.83,0,0,0-.071,1.775c-.06.008-.088-.009-.088-.079q0-1.143,0-2.286C293.268,430.963,293.3,430.953,293.358,430.958Z" fill="#c6bab6"/>
    <path id="Tracé_458" data-name="Tracé 458" d="M291.04,432.825l0,.621a.183.183,0,0,1-.072-.171q0-1.329,0-2.66a.225.225,0,0,1,.216-.25c.114-.009.23,0,.345,0,.042,0,.066.017.058.063l-.016,0c-.1,0-.2,0-.3,0a.222.222,0,0,0-.229.234C291.038,431.383,291.04,432.1,291.04,432.825Z" fill="#dda66f"/>
    <path id="Tracé_459" data-name="Tracé 459" d="M295.644,430.869l0,2.668c-.064.014-.1,0-.1-.076q0-1.257,0-2.514C295.55,430.868,295.58,430.856,295.644,430.869Z" fill="#7fc8ea"/>
    <path id="Tracé_460" data-name="Tracé 460" d="M290.435,431.21c-.012.282-.02.565-.039.847a5.551,5.551,0,0,0,.068.773.7.7,0,0,1-.209-.349c-.005-.033.013-.073-.027-.1l0,0a3.794,3.794,0,0,1-.019-.522A1.217,1.217,0,0,1,290.435,431.21Z" fill="#4cb6cd"/>
    <path id="Tracé_461" data-name="Tracé 461" d="M292.467,433.589c.2,0,.4,0,.6,0,.1,0,.086.064.09.125s-.012.108-.094.107c-.314,0-.628,0-.941,0,.02-.06-.037-.14.045-.185C292.266,433.622,292.373,433.658,292.467,433.589Z" fill="#105f85"/>
    <path id="Tracé_462" data-name="Tracé 462" d="M291.732,431.741l0,1.768c-.046.012-.064-.007-.063-.053s0-.1,0-.149q0-1.4,0-2.806c0-.043-.026-.106.02-.127s.1.012.141.052c-.073-.008-.1.02-.1.1C291.732,430.929,291.731,431.335,291.732,431.741Z" fill="#dda66f"/>
    <path id="Tracé_463" data-name="Tracé 463" d="M296.681,430.429a.271.271,0,0,0-.164.284c.007.712.005,1.423.005,2.134l0,.6a.17.17,0,0,1-.069-.159q0-1.344,0-2.686a.216.216,0,0,1,.152-.219C296.638,430.367,296.689,430.354,296.681,430.429Z" fill="#dda66f"/>
    <path id="Tracé_464" data-name="Tracé 464" d="M292.972,430.222l.046,0c.129,0,.174.066.133.194-.012.04-.04.04-.071.04l-.941,0c0-.2,0-.2.209-.206l.3,0A.868.868,0,0,0,292.972,430.222Z" fill="#105f85"/>
    <path id="Tracé_465" data-name="Tracé 465" d="M294.565,433.74c.253.017.5-.029.757-.021.065,0,.118,0,.117.092s-.043.1-.113.1c-.379,0-.758,0-1.138,0,.005-.157.005-.157.161-.16Z" fill="#a12112"/>
    <path id="Tracé_466" data-name="Tracé 466" d="M296.285,429.921c.076.072.041.165.045.25,0,.052-.045.043-.077.043h-.609c.006-.267.031-.292.3-.292Z" fill="#4cb6cd"/>
    <path id="Tracé_467" data-name="Tracé 467" d="M297.307,430.428l-.046,0-.275,0c-.157,0-.164.006-.164.159v1.688c0,.106.006.213.008.32l-.008.917c-.084,0-.046-.068-.046-.1,0-.6,0-1.194-.005-1.791,0-.383,0-.766,0-1.149,0-.085.021-.117.108-.109s.168,0,.253,0A.213.213,0,0,1,297.307,430.428Z" fill="#dda66f"/>
    <path id="Tracé_468" data-name="Tracé 468" d="M295.647,433.635c.2,0,.4,0,.6-.005.1,0,.09.059.086.12s.034.137-.082.134c-.2-.005-.4,0-.6,0Z" fill="#105f85"/>
    <path id="Tracé_469" data-name="Tracé 469" d="M295.644,433.986c.206,0,.413,0,.619-.007.058,0,.075.022.068.075s-.033.132-.1.142a1.231,1.231,0,0,1-.606-.016C295.661,434.118,295.636,434.05,295.644,433.986Z" fill="#4cb6cd"/>
    <path id="Tracé_470" data-name="Tracé 470" d="M292.995,430.122l-.045,0a.253.253,0,0,0-.207,0l-.622,0a.251.251,0,0,1,.279-.2l.575,0C292.966,429.992,293.01,430.054,292.995,430.122Z" fill="#24a3e1"/>
    <path id="Tracé_471" data-name="Tracé 471" d="M295.422,430.122c.028.076.024.123-.078.122-.385,0-.77,0-1.155,0-.01-.092.036-.116.122-.115.224,0,.448,0,.671-.005Z" fill="#a12112"/>
    <path id="Tracé_472" data-name="Tracé 472" d="M291.732,431.741c0-.406,0-.812,0-1.218,0-.077.025-.105.1-.1a.08.08,0,0,1,.041.049A4.952,4.952,0,0,1,291.732,431.741Z" fill="#f8921a"/>
    <path id="Tracé_473" data-name="Tracé 473" d="M290.562,432.636c.152.027.208-.089.277-.186.023.22.005.441.01.661,0,.018.007.041-.015.051s-.042-.011-.058-.025a.653.653,0,0,1-.193-.355C290.573,432.734,290.569,432.685,290.562,432.636Z" fill="#c6bab6"/>
    <path id="Tracé_474" data-name="Tracé 474" d="M297.515,432.406c.055.011.043.066.066.1a.364.364,0,0,0,.2.154.664.664,0,0,1-.269.529Z" fill="#c6bab6"/>
    <path id="Tracé_475" data-name="Tracé 475" d="M291.429,428.881a.158.158,0,0,1-.026.18,3.3,3.3,0,0,0-.461,1.038c-.015.067-.017.161-.125.166A3.446,3.446,0,0,1,291.429,428.881Z" fill="#fff"/>
    <path id="Tracé_476" data-name="Tracé 476" d="M296.52,433.445l0-.6c.059-.009.1-.068.157-.071,0,.21,0,.42,0,.63,0,.034.022.082-.023.1s-.079-.01-.111-.04l-.028-.024Z" fill="#d77d1b"/>
    <path id="Tracé_477" data-name="Tracé 477" d="M295.342,429.912c.029.023.073.045.057.087s-.055.013-.084.013c-.355,0-.71,0-1.066,0a.254.254,0,0,1,.222-.1C294.761,429.917,295.052,429.913,295.342,429.912Z" fill="#e1401f"/>
    <path id="Tracé_478" data-name="Tracé 478" d="M295.342,429.912c-.29,0-.581.005-.871,0a.254.254,0,0,0-.222.1c-.007,0-.015.005-.022,0-.048-.011-.128.036-.137-.027s.063-.1.124-.117a.387.387,0,0,1,.1-.016c.282,0,.565,0,.847,0A.266.266,0,0,1,295.342,429.912Z" fill="#dda66f"/>
    <path id="Tracé_479" data-name="Tracé 479" d="M292.975,429.924l-.575,0a.251.251,0,0,0-.279.2c-.076.019-.105-.008-.1-.087a.2.2,0,0,1,.2-.182c.23,0,.46,0,.69,0,.056,0,.1.041.148.052C293.039,429.93,293.005,429.916,292.975,429.924Z" fill="#7fc8ea"/>
    <path id="Tracé_480" data-name="Tracé 480" d="M296.745,429.023c.081-.007.1.067.13.113a2.9,2.9,0,0,1,.436.924c.019.076.024.154.036.232-.047-.005-.049-.047-.056-.077A3.568,3.568,0,0,0,296.745,429.023Z" fill="#fff"/>
    <path id="Tracé_481" data-name="Tracé 481" d="M296.285,429.921h-.344c-.266,0-.291.025-.3.292-.065.014-.094,0-.094-.078,0-.241.033-.282.27-.282.1,0,.2,0,.308,0C296.187,429.855,296.251,429.856,296.285,429.921Z" fill="#7fc8ea"/>
    <path id="Tracé_482" data-name="Tracé 482" d="M290.435,431.21a1.217,1.217,0,0,0-.224.656,3.794,3.794,0,0,0,.019.522,1.443,1.443,0,0,1,.23-1.331Z" fill="#7fc8ea"/>
    <path id="Tracé_483" data-name="Tracé 483" d="M293.913,430.586h-.361c-.141,0-.182.042-.189.182,0,.035.025.1-.046.093s-.043-.06-.044-.1c-.006-.21.024-.239.231-.24.091,0,.183,0,.275,0A.132.132,0,0,1,293.913,430.586Z" fill="#dda66f"/>
    <path id="Tracé_484" data-name="Tracé 484" d="M298.155,432.269a2.476,2.476,0,0,0-.049-.7,1.01,1.01,0,0,0-.164-.361h-.011a.129.129,0,0,0-.007.021.3.3,0,0,1-.02-.146A1.35,1.35,0,0,1,298.155,432.269Z" fill="#7fc8ea"/>
    <path id="Tracé_485" data-name="Tracé 485" d="M295.647,430.31l0,.46c-.072.016-.1-.006-.1-.085a2.085,2.085,0,0,0,0-.285C295.548,430.326,295.571,430.294,295.647,430.31Z" fill="#4cb6cd"/>
    <path id="Tracé_486" data-name="Tracé 486" d="M292.647,430.24l-.3,0c-.2,0-.2,0-.209.206-.075.014-.124,0-.114-.094.008-.075-.018-.151.11-.141.17.014.342.007.514.008Z" fill="#4cb6cd"/>
    <path id="Tracé_487" data-name="Tracé 487" d="M294.982,430.121c-.223,0-.447.007-.671.005-.086,0-.132.023-.122.115-.023,0-.046,0-.069,0-.054,0-.061-.026-.062-.071s.018-.066.067-.066c.286,0,.572.005.857.007Z" fill="#dda66f"/>
    <path id="Tracé_488" data-name="Tracé 488" d="M292.975,429.924c.03-.008.064.006.09-.02a.117.117,0,0,1,.029.017.166.166,0,0,1,.046.178c-.028.058-.1.021-.145.023C293.01,430.054,292.966,429.992,292.975,429.924Z" fill="#1f8ec5"/>
    <path id="Tracé_489" data-name="Tracé 489" d="M294.565,433.74l-.216,0c-.156,0-.156,0-.161.16-.061.007-.112.013-.109-.081,0-.076.017-.114.1-.1A1.547,1.547,0,0,1,294.565,433.74Z" fill="#dda66f"/>
    <path id="Tracé_490" data-name="Tracé 490" d="M293.361,433.743l-.008.258c-.036-.005-.049.033-.078.041,0-.072,0-.144-.006-.215S293.3,433.733,293.361,433.743Z" fill="#c6bab6"/>
    <path id="Tracé_491" data-name="Tracé 491" d="M295.647,433.635l0,.247c-.075.019-.115-.009-.1-.086C295.57,433.736,295.489,433.614,295.647,433.635Z" fill="#4cb6cd"/>
    <path id="Tracé_492" data-name="Tracé 492" d="M292.164,433.627c-.082.045-.025.125-.045.185-.068.014-.1-.007-.093-.082.006-.042.005-.084.008-.126a.023.023,0,0,0,.016-.013h.1Z" fill="#4cb6cd"/>
    <path id="Tracé_493" data-name="Tracé 493" d="M292.124,434.046l0,.13a.19.19,0,0,1-.1-.184c-.005-.08.029-.1.1-.083Z" fill="#7fc8ea"/>
    <path id="Tracé_494" data-name="Tracé 494" d="M291.608,428.466c.009.04.027.072.074.073a.378.378,0,0,0,.046.233A.256.256,0,0,1,291.608,428.466Z" fill="#4cb6cd"/>
    <path id="Tracé_495" data-name="Tracé 495" d="M294.188,434v.188a.732.732,0,0,1-.064-.045.1.1,0,0,1-.039-.122C294.105,433.977,294.152,434,294.188,434Z" fill="#dda66f"/>
    <path id="Tracé_496" data-name="Tracé 496" d="M295.644,433.986c-.008.064.017.132-.017.194a.13.13,0,0,1-.073-.12C295.544,433.985,295.572,433.96,295.644,433.986Z" fill="#7fc8ea"/>
    <path id="Tracé_497" data-name="Tracé 497" d="M292.124,434.046l0-.137h.161C292.255,433.985,292.188,434.014,292.124,434.046Z" fill="#24a3e1"/>
    <path id="Tracé_498" data-name="Tracé 498" d="M293.275,434.042c.029-.008.042-.046.078-.041a.6.6,0,0,1,0,.2A.13.13,0,0,1,293.275,434.042Z" fill="#dda66f"/>
    <path id="Tracé_499" data-name="Tracé 499" d="M293.271,433.578c0-.041-.009-.087.052-.083s.04.045.04.076.012.081-.049.077S293.278,433.6,293.271,433.578Z" fill="#dda66f"/>
    <path id="Tracé_500" data-name="Tracé 500" d="M295.878,427.731a.782.782,0,0,1-.365-.17A1.229,1.229,0,0,1,295.878,427.731Z" fill="#7fc8ea"/>
    <path id="Tracé_501" data-name="Tracé 501" d="M292.164,433.627l-.017-.036.32,0C292.373,433.658,292.266,433.622,292.164,433.627Z" fill="#1f8ec5"/>
    <path id="Tracé_502" data-name="Tracé 502" d="M294.982,430.121v-.008a2.394,2.394,0,0,1,.44.009Z" fill="#d77d1b"/>
    <path id="Tracé_503" data-name="Tracé 503" d="M292.647,430.24l0-.017h.323A.868.868,0,0,1,292.647,430.24Z" fill="#1f8ec5"/>
    <path id="Tracé_504" data-name="Tracé 504" d="M292.743,430.125a.253.253,0,0,1,.207,0Z" fill="#1f8ec5"/>
    <path id="Tracé_505" data-name="Tracé 505" d="M291.567,430.429l.016,0a.228.228,0,0,1,0,.116C291.557,430.506,291.571,430.467,291.567,430.429Z" fill="#d77d1b"/>
    <path id="Tracé_506" data-name="Tracé 506" d="M290.228,432.386c.04.022.022.062.027.1A.136.136,0,0,1,290.228,432.386Z" fill="#7fc8ea"/>
    <path id="Tracé_507" data-name="Tracé 507" d="M296,427.8a.071.071,0,0,1-.08-.047A.153.153,0,0,1,296,427.8Z" fill="#7fc8ea"/>
    <path id="Tracé_508" data-name="Tracé 508" d="M290.844,430.707l-.041-.007c.007-.015.018-.022.032-.016S290.841,430.7,290.844,430.707Z" fill="#c6bab6"/>
    <path id="Tracé_509" data-name="Tracé 509" d="M295.923,427.755c-.02,0-.039,0-.048-.025A.049.049,0,0,1,295.923,427.755Z" fill="#7fc8ea"/>
    <path id="Tracé_510" data-name="Tracé 510" d="M296.519,433.444l.028.024Z" fill="#dda66f"/>
    <path id="Tracé_511" data-name="Tracé 511" d="M292.05,433.591a.023.023,0,0,1-.016.013C292.032,433.59,292.038,433.587,292.05,433.591Z" fill="#1f8ec5"/>
    <path id="Tracé_512" data-name="Tracé 512" d="M292.167,430.547c-.008.011-.015.011-.023,0Z" fill="#1f8ec5"/>
    <path id="Tracé_513" data-name="Tracé 513" d="M291.037,433.444l.025.025Z" fill="#dda66f"/>
    <path id="Tracé_514" data-name="Tracé 514" d="M295.1,431.924c0,.138,0,.276,0,.413a.222.222,0,0,1-.2.237,1.009,1.009,0,0,1-.263.009.236.236,0,0,1-.234-.256c0-.268,0-.536,0-.8a.235.235,0,0,1,.262-.263c.332-.012.46.009.438.423,0,.081,0,.161,0,.242Zm-.582.5a.469.469,0,0,0,.44.032.12.12,0,0,0,.048-.087,3.933,3.933,0,0,0,.009-.744c0-.077.036-.183-.064-.24-.079-.074-.175-.034-.263-.037-.158-.006-.208.047-.209.2,0,.245,0,.49,0,.735A.179.179,0,0,0,294.515,432.429Z" fill="#5e4038"/>
    <path id="Tracé_515" data-name="Tracé 515" d="M292.863,431.6a1.593,1.593,0,0,1-.018.915.463.463,0,0,1-.2.259.241.241,0,0,1-.28-.167,1.393,1.393,0,0,1,0-1.143.236.236,0,0,1,.21-.17c.119,0,.174.083.224.169A1.106,1.106,0,0,1,292.863,431.6Zm-.21-.179c-.08-.063-.14-.049-.2.066a1.258,1.258,0,0,0-.06.932c-.01.05.024.087.042.128.027.065.064.131.141.134s.124-.064.151-.135a1.4,1.4,0,0,0,.026-.964A.273.273,0,0,0,292.653,431.422Z" fill="#5e4038"/>
    <path id="Tracé_516" data-name="Tracé 516" d="M296.83,432.6c0-.107-.007-.214-.008-.32v-1.688c0-.153.007-.16.164-.159l.275,0c.048.079.017.165.018.247a4.793,4.793,0,0,1-.159,1.359,1.754,1.754,0,0,1-.23.508A.1.1,0,0,1,296.83,432.6Z" fill="#f8921a"/>
    <path id="Tracé_517" data-name="Tracé 517" d="M294.948,431.39c.1.057.06.163.064.24a3.933,3.933,0,0,1-.009.744.12.12,0,0,1-.048.087.469.469,0,0,1-.44-.032c0-.276,0-.553,0-.829,0-.153.058-.206.209-.207Z" fill="#a12112"/>
    <path id="Tracé_518" data-name="Tracé 518" d="M294.948,431.39l-.219,0c-.151,0-.207.054-.209.207,0,.276,0,.553,0,.829a.179.179,0,0,1-.039-.139c0-.245,0-.49,0-.735,0-.155.051-.208.209-.2C294.773,431.356,294.869,431.316,294.948,431.39Z" fill="#dda66f"/>
    <path id="Tracé_519" data-name="Tracé 519" d="M292.653,431.422a.273.273,0,0,1,.1.161,1.4,1.4,0,0,1-.026.964c-.027.071-.066.14-.151.135s-.114-.069-.141-.134c-.018-.041-.052-.078-.042-.128a2.443,2.443,0,0,1,0-.513C292.446,431.725,292.446,431.519,292.653,431.422Z" fill="#105f85"/>
    <path id="Tracé_520" data-name="Tracé 520" d="M292.653,431.422c-.207.1-.207.3-.254.485a2.443,2.443,0,0,0,0,.513,1.258,1.258,0,0,1,.06-.932C292.513,431.373,292.573,431.359,292.653,431.422Z" fill="#1f8ec5"/>
  </g>
</svg>
