<svg xmlns="http://www.w3.org/2000/svg" width="13.858" height="15.616" viewBox="0 0 13.858 15.616">
  <g id="Groupe_449" data-name="Groupe 449" transform="translate(-1181.682 -510.53)">
    <path id="Tracé_1578" data-name="Tracé 1578" d="M1185.215,512.756h.278c1.264,0,2.528,0,3.792,0a.479.479,0,0,1,.381.153c.88.907,1.771,1.8,2.651,2.711a.478.478,0,0,1,.122.3q.009,4.669,0,9.339a.788.788,0,0,1-.9.891h-8.893c-.658,0-.962-.3-.962-.955q0-3.04,0-6.081c0-.072-.023-.167.013-.213.074-.093.18-.221.275-.223s.2.124.276.217c.04.053.02.155.02.234q0,3.008,0,6.016c0,.412.023.435.426.435h8.784c.347,0,.37-.022.37-.371q0-4.175,0-8.348v-.269h-.216c-.53,0-1.061,0-1.591,0a.874.874,0,0,1-.952-.949q0-1.012,0-2.027c0-.086.01-.172.018-.287h-6.5c-.294,0-.336.035-.339.341-.005.523,0,1.046,0,1.569a1.412,1.412,0,0,1-.006.2.274.274,0,0,1-.289.268.268.268,0,0,1-.285-.272c-.006-.647-.026-1.295.013-1.939.031-.507.331-.733.846-.733h2.092c0-.412.022-.8-.005-1.191a.968.968,0,0,1,1.041-1.035c2.245.02,4.49.007,6.735.013a.437.437,0,0,1,.284.1q1.368,1.376,2.719,2.767a.441.441,0,0,1,.115.28q.011,4.692.006,9.385a.792.792,0,0,1-.867.866c-.356,0-.712,0-1.068,0-.251,0-.374-.1-.372-.3s.129-.287.381-.288c.348,0,.7,0,1.046,0,.248,0,.291-.041.292-.292,0-.611,0-1.221,0-1.831q0-3.334,0-6.67c0-.056-.006-.113-.011-.193h-1.354c-.189,0-.378.005-.567,0a.808.808,0,0,1-.808-.741c-.029-.826-.009-1.653-.009-2.508h-6.469c-.436,0-.516.082-.516.525C1185.216,512.005,1185.215,512.366,1185.215,512.756Zm7.566-1.1c0-.012,0,.035,0,.083,0,.552,0,1.1,0,1.656,0,.324.085.406.416.407.494,0,.988,0,1.482,0h.327Zm-.862,4.347-2.235-2.166c0,.614,0,1.249,0,1.884,0,.2.128.282.315.282Z" fill="#efcd1b"/>
    <path id="Tracé_1579" data-name="Tracé 1579" d="M1187.022,517.767h3.117c.065,0,.152-.023.191.01.091.077.22.181.22.274s-.132.194-.219.277c-.028.026-.1.008-.149.008q-3.148,0-6.3,0a.539.539,0,0,1-.213-.026.265.265,0,0,1-.157-.323.261.261,0,0,1,.283-.219c.4,0,.8,0,1.2,0Z" fill="#20a091"/>
    <path id="Tracé_1580" data-name="Tracé 1580" d="M1186.651,522.92h2.743c.072,0,.169-.021.211.017a.585.585,0,0,1,.211.288.234.234,0,0,1-.233.262,1.741,1.741,0,0,1-.217.009h-5.443c-.029,0-.058,0-.087,0-.22-.01-.332-.109-.33-.29s.122-.284.336-.285c.515,0,1.031,0,1.546,0Z" fill="#006cb6"/>
    <path id="Tracé_1581" data-name="Tracé 1581" d="M1186.1,520.263h2.112c.072,0,.167-.02.211.018.09.077.205.184.21.285.005.084-.119.19-.207.26-.047.037-.139.024-.211.024h-4.267c-.31,0-.443-.089-.443-.293s.134-.295.44-.295Z" fill="#27a4e1"/>
    <path id="Tracé_1582" data-name="Tracé 1582" d="M1185.474,515.84c-.529,0-1.058.008-1.587-.007a.488.488,0,0,1-.335-.142c-.15-.189.01-.43.28-.436.326-.008.653,0,.979,0,.761,0,1.522,0,2.283,0,.306,0,.479.231.321.435a.476.476,0,0,1-.332.144c-.536.015-1.072.007-1.609.007Z" fill="#d80043"/>
    <path id="Tracé_1583" data-name="Tracé 1583" d="M1181.69,517.1c0-.167,0-.334,0-.5a.275.275,0,0,1,.289-.291.27.27,0,0,1,.287.291c.007.341.009.682,0,1.023a.265.265,0,0,1-.287.287.27.27,0,0,1-.289-.287c-.011-.174,0-.348,0-.522Z" fill="#f58508"/>
  </g>
</svg>
