<svg xmlns="http://www.w3.org/2000/svg" width="70.866" height="70.866" viewBox="0 0 70.866 70.866">
  <g id="Groupe_200" data-name="Groupe 200" transform="translate(-617.572 -413.578)">
    <rect id="Rectangle_53" data-name="Rectangle 53" width="70.866" height="70.866" rx="0.326" transform="translate(617.572 413.578)" fill="#fdd2b8"/>
    <g id="Groupe_199" data-name="Groupe 199">
      <g id="Groupe_196" data-name="Groupe 196">
        <g id="Groupe_193" data-name="Groupe 193">
          <path id="Tracé_933" data-name="Tracé 933" d="M643.768,462.269a.283.283,0,0,0-.064.561l.687.149a.283.283,0,1,0,.12-.554l-.686-.149A.278.278,0,0,0,643.768,462.269Z" fill="#272727"/>
          <path id="Tracé_934" data-name="Tracé 934" d="M637.375,460.658a3.743,3.743,0,0,0-1,7.358h0a3.738,3.738,0,0,0,2.974-.461l3.2.857a3.782,3.782,0,0,0,2.387,1.943h0a3.786,3.786,0,0,0,1.984-7.308l-.016-.005-.008,0h0c-.107-.028-.214-.049-.322-.067l-1.131-.3a.283.283,0,1,0-.147.547l1.134.3.029.006c.1.016.2.036.294.061A3.22,3.22,0,1,1,643,468.051a.283.283,0,0,0-.184-.155l-3.435-.92a.281.281,0,0,0-.234.04,3.177,3.177,0,0,1-2.623.453h0a3.174,3.174,0,0,1-2.247-3.891h0a3.173,3.173,0,0,1,3.707-2.288.293.293,0,0,0,.118,0l4.656,1.247a.283.283,0,1,0,.147-.547l-4.724-1.266a.375.375,0,0,0-.173,0A3.7,3.7,0,0,0,637.375,460.658Z" fill="#272727"/>
          <path id="Tracé_935" data-name="Tracé 935" d="M638.672,464.154a1.677,1.677,0,1,1-.168-1.272A1.677,1.677,0,0,1,638.672,464.154Z" fill="#fff" stroke="#272727" stroke-linecap="round" stroke-linejoin="round" stroke-width="0.092"/>
          <path id="Tracé_936" data-name="Tracé 936" d="M637.033,462.492a.123.123,0,0,0-.15.087l-.155.579-.579-.155a.121.121,0,0,0-.149.086l-.175.651a.123.123,0,0,0,.087.15l.579.155-.156.579a.121.121,0,0,0,.087.149l.651.175a.121.121,0,0,0,.149-.087l.156-.579.579.156a.122.122,0,0,0,.149-.087l.175-.651a.122.122,0,0,0-.087-.149l-.579-.156.155-.579a.121.121,0,0,0-.086-.149Z" fill="#272727"/>
          <path id="Tracé_937" data-name="Tracé 937" d="M648.219,466.712a1.675,1.675,0,1,1-.167-1.272A1.676,1.676,0,0,1,648.219,466.712Z" fill="#fff" stroke="#272727" stroke-linecap="round" stroke-linejoin="round" stroke-width="0.092"/>
          <path id="Tracé_938" data-name="Tracé 938" d="M639.864,467.15a1.239,1.239,0,1,1-.124-.939A1.238,1.238,0,0,1,639.864,467.15Z" fill="#fff" stroke="#272727" stroke-linecap="round" stroke-linejoin="round" stroke-width="0.141"/>
          <path id="Tracé_939" data-name="Tracé 939" d="M639.532,467.061a.892.892,0,1,1-.089-.679A.9.9,0,0,1,639.532,467.061Z" fill="#272727"/>
          <path id="Tracé_940" data-name="Tracé 940" d="M644.8,468.472a1.237,1.237,0,1,1-.123-.94A1.238,1.238,0,0,1,644.8,468.472Z" fill="#fff" stroke="#272727" stroke-linecap="round" stroke-linejoin="round" stroke-width="0.141"/>
          <path id="Tracé_941" data-name="Tracé 941" d="M644.464,468.383a.894.894,0,1,1-.089-.679A.893.893,0,0,1,644.464,468.383Z" fill="#272727"/>
          <path id="Tracé_942" data-name="Tracé 942" d="M647.232,465.486a.407.407,0,0,1-.189.246.405.405,0,0,1-.594-.456.405.405,0,1,1,.783.21Z" fill="#ffc913" stroke="#272727" stroke-linecap="round" stroke-linejoin="round" stroke-width="0.084"/>
          <path id="Tracé_943" data-name="Tracé 943" d="M646.751,467.28a.4.4,0,0,1-.189.247.405.405,0,1,1,.149-.554A.4.4,0,0,1,646.751,467.28Z" fill="#74ac2b" stroke="#272727" stroke-linecap="round" stroke-linejoin="round" stroke-width="0.084"/>
          <path id="Tracé_944" data-name="Tracé 944" d="M647.979,466.648a.405.405,0,0,1-.783-.21.405.405,0,0,1,.783.21Z" fill="#de1e27" stroke="#272727" stroke-linecap="round" stroke-linejoin="round" stroke-width="0.084"/>
          <path id="Tracé_945" data-name="Tracé 945" d="M646.005,466.119a.405.405,0,0,1-.783-.21.405.405,0,0,1,.783.21Z" fill="#2261ab" stroke="#272727" stroke-linecap="round" stroke-linejoin="round" stroke-width="0.084"/>
          <path id="Tracé_946" data-name="Tracé 946" d="M641.482,464.023a.29.29,0,0,1-.106.4l-.689.4a.291.291,0,1,1-.291-.5l.689-.4A.291.291,0,0,1,641.482,464.023Z" fill="#272727"/>
          <path id="Tracé_947" data-name="Tracé 947" d="M643.507,464.566a.29.29,0,0,1-.107.4l-.688.4a.291.291,0,1,1-.291-.5l.689-.4A.289.289,0,0,1,643.507,464.566Z" fill="#272727"/>
        </g>
        <g id="Groupe_194" data-name="Groupe 194">
          <path id="Tracé_948" data-name="Tracé 948" d="M665.563,461.374a.317.317,0,0,0-.076.009l-.681.168a.283.283,0,1,0,.135.55l.681-.167a.284.284,0,0,0-.059-.56Z" fill="#272727"/>
          <path id="Tracé_949" data-name="Tracé 949" d="M668.771,460.661a3.787,3.787,0,0,0-1.131.126h0l-.017.006-.007,0c-.1.028-.193.059-.287.1l-1.132.3a.283.283,0,0,0-.13.476.286.286,0,0,0,.277.072l1.134-.3.028-.009c.093-.036.188-.067.285-.094a3.22,3.22,0,1,1-1.018,5.741.288.288,0,0,0-.237-.042l-3.435.921a.282.282,0,0,0-.183.152,3.176,3.176,0,0,1-5.936-.543h0a3.173,3.173,0,0,1,2.066-3.835.292.292,0,0,0,.1-.06l4.656-1.248a.283.283,0,1,0-.147-.547l-4.723,1.266a.346.346,0,0,0-.151.084,3.741,3.741,0,1,0,4.579,5.247l3.2-.858a3.784,3.784,0,0,0,3.039.49h0a3.787,3.787,0,0,0-.829-7.442Z" fill="#272727"/>
          <path id="Tracé_950" data-name="Tracé 950" d="M661.073,465.865a1.678,1.678,0,1,1-.781-1.017A1.678,1.678,0,0,1,661.073,465.865Z" fill="#fff" stroke="#272727" stroke-linecap="round" stroke-linejoin="round" stroke-width="0.092"/>
          <path id="Tracé_951" data-name="Tracé 951" d="M658.823,465.246a.121.121,0,0,0-.087.149l.156.579-.58.156a.122.122,0,0,0-.086.149l.175.651a.121.121,0,0,0,.149.087l.579-.156.155.58a.123.123,0,0,0,.15.086l.651-.175a.121.121,0,0,0,.086-.149l-.155-.579.579-.155a.123.123,0,0,0,.087-.15l-.175-.651a.121.121,0,0,0-.149-.086l-.579.155-.156-.579a.121.121,0,0,0-.149-.087Z" fill="#272727"/>
          <path id="Tracé_952" data-name="Tracé 952" d="M670.62,463.307a1.676,1.676,0,1,1-2.053-1.185A1.677,1.677,0,0,1,670.62,463.307Z" fill="#fff" stroke="#272727" stroke-linecap="round" stroke-linejoin="round" stroke-width="0.092"/>
          <path id="Tracé_953" data-name="Tracé 953" d="M663.6,467.864a1.238,1.238,0,1,1-1.516-.875A1.239,1.239,0,0,1,663.6,467.864Z" fill="#fff" stroke="#272727" stroke-linecap="round" stroke-linejoin="round" stroke-width="0.141"/>
          <path id="Tracé_954" data-name="Tracé 954" d="M663.271,467.953a.89.89,0,0,1-.089.679.894.894,0,1,1,.089-.679Z" fill="#272727"/>
          <path id="Tracé_955" data-name="Tracé 955" d="M668.536,466.543a1.238,1.238,0,1,1-1.517-.876A1.238,1.238,0,0,1,668.536,466.543Z" fill="#fff" stroke="#272727" stroke-linecap="round" stroke-linejoin="round" stroke-width="0.141"/>
          <path id="Tracé_956" data-name="Tracé 956" d="M668.2,466.632a.894.894,0,1,1-.417-.544A.9.9,0,0,1,668.2,466.632Z" fill="#272727"/>
          <path id="Tracé_957" data-name="Tracé 957" d="M669.152,462.739a.4.4,0,0,1-.286.5.4.4,0,0,1-.5-.286.405.405,0,1,1,.783-.21Z" fill="#ffc913" stroke="#272727" stroke-linecap="round" stroke-linejoin="round" stroke-width="0.084"/>
          <path id="Tracé_958" data-name="Tracé 958" d="M669.633,464.533a.405.405,0,1,1-.5-.286A.405.405,0,0,1,669.633,464.533Z" fill="#74ac2b" stroke="#272727" stroke-linecap="round" stroke-linejoin="round" stroke-width="0.084"/>
          <path id="Tracé_959" data-name="Tracé 959" d="M670.38,463.372a.4.4,0,0,1-.041.307.4.4,0,0,1-.742-.1.4.4,0,0,1,.04-.307.405.405,0,0,1,.743.1Z" fill="#de1e27" stroke="#272727" stroke-linecap="round" stroke-linejoin="round" stroke-width="0.084"/>
          <path id="Tracé_960" data-name="Tracé 960" d="M668.406,463.9a.405.405,0,0,1-.6.456.406.406,0,0,1-.148-.553.406.406,0,0,1,.743.1Z" fill="#2261ab" stroke="#272727" stroke-linecap="round" stroke-linejoin="round" stroke-width="0.084"/>
          <path id="Tracé_961" data-name="Tracé 961" d="M663.441,464.347a.29.29,0,0,1,.107.4l-.4.689a.291.291,0,0,1-.5-.291l.4-.688A.29.29,0,0,1,663.441,464.347Z" fill="#272727"/>
          <path id="Tracé_962" data-name="Tracé 962" d="M665.466,463.8a.29.29,0,0,1,.106.4l-.4.688a.291.291,0,1,1-.5-.29l.4-.689A.29.29,0,0,1,665.466,463.8Z" fill="#272727"/>
        </g>
        <g id="Groupe_195" data-name="Groupe 195">
          <path id="Tracé_963" data-name="Tracé 963" d="M648.573,455.785h8.863a1.685,1.685,0,1,1,0,3.37h-8.863a1.685,1.685,0,0,1,0-3.37Z" fill="#272727"/>
          <path id="Tracé_964" data-name="Tracé 964" d="M632.43,429.967a.784.784,0,0,0-.776.777v25.108a.784.784,0,0,0,.776.777h41.149a.785.785,0,0,0,.777-.777V443.211a.426.426,0,1,0-.851,0v12.567h-41v-24.96h41v7.712a.426.426,0,1,0,.851,0v-7.786a.785.785,0,0,0-.777-.777Z" fill="#272727"/>
          <path id="Tracé_965" data-name="Tracé 965" d="M673.926,439.9a.274.274,0,0,0-.271.28v1.371a.274.274,0,0,0,.136.243.278.278,0,0,0,.279,0,.274.274,0,0,0,.136-.243v-1.371a.276.276,0,0,0-.08-.2A.28.28,0,0,0,673.926,439.9Z" fill="#272727"/>
          <rect id="Rectangle_54" data-name="Rectangle 54" width="37.759" height="22.033" rx="0.733" transform="translate(634.125 432.282)" fill="#fff"/>
        </g>
      </g>
      <g id="Groupe_198" data-name="Groupe 198">
        <g id="Groupe_197" data-name="Groupe 197">
          <path id="Tracé_966" data-name="Tracé 966" d="M652.32,434.6c.07-.266.156-.527.246-.787a2.024,2.024,0,0,1,.307-.678.226.226,0,0,1,.334-.048.772.772,0,0,1,.169.44c.063.483.145.96.223,1.44a2.615,2.615,0,0,1,.057.5c-.232.033-.464.066-.7.077-.16.008-.32.005-.48.018-.1.009-.266.079-.308-.056a1.041,1.041,0,0,1,.046-.416C652.242,434.922,652.278,434.76,652.32,434.6Z" fill="#0c2439"/>
          <path id="Tracé_967" data-name="Tracé 967" d="M650.348,435.653c-.116-.191-.232-.384-.342-.578a1.058,1.058,0,0,1-.183-.588c.02-.218.314-.157.447-.107a3.438,3.438,0,0,1,.415.221,5.54,5.54,0,0,1,.839.568c.16.129.333.252.48.394.028.027.056.056.026.091a.266.266,0,0,1-.034.033c-.01.009-.025.015-.031.028a.2.2,0,0,1-.062.058,1.428,1.428,0,0,0-.161.151,3.311,3.311,0,0,1-.351.307,1.358,1.358,0,0,0-.326.265.106.106,0,0,1-.085.058c-.039,0-.064-.039-.087-.07C650.693,436.217,650.522,435.938,650.348,435.653Z" fill="#0c2439"/>
          <path id="Tracé_968" data-name="Tracé 968" d="M650.268,436.831l-.646.094a4.081,4.081,0,0,0-.649.131.463.463,0,0,0-.137.064.181.181,0,0,0-.076.125c-.008.087.068.159.144.2a6.636,6.636,0,0,0,1.332.521c.065.021.792.22.794.205a.4.4,0,0,0-.056-.2,2.136,2.136,0,0,1-.087-.26.591.591,0,0,1-.031-.155,1.024,1.024,0,0,0,0-.207c-.007-.024-.017-.046-.024-.07-.035-.125.129-.4-.016-.47a.521.521,0,0,0-.236-.01A2.976,2.976,0,0,0,650.268,436.831Z" fill="#0c2439"/>
          <path id="Tracé_969" data-name="Tracé 969" d="M650.527,438.8c-.218.161-.433.325-.642.5a3.729,3.729,0,0,0-.431.363c-.05.055-.124.139-.111.221.03.186.326.165.46.157.68-.045,1.363-.155,2.035-.26.028,0,.062-.013.07-.041s-.022-.057-.048-.077a.92.92,0,0,1-.277-.6.356.356,0,0,0-.041-.133.581.581,0,0,0-.114-.107.971.971,0,0,1-.18-.259c-.056-.1-.111-.208-.235-.117C650.852,438.56,650.689,438.678,650.527,438.8Z" fill="#0c2439"/>
          <path id="Tracé_970" data-name="Tracé 970" d="M651.563,440.582a10.868,10.868,0,0,0-1.2.524.582.582,0,0,0-.258.214c-.076.164.171.229.281.263.243.078.492.132.74.191.307.073.616.14.92.226l.048.014a.586.586,0,0,0,.05-.282.577.577,0,0,0-.02-.176c-.01-.033-.026-.064-.035-.1a.571.571,0,0,1-.013-.149l0-.272a.606.606,0,0,0-.007-.121c-.007-.037-.021-.071-.028-.108-.014-.065.021-.381-.1-.354A2.376,2.376,0,0,0,651.563,440.582Z" fill="#0c2439"/>
          <path id="Tracé_971" data-name="Tracé 971" d="M650.49,442.585a.381.381,0,0,0-.25.043.212.212,0,0,0-.08.189c.01.1.12.169.193.226.163.128.334.253.5.381s.324.263.482.4a1.381,1.381,0,0,0,.128.1.1.1,0,0,0,.053.022.108.108,0,0,0,.08-.047,2.666,2.666,0,0,0,.356-.772.491.491,0,0,0,.035-.1c.008-.045,0-.092.009-.137a1.483,1.483,0,0,1,.046-.161c.007-.026.018-.081,0-.1-.045-.045-.126-.037-.183-.034-.417.02-.835.024-1.253,0Z" fill="#0c2439"/>
          <path id="Tracé_972" data-name="Tracé 972" d="M649.469,444.386c-.012-.274-.02-.548-.02-.821a.418.418,0,0,1,.029-.169c.063-.138.209-.1.3-.011a4.051,4.051,0,0,1,.343.469c.169.231.328.47.477.714.02.033.04.066.062.1s.054.057.039.088a.05.05,0,0,1-.023.02,2.4,2.4,0,0,1-.714.248,3.355,3.355,0,0,1-.374.049c-.075.006-.077-.008-.078-.079,0-.172-.024-.342-.032-.514Z" fill="#0c2439"/>
          <path id="Tracé_973" data-name="Tracé 973" d="M647.816,444.273a3.942,3.942,0,0,0,.28-.376c.044-.067.086-.134.126-.2a.253.253,0,0,1,.139-.126c.071-.02.115.042.135.1a1.142,1.142,0,0,1,.033.345,5.719,5.719,0,0,1-.068.815c-.006.041-.009.057-.054.053a.4.4,0,0,1-.088-.026,1.637,1.637,0,0,1-.357-.16.841.841,0,0,0-.11-.069c-.027-.013-.055-.021-.08-.035-.045-.025-.112-.077-.085-.134A.85.85,0,0,1,647.816,444.273Z" fill="#0c2439"/>
          <path id="Tracé_974" data-name="Tracé 974" d="M647.006,443.4a1.032,1.032,0,0,1,.263-.17.134.134,0,0,1,.1-.01c.082.041.032.182.012.246-.031.1-.065.195-.1.293a2.322,2.322,0,0,1-.095.269.1.1,0,0,1-.023.033.073.073,0,0,1-.069.007.216.216,0,0,1-.059-.041,2.4,2.4,0,0,1-.289-.307c-.061-.077.1-.175.142-.219C646.906,443.487,646.95,443.447,647.006,443.4Z" fill="#0c2439"/>
          <path id="Tracé_975" data-name="Tracé 975" d="M646.233,442.781h0a.355.355,0,0,1,.148-.119c.084-.019.121.059.123.13a1.471,1.471,0,0,1-.015.257c-.005.034-.009.21-.051.216a.037.037,0,0,1-.024-.008.318.318,0,0,1-.07-.057.1.1,0,0,1-.021-.029.336.336,0,0,0-.015-.033c-.017-.032-.059-.04-.088-.061a.211.211,0,0,1-.071-.137A.234.234,0,0,1,646.233,442.781Z" fill="#0c2439"/>
        </g>
        <path id="Tracé_976" data-name="Tracé 976" d="M651.905,442.91a6.255,6.255,0,0,0,.056-2.071,4.091,4.091,0,0,0-.328-1.383c-.184-.384-.433-.732-.632-1.109a2.324,2.324,0,0,1-.295-.927,2.146,2.146,0,0,1,1.8-2.042,4.967,4.967,0,0,1,2.883.483,5.557,5.557,0,0,1,2.193,1.457,2.484,2.484,0,0,1,.524,2.363,1.94,1.94,0,0,1-1.753,1.21,2.535,2.535,0,0,1-1.839-.9,1.136,1.136,0,0,0-.244-.25.109.109,0,0,0-.1,0c-.121.056-.1.24-.114.352a2.55,2.55,0,0,0,.117.879,2.417,2.417,0,0,0,1.111,1.688,4.906,4.906,0,0,0,1.125.355c.219.048.441.08.659.135a1.378,1.378,0,0,1,.636.329.56.56,0,0,1-.173.887,2.085,2.085,0,0,1-.892.117,1.031,1.031,0,0,0-.822.306A2.97,2.97,0,0,0,655.46,446a6.787,6.787,0,0,0-.133,3.061,3.845,3.845,0,0,0,.2.6c.022.051.308.559.31.558a3.186,3.186,0,0,1-.4.309c-.153.09-.312.169-.466.256a1.154,1.154,0,0,0-.65.737,3.31,3.31,0,0,0,.017.958.59.59,0,0,1-.227.617,2.049,2.049,0,0,1-.884.13,1.177,1.177,0,0,1-.786-.147.878.878,0,0,1-.313-.738c0-.256.03-.573-.191-.754a2.955,2.955,0,0,0-.56-.32c-.662-.331-.871-1.027-1.361-1.582a6.356,6.356,0,0,0-1.063-.871,6.557,6.557,0,0,1-1.022-.948,12.387,12.387,0,0,1-1.2-1.6,6.042,6.042,0,0,1-1.066-2.612c-.015-.154-.018-.309-.018-.464a.449.449,0,0,1,.092-.344c.226-.209.472.036.611.22a7.167,7.167,0,0,0,.937,1.048,4.016,4.016,0,0,0,1.224.716,2.458,2.458,0,0,0,2.145-.138,2.8,2.8,0,0,0,1.222-1.7C651.89,442.97,651.9,442.94,651.905,442.91Z" fill="#dc0e43"/>
        <path id="Tracé_977" data-name="Tracé 977" d="M654.056,440.094a2.55,2.55,0,0,0,.117.879,2.417,2.417,0,0,0,1.111,1.688,4.044,4.044,0,0,0,.708.256,7.979,7.979,0,0,0-.708-1.047,7.38,7.38,0,0,1-.82-1.322,2.3,2.3,0,0,1-.262-.688c0-.028,0-.08-.007-.126l-.025.008C654.049,439.8,654.065,439.982,654.056,440.094Z" fill="#ffd400"/>
        <path id="Tracé_978" data-name="Tracé 978" d="M655.817,444.79A2.97,2.97,0,0,0,655.46,446a6.787,6.787,0,0,0-.133,3.061,3.845,3.845,0,0,0,.2.6c.022.051.308.559.31.558a3.712,3.712,0,0,0,.953-1.35,5,5,0,0,0,.168-3.22,7.348,7.348,0,0,0-.382-1.165A.984.984,0,0,0,655.817,444.79Z" fill="#ffd400"/>
        <path id="Tracé_979" data-name="Tracé 979" d="M655.839,450.221l-.024.02Z" fill="none" stroke="#161615" stroke-miterlimit="10" stroke-width="0.616"/>
        <path id="Tracé_980" data-name="Tracé 980" d="M654.245,436.08a.8.8,0,0,1,.36,1.175.828.828,0,0,1-1.115.219.782.782,0,0,1-.16-1.108.8.8,0,0,1,.077-.087A.835.835,0,0,1,654.245,436.08Z" fill="#fff"/>
        <path id="Tracé_981" data-name="Tracé 981" d="M653.964,436.673a.413.413,0,0,1,.047-.023.362.362,0,0,1,.465.242.327.327,0,0,1-.207.372.356.356,0,0,1-.463-.214A.321.321,0,0,1,653.964,436.673Z" fill="#161615"/>
        <path id="Tracé_982" data-name="Tracé 982" d="M657.353,438.207a.506.506,0,0,1-.007-.207.119.119,0,0,1,.159-.105.311.311,0,0,1,.2.224.281.281,0,0,1-.041.289.135.135,0,0,1-.092.034C657.451,438.44,657.382,438.328,657.353,438.207Z" fill="#91102d"/>
        <path id="Tracé_983" data-name="Tracé 983" d="M658.169,439.465a1.665,1.665,0,0,1-.638.6,1.556,1.556,0,0,1-.947.108,2.941,2.941,0,0,1-.856-.333,3.086,3.086,0,0,1-.73-.539.191.191,0,0,1,.088-.032c.068-.009.069-.117,0-.109a.357.357,0,0,0-.3.278c-.016.068.088.1.1.029a.292.292,0,0,1,.037-.087,3.232,3.232,0,0,0,.782.571,2.872,2.872,0,0,0,.955.343,1.64,1.64,0,0,0,.941-.144,1.485,1.485,0,0,0,.463-.371c.014-.032.027-.064.039-.1A1.681,1.681,0,0,0,658.169,439.465Z" fill="#91102d"/>
      </g>
    </g>
  </g>
</svg>
