<svg xmlns="http://www.w3.org/2000/svg" viewBox="0 0 8.5 7.68"><defs><style>.cls-1{fill:#616160;}</style></defs><g id="Calque_2" data-name="Calque 2"><g id="Calque_1-2" data-name="Calque 1"><path class="cls-1" d="M3.33,6.38a15.35,15.35,0,0,1-3.09-.3.23.23,0,0,1-.17-.17A2.2,2.2,0,0,1,0,5.35,2.83,2.83,0,0,1,1.83,2.83a1.68,1.68,0,0,1-.39-1.07A1.83,1.83,0,0,1,3.33,0,1.82,1.82,0,0,1,5.21,1.76a1.68,1.68,0,0,1-.39,1.07,3.4,3.4,0,0,1,1.26.93.24.24,0,0,1,0,.33.23.23,0,0,1-.32,0,2.91,2.91,0,0,0-1.39-.9A.26.26,0,0,1,4.17,3a.23.23,0,0,1,.09-.23,1.24,1.24,0,0,0,.49-1A1.37,1.37,0,0,0,3.33.46,1.37,1.37,0,0,0,1.9,1.76a1.22,1.22,0,0,0,.5,1,.24.24,0,0,1-.08.41A2.42,2.42,0,0,0,.46,5.35a1.71,1.71,0,0,0,0,.31,15.14,15.14,0,0,0,2.84.26c.46,0,.93,0,1.38-.06A.23.23,0,0,1,5,6.07a.22.22,0,0,1-.21.25C4.29,6.36,3.81,6.38,3.33,6.38Z"/><path class="cls-1" d="M6.48,7.68a2,2,0,1,1,2-2A2,2,0,0,1,6.48,7.68Zm0-3.58A1.56,1.56,0,1,0,8,5.66,1.56,1.56,0,0,0,6.48,4.1Z"/><path class="cls-1" d="M7.41,5.89H5.67a.24.24,0,0,1,0-.47H7.41a.24.24,0,0,1,0,.47Z"/></g></g></svg>