<svg xmlns="http://www.w3.org/2000/svg" width="8.481" height="4.792" viewBox="0 0 8.481 4.792">
  <g id="Groupe_4111" data-name="Groupe 4111" transform="translate(-2207.11 -728.155)">
    <path id="Tracé_5888" data-name="Tracé 5888" d="M2215.591,732a3.289,3.289,0,0,1-.287.579.958.958,0,0,1-.793.363q-3.16,0-6.321,0a1.058,1.058,0,0,1-1.048-.854.713.713,0,0,0-.032-.087v-2.9a3.252,3.252,0,0,1,.287-.58.957.957,0,0,1,.793-.362q3.161,0,6.321,0a1.059,1.059,0,0,1,1.047.855.679.679,0,0,0,.033.087Zm-4.241.573q1.518,0,3.035,0a.743.743,0,0,0,.836-.833q0-1.186,0-2.374a.746.746,0,0,0-.846-.842h-6.049a.746.746,0,0,0-.846.842c0,.785.015,1.571-.006,2.355a.793.793,0,0,0,.861.858C2209.34,732.561,2210.345,732.576,2211.35,732.576Z" fill="#747474"/>
    <path id="Tracé_5889" data-name="Tracé 5889" d="M2210.421,729.268v.361h-1c-.356,0-.465.107-.466.456q0,.48,0,.961c0,.312.12.426.438.427h.651v-.737h-.7v-.362h1.07v1.442c-.42,0-.84.026-1.255-.009a.7.7,0,0,1-.573-.716q-.014-.537,0-1.074a.715.715,0,0,1,.678-.743C2209.641,729.246,2210.024,729.268,2210.421,729.268Z" fill="#747474"/>
    <path id="Tracé_5890" data-name="Tracé 5890" d="M2214.111,729.274v.352h-1.457v.745h1.08v.351h-1.088v1.11h-.363v-2.558Z" fill="#747474"/>
    <path id="Tracé_5891" data-name="Tracé 5891" d="M2211.538,729.639v1.826h.348v.369h-1.07v-.35l.347-.02v-1.827h-.348v-.369h1.07v.351Z" fill="#747474"/>
  </g>
</svg>
