<svg xmlns="http://www.w3.org/2000/svg" viewBox="0 0 4.36 4.3"><defs><style>.cls-1{fill:#91978f;}</style></defs><g id="Calque_2" data-name="Calque 2"><g id="Calque_1-2" data-name="Calque 1"><path class="cls-1" d="M2.19,0A2.16,2.16,0,0,1,4,1a2,2,0,0,1,.32.9,2.13,2.13,0,0,1-.71,1.82l-.2.18a2.21,2.21,0,0,1-.88.37,2.25,2.25,0,0,1-.58,0,1.91,1.91,0,0,1-.7-.18,2.09,2.09,0,0,1-1.06-1A2,2,0,0,1,0,2.39,2.15,2.15,0,0,1,.5.79a2.21,2.21,0,0,1,1-.68A2.11,2.11,0,0,1,2,0Zm-1,2.75a.46.46,0,0,1-.06-.22s0,0,0,0,0,0,0,0,0,0,0,0a2.15,2.15,0,0,0,.1.27.1.1,0,0,1,0,.09.07.07,0,0,0,.05.1l.1.07a.29.29,0,0,0,.16.09l.18.07A.31.31,0,0,1,2,3.41a.1.1,0,0,0,0,0,.31.31,0,0,0,.19,0h0s.06,0,0,.06V3.6a.09.09,0,0,1-.06.1.1.1,0,0,0-.07.07s0,.09,0,.12a.75.75,0,0,1,.25.22h0s.05,0,.05.06,0,0,0,.05,0,0,0,0,0,0,0,0a2.14,2.14,0,0,0,1-.45l0,0a.37.37,0,0,1,.09-.2l0-.07a0,0,0,0,0,0,0s0,0-.08,0a1.29,1.29,0,0,1-.21.06.13.13,0,0,1-.16-.07.09.09,0,0,0-.07,0,.59.59,0,0,1-.32-.06,0,0,0,0,0,0,0,.75.75,0,0,1-.21,0h0a.08.08,0,0,1-.08,0,.11.11,0,0,0-.14,0,.14.14,0,0,1-.17.05h0a.1.1,0,0,1-.1-.14c0-.05,0-.08-.06-.09a.16.16,0,0,0-.1,0s0,0,0-.07,0-.05,0-.08,0,0,0,0,0,0-.06,0-.06.06-.12,0-.09,0-.1-.1a.24.24,0,0,1,0-.12.17.17,0,0,1,.24-.12h.08a.16.16,0,0,1,.18,0l.06.08s0,0,0,0,0,0,0,0,0,0,0,0a.12.12,0,0,1,0-.13c0-.05.06-.07.1-.1a.11.11,0,0,0,.05-.09.25.25,0,0,1,.08-.17.41.41,0,0,0,.07-.11h0a.06.06,0,0,1,.07,0h0a.67.67,0,0,1,.11-.07s0,0,0,0l0,0h0s0,0-.06,0,0,0,0,0l0,0h0a0,0,0,0,1,0,0A.19.19,0,0,1,2.59,2s0,0,.06,0,0,0,0-.07a.24.24,0,0,0-.06-.09c-.06-.05-.11-.11-.2-.11s0,0,0,0-.08-.06-.12-.08,0,0,0,0a.37.37,0,0,0,0,.11c0,.05,0,.08,0,.12s0,.07,0,.11,0,0,0,0a.14.14,0,0,1-.07-.11A.08.08,0,0,0,2,1.76H2c-.05,0-.06,0-.07-.08A.26.26,0,0,1,2,1.5l.14-.12s0,0,0,0,0,0,0,0S2,1.32,2,1.27V1.22a0,0,0,0,0,0,0,0,0,0,0,0,0,0s0,0,0,0,0,.05-.05.05a.05.05,0,0,1,0-.05V1.2s0-.05,0-.07a.12.12,0,0,1-.05,0,.07.07,0,0,0-.09,0s0,0,0,0,0,.09.09.12,0,0,0,.06,0,0,0,0a1.84,1.84,0,0,1-.22-.17A.19.19,0,0,1,1.47,1s0,0,0,0,0-.05-.07-.05-.08,0-.13,0,0,0,0,0,0,0-.07,0a.08.08,0,0,0-.09,0,.14.14,0,0,0,0,.06s0,.05-.07,0H1s0,0,0,0l.16.07s0,0,0,0a.25.25,0,0,1,0,.17s0,.11-.05.16a.49.49,0,0,0,0,.24.09.09,0,0,1,0,.05A.58.58,0,0,0,1,2.16a.7.7,0,0,0,0,.25.85.85,0,0,1,.06.17A.28.28,0,0,0,1.16,2.75Zm.06-2a0,0,0,0,0,.06,0A1.31,1.31,0,0,0,1.4.65S1.45.6,1.45.57s0,0,.05,0h.07s0,0,0,0,0,0,0,0h.06s.05,0,.06,0,0,0,0,0h.07A.15.15,0,0,0,2,.3a.08.08,0,0,1,.11,0,0,0,0,0,0,0,0,.28.28,0,0,0,.2,0,.25.25,0,0,1,.19,0,.08.08,0,0,0,.1,0,0,0,0,0,1,.05,0l.27.2a0,0,0,0,1,0,0s0,.05.05,0a0,0,0,0,1,0,0s0,0,0,0,0,0,0,0a.18.18,0,0,0-.1,0s0,0,0,0S3,.71,3,.73a.41.41,0,0,1,.17.15.12.12,0,0,0,.12.06s0,0,0,0,0,0,0,0,0,0,0,0L3.29.82a.23.23,0,0,0-.1-.07s0,0,0,0,0,0,0,0a0,0,0,0,1,0,0,0,0,0,0,1,0,0l.07,0a.1.1,0,0,1,.09.1s0,0,0,0A.25.25,0,0,1,3.47,1s0,.06,0,.08a.21.21,0,0,1,.09.2s0,.06,0,.06h0c.06,0,.07.06,0,.11a.06.06,0,0,0,0,.09s0,0,0,.05,0,.07.07.06.05,0,.05,0a.64.64,0,0,1,0-.07s0,0,0-.05a.37.37,0,0,1-.08-.15l0-.12c0-.05,0-.05,0-.05h0a0,0,0,0,0,0,0s0,0,0,0l0,0s0,0,0,0,0,0,0,0,.05,0,.07,0l0,0a.05.05,0,0,0,0,0S3.82.92,3.82.87a.16.16,0,0,0,0-.14,2.22,2.22,0,0,0-.9-.58A2,2,0,0,0,2.2,0a2.28,2.28,0,0,0-.63.09L1.36.2h0c.06.06,0,.11,0,.15h0s-.06,0-.05.07a.09.09,0,0,1-.05.09l-.08,0s0,0,0,.05,0,.06.07.06.05,0,0,.05S1.22.77,1.22.78ZM4,1A.07.07,0,0,0,4,1s0,.05,0,.06,0,0,0,0a.17.17,0,0,1,0,.12s0,0,0,0,0,0,0,0a1.93,1.93,0,0,1,0,.24.13.13,0,0,1,0,.06.11.11,0,0,0,0,.11A.56.56,0,0,1,4,2a.75.75,0,0,0,0,.3.51.51,0,0,0,.12.2.07.07,0,0,0,.12,0s0-.08.09-.1,0,0,0,0a2.08,2.08,0,0,0,0-.5,2.16,2.16,0,0,0-.25-.74A1,1,0,0,0,4,1Zm-1.09.51h0c-.06,0-.08,0-.07-.11V1.22a.09.09,0,0,1,0-.08s0-.08,0-.1A.45.45,0,0,0,2.61.89a.09.09,0,0,1-.07,0,.19.19,0,0,0-.25,0s0,0,0,0a.08.08,0,0,0-.11,0s0,0,0,0a.08.08,0,0,1,0,.07s0,0,0,.06a.1.1,0,0,0,.05,0s0,0,0,0,0-.07,0-.09,0,0,0,0a.14.14,0,0,0,.08.1.83.83,0,0,1,.18.13.12.12,0,0,1,0,.08s0,.08,0,.1h0c0,.06.06.07.1.09s0,0,0,0Zm-.66,0a.66.66,0,0,1,.15.05s0,0,.05,0a.25.25,0,0,1,0-.07v0s0-.05-.06-.06a.11.11,0,0,1-.08-.08,0,0,0,0,0,0,0,.44.44,0,0,0-.18-.09s0,0,0,0,0,0,0,0a.16.16,0,0,0,.13.08.1.1,0,0,1,0,.18Zm1.34-.31s0,0,0,0l-.11,0-.08-.05s0,0,0,0,0,0,0,0a1,1,0,0,1,.07.15s0,0,0,.06h0a0,0,0,0,0,0,0l0,0s0,0,0,0,0,0,0,0l.07,0S3.55,1.23,3.55,1.18Zm-.63,0a.14.14,0,0,0,0,.06s0,0,.07,0a.41.41,0,0,0,.05-.09s0-.05,0-.06S2.92,1.11,2.92,1.14ZM2.82,2h0s0,0,0,0l-.1-.08h0a0,0,0,0,0,0,0S2.77,2,2.82,2ZM2.05,3a.35.35,0,0,1,.22.08h0s.05,0,.06,0,0,0,0,0L2.1,3S2.07,3,2.05,3Zm.5.12s0,0,0,0,0,0-.07,0h0a0,0,0,0,0,0,0s0,0,0,0A.19.19,0,0,0,2.55,3.15Z"/></g></g></svg>