<svg xmlns="http://www.w3.org/2000/svg" viewBox="0 0 15.57 15.57"><defs><style>.cls-1{fill:#76b32b;}</style></defs><g id="Calque_2" data-name="Calque 2"><g id="Calque_1-2" data-name="Calque 1"><path class="cls-1" d="M11.38,5.47a.9.9,0,0,0-.36-.6.9.9,0,0,0-1.28.18L7.11,8.56,5.77,7.1a.94.94,0,0,0-.67-.29.92.92,0,0,0-.68,1.54l2.05,2.21a.83.83,0,0,0,.28.21,1,1,0,0,0,.45.12.91.91,0,0,0,.73-.37L11.2,6.15A.93.93,0,0,0,11.38,5.47Z"/><path class="cls-1" d="M13.29,2.28a7.79,7.79,0,0,0-11,11,7.79,7.79,0,0,0,11-11ZM10.42,14a6.82,6.82,0,0,1-5.27,0A6.69,6.69,0,0,1,3,12.57a6.8,6.8,0,0,1-1.45-2.15A6.62,6.62,0,0,1,1,7.78a6.58,6.58,0,0,1,.53-2.63,6.79,6.79,0,0,1,3.6-3.6A6.58,6.58,0,0,1,7.78,1a6.62,6.62,0,0,1,2.64.53A6.8,6.8,0,0,1,12.57,3a6.73,6.73,0,0,1,2,4.78A6.77,6.77,0,0,1,10.42,14Z"/></g></g></svg>