<svg xmlns="http://www.w3.org/2000/svg" width="38.621" height="38.62" viewBox="0 0 38.621 38.62">
  <g id="Groupe_596" data-name="Groupe 596" transform="translate(-996.496 -493.982)">
    <g id="Groupe_591" data-name="Groupe 591">
      <g id="Groupe_588" data-name="Groupe 588">
        <path id="Tracé_1808" data-name="Tracé 1808" d="M1034.434,513.292a18.565,18.565,0,0,1-5.922,13.619.22.22,0,0,1-.043.037q-.428.4-.883.775c-.243.2-.494.392-.748.579q-.468.345-.961.662a18.051,18.051,0,0,1-1.866,1.055c-.04.021-.08.04-.118.058a18.33,18.33,0,0,1-2.525,1q-.461.144-.929.264a17.666,17.666,0,0,1-1.915.385c-.154.024-.312.045-.472.061-.505.062-1.012.1-1.53.12a.2.2,0,0,1-.043,0l0,0-.006,0c-.221.011-.443.014-.664.014-.147,0-.294,0-.438-.006a18.959,18.959,0,0,1-1.992-.152,18.4,18.4,0,0,1-5.9-1.805c-.5-.248-.988-.52-1.458-.814a18.627,18.627,0,1,1,25.729-25.492c.037.065.077.129.115.193A18.543,18.543,0,0,1,1034.434,513.292Z" fill="#f5f6f5" stroke="#040405" stroke-miterlimit="10" stroke-width="0.298"/>
      </g>
      <g id="Groupe_589" data-name="Groupe 589">
        <path id="Tracé_1809" data-name="Tracé 1809" d="M1004.242,503.84a.28.28,0,0,1-.093-.2.3.3,0,0,1,.07-.2.272.272,0,0,1,.176-.1q0-.737-.005-1.868a.3.3,0,0,1-.169-.1.288.288,0,0,1-.068-.191.278.278,0,0,1,.089-.208.3.3,0,0,1,.212-.084l.478,0a.277.277,0,0,1,.208.089.294.294,0,0,1,.085.212.276.276,0,0,1-.07.186.3.3,0,0,1-.176.1q.013,1.115.009,1.847a.282.282,0,0,1,.175.1.293.293,0,0,1,.075.186.3.3,0,0,1-.083.212.285.285,0,0,1-.205.093l-.5.013A.3.3,0,0,1,1004.242,503.84Z" fill="#1f69a9" stroke="#040405" stroke-miterlimit="10" stroke-width="0.298"/>
        <path id="Tracé_1810" data-name="Tracé 1810" d="M1007.419,503.838a.262.262,0,0,1-.2.076.27.27,0,0,1-.195-.089.264.264,0,0,1-.076-.2c0-.048.007-.131.013-.25l.008-.245c0-.071,0-.159,0-.265s-.008-.193-.017-.261a.127.127,0,0,1,0-.034,1.068,1.068,0,0,0-.034-.156.256.256,0,0,0-.1-.134.372.372,0,0,0-.19-.061.437.437,0,0,0-.218.027.306.306,0,0,0-.147.112l-.012.047v.017c.006.514.008.911.008,1.191a.3.3,0,0,1-.593,0q0-.4-.012-1.644a.291.291,0,0,1,.084-.21.3.3,0,0,1,.208-.091.3.3,0,0,1,.207.08,1.01,1.01,0,0,1,.521-.089.579.579,0,0,0,.9.047,1.06,1.06,0,0,1,.385-.038,1,1,0,0,1,.479.174.774.774,0,0,1,.3.41,1.71,1.71,0,0,1,.065.384c.013.159.019.284.017.373s-.005.215-.013.379l-.01.25a.274.274,0,0,1-.089.2.266.266,0,0,1-.2.076.274.274,0,0,1-.2-.089.262.262,0,0,1-.076-.2c0-.034,0-.126.01-.277s.012-.264.013-.337,0-.173-.011-.3a1.181,1.181,0,0,0-.046-.288.25.25,0,0,0-.1-.133.373.373,0,0,0-.19-.062.455.455,0,0,0-.219.028.3.3,0,0,0-.146.112.478.478,0,0,0-.012.047v.025l-.009.034v.025l-.008.068c.008.088.014.194.017.318s0,.224,0,.3-.008.164-.013.264-.009.165-.009.193A.274.274,0,0,1,1007.419,503.838Z" fill="#1f69a9" stroke="#040405" stroke-miterlimit="10" stroke-width="0.298"/>
        <path id="Tracé_1811" data-name="Tracé 1811" d="M1009.764,504.677a.286.286,0,0,1-.209.083.3.3,0,0,1-.293-.3q.013-.734.013-2.491a.3.3,0,0,1,.3-.3.282.282,0,0,1,.25.14.932.932,0,0,1,.872-.068,1.05,1.05,0,0,1,.534.6,1.325,1.325,0,0,1,.083.37,1.366,1.366,0,0,1-.03.4,1,1,0,0,1-.18.387.957.957,0,0,1-.351.289.893.893,0,0,1-.653.1.837.837,0,0,1-.233-.11c0,.217-.006.448-.009.69A.3.3,0,0,1,1009.764,504.677Zm.723-1.39a.432.432,0,0,0,.22-.29.755.755,0,0,0-.021-.439.523.523,0,0,0-.237-.275.361.361,0,0,0-.289-.013.718.718,0,0,0-.292.288v.488a.61.61,0,0,0,.191.226.372.372,0,0,0,.207.07A.341.341,0,0,0,1010.487,503.287Z" fill="#1f69a9" stroke="#040405" stroke-miterlimit="10" stroke-width="0.298"/>
        <path id="Tracé_1812" data-name="Tracé 1812" d="M1011.7,503.618q0-.42-.005-.661a.322.322,0,0,1,0-.1q0-.47,0-.851a.341.341,0,0,1,.087-.252.286.286,0,0,1,.21-.087.264.264,0,0,1,.271.22,3.55,3.55,0,0,1,.508-.212.278.278,0,0,1,.214.011.261.261,0,0,1,.142.159.279.279,0,0,1-.01.214.269.269,0,0,1-.159.142,6.347,6.347,0,0,0-.665.267,2.309,2.309,0,0,0-.005.385q0,.267.009.754a.292.292,0,0,1-.087.212.278.278,0,0,1-.208.089.283.283,0,0,1-.209-.089A.267.267,0,0,1,1011.7,503.618Z" fill="#1f69a9" stroke="#040405" stroke-miterlimit="10" stroke-width="0.298"/>
        <path id="Tracé_1813" data-name="Tracé 1813" d="M1013.74,503.8a.994.994,0,0,1-.387-.385,1.085,1.085,0,0,1-.134-.534,1.4,1.4,0,0,1,.136-.638,1.032,1.032,0,0,1,.39-.425,1.069,1.069,0,0,1,.576-.157,1.121,1.121,0,0,1,.566.135.89.89,0,0,1,.353.367,1.11,1.11,0,0,1,.119.515.282.282,0,0,1-.093.224.42.42,0,0,1-.25.093q-.318.03-.564.03c-.155,0-.322-.005-.5-.013l-.148,0a.483.483,0,0,0,.163.324.6.6,0,0,0,.417.108.669.669,0,0,0,.2-.032.374.374,0,0,0,.135-.082l.072-.072a.287.287,0,0,1,.085-.06.278.278,0,0,1,.115-.021.253.253,0,0,1,.184.074.239.239,0,0,1,.074.172.35.35,0,0,1-.136.258.976.976,0,0,1-.349.2,1.353,1.353,0,0,1-.434.072A1.187,1.187,0,0,1,1013.74,503.8Zm.627-1.2a2.045,2.045,0,0,0,.428-.038.445.445,0,0,0-.108-.292.455.455,0,0,0-.358-.106.63.63,0,0,0-.351.1.426.426,0,0,0-.166.314A3.476,3.476,0,0,0,1014.367,502.605Z" fill="#1f69a9" stroke="#040405" stroke-miterlimit="10" stroke-width="0.298"/>
        <path id="Tracé_1814" data-name="Tracé 1814" d="M1016.162,503.893a.912.912,0,0,1-.295-.131.737.737,0,0,1-.161-.191l-.029-.051-.038-.068a.274.274,0,0,1-.039-.131.253.253,0,0,1,.091-.192.3.3,0,0,1,.206-.083.263.263,0,0,1,.229.127l.05.085.026.051a.181.181,0,0,0,.1.08.688.688,0,0,0,.191.034,1,1,0,0,0,.148-.013c.15-.031.228-.078.233-.14v-.017a.138.138,0,0,0-.046-.1.991.991,0,0,0-.254-.132l-.187-.071c-.1-.037-.179-.067-.225-.089a.755.755,0,0,1-.4-.331.563.563,0,0,1-.064-.25.445.445,0,0,1,.043-.191.665.665,0,0,1,.394-.334,1.12,1.12,0,0,1,.419-.081c.029,0,.071,0,.127.009a1.117,1.117,0,0,1,.653.292.247.247,0,0,1,.089.2.289.289,0,0,1-.079.2.247.247,0,0,1-.192.089.32.32,0,0,1-.178-.059l-.1-.076a.525.525,0,0,0-.106-.064.77.77,0,0,0-.241-.042.7.7,0,0,0-.183.021c-.036.014-.054.034-.054.059a.048.048,0,0,0,.027.042.873.873,0,0,0,.091.047,2.247,2.247,0,0,0,.22.081,1.448,1.448,0,0,1,.2.076l.151.066a.96.96,0,0,1,.171.1.7.7,0,0,1,.221.231.6.6,0,0,1,.08.307.626.626,0,0,1,0,.085.577.577,0,0,1-.24.407,1.084,1.084,0,0,1-.48.186,1.521,1.521,0,0,1-.2.013A1.41,1.41,0,0,1,1016.162,503.893Z" fill="#1f69a9" stroke="#040405" stroke-miterlimit="10" stroke-width="0.298"/>
        <path id="Tracé_1815" data-name="Tracé 1815" d="M1018.246,503.893a.906.906,0,0,1-.294-.131.717.717,0,0,1-.161-.191l-.03-.051-.038-.068a.272.272,0,0,1-.038-.131.25.25,0,0,1,.091-.192.294.294,0,0,1,.205-.083.26.26,0,0,1,.229.127l.051.085.026.051a.178.178,0,0,0,.1.08.683.683,0,0,0,.191.034,1.01,1.01,0,0,0,.148-.013c.15-.031.227-.078.233-.14v-.017a.139.139,0,0,0-.047-.1.955.955,0,0,0-.254-.132l-.186-.071a2.33,2.33,0,0,1-.225-.089.755.755,0,0,1-.4-.331.55.55,0,0,1-.064-.25.431.431,0,0,1,.043-.191.663.663,0,0,1,.393-.334,1.129,1.129,0,0,1,.42-.081c.028,0,.07,0,.127.009a1.117,1.117,0,0,1,.653.292.246.246,0,0,1,.088.2.293.293,0,0,1-.078.2.247.247,0,0,1-.193.089.325.325,0,0,1-.178-.059l-.1-.076a.556.556,0,0,0-.106-.064.771.771,0,0,0-.242-.042.7.7,0,0,0-.182.021c-.037.014-.055.034-.055.059a.048.048,0,0,0,.028.042.776.776,0,0,0,.091.047,2.143,2.143,0,0,0,.22.081,1.5,1.5,0,0,1,.2.076l.15.066a.929.929,0,0,1,.172.1.693.693,0,0,1,.22.231.6.6,0,0,1,.081.307.839.839,0,0,1,0,.085.583.583,0,0,1-.24.407,1.088,1.088,0,0,1-.481.186,1.52,1.52,0,0,1-.2.013A1.416,1.416,0,0,1,1018.246,503.893Z" fill="#1f69a9" stroke="#040405" stroke-miterlimit="10" stroke-width="0.298"/>
        <path id="Tracé_1816" data-name="Tracé 1816" d="M1020.46,501.146a.3.3,0,0,1-.3.307.3.3,0,0,1-.305-.307.3.3,0,0,1,.089-.219.294.294,0,0,1,.216-.089.291.291,0,0,1,.216.094A.284.284,0,0,1,1020.46,501.146Zm-.581.794a.279.279,0,0,1,.1-.205.291.291,0,0,1,.214-.079.281.281,0,0,1,.2.1.3.3,0,0,1,.079.213q-.026.793-.013,1.649a.3.3,0,0,1-.292.3.282.282,0,0,1-.21-.082.292.292,0,0,1-.091-.208Q1019.853,502.724,1019.879,501.94Z" fill="#1f69a9" stroke="#040405" stroke-miterlimit="10" stroke-width="0.298"/>
        <path id="Tracé_1817" data-name="Tracé 1817" d="M1021.362,503.69a.047.047,0,0,0,0-.022,11,11,0,0,0-.606-1.584.275.275,0,0,1-.023-.214.281.281,0,0,1,.345-.2.26.26,0,0,1,.165.138q.234.483.458,1.076a10.268,10.268,0,0,1,.487-1.072.293.293,0,0,1,.157-.131.218.218,0,0,1,.2.027.279.279,0,0,1,.089.388l-.089.191-.3.627-.068.148-.072.17c-.034.079-.056.132-.066.158l-.069.18-.068.166a.281.281,0,0,1-.151.15.274.274,0,0,1-.214,0A.283.283,0,0,1,1021.362,503.69Z" fill="#1f69a9" stroke="#040405" stroke-miterlimit="10" stroke-width="0.298"/>
        <path id="Tracé_1818" data-name="Tracé 1818" d="M1023.315,503.8a1,1,0,0,1-.387-.385,1.086,1.086,0,0,1-.134-.534,1.4,1.4,0,0,1,.136-.638,1.037,1.037,0,0,1,.389-.425,1.075,1.075,0,0,1,.577-.157,1.115,1.115,0,0,1,.565.135.886.886,0,0,1,.354.367,1.109,1.109,0,0,1,.119.515.282.282,0,0,1-.093.224.422.422,0,0,1-.25.093q-.318.03-.564.03c-.155,0-.322-.005-.5-.013l-.148,0a.483.483,0,0,0,.163.324.6.6,0,0,0,.417.108.669.669,0,0,0,.2-.032.381.381,0,0,0,.135-.082l.072-.072a.287.287,0,0,1,.085-.06.277.277,0,0,1,.114-.021.254.254,0,0,1,.185.074.239.239,0,0,1,.074.172.35.35,0,0,1-.136.258.975.975,0,0,1-.349.2,1.357,1.357,0,0,1-.434.072A1.187,1.187,0,0,1,1023.315,503.8Zm.627-1.2a2.045,2.045,0,0,0,.428-.038.445.445,0,0,0-.108-.292.454.454,0,0,0-.358-.106.631.631,0,0,0-.351.1.426.426,0,0,0-.166.314A3.476,3.476,0,0,0,1023.942,502.605Z" fill="#1f69a9" stroke="#040405" stroke-miterlimit="10" stroke-width="0.298"/>
        <path id="Tracé_1819" data-name="Tracé 1819" d="M1025.315,501.224a.3.3,0,1,1,.593,0v1.729a.287.287,0,0,1-.085.209.3.3,0,0,1-.417.007.3.3,0,0,1-.091-.208Zm.593,2.487a.3.3,0,1,1-.3-.3.3.3,0,0,1,.3.3Z" fill="#1f69a9" stroke="#040405" stroke-miterlimit="10" stroke-width="0.298"/>
      </g>
      <g id="Groupe_590" data-name="Groupe 590">
        <path id="Tracé_1820" data-name="Tracé 1820" d="M1015.807,532.453c-.15,0-.3,0-.448-.005a19.36,19.36,0,0,1-2.051-.157,18.735,18.735,0,0,1-2.376-.464,18.863,18.863,0,0,1-3.694-1.392c-.516-.257-1.022-.539-1.5-.839a19.162,19.162,0,1,1,26.469-26.221l.119.2a19.135,19.135,0,0,1-3.448,23.725.4.4,0,0,1-.065.058c-.3.282-.593.537-.888.777-.223.184-.475.379-.768.6-.329.242-.662.471-.989.681a18.559,18.559,0,0,1-1.921,1.085l-.078.04-.033.016a18.96,18.96,0,0,1-2.608,1.029c-.313.1-.635.19-.955.272a18.814,18.814,0,0,1-1.971.4c-.158.024-.325.047-.495.064-.506.061-1.015.1-1.545.121h0a.542.542,0,0,1-.114.005C1016.245,532.451,1016.026,532.453,1015.807,532.453Zm0-37.254a18.095,18.095,0,0,0-9.507,33.49c.453.283.928.548,1.414.79a17.88,17.88,0,0,0,1.747.763,18.109,18.109,0,0,0,1.742.552,17.85,17.85,0,0,0,2.242.438,18.377,18.377,0,0,0,1.937.149c.342.006.707.009,1.064-.008h.023l.034,0c.505-.018.991-.056,1.484-.117.162-.016.31-.036.456-.059a17.585,17.585,0,0,0,1.863-.374c.3-.077.6-.164.9-.256a17.92,17.92,0,0,0,2.454-.968l.1-.048a17.625,17.625,0,0,0,1.828-1.032c.31-.2.624-.415.935-.644.277-.205.514-.388.724-.562.286-.232.566-.478.859-.752a.374.374,0,0,1,.036-.031l.007-.007a18.2,18.2,0,0,0,4.557-6.747,18.136,18.136,0,0,0-1.3-15.658l-.117-.195a18.108,18.108,0,0,0-15.479-8.721Zm12.37,31.3h0Zm0,0h0Zm0,0h0Z" fill="#70bba6" stroke="#040405" stroke-miterlimit="10" stroke-width="0.298"/>
      </g>
    </g>
    <g id="Groupe_595" data-name="Groupe 595">
      <g id="Groupe_592" data-name="Groupe 592">
        <circle id="Ellipse_93" data-name="Ellipse 93" cx="6.749" cy="6.749" r="6.749" transform="translate(999.547 505.813) rotate(-8.909)" fill="#0083ca"/>
        <circle id="Ellipse_94" data-name="Ellipse 94" cx="5.728" cy="5.728" r="5.728" transform="translate(1001.14 506.128) rotate(-4.065)" fill="#0083ca" stroke="#fff" stroke-miterlimit="22.926" stroke-width="0.185" stroke-dasharray="0.369 0.185"/>
        <path id="Tracé_1821" data-name="Tracé 1821" d="M1004.262,510l.755,1.392,1.557.288-1.091,1.148.208,1.57-1.429-.683-1.429.683.208-1.57-1.091-1.148,1.557-.288Z" fill="#fff" fill-rule="evenodd"/>
        <path id="Tracé_1822" data-name="Tracé 1822" d="M1010.066,510l.755,1.392,1.557.288-1.091,1.148.208,1.57-1.429-.683-1.429.683.208-1.57-1.091-1.148,1.557-.288Z" fill="#fff" fill-rule="evenodd"/>
        <path id="Tracé_1823" data-name="Tracé 1823" d="M1007.26,506.036l.755,1.392,1.557.288-1.091,1.148.208,1.57-1.429-.683-1.429.683.208-1.57-1.091-1.148,1.557-.288Z" fill="#fff" fill-rule="evenodd"/>
      </g>
      <g id="Groupe_593" data-name="Groupe 593">
        <circle id="Ellipse_95" data-name="Ellipse 95" cx="6.749" cy="6.749" r="6.749" transform="translate(1007.612 517.416) rotate(-8.909)" fill="#0083ca"/>
        <circle id="Ellipse_96" data-name="Ellipse 96" cx="5.728" cy="5.728" r="5.728" transform="translate(1009.204 517.73) rotate(-4.065)" fill="#0083ca" stroke="#fff" stroke-miterlimit="22.926" stroke-width="0.185" stroke-dasharray="0.369 0.185"/>
        <path id="Tracé_1824" data-name="Tracé 1824" d="M1012.326,521.6l.755,1.392,1.557.288-1.091,1.148.208,1.57-1.429-.683L1010.9,526l.208-1.57-1.091-1.148,1.557-.288Z" fill="#fff" fill-rule="evenodd"/>
        <path id="Tracé_1825" data-name="Tracé 1825" d="M1018.13,521.6l.755,1.392,1.557.288-1.091,1.148.208,1.57-1.429-.683L1016.7,526l.208-1.57-1.091-1.148,1.557-.288Z" fill="#fff" fill-rule="evenodd"/>
        <path id="Tracé_1826" data-name="Tracé 1826" d="M1015.324,517.638l.755,1.392,1.557.288-1.091,1.148.208,1.57-1.429-.683-1.429.683.208-1.57-1.091-1.148,1.557-.288Z" fill="#fff" fill-rule="evenodd"/>
      </g>
      <g id="Groupe_594" data-name="Groupe 594">
        <circle id="Ellipse_97" data-name="Ellipse 97" cx="6.749" cy="6.749" r="6.749" transform="translate(1016.641 505.813) rotate(-8.909)" fill="#0083ca"/>
        <circle id="Ellipse_98" data-name="Ellipse 98" cx="5.728" cy="5.728" r="5.728" transform="matrix(0.997, -0.071, 0.071, 0.997, 1018.233, 506.128)" fill="#0083ca" stroke="#fff" stroke-miterlimit="22.926" stroke-width="0.185" stroke-dasharray="0.369 0.185"/>
        <path id="Tracé_1827" data-name="Tracé 1827" d="M1021.355,510l.755,1.392,1.557.288-1.091,1.148.208,1.57-1.429-.683-1.429.683.208-1.57-1.091-1.148,1.557-.288Z" fill="#fff" fill-rule="evenodd"/>
        <path id="Tracé_1828" data-name="Tracé 1828" d="M1027.159,510l.755,1.392,1.557.288-1.091,1.148.208,1.57-1.429-.683-1.429.683.208-1.57-1.091-1.148,1.557-.288Z" fill="#fff" fill-rule="evenodd"/>
        <path id="Tracé_1829" data-name="Tracé 1829" d="M1024.353,506.036l.755,1.392,1.557.288-1.091,1.148.208,1.57-1.429-.683-1.429.683.208-1.57-1.091-1.148,1.557-.288Z" fill="#fff" fill-rule="evenodd"/>
      </g>
    </g>
  </g>
</svg>
