<svg xmlns="http://www.w3.org/2000/svg" xmlns:xlink="http://www.w3.org/1999/xlink" width="11.057" height="11.058" viewBox="0 0 11.057 11.058">
  <defs>
    <linearGradient id="linear-gradient" x1="0.05" y1="0.05" x2="0.95" y2="0.95" gradientUnits="objectBoundingBox">
      <stop offset="0" stop-color="#4b5149"/>
      <stop offset="0.422" stop-color="#286029"/>
      <stop offset="0.994" stop-color="#8ab211"/>
    </linearGradient>
  </defs>
  <g id="Groupe_250" data-name="Groupe 250" transform="translate(-796.609 -436.27)">
    <g id="Groupe_249" data-name="Groupe 249" opacity="0.3" style="mix-blend-mode: multiply;isolation: isolate">
      <rect id="Rectangle_72" data-name="Rectangle 72" width="10.541" height="10.541" rx="1.807" transform="translate(797.126 436.787)" fill="#fff" opacity="0"/>
      <rect id="Rectangle_73" data-name="Rectangle 73" width="10.541" height="10.541" rx="1.807" transform="translate(797.108 436.769)" fill="#efeff0" opacity="0.034"/>
      <rect id="Rectangle_74" data-name="Rectangle 74" width="10.541" height="10.541" rx="1.807" transform="translate(797.09 436.751)" fill="#e0dee1" opacity="0.069"/>
      <rect id="Rectangle_75" data-name="Rectangle 75" width="10.541" height="10.541" rx="1.807" transform="translate(797.073 436.733)" fill="#d1cfd2" opacity="0.103"/>
      <rect id="Rectangle_76" data-name="Rectangle 76" width="10.541" height="10.541" rx="1.807" transform="translate(797.055 436.715)" fill="#c2c1c4" opacity="0.138"/>
      <rect id="Rectangle_77" data-name="Rectangle 77" width="10.541" height="10.541" rx="1.807" transform="translate(797.037 436.698)" fill="#b5b3b7" opacity="0.172"/>
      <rect id="Rectangle_78" data-name="Rectangle 78" width="10.541" height="10.541" rx="1.807" transform="translate(797.019 436.68)" fill="#a8a6ab" opacity="0.207"/>
      <rect id="Rectangle_79" data-name="Rectangle 79" width="10.541" height="10.541" rx="1.807" transform="translate(797.001 436.662)" fill="#9c9a9e" opacity="0.241"/>
      <rect id="Rectangle_80" data-name="Rectangle 80" width="10.541" height="10.541" rx="1.807" transform="translate(796.984 436.644)" fill="#908e93" opacity="0.276"/>
      <rect id="Rectangle_81" data-name="Rectangle 81" width="10.541" height="10.541" rx="1.807" transform="translate(796.966 436.626)" fill="#858288" opacity="0.31"/>
      <rect id="Rectangle_82" data-name="Rectangle 82" width="10.541" height="10.541" rx="1.807" transform="translate(796.948 436.609)" fill="#7a787d" opacity="0.345"/>
      <rect id="Rectangle_83" data-name="Rectangle 83" width="10.541" height="10.541" rx="1.807" transform="translate(796.93 436.591)" fill="#706e73" opacity="0.379"/>
      <rect id="Rectangle_84" data-name="Rectangle 84" width="10.541" height="10.541" rx="1.807" transform="translate(796.912 436.573)" fill="#66646a" opacity="0.414"/>
      <rect id="Rectangle_85" data-name="Rectangle 85" width="10.541" height="10.541" rx="1.807" transform="translate(796.894 436.555)" fill="#5d5b61" opacity="0.448"/>
      <rect id="Rectangle_86" data-name="Rectangle 86" width="10.541" height="10.541" rx="1.807" transform="translate(796.877 436.537)" fill="#545358" opacity="0.483"/>
      <rect id="Rectangle_87" data-name="Rectangle 87" width="10.541" height="10.541" rx="1.807" transform="translate(796.859 436.52)" fill="#4c4b50" opacity="0.517"/>
      <rect id="Rectangle_88" data-name="Rectangle 88" width="10.541" height="10.541" rx="1.807" transform="translate(796.841 436.502)" fill="#454349" opacity="0.552"/>
      <rect id="Rectangle_89" data-name="Rectangle 89" width="10.541" height="10.541" rx="1.807" transform="translate(796.823 436.484)" fill="#3e3c42" opacity="0.586"/>
      <rect id="Rectangle_90" data-name="Rectangle 90" width="10.541" height="10.541" rx="1.807" transform="translate(796.805 436.466)" fill="#37363b" opacity="0.621"/>
      <rect id="Rectangle_91" data-name="Rectangle 91" width="10.541" height="10.541" rx="1.807" transform="translate(796.788 436.448)" fill="#303035" opacity="0.655"/>
      <rect id="Rectangle_92" data-name="Rectangle 92" width="10.541" height="10.541" rx="1.807" transform="translate(796.77 436.43)" fill="#2a2a2f" opacity="0.69"/>
      <rect id="Rectangle_93" data-name="Rectangle 93" width="10.541" height="10.541" rx="1.807" transform="translate(796.752 436.413)" fill="#252529" opacity="0.724"/>
      <rect id="Rectangle_94" data-name="Rectangle 94" width="10.541" height="10.541" rx="1.807" transform="translate(796.734 436.395)" fill="#1f2024" opacity="0.759"/>
      <rect id="Rectangle_95" data-name="Rectangle 95" width="10.541" height="10.541" rx="1.807" transform="translate(796.716 436.377)" fill="#1b1b1f" opacity="0.793"/>
      <rect id="Rectangle_96" data-name="Rectangle 96" width="10.541" height="10.541" rx="1.807" transform="translate(796.698 436.359)" fill="#16171b" opacity="0.828"/>
      <rect id="Rectangle_97" data-name="Rectangle 97" width="10.541" height="10.541" rx="1.807" transform="translate(796.681 436.341)" fill="#121316" opacity="0.862"/>
      <rect id="Rectangle_98" data-name="Rectangle 98" width="10.541" height="10.541" rx="1.807" transform="translate(796.663 436.324)" fill="#0f0f12" opacity="0.897"/>
      <rect id="Rectangle_99" data-name="Rectangle 99" width="10.541" height="10.541" rx="1.807" transform="translate(796.645 436.306)" fill="#0b0c0e" opacity="0.931"/>
      <rect id="Rectangle_100" data-name="Rectangle 100" width="10.541" height="10.541" rx="1.807" transform="translate(796.627 436.288)" fill="#070809" opacity="0.966"/>
      <rect id="Rectangle_101" data-name="Rectangle 101" width="10.541" height="10.541" rx="1.807" transform="translate(796.609 436.27)" fill="#040506"/>
    </g>
    <rect id="Rectangle_102" data-name="Rectangle 102" width="10.541" height="10.541" rx="1.807" transform="translate(796.609 436.27)" fill="url(#linear-gradient)"/>
    <path id="Tracé_1058" data-name="Tracé 1058" d="M805.808,438.741l-.02-.02a.844.844,0,0,0-1.193,0l-3.9,3.894-1.448-1.447a.844.844,0,0,0-1.193,0l-.02.02a.846.846,0,0,0,0,1.194l2.064,2.065a.847.847,0,0,0,1.194,0l4.512-4.513A.846.846,0,0,0,805.808,438.741Z" fill="#fff"/>
  </g>
</svg>
