<svg xmlns="http://www.w3.org/2000/svg" width="8.888" height="8.504" viewBox="0 0 8.888 8.504">
  <g id="Groupe_115" data-name="Groupe 115" transform="translate(-289.451 -440.869)">
    <path id="Tracé_521" data-name="Tracé 521" d="M295.945,445.718a.633.633,0,0,0,.1-.043c.293-.2.585-.412.877-.618.1-.067.1-.14.007-.213-.109-.088-.221-.174-.329-.264-.2-.17-.4-.342-.6-.514a.179.179,0,0,0-.242-.021q-.435.3-.868.593c-.091.062-.1.131-.014.2.147.126.3.248.446.375.17.145.335.294.5.439A.669.669,0,0,0,295.945,445.718Zm1.142-2.6a.219.219,0,0,0-.074.023c-.089.057-.174.12-.261.18-.2.138-.4.276-.6.412a.084.084,0,0,0-.01.137c.156.125.312.25.466.377.17.14.336.284.505.425a.2.2,0,0,0,.308,0c.263-.194.526-.386.79-.579.069-.05.073-.084.007-.143s-.151-.13-.23-.192c-.229-.181-.457-.362-.689-.54C297.246,443.175,297.2,443.109,297.087,443.113Zm-2.283,2.493c0-.041-.007-.083-.016-.123-.071-.3-.144-.605-.216-.908-.022-.1-.053-.115-.152-.093a.264.264,0,0,0-.077.038l-.96.592a.16.16,0,0,0-.089.206c.091.342.191.681.272,1.024.026.109.119.127.21.063.285-.2.575-.385.86-.581C294.715,445.77,294.834,445.735,294.8,445.606Zm-1.772-3.947a.866.866,0,0,0-.14.051c-.3.182-.6.367-.9.552-.075.046-.078.07-.01.13.083.072.17.14.254.212l.663.571a.184.184,0,0,0,.226.018c.129-.081.258-.164.386-.247l.529-.34a.094.094,0,0,0,.028-.145c-.056-.048-.114-.094-.172-.141-.231-.188-.46-.376-.693-.561A1.329,1.329,0,0,0,293.032,441.659Zm2.706.35a1.019,1.019,0,0,0-.127.051c-.077.044-.149.094-.224.14l-.614.381c-.066.041-.071.079-.013.13.09.079.181.157.275.234.226.184.454.366.68.551a.165.165,0,0,0,.233.009c.065-.046.133-.089.2-.133.215-.142.432-.283.647-.426a.093.093,0,0,0,.012-.142c-.049-.042-.1-.082-.149-.122-.239-.189-.477-.379-.719-.565C295.883,442.074,295.836,442.005,295.738,442.009Zm-1.325.794a1.288,1.288,0,0,0-.134.061c-.3.184-.593.37-.889.555-.079.05-.087.112-.02.174s.117.114.182.164a.671.671,0,0,0,.17.1c.217.081.437.155.656.232a.593.593,0,0,1,.291.183.071.071,0,0,0,.063.011q.359-.232.711-.468a.114.114,0,0,0,.015-.19c-.046-.043-.1-.08-.149-.121-.242-.2-.483-.395-.727-.59C294.531,442.875,294.471,442.842,294.413,442.8Zm1.041-1.077a.157.157,0,0,0-.033-.057c-.133-.109-.267-.215-.4-.321-.181-.143-.364-.283-.544-.428-.072-.058-.108-.069-.191-.021-.313.18-.624.363-.935.545-.059.034-.059.076-.005.116.071.054.145.106.214.163.241.194.481.39.721.585a.173.173,0,0,0,.211.013l.424-.26C295.09,441.953,295.266,441.843,295.454,441.726Zm-1.341,6.187c.078-.041.144-.069.2-.107.081-.054.157-.116.235-.173.181-.131.358-.268.546-.391a.219.219,0,0,0,.1-.264c-.07-.3-.148-.6-.224-.9-.016-.062-.059-.082-.125-.06a.287.287,0,0,0-.062.034c-.275.19-.547.384-.827.569a.23.23,0,0,0-.11.289C293.935,447.234,294.019,447.559,294.113,447.913Zm1.406.588a1.115,1.115,0,0,0-.015-.116c-.055-.244-.113-.487-.166-.731-.043-.2-.1-.165-.238-.072l-.006.005c-.253.172-.5.348-.76.517-.186.123-.226.185-.183.339.073.265.147.53.22.794.039.14.062.148.187.062.019-.013.041-.023.059-.037q.373-.267.745-.537C295.441,448.668,295.551,448.625,295.519,448.5Zm-1.261-4.34-.062-.02c-.262-.1-.524-.207-.785-.312a.408.408,0,0,0-.381.015l-.97.592c-.074.046-.07.1.011.138s.146.06.218.09l.649.268a.263.263,0,0,0,.244-.012c.061-.035.12-.072.179-.109.282-.178.563-.36.849-.533C294.266,444.245,294.266,444.212,294.258,444.161Zm-2.37.6-.021.026a.822.822,0,0,0,.019.121q.152.477.307.953a.335.335,0,0,0,.2.219c.284.116.567.235.852.351a.865.865,0,0,0,.123.028c-.025-.1-.042-.183-.065-.264-.09-.309-.182-.616-.273-.925a.215.215,0,0,0-.14-.156c-.25-.09-.5-.187-.747-.278C292.057,444.8,291.972,444.784,291.888,444.759Zm-.265-.352a1.158,1.158,0,0,0,.166-.063c.135-.079.265-.164.4-.246.2-.125.406-.25.607-.378a.123.123,0,0,0,.049-.068c0-.011-.034-.035-.056-.043-.255-.094-.507-.2-.767-.275a.417.417,0,0,0-.284.008c-.34.186-.668.391-1,.591-.06.037-.054.092.01.124a.449.449,0,0,0,.05.023c.183.075.365.15.548.223C291.434,444.339,291.527,444.372,291.623,444.407Zm2.243,3.6a.874.874,0,0,0-.014-.117c-.086-.313-.174-.624-.26-.936a.225.225,0,0,0-.145-.169c-.287-.119-.567-.25-.85-.376a.4.4,0,0,0-.082-.028c-.041-.008-.069.006-.066.049a.428.428,0,0,0,.01.072c.085.307.173.614.255.922a.263.263,0,0,0,.155.175q.432.19.867.377A.755.755,0,0,0,293.866,448.009Zm-4.415-4.451a.8.8,0,0,0,.107.064c.222.089.443.179.668.26a.321.321,0,0,0,.277-.017q.486-.279.971-.561a.067.067,0,0,0,0-.124.559.559,0,0,0-.079-.035c-.185-.068-.372-.133-.556-.2a.352.352,0,0,0-.307.011c-.118.061-.233.127-.348.192C289.945,443.278,289.708,443.412,289.451,443.558Zm1.162.784a.647.647,0,0,0,.013.1c.111.321.219.642.34.96a.319.319,0,0,0,.151.159c.24.111.487.209.732.31a.674.674,0,0,0,.121.025.539.539,0,0,0-.008-.115c-.1-.308-.2-.616-.3-.924a.306.306,0,0,0-.2-.211c-.22-.079-.436-.17-.655-.252A1.586,1.586,0,0,0,290.613,444.342Zm1.839,3.025.017-.016c-.032-.11-.064-.219-.1-.329-.061-.215-.123-.43-.181-.646a.265.265,0,0,0-.169-.194c-.239-.1-.471-.208-.707-.31a.875.875,0,0,0-.127-.034.39.39,0,0,0,0,.127c.089.286.178.572.278.855a.289.289,0,0,0,.129.139c.225.12.456.232.687.344A1.607,1.607,0,0,0,292.452,447.367Zm.409.456a.844.844,0,0,0,.016.118c.072.26.146.519.221.779a.276.276,0,0,0,.138.172c.224.122.446.246.67.369.071.039.144.075.216.112l.019-.016c-.01-.054-.016-.11-.031-.163-.066-.237-.143-.471-.2-.709a.4.4,0,0,0-.247-.275c-.144-.067-.285-.142-.428-.211C293.118,447.942,293,447.888,292.861,447.823Zm-3.395-3.973a.619.619,0,0,0,0,.157c.1.3.2.593.3.885a.31.31,0,0,0,.147.152c.215.1.439.187.66.277a.344.344,0,0,0,.08.01.2.2,0,0,0,.006-.076c-.029-.1-.062-.2-.1-.3q-.111-.332-.224-.663a.253.253,0,0,0-.161-.17c-.131-.047-.26-.1-.39-.149C289.689,443.931,289.583,443.893,289.466,443.85Zm3.385,4.871a.7.7,0,0,0-.009-.093c-.081-.282-.164-.564-.246-.847a.258.258,0,0,0-.153-.175c-.2-.093-.4-.195-.6-.291-.077-.037-.157-.068-.255-.11a.947.947,0,0,0,.019.141c.08.258.165.514.245.772a.307.307,0,0,0,.153.18c.243.135.49.264.737.393A.568.568,0,0,0,292.851,448.721Zm-1.685-1.969a.405.405,0,0,0-.009-.072c-.086-.279-.171-.558-.262-.836a.3.3,0,0,0-.15-.207c-.222-.093-.447-.182-.672-.27a.1.1,0,0,0-.081,0,.084.084,0,0,0-.009.074c.1.276.194.552.3.825a.3.3,0,0,0,.125.163c.238.114.484.213.728.317A.124.124,0,0,0,291.166,446.752Zm.4,1.313a.335.335,0,0,0,0-.091c-.089-.285-.178-.571-.272-.855a.185.185,0,0,0-.075-.1c-.212-.116-.428-.226-.644-.336-.051-.026-.107-.044-.174-.071.01.038.013.057.019.075.081.245.169.488.239.735a.441.441,0,0,0,.24.284c.093.048.183.1.274.149Zm4.125-1.378.021.013.218-.152c.182-.13.364-.26.544-.392a.746.746,0,0,0,.213-.18c.132-.222.242-.455.361-.684a.375.375,0,0,0,.017-.057,1.075,1.075,0,0,0-.188.117c-.254.18-.512.356-.761.54a.569.569,0,0,0-.145.179c-.06.109-.108.223-.159.335C295.77,446.5,295.731,446.593,295.691,446.687Zm2.648-2.359-.018-.017c-.073.053-.148.106-.221.161-.167.123-.336.246-.5.372a.721.721,0,0,0-.255.248c-.071.154-.153.3-.228.459-.031.063-.056.128-.088.2a.168.168,0,0,0,.039-.015c.225-.155.445-.316.675-.464a.746.746,0,0,0,.274-.312c.087-.178.184-.352.275-.528C298.31,444.4,298.324,444.364,298.339,444.328Zm-2.918,3.191.113-.08c.157-.115.318-.227.471-.347.1-.075.218-.125.266-.247a2.68,2.68,0,0,1,.123-.246l.186-.369a.344.344,0,0,0-.124.057c-.211.151-.423.3-.632.455-.136.1-.294.186-.34.362a.858.858,0,0,1-.075.184A.222.222,0,0,0,295.421,447.519Zm2.392-2.171a.4.4,0,0,0-.057.023c-.214.147-.431.292-.64.445-.094.068-.207.116-.262.228-.1.2-.205.391-.308.587a.606.606,0,0,0-.028.073c.045-.026.075-.041.1-.06.222-.154.445-.306.663-.465.082-.059.18-.108.212-.212a.646.646,0,0,1,.054-.113C297.633,445.692,297.718,445.53,297.813,445.348Zm-2.381,2.285.077.328c.083-.06.167-.114.243-.176a.945.945,0,0,0,.157-.159.841.841,0,0,0,.079-.159c.048-.1.094-.205.141-.307l-.018-.017Z"/>
    <path id="Tracé_522" data-name="Tracé 522" d="M295.945,445.718a.669.669,0,0,1-.119-.063c-.169-.145-.334-.294-.5-.439-.147-.127-.3-.249-.446-.375-.083-.072-.077-.141.014-.2q.432-.3.868-.593a.179.179,0,0,1,.242.021c.2.172.4.344.6.514.108.09.22.176.329.264.09.073.088.146-.007.213-.292.206-.584.413-.877.618A.633.633,0,0,1,295.945,445.718Z" fill="#f58508"/>
    <path id="Tracé_523" data-name="Tracé 523" d="M297.087,443.113c.113,0,.159.062.215.1.232.178.46.359.689.54.079.062.156.126.23.192s.062.093-.007.143c-.264.193-.527.385-.79.579a.2.2,0,0,1-.308,0c-.169-.141-.335-.285-.505-.425-.154-.127-.31-.252-.466-.377a.084.084,0,0,1,.01-.137c.2-.136.4-.274.6-.412.087-.06.172-.123.261-.18A.219.219,0,0,1,297.087,443.113Z" fill="#20a091"/>
    <path id="Tracé_524" data-name="Tracé 524" d="M294.8,445.606c.03.129-.089.164-.168.218-.285.2-.575.384-.86.581-.091.064-.184.046-.21-.063-.081-.343-.181-.682-.272-1.024a.16.16,0,0,1,.089-.206l.96-.592a.264.264,0,0,1,.077-.038c.1-.022.13,0,.152.093.072.3.145.6.216.908C294.8,445.523,294.8,445.565,294.8,445.606Z" fill="#fff"/>
    <path id="Tracé_525" data-name="Tracé 525" d="M293.032,441.659a1.329,1.329,0,0,1,.166.1c.233.185.462.373.693.561.058.047.116.093.172.141a.094.094,0,0,1-.028.145l-.529.34c-.128.083-.257.166-.386.247a.184.184,0,0,1-.226-.018l-.663-.571c-.084-.072-.171-.14-.254-.212-.068-.06-.065-.084.01-.13.3-.185.6-.37.9-.552A.866.866,0,0,1,293.032,441.659Z" fill="#27a4e1"/>
    <path id="Tracé_526" data-name="Tracé 526" d="M295.738,442.009c.1,0,.145.065.2.108.242.186.48.376.719.565.05.04.1.08.149.122a.093.093,0,0,1-.012.142c-.215.143-.432.284-.647.426-.067.044-.135.087-.2.133a.165.165,0,0,1-.233-.009c-.226-.185-.454-.367-.68-.551-.094-.077-.185-.155-.275-.234-.058-.051-.053-.089.013-.13l.614-.381c.075-.046.147-.1.224-.14A1.019,1.019,0,0,1,295.738,442.009Z" fill="#246925"/>
    <path id="Tracé_527" data-name="Tracé 527" d="M294.413,442.8c.058.039.118.072.169.114.244.2.485.393.727.59.05.041.1.078.149.121a.114.114,0,0,1-.015.19q-.352.236-.711.468a.071.071,0,0,1-.063-.011.593.593,0,0,0-.291-.183c-.219-.077-.439-.151-.656-.232a.671.671,0,0,1-.17-.1c-.065-.05-.122-.109-.182-.164s-.059-.124.02-.174c.3-.185.592-.371.889-.555A1.288,1.288,0,0,1,294.413,442.8Z" fill="#a12112"/>
    <path id="Tracé_528" data-name="Tracé 528" d="M295.454,441.726c-.188.117-.364.227-.54.335l-.424.26a.173.173,0,0,1-.211-.013c-.24-.2-.48-.391-.721-.585-.069-.057-.143-.109-.214-.163-.054-.04-.054-.082.005-.116.311-.182.622-.365.935-.545.083-.048.119-.037.191.021.18.145.363.285.544.428.135.106.269.212.4.321A.157.157,0,0,1,295.454,441.726Z" fill="#006cb6"/>
    <path id="Tracé_529" data-name="Tracé 529" d="M294.113,447.913c-.094-.354-.178-.679-.27-1a.23.23,0,0,1,.11-.289c.28-.185.552-.379.827-.569a.287.287,0,0,1,.062-.034c.066-.022.109,0,.125.06.076.3.154.6.224.9a.219.219,0,0,1-.1.264c-.188.123-.365.26-.546.391-.078.057-.154.119-.235.173C294.257,447.844,294.191,447.872,294.113,447.913Z" fill="#fff"/>
    <path id="Tracé_530" data-name="Tracé 530" d="M295.519,448.5c.032.124-.078.167-.157.224q-.372.27-.745.537c-.018.014-.04.024-.059.037-.125.086-.148.078-.187-.062-.073-.264-.147-.529-.22-.794-.043-.154,0-.216.183-.339.256-.169.507-.345.76-.517l.006-.005c.137-.093.2-.126.238.072.053.244.111.487.166.731A1.115,1.115,0,0,1,295.519,448.5Z" fill="#fff"/>
    <path id="Tracé_531" data-name="Tracé 531" d="M294.258,444.161c.008.051.008.084-.048.117-.286.173-.567.355-.849.533-.059.037-.118.074-.179.109a.263.263,0,0,1-.244.012l-.649-.268c-.072-.03-.146-.058-.218-.09s-.085-.092-.011-.138l.97-.592a.408.408,0,0,1,.381-.015c.261.1.523.208.785.312Z" fill="#fff"/>
    <path id="Tracé_532" data-name="Tracé 532" d="M291.888,444.759c.084.025.169.045.251.075.25.091.5.188.747.278a.215.215,0,0,1,.14.156c.091.309.183.616.273.925.023.081.04.163.065.264a.865.865,0,0,1-.123-.028c-.285-.116-.568-.235-.852-.351a.335.335,0,0,1-.2-.219q-.154-.477-.307-.953a.822.822,0,0,1-.019-.121Z" fill="#f58508"/>
    <path id="Tracé_533" data-name="Tracé 533" d="M291.623,444.407c-.1-.035-.189-.068-.28-.1-.183-.073-.365-.148-.548-.223a.449.449,0,0,1-.05-.023c-.064-.032-.07-.087-.01-.124.332-.2.66-.4,1-.591a.417.417,0,0,1,.284-.008c.26.08.512.181.767.275.022.008.059.032.056.043a.123.123,0,0,1-.049.068c-.2.128-.4.253-.607.378-.132.082-.262.167-.4.246A1.158,1.158,0,0,1,291.623,444.407Z" fill="#fff"/>
    <path id="Tracé_534" data-name="Tracé 534" d="M293.866,448.009a.755.755,0,0,1-.13-.031q-.435-.186-.867-.377a.263.263,0,0,1-.155-.175c-.082-.308-.17-.615-.255-.922a.428.428,0,0,1-.01-.072c0-.043.025-.057.066-.049a.4.4,0,0,1,.082.028c.283.126.563.257.85.376a.225.225,0,0,1,.145.169c.086.312.174.623.26.936A.874.874,0,0,1,293.866,448.009Z" fill="#72866c"/>
    <path id="Tracé_535" data-name="Tracé 535" d="M289.451,443.558c.257-.146.494-.28.732-.413.115-.065.23-.131.348-.192a.352.352,0,0,1,.307-.011c.184.07.371.135.556.2a.559.559,0,0,1,.079.035.067.067,0,0,1,0,.124q-.484.282-.971.561a.321.321,0,0,1-.277.017c-.225-.081-.446-.171-.668-.26A.8.8,0,0,1,289.451,443.558Z" fill="#fff"/>
    <path id="Tracé_536" data-name="Tracé 536" d="M290.613,444.342a1.586,1.586,0,0,1,.192.047c.219.082.435.173.655.252a.306.306,0,0,1,.2.211c.1.308.2.616.3.924a.539.539,0,0,1,.008.115.674.674,0,0,1-.121-.025c-.245-.1-.492-.2-.732-.31a.319.319,0,0,1-.151-.159c-.121-.318-.229-.639-.34-.96A.647.647,0,0,1,290.613,444.342Z" fill="#a7352b"/>
    <path id="Tracé_537" data-name="Tracé 537" d="M292.452,447.367a1.607,1.607,0,0,1-.172-.064c-.231-.112-.462-.224-.687-.344a.289.289,0,0,1-.129-.139c-.1-.283-.189-.569-.278-.855a.39.39,0,0,1,0-.127.875.875,0,0,1,.127.034c.236.1.468.211.707.31a.265.265,0,0,1,.169.194c.058.216.12.431.181.646.031.11.063.219.1.329Z" fill="#5e4038"/>
    <path id="Tracé_538" data-name="Tracé 538" d="M292.861,447.823c.138.065.257.119.374.176.143.069.284.144.428.211a.4.4,0,0,1,.247.275c.057.238.134.472.2.709.015.053.021.109.031.163l-.019.016c-.072-.037-.145-.073-.216-.112-.224-.123-.446-.247-.67-.369a.276.276,0,0,1-.138-.172c-.075-.26-.149-.519-.221-.779A.844.844,0,0,1,292.861,447.823Z" fill="#20a091"/>
    <path id="Tracé_539" data-name="Tracé 539" d="M289.466,443.85c.117.043.223.081.328.121.13.049.259.1.39.149a.253.253,0,0,1,.161.17q.113.331.224.663c.034.1.067.2.1.3a.2.2,0,0,1-.006.076.344.344,0,0,1-.08-.01c-.221-.09-.445-.177-.66-.277a.31.31,0,0,1-.147-.152c-.109-.292-.207-.589-.3-.885A.619.619,0,0,1,289.466,443.85Z" fill="#246925"/>
    <path id="Tracé_540" data-name="Tracé 540" d="M292.851,448.721a.568.568,0,0,1-.108-.03c-.247-.129-.494-.258-.737-.393a.307.307,0,0,1-.153-.18c-.08-.258-.165-.514-.245-.772a.947.947,0,0,1-.019-.141c.1.042.178.073.255.11.2.1.4.2.6.291a.258.258,0,0,1,.153.175c.082.283.165.565.246.847A.7.7,0,0,1,292.851,448.721Z" fill="#006cb6"/>
    <path id="Tracé_541" data-name="Tracé 541" d="M291.166,446.752a.124.124,0,0,1-.031,0c-.244-.1-.49-.2-.728-.317a.3.3,0,0,1-.125-.163c-.105-.273-.2-.549-.3-.825a.084.084,0,0,1,.009-.074.1.1,0,0,1,.081,0c.225.088.45.177.672.27a.3.3,0,0,1,.15.207c.091.278.176.557.262.836A.405.405,0,0,1,291.166,446.752Z" fill="#7e9d35"/>
    <path id="Tracé_542" data-name="Tracé 542" d="M291.566,448.065l-.394-.212c-.091-.049-.181-.1-.274-.149a.441.441,0,0,1-.24-.284c-.07-.247-.158-.49-.239-.735-.006-.018-.009-.037-.019-.075.067.027.123.045.174.071.216.11.432.22.644.336a.185.185,0,0,1,.075.1c.094.284.183.57.272.855A.335.335,0,0,1,291.566,448.065Z" fill="#27a4e1"/>
    <path id="Tracé_543" data-name="Tracé 543" d="M295.691,446.687c.04-.094.079-.188.121-.281.051-.112.1-.226.159-.335a.569.569,0,0,1,.145-.179c.249-.184.507-.36.761-.54a1.075,1.075,0,0,1,.188-.117.375.375,0,0,1-.017.057c-.119.229-.229.462-.361.684a.746.746,0,0,1-.213.18c-.18.132-.362.262-.544.392l-.218.152Z" fill="#fff"/>
    <path id="Tracé_544" data-name="Tracé 544" d="M298.339,444.328c-.015.036-.029.072-.047.107-.091.176-.188.35-.275.528a.746.746,0,0,1-.274.312c-.23.148-.45.309-.675.464a.168.168,0,0,1-.039.015c.032-.075.057-.14.088-.2.075-.154.157-.3.228-.459a.721.721,0,0,1,.255-.248c.164-.126.333-.249.5-.372.073-.055.148-.108.221-.161Z" fill="#fff"/>
    <path id="Tracé_545" data-name="Tracé 545" d="M295.421,447.519a.222.222,0,0,1-.012-.231.858.858,0,0,0,.075-.184c.046-.176.2-.261.34-.362.209-.154.421-.3.632-.455a.344.344,0,0,1,.124-.057l-.186.369a2.68,2.68,0,0,0-.123.246c-.048.122-.171.172-.266.247-.153.12-.314.232-.471.347Z" fill="#fff"/>
    <path id="Tracé_546" data-name="Tracé 546" d="M297.813,445.348c-.1.182-.18.344-.264.506a.646.646,0,0,0-.054.113c-.032.1-.13.153-.212.212-.218.159-.441.311-.663.465-.027.019-.057.034-.1.06a.606.606,0,0,1,.028-.073c.1-.2.212-.388.308-.587.055-.112.168-.16.262-.228.209-.153.426-.3.64-.445A.4.4,0,0,1,297.813,445.348Z" fill="#fff"/>
    <path id="Tracé_547" data-name="Tracé 547" d="M296.18,447.522l-.1.035c.014-.032.027-.064.042-.094a4.947,4.947,0,0,1,.26-.5.951.951,0,0,1,.251-.217c.183-.133.371-.259.558-.387a.186.186,0,0,1,.089-.036c-.111.207-.212.419-.338.617a.862.862,0,0,1-.239.189c-.152.106-.306.209-.458.315a.446.446,0,0,0-.07.079Z" fill="#fff"/>
    <path id="Tracé_548" data-name="Tracé 548" d="M295.432,447.633l.679-.49.018.017c-.047.1-.093.2-.141.307a.841.841,0,0,1-.079.159.945.945,0,0,1-.157.159c-.076.062-.16.116-.243.176Z" fill="#fff"/>
  </g>
</svg>
