<svg xmlns="http://www.w3.org/2000/svg" width="38.62" height="38.621" viewBox="0 0 38.62 38.621">
  <g id="Groupe_604" data-name="Groupe 604" transform="translate(-1083.426 -450.85)">
    <g id="Groupe_601" data-name="Groupe 601">
      <g id="Groupe_597" data-name="Groupe 597">
        <path id="Tracé_1830" data-name="Tracé 1830" d="M1121.363,470.161v.1a19.215,19.215,0,0,1-.141,2.2c-.048.39-.107.772-.179,1.151-.094.5-.206.99-.339,1.474q-.237.864-.55,1.692l-.022.054c-.122.32-.256.635-.395.947a18.158,18.158,0,0,1-.971,1.869c-.065.115-.134.227-.206.339-.2.321-.406.633-.625.94a18.868,18.868,0,0,1-2.493,2.852.383.383,0,0,1-.043.037c-.3.28-.606.55-.924.806-.128.107-.259.208-.392.31-.1.08-.209.16-.315.238-.313.229-.633.451-.962.662a17.252,17.252,0,0,1-1.732.987c-.043.022-.088.046-.134.067s-.08.04-.117.059c-.382.184-.772.355-1.167.513-.443.178-.9.341-1.359.483q-.461.144-.929.264c-.368.094-.745.179-1.124.248-.262.054-.523.1-.79.137-.128.018-.256.037-.387.05a.748.748,0,0,1-.086.011l-.149.016c-.275.032-.553.059-.833.075-.182.013-.363.024-.548.029a.2.2,0,0,1-.042,0l0,0-.005,0-.225.008c-.146.005-.293.005-.44.005-.04,0-.083,0-.123,0-.107,0-.211,0-.315,0-.3-.008-.595-.022-.892-.043-.125-.008-.248-.019-.373-.029-.243-.022-.486-.048-.727-.08a18.337,18.337,0,0,1-2.309-.452c-.235-.061-.464-.128-.694-.2h0c-.235-.07-.467-.147-.7-.227-.133-.046-.267-.094-.4-.144a18.662,18.662,0,0,1-1.8-.785c-.5-.249-.988-.521-1.458-.815a17.822,17.822,0,0,1-1.551-1.073,18.628,18.628,0,1,1,28.786-21.316c.072.193.142.385.206.582a18.058,18.058,0,0,1,.64,2.441c.049.237.089.475.126.715a18.986,18.986,0,0,1,.192,2.037C1121.358,469.651,1121.363,469.9,1121.363,470.161Z" fill="#f5f6f5" stroke="#040405" stroke-miterlimit="10" stroke-width="0.298"/>
      </g>
      <g id="Groupe_598" data-name="Groupe 598">
        <path id="Tracé_1831" data-name="Tracé 1831" d="M1091.425,473.29l-.449.369q.017.434.037.937a.373.373,0,0,1-.623.291.374.374,0,0,1-.126-.259q-.079-1.648-.058-3.21a.367.367,0,0,1,.115-.262.354.354,0,0,1,.264-.105.377.377,0,0,1,.37.378c-.008.452-.008.879,0,1.278a15.793,15.793,0,0,0,1.556-1.525.377.377,0,0,1,.648.244.374.374,0,0,1-.1.27,13.8,13.8,0,0,1-1.07,1.1l1.23,1.583a.34.34,0,0,1,.076.273.361.361,0,0,1-.137.252.355.355,0,0,1-.276.077.361.361,0,0,1-.251-.142Z" fill="#24747c" stroke="#040405" stroke-miterlimit="10" stroke-width="0.298"/>
        <path id="Tracé_1832" data-name="Tracé 1832" d="M1094.084,474.81a1.252,1.252,0,0,1-.489-.487,1.377,1.377,0,0,1-.169-.674,1.767,1.767,0,0,1,.171-.8,1.319,1.319,0,0,1,.493-.538,1.356,1.356,0,0,1,.727-.2,1.415,1.415,0,0,1,.715.171,1.122,1.122,0,0,1,.446.463,1.4,1.4,0,0,1,.15.65.351.351,0,0,1-.118.283.526.526,0,0,1-.315.118q-.4.037-.712.038c-.2,0-.406-.006-.631-.017l-.187-.005a.607.607,0,0,0,.206.41.762.762,0,0,0,.527.136.875.875,0,0,0,.256-.04.5.5,0,0,0,.172-.105l.09-.091a.361.361,0,0,1,.107-.074.351.351,0,0,1,.145-.027.314.314,0,0,1,.232.093.3.3,0,0,1,.094.217.443.443,0,0,1-.171.326,1.23,1.23,0,0,1-.441.247,1.725,1.725,0,0,1-.549.09A1.5,1.5,0,0,1,1094.084,474.81Zm.792-1.514a2.585,2.585,0,0,0,.54-.049.57.57,0,0,0-.136-.369.582.582,0,0,0-.452-.133.787.787,0,0,0-.444.123.538.538,0,0,0-.209.4A4.425,4.425,0,0,0,1094.876,473.3Z" fill="#24747c" stroke="#040405" stroke-miterlimit="10" stroke-width="0.298"/>
        <path id="Tracé_1833" data-name="Tracé 1833" d="M1097.16,474.81a1.257,1.257,0,0,1-.489-.487,1.376,1.376,0,0,1-.169-.674,1.754,1.754,0,0,1,.172-.8,1.311,1.311,0,0,1,.492-.538,1.356,1.356,0,0,1,.727-.2,1.412,1.412,0,0,1,.715.171,1.116,1.116,0,0,1,.446.463,1.4,1.4,0,0,1,.15.65.351.351,0,0,1-.118.283.527.527,0,0,1-.315.118q-.4.037-.712.038-.294,0-.631-.017l-.187-.005a.611.611,0,0,0,.206.41.764.764,0,0,0,.527.136.873.873,0,0,0,.256-.04.483.483,0,0,0,.172-.105l.09-.091a.355.355,0,0,1,.108-.074.343.343,0,0,1,.144-.027.318.318,0,0,1,.233.093.3.3,0,0,1,.093.217.443.443,0,0,1-.171.326,1.231,1.231,0,0,1-.441.247,1.726,1.726,0,0,1-.549.09A1.5,1.5,0,0,1,1097.16,474.81Zm.792-1.514a2.583,2.583,0,0,0,.54-.049.57.57,0,0,0-.136-.369.582.582,0,0,0-.452-.133.787.787,0,0,0-.444.123.534.534,0,0,0-.208.4A4.414,4.414,0,0,0,1097.952,473.3Z" fill="#24747c" stroke="#040405" stroke-miterlimit="10" stroke-width="0.298"/>
        <path id="Tracé_1834" data-name="Tracé 1834" d="M1100.293,475.912a.375.375,0,0,1-.527-.008.363.363,0,0,1-.107-.265q.015-.926.016-3.146a.372.372,0,0,1,.374-.374.355.355,0,0,1,.316.176,1.176,1.176,0,0,1,1.1-.085,1.323,1.323,0,0,1,.674.759,1.654,1.654,0,0,1,.1.468,1.733,1.733,0,0,1-.037.5,1.262,1.262,0,0,1-.227.49,1.229,1.229,0,0,1-.444.364,1.124,1.124,0,0,1-.824.123,1.057,1.057,0,0,1-.3-.14c0,.275-.007.566-.01.873A.375.375,0,0,1,1100.293,475.912Zm.912-1.755a.543.543,0,0,0,.278-.366.954.954,0,0,0-.027-.554.655.655,0,0,0-.3-.348.45.45,0,0,0-.364-.016.894.894,0,0,0-.369.364v.615a.763.763,0,0,0,.241.286.473.473,0,0,0,.262.089A.445.445,0,0,0,1101.2,474.157Z" fill="#24747c" stroke="#040405" stroke-miterlimit="10" stroke-width="0.298"/>
        <path id="Tracé_1835" data-name="Tracé 1835" d="M1089.8,480.679a.353.353,0,0,1-.117-.259.385.385,0,0,1,.088-.249.352.352,0,0,1,.222-.131q0-.93-.005-2.359a.373.373,0,0,1-.215-.129.36.36,0,0,1-.085-.24.346.346,0,0,1,.112-.262.373.373,0,0,1,.268-.108l.6.006a.346.346,0,0,1,.262.112.373.373,0,0,1,.107.268.347.347,0,0,1-.088.235.381.381,0,0,1-.222.128q.016,1.408.011,2.333a.359.359,0,0,1,.222.123.366.366,0,0,1,.093.235.378.378,0,0,1-.1.268.358.358,0,0,1-.259.118l-.626.016A.379.379,0,0,1,1089.8,480.679Z" fill="#24747c" stroke="#040405" stroke-miterlimit="10" stroke-width="0.298"/>
        <path id="Tracé_1836" data-name="Tracé 1836" d="M1092.37,480.709a.586.586,0,0,1-.113-.054l-.139-.08a1.615,1.615,0,0,1-.321-.23.536.536,0,0,1-.112-.233,2.4,2.4,0,0,1-.027-.34v-.106c0-.1-.005-.344-.005-.723,0-.153,0-.269.005-.347h-.1a.324.324,0,0,1-.232-.094.313.313,0,0,1-.1-.238.335.335,0,0,1,.1-.249.328.328,0,0,1,.236-.1h.1l.005-.23v-.166a.348.348,0,0,1,.115-.265.394.394,0,0,1,.519.009.349.349,0,0,1,.115.278l-.01.363h.2a.381.381,0,0,1,.289.1.361.361,0,0,1,.1.257.348.348,0,0,1-.1.254.4.4,0,0,1-.3.1h-.2q0,.221-.006.327c0,.075-.005.182-.005.321q0,.342.021.594c.015.014.024.021.027.021l.054.037.042.022.048.027.043.021a.815.815,0,0,1,.166.1.346.346,0,0,1,.166.3.4.4,0,0,1-.107.27.332.332,0,0,1-.257.12A.364.364,0,0,1,1092.37,480.709Z" fill="#24747c" stroke="#040405" stroke-miterlimit="10" stroke-width="0.298"/>
        <path id="Tracé_1837" data-name="Tracé 1837" d="M1094.83,479.446a5.391,5.391,0,0,1-.021-.792q.011-.256.048-.781c.022-.292.032-.483.032-.572a.373.373,0,0,1,.115-.262.372.372,0,0,1,.631.273c0,.1-.013.308-.034.615-.025.371-.04.621-.043.749a4.71,4.71,0,0,0,.013.687.874.874,0,0,0,.088.351.709.709,0,0,0,.418.283.92.92,0,0,0,.53-.016.8.8,0,0,0,.417-.31,1.939,1.939,0,0,0,.267-1.054q.006-.246-.016-.647c-.021-.357-.034-.574-.037-.653a.379.379,0,0,1,.1-.267.346.346,0,0,1,.259-.115.371.371,0,0,1,.268.1.36.36,0,0,1,.118.26c0,.071.01.281.032.631q.027.434.016.711a2.643,2.643,0,0,1-.391,1.45,1.471,1.471,0,0,1-.556.484,1.761,1.761,0,0,1-.714.2,1.57,1.57,0,0,1-.731-.139,1.4,1.4,0,0,1-.593-.492A1.48,1.48,0,0,1,1094.83,479.446Z" fill="#24747c" stroke="#040405" stroke-miterlimit="10" stroke-width="0.298"/>
        <path id="Tracé_1838" data-name="Tracé 1838" d="M1099.247,481.736a.357.357,0,0,1-.265.1.374.374,0,0,1-.369-.377q.015-.926.016-3.145a.374.374,0,0,1,.374-.375.355.355,0,0,1,.316.176,1.176,1.176,0,0,1,1.1-.085,1.325,1.325,0,0,1,.674.76,1.646,1.646,0,0,1,.1.468,1.735,1.735,0,0,1-.037.5,1.26,1.26,0,0,1-.227.489,1.216,1.216,0,0,1-.445.364,1.12,1.12,0,0,1-.823.123,1.083,1.083,0,0,1-.3-.139c0,.274-.007.565-.01.872A.373.373,0,0,1,1099.247,481.736Zm.912-1.755a.544.544,0,0,0,.278-.366.954.954,0,0,0-.027-.554.655.655,0,0,0-.3-.348.45.45,0,0,0-.364-.016.9.9,0,0,0-.369.364v.615a.774.774,0,0,0,.24.287.483.483,0,0,0,.263.088A.439.439,0,0,0,1100.159,479.981Z" fill="#24747c" stroke="#040405" stroke-miterlimit="10" stroke-width="0.298"/>
        <path id="Tracé_1839" data-name="Tracé 1839" d="M1101.71,477.376a.375.375,0,1,1,.749,0v2.183a.374.374,0,0,1-.634.272.371.371,0,0,1-.115-.262Zm.749,3.14a.36.36,0,0,1-.109.265.375.375,0,1,1-.53-.53.36.36,0,0,1,.265-.109.383.383,0,0,1,.374.374Z" fill="#24747c" stroke="#040405" stroke-miterlimit="10" stroke-width="0.298"/>
      </g>
      <g id="Groupe_599" data-name="Groupe 599">
        <path id="Tracé_1840" data-name="Tracé 1840" d="M1092.666,464.93a14.742,14.742,0,0,1-1.282.746,1.133,1.133,0,0,1-.183.086.17.17,0,0,1-.238-.2.635.635,0,0,1,.053-.157,7.972,7.972,0,0,1,.523-.944c.122-.19.242-.381.366-.569a.2.2,0,0,0,.013-.218c-.212-.469-.417-.942-.623-1.413a1.594,1.594,0,0,1-.071-.2.178.178,0,0,1,.046-.2.17.17,0,0,1,.2-.017,2.2,2.2,0,0,1,.232.119c.206.126.408.258.615.383.141.085.288.16.436.241.044-.043.078-.076.11-.109.3-.311.6-.622.9-.931.2-.2.4-.408.6-.607a1.1,1.1,0,0,1,.223-.175.172.172,0,0,1,.262.128.605.605,0,0,1,.009.141c-.005.1-.012.19-.021.284-.059.631-.173,1.254-.276,1.879-.029.173-.026.169.117.274q.719.526,1.431,1.059a.85.85,0,0,1,.165.152.166.166,0,0,1-.074.271.4.4,0,0,1-.127.027,1.879,1.879,0,0,1-.237,0c-.335-.027-.67-.054-1-.087-.264-.026-.526-.062-.789-.093l-.117-.014c0,.149,0,.287-.006.425-.028.4-.061.8-.093,1.206-.01.138-.018.277-.032.414-.013.119-.06.177-.146.19s-.154-.048-.2-.122a.8.8,0,0,1-.054-.119c-.026-.066-.05-.133-.073-.2q-.268-.787-.536-1.575c-.013-.036-.02-.075-.032-.122C1092.713,464.9,1092.688,464.915,1092.666,464.93Zm.912,1.211c.024-.3.053-.6.071-.9.01-.158,0-.316,0-.474a.95.95,0,0,1,0-.107.17.17,0,0,1,.184-.163.287.287,0,0,1,.059.005,11.008,11.008,0,0,0,1.4.156c.154.011.307.032.46.047.039,0,.078,0,.146.007-.039-.036-.058-.057-.08-.074-.488-.364-.975-.731-1.466-1.091a.192.192,0,0,1-.078-.207c.041-.285.092-.569.133-.855.058-.415.111-.831.166-1.247.005-.038,0-.077.006-.142-.13.13-.243.239-.353.352-.405.417-.808.836-1.213,1.254-.022.023-.043.047-.066.068a.219.219,0,0,1-.251.047,4.222,4.222,0,0,1-.676-.345c-.111-.069-.221-.141-.332-.209-.032-.019-.069-.031-.12-.054.019.05.031.086.047.121q.291.663.585,1.326a.282.282,0,0,1-.018.288c-.271.456-.593.88-.826,1.359-.012.024-.022.049-.04.088a.287.287,0,0,0,.064-.018q.607-.346,1.215-.7a.705.705,0,0,0,.129-.1.132.132,0,0,1,.232.057q.174.529.347,1.061.114.342.227.686l.026,0C1093.566,466.3,1093.571,466.219,1093.578,466.141Z" fill="#ffc83e" stroke="#040405" stroke-miterlimit="10" stroke-width="0.298"/>
      </g>
      <g id="Groupe_600" data-name="Groupe 600">
        <path id="Tracé_1841" data-name="Tracé 1841" d="M1102.736,489.322c-.045,0-.093,0-.139,0-.106,0-.209,0-.312,0-.331-.009-.631-.024-.917-.044-.116-.008-.234-.018-.355-.028l-.027,0c-.251-.022-.5-.05-.75-.083a18.947,18.947,0,0,1-2.374-.464c-.233-.061-.461-.127-.689-.2l-.024-.006c-.215-.064-.444-.138-.721-.235-.136-.046-.275-.1-.414-.149a19.061,19.061,0,0,1-1.847-.807c-.517-.257-1.023-.54-1.5-.839a18.493,18.493,0,0,1-1.6-1.1A19.161,19.161,0,0,1,1102.736,451a19.257,19.257,0,0,1,17.947,12.436c.075.2.147.4.214.605a18.519,18.519,0,0,1,.657,2.506c.048.238.09.484.128.732a19.512,19.512,0,0,1,.2,2.1q.016.388.016.784v.1a19.774,19.774,0,0,1-.145,2.265c-.052.415-.112.8-.185,1.185-.1.522-.215,1.032-.349,1.517-.157.577-.347,1.163-.565,1.739l-.011.029-.02.048c-.1.275-.237.594-.4.952a18.8,18.8,0,0,1-1,1.926c-.062.111-.137.233-.214.354-.194.314-.411.64-.64.961a19.414,19.414,0,0,1-2.564,2.932.771.771,0,0,1-.064.057c-.318.3-.623.563-.932.812-.127.106-.264.213-.4.319-.106.081-.214.164-.325.244-.327.242-.66.471-.986.68a17.8,17.8,0,0,1-1.784,1.017l-.032.016c-.033.017-.066.034-.1.049s-.058.03-.085.043l-.033.017c-.391.188-.8.366-1.208.53-.468.189-.94.357-1.4.5-.314.1-.635.19-.954.271-.417.106-.8.19-1.16.257-.27.055-.539.1-.812.139-.126.019-.255.037-.387.051-.036.006-.074.01-.112.014l-.142.015c-.312.036-.594.062-.858.077-.174.013-.356.023-.542.029h0a.532.532,0,0,1-.12.005l-.171.006C1103.043,489.322,1102.889,489.322,1102.736,489.322Zm-.123-1.071.036,0c.029,0,.059,0,.087,0,.141,0,.281,0,.421-.005l.224-.008h.017l.038,0c.176-.005.35-.015.524-.028.251-.014.513-.038.81-.072l.2-.021a.361.361,0,0,1,.047-.007c.123-.013.243-.03.363-.048.255-.035.5-.078.761-.131.351-.064.707-.143,1.1-.242.3-.077.6-.163.9-.257.434-.133.876-.29,1.318-.469.392-.156.773-.323,1.135-.5l.1-.048.025-.013.08-.04.041-.021a16.953,16.953,0,0,0,1.682-.958c.309-.2.623-.415.935-.645.106-.076.206-.153.306-.23.13-.1.254-.2.376-.3.3-.244.595-.5.9-.786a.368.368,0,0,1,.036-.031l.007-.007a18.28,18.28,0,0,0,2.423-2.77c.216-.3.419-.609.606-.911.071-.111.135-.214.193-.319a17.736,17.736,0,0,0,.951-1.827c.151-.34.277-.642.384-.921l.011-.026.019-.048c.2-.521.375-1.074.525-1.621.126-.457.237-.938.329-1.432.069-.361.125-.726.174-1.117a18.8,18.8,0,0,0,.137-2.139v-.1c0-.249-.005-.5-.015-.741a18.468,18.468,0,0,0-.187-1.982c-.036-.228-.074-.458-.121-.688a17.749,17.749,0,0,0-.623-2.375c-.064-.2-.13-.38-.2-.565a18.1,18.1,0,0,0-35.04,6.351,17.96,17.96,0,0,0,7.079,14.354,17.494,17.494,0,0,0,1.507,1.042c.452.283.927.548,1.415.791a18.2,18.2,0,0,0,1.746.763c.13.049.258.1.385.138.218.076.435.149.654.214l.028.008c.223.067.447.132.675.192a17.946,17.946,0,0,0,2.243.438c.235.031.469.057.7.078.137.012.247.021.36.028.275.02.559.033.873.042C1102.411,488.252,1102.51,488.251,1102.613,488.251Zm12.491-4.88h0Z" fill="#4a9fc4" stroke="#040405" stroke-miterlimit="10" stroke-width="0.298"/>
      </g>
    </g>
    <g id="Groupe_602" data-name="Groupe 602">
      <circle id="Ellipse_99" data-name="Ellipse 99" cx="6.749" cy="6.749" r="6.749" transform="matrix(0.025, -1, 1, 0.025, 1105.594, 477.968)" fill="#2f973d"/>
      <path id="Tracé_1842" data-name="Tracé 1842" d="M1112.509,477.119a5.729,5.729,0,1,0-5.728-5.729A5.74,5.74,0,0,0,1112.509,477.119Z" fill="#2f973d" stroke="#fff" stroke-miterlimit="22.926" stroke-width="0.185" stroke-dasharray="0.369 0.185" fill-rule="evenodd"/>
      <path id="Tracé_1843" data-name="Tracé 1843" d="M1112.509,466.718l1.5,2.764,3.092.571-2.166,2.279.412,3.117-2.837-1.355-2.837,1.355.412-3.117-2.166-2.279,3.092-.571Z" fill="#fff" fill-rule="evenodd"/>
    </g>
    <g id="Groupe_603" data-name="Groupe 603">
      <circle id="Ellipse_100" data-name="Ellipse 100" cx="6.749" cy="6.749" r="6.749" transform="translate(1096.062 466.588) rotate(-88.569)" fill="#2f973d"/>
      <path id="Tracé_1844" data-name="Tracé 1844" d="M1102.977,465.739a5.729,5.729,0,1,0-5.729-5.729A5.74,5.74,0,0,0,1102.977,465.739Z" fill="#2f973d" stroke="#fff" stroke-miterlimit="22.926" stroke-width="0.185" stroke-dasharray="0.369 0.185" fill-rule="evenodd"/>
      <path id="Tracé_1845" data-name="Tracé 1845" d="M1102.977,455.338l1.5,2.764,3.092.571-2.166,2.279.412,3.117-2.837-1.355-2.837,1.355.412-3.117-2.166-2.279,3.092-.571Z" fill="#fff" fill-rule="evenodd"/>
    </g>
  </g>
</svg>
