<svg xmlns="http://www.w3.org/2000/svg" viewBox="0 0 8.5 8.33"><defs><style>.cls-1{fill:#616160;}</style></defs><g id="Calque_2" data-name="Calque 2"><g id="Calque_1-2" data-name="Calque 1"><path class="cls-1" d="M2.82,8.33A12,12,0,0,1,.23,8.06a.23.23,0,0,1-.17-.17A2.24,2.24,0,0,1,0,7.37,2.56,2.56,0,0,1,1.53,5.09a1.59,1.59,0,0,1-.32-1,1.62,1.62,0,1,1,2.9,1A2.56,2.56,0,0,1,5.64,7.37a2.24,2.24,0,0,1,0,.52.24.24,0,0,1-.17.17A12.06,12.06,0,0,1,2.82,8.33ZM.47,7.65a11.86,11.86,0,0,0,2.35.23,11.86,11.86,0,0,0,2.35-.23,2.46,2.46,0,0,0,0-.28,2.14,2.14,0,0,0-1.54-2,.23.23,0,0,1-.15-.18A.21.21,0,0,1,3.57,5,1.19,1.19,0,0,0,4,4.12a1.16,1.16,0,0,0-2.32,0A1.19,1.19,0,0,0,2.07,5a.24.24,0,0,1,.08.21A.27.27,0,0,1,2,5.4a2.12,2.12,0,0,0-1.54,2A2.53,2.53,0,0,0,.47,7.65Z"/><path class="cls-1" d="M5.58,4.06h0a1.74,1.74,0,0,1-.39,0A.24.24,0,0,1,5,3.84a.29.29,0,0,1,.08-.23,1.42,1.42,0,0,0,.25-.24l.07-.09A1.73,1.73,0,0,1,4.31,1.74,1.94,1.94,0,0,1,6.4,0,2,2,0,0,1,8.5,1.74,1.87,1.87,0,0,1,6.81,3.45l0,.07A1.55,1.55,0,0,1,5.58,4.06ZM6.4.46A1.5,1.5,0,0,0,4.76,1.74,1.36,1.36,0,0,0,5.83,3,.2.2,0,0,1,6,3.08a.19.19,0,0,1,0,.19,1.55,1.55,0,0,1-.2.32,1.08,1.08,0,0,0,.65-.37l.08-.1A.25.25,0,0,1,6.65,3a1.44,1.44,0,0,0,1.4-1.27A1.5,1.5,0,0,0,6.4.46Z"/></g></g></svg>