<svg xmlns="http://www.w3.org/2000/svg" width="38.621" height="38.621" viewBox="0 0 38.621 38.621">
  <g id="Groupe_616" data-name="Groupe 616" transform="translate(-996.496 -536.358)">
    <g id="Groupe_615" data-name="Groupe 615">
      <g id="Groupe_612" data-name="Groupe 612">
        <path id="Tracé_1854" data-name="Tracé 1854" d="M1034.434,555.668a18.565,18.565,0,0,1-5.922,13.619.218.218,0,0,1-.043.037,17.347,17.347,0,0,1-1.631,1.354q-.468.345-.961.662a18.062,18.062,0,0,1-1.866,1.055c-.04.021-.08.04-.118.058a18.322,18.322,0,0,1-2.525,1q-.461.144-.929.265a17.917,17.917,0,0,1-1.915.384c-.154.024-.312.045-.472.061-.505.062-1.012.1-1.53.121a.309.309,0,0,1-.043,0l0,0-.006,0c-.221.011-.443.014-.664.014-.147,0-.294,0-.438-.006-.278-.005-.553-.019-.825-.04-.393-.024-.783-.061-1.167-.112-.069-.008-.142-.019-.211-.032-.1-.011-.2-.024-.291-.04h0c-.056-.008-.109-.019-.162-.027-.073-.01-.145-.024-.214-.04-.155-.024-.307-.053-.459-.088-.091-.016-.184-.035-.275-.059-.208-.042-.417-.093-.622-.147l-.072-.018-.3-.08v0q-.681-.187-1.337-.427l-.161-.059c-.072-.027-.144-.053-.216-.085-.053-.019-.107-.04-.16-.062-.08-.029-.157-.064-.238-.1-.245-.1-.491-.211-.731-.323-.075-.035-.147-.069-.219-.107s-.155-.074-.232-.112-.147-.075-.219-.112c-.219-.112-.435-.23-.649-.352s-.4-.23-.59-.35q-.613-.381-1.191-.8c-.061-.042-.123-.088-.181-.133-.15-.11-.294-.222-.438-.339-.12-.094-.238-.19-.353-.286a17.988,17.988,0,0,1-1.687-1.6c-.125-.133-.248-.267-.363-.4a18.312,18.312,0,0,1-1.826-2.454c-.051-.08-.1-.162-.147-.245s-.109-.179-.16-.272c-.046-.07-.086-.145-.126-.219-.053-.091-.1-.182-.152-.273-.032-.061-.067-.125-.1-.187-.154-.293-.3-.592-.437-.9-.03-.058-.057-.12-.083-.181a18.541,18.541,0,0,1-.791-2.115c-.112-.368-.21-.737-.3-1.113v0c-.118-.5-.216-1-.291-1.516l0,0q-.077-.5-.125-1.009c-.056-.593-.086-1.191-.086-1.8a18.627,18.627,0,0,1,37.255,0Z" fill="#f5f6f5" stroke="#040405" stroke-miterlimit="10" stroke-width="0.298"/>
      </g>
      <g id="Groupe_613" data-name="Groupe 613">
        <path id="Tracé_1855" data-name="Tracé 1855" d="M1016.824,549.562a15.533,15.533,0,0,1-1.029-1.426q-.676-.955-.957-1.3c0,.162.015.523.031,1.081s.024,1.022.024,1.392a.427.427,0,0,1-.853,0q0-.537-.033-1.733t-.009-1.812a.415.415,0,0,1,.134-.3.408.408,0,0,1,.3-.116.584.584,0,0,1,.165.037.439.439,0,0,1,.2.134c.069.085.18.22.335.4l.347.417a12.449,12.449,0,0,1,1.011,1.3l.293.42q.018-1.413.006-2.3a.425.425,0,0,1,.42-.43.406.406,0,0,1,.3.119.42.42,0,0,1,.131.3q.006.828-.018,3.526a.431.431,0,0,1-.408.42A.394.394,0,0,1,1016.824,549.562Z" fill="#24747c" stroke="#040405" stroke-miterlimit="10" stroke-width="0.298"/>
        <path id="Tracé_1856" data-name="Tracé 1856" d="M1019.26,545.758a.439.439,0,1,1-.438-.442.416.416,0,0,1,.311.134A.407.407,0,0,1,1019.26,545.758Zm-.834,1.142a.4.4,0,0,1,.137-.3.425.425,0,0,1,.307-.113.408.408,0,0,1,.3.137.423.423,0,0,1,.113.308q-.037,1.14-.019,2.369a.425.425,0,0,1-.42.43.4.4,0,0,1-.3-.119.419.419,0,0,1-.131-.3Q1018.389,548.026,1018.426,546.9Z" fill="#24747c" stroke="#040405" stroke-miterlimit="10" stroke-width="0.298"/>
        <path id="Tracé_1857" data-name="Tracé 1857" d="M1021.325,549.781a1.874,1.874,0,0,1-.517-.122,1.567,1.567,0,0,1-.664-.518,1.482,1.482,0,0,1-.311-.792,1.713,1.713,0,0,1,.119-.734,1.839,1.839,0,0,1,.4-.642,1.583,1.583,0,0,1,.423-.314,1.51,1.51,0,0,1,.533-.149,1.177,1.177,0,0,1,.6.1,1.354,1.354,0,0,1,.348.22l.079.073.109.091a.406.406,0,0,1,.162.277.394.394,0,0,1-.089.3.426.426,0,0,1-.6.07q-.012-.006-.231-.2a.618.618,0,0,0-.11-.079.514.514,0,0,0-.609.164,1.1,1.1,0,0,0-.228.36.826.826,0,0,0-.064.389.705.705,0,0,0,.134.35.679.679,0,0,0,.323.259.745.745,0,0,0,.362.058.412.412,0,0,0,.241-.112.5.5,0,0,0,.073-.128c.085-.187.13-.284.134-.293a.4.4,0,0,1,.247-.2.432.432,0,0,1,.325.025.387.387,0,0,1,.211.24.4.4,0,0,1-.028.317c-.012.024-.024.05-.036.076a.952.952,0,0,0-.037.089.455.455,0,0,1-.037.079,1.1,1.1,0,0,1-.724.663A1.306,1.306,0,0,1,1021.325,549.781Z" fill="#24747c" stroke="#040405" stroke-miterlimit="10" stroke-width="0.298"/>
        <path id="Tracé_1858" data-name="Tracé 1858" d="M1023.92,549.58a1.416,1.416,0,0,1-.557-.555,1.557,1.557,0,0,1-.192-.767,2.016,2.016,0,0,1,.2-.917,1.49,1.49,0,0,1,.56-.612,1.55,1.55,0,0,1,.828-.226,1.605,1.605,0,0,1,.814.2,1.267,1.267,0,0,1,.508.526,1.6,1.6,0,0,1,.171.741.4.4,0,0,1-.134.322.605.605,0,0,1-.36.134q-.456.043-.81.043-.335,0-.719-.018l-.213-.006a.7.7,0,0,0,.235.466.874.874,0,0,0,.6.155.952.952,0,0,0,.292-.046.559.559,0,0,0,.2-.119l.1-.1a.411.411,0,0,1,.122-.086.4.4,0,0,1,.164-.03.36.36,0,0,1,.265.107.339.339,0,0,1,.107.247.506.506,0,0,1-.2.371,1.4,1.4,0,0,1-.5.28,1.944,1.944,0,0,1-.624.1A1.7,1.7,0,0,1,1023.92,549.58Zm.9-1.724a2.929,2.929,0,0,0,.616-.055.645.645,0,0,0-.156-.42.657.657,0,0,0-.514-.153.911.911,0,0,0-.506.141.609.609,0,0,0-.237.45A4.882,4.882,0,0,0,1024.821,547.856Z" fill="#24747c" stroke="#040405" stroke-miterlimit="10" stroke-width="0.298"/>
        <path id="Tracé_1859" data-name="Tracé 1859" d="M1026.8,545.87a.426.426,0,0,1,.853,0v2.485a.417.417,0,0,1-.122.3.426.426,0,0,1-.6.009.423.423,0,0,1-.131-.3Zm.853,3.576a.426.426,0,1,1-.426-.427.437.437,0,0,1,.426.427Z" fill="#24747c" stroke="#040405" stroke-miterlimit="10" stroke-width="0.298"/>
      </g>
      <g id="Groupe_614" data-name="Groupe 614">
        <path id="Tracé_1860" data-name="Tracé 1860" d="M1015.807,574.83c-.14,0-.28,0-.418-.005h-.03c-.282-.005-.571-.019-.857-.041-.4-.025-.8-.064-1.2-.116-.066-.007-.143-.018-.219-.032-.1-.011-.189-.024-.281-.039l-.011,0-.1-.016-.064-.01c-.08-.012-.159-.027-.236-.044-.157-.025-.311-.054-.465-.089-.1-.017-.194-.038-.291-.062-.212-.044-.424-.1-.634-.15l-.045-.012-.032-.008-.3-.08-.056-.019c-.456-.128-.9-.271-1.326-.426l-.152-.056c-.089-.033-.164-.061-.238-.093-.054-.019-.107-.04-.161-.062s-.1-.039-.155-.062l-.083-.034c-.243-.1-.489-.209-.759-.335-.076-.035-.151-.071-.226-.11-.055-.025-.109-.052-.164-.079l-.068-.033-.233-.119c-.227-.117-.453-.239-.669-.364s-.407-.235-.606-.359c-.429-.267-.842-.545-1.224-.826-.058-.041-.126-.091-.192-.142-.146-.106-.3-.224-.449-.348-.115-.089-.238-.189-.357-.289a18.737,18.737,0,0,1-1.737-1.649c-.129-.138-.258-.278-.379-.422a18.851,18.851,0,0,1-1.871-2.515c-.053-.083-.1-.172-.156-.26s-.1-.17-.158-.268c-.047-.075-.091-.155-.134-.234-.031-.053-.067-.118-.1-.184l-.154-.286c-.163-.309-.316-.621-.452-.925-.024-.049-.055-.118-.085-.188a19.086,19.086,0,0,1-.811-2.17c-.111-.366-.213-.74-.31-1.145l-.006-.027c-.119-.5-.215-1.005-.288-1.493,0-.016-.007-.031-.009-.047-.055-.364-.1-.7-.129-1.039-.058-.616-.088-1.238-.088-1.847a19.167,19.167,0,1,1,32.231,14.009.529.529,0,0,1-.063.058,18.35,18.35,0,0,1-1.659,1.373c-.328.242-.661.471-.988.681a18.611,18.611,0,0,1-1.92,1.085l-.078.039-.034.017a19.036,19.036,0,0,1-2.608,1.029c-.315.1-.637.19-.955.272a18.62,18.62,0,0,1-1.971.395c-.158.025-.325.048-.495.065-.509.062-1.019.1-1.545.121h0a.53.53,0,0,1-.119.006C1016.243,574.827,1016.025,574.83,1015.807,574.83Zm-2.868-1.294.023,0c.086.014.173.027.262.036l.043.007c.056.01.114.019.17.025q.566.075,1.139.11c.274.021.541.034.8.039h.029c.342.006.691.009,1.038-.008h.023l.034,0c.5-.018.988-.056,1.484-.117.162-.016.31-.036.456-.059a17.644,17.644,0,0,0,1.863-.374c.3-.077.6-.163.9-.256a18,18,0,0,0,2.454-.968l.1-.048a17.768,17.768,0,0,0,1.828-1.032c.31-.2.624-.415.935-.644a17.177,17.177,0,0,0,1.582-1.313c.012-.011.023-.021.036-.031l.008-.008a18.2,18.2,0,0,0,4.557-6.747,18.1,18.1,0,1,0-34.992-6.481c0,.576.028,1.163.083,1.747.029.3.066.607.115.934a.471.471,0,0,1,.01.051c.07.479.165.974.282,1.47l.005.023c.091.376.186.723.288,1.061a18.177,18.177,0,0,0,.768,2.053c.025.058.048.111.073.161.136.3.278.594.432.885l.144.269c.031.056.062.113.095.17.044.08.075.14.112.2.008.013.016.025.023.039.044.082.091.162.141.239.055.1.1.173.147.247a17.854,17.854,0,0,0,1.775,2.385c.117.139.233.265.352.392a17.537,17.537,0,0,0,1.641,1.557c.11.093.223.185.338.274.146.119.283.226.425.33.063.049.118.089.172.127q.557.408,1.167.787.279.176.569.338c.206.119.417.233.631.343.072.038.142.073.214.109l.07.035c.048.023.1.047.142.068l.028.014c.065.033.13.064.2.1.257.119.489.222.711.314l.092.037c.042.018.084.036.126.051.061.024.107.043.153.059l.04.016c.06.026.12.048.179.07l.158.058c.419.153.855.293,1.3.416l.048.016.244.066.043.011c.221.058.421.106.62.147l.029.007c.076.02.155.036.231.049l.026.005c.14.032.28.06.422.081l.038.008c.056.013.114.024.173.032Zm15.236-4.657h0Z" fill="#ffc83e" stroke="#040405" stroke-miterlimit="10" stroke-width="0.298"/>
      </g>
    </g>
    <circle id="Ellipse_105" data-name="Ellipse 105" cx="6.749" cy="6.749" r="6.749" transform="translate(998.563 553.632) rotate(-17.348)" fill="#0084ca"/>
    <circle id="Ellipse_106" data-name="Ellipse 106" cx="5.728" cy="5.728" r="5.728" transform="translate(1001.289 552.333)" fill="#0084ca" stroke="#fff" stroke-miterlimit="22.926" stroke-width="0.185" stroke-dasharray="0.369 0.185"/>
    <path id="Tracé_1861" data-name="Tracé 1861" d="M1006.266,561.266l.011-.023a2.194,2.194,0,0,0-.588-1.44,5.164,5.164,0,0,1-.477-.727c-.7-1.348-.6-2.339-.128-2.981a2.434,2.434,0,0,1,2.029-.882,2.52,2.52,0,0,1,2.014.958,2.631,2.631,0,0,1-.173,2.914,3.564,3.564,0,0,1-.538.729c-.279.3-.446.485-.391,1.426l0,.049-.042.028a.84.84,0,0,1-.284.112,2.051,2.051,0,0,1-.39.043,3.2,3.2,0,0,1-.512-.03,2.235,2.235,0,0,1-.385-.085.2.2,0,0,0-.016.039v0c.01.025.065.049.147.07a1.9,1.9,0,0,0,.379.051,2.375,2.375,0,0,0,1-.111.087.087,0,0,1,.105.139,2.459,2.459,0,0,1-1.113.146,2.113,2.113,0,0,1-.415-.056.886.886,0,0,1-.092-.03c0,.007-.007.016-.011.028v0c.01.025.065.049.147.071a1.978,1.978,0,0,0,.379.051,2.371,2.371,0,0,0,1-.112.087.087,0,0,1,.105.139,2.472,2.472,0,0,1-1.113.147,2.107,2.107,0,0,1-.415-.057.587.587,0,0,1-.092-.03c0,.008-.007.017-.011.029v0c.01.024.065.048.147.07a1.9,1.9,0,0,0,.379.051,2.376,2.376,0,0,0,1-.111.087.087,0,0,1,.122.017.088.088,0,0,1-.017.122,2.46,2.46,0,0,1-1.113.146,2.118,2.118,0,0,1-.415-.056.686.686,0,0,1-.093-.031l-.01.028v0c.01.025.065.049.147.071a1.978,1.978,0,0,0,.379.051,2.376,2.376,0,0,0,1-.111.086.086,0,0,1,.122.017.088.088,0,0,1-.017.122.822.822,0,0,1-.311.1.272.272,0,0,1-.2.255.8.8,0,0,1-.3.053.748.748,0,0,1-.3-.061.278.278,0,0,1-.178-.217,1.542,1.542,0,0,1-.234-.041.371.371,0,0,1-.264-.171.173.173,0,0,1-.006-.121.462.462,0,0,1,.031-.076.18.18,0,0,1-.025-.042.173.173,0,0,1-.006-.121.367.367,0,0,1,.032-.077.146.146,0,0,1-.026-.043.17.17,0,0,1-.006-.12.366.366,0,0,1,.032-.077.179.179,0,0,1-.026-.043.173.173,0,0,1-.006-.121.362.362,0,0,1,.034-.08Zm3.744-3.445a.087.087,0,1,1,0-.175c.064,0,.309.038.548.081a4.752,4.752,0,0,1,.511.111.087.087,0,0,1-.064.162,4.835,4.835,0,0,0-.478-.1c-.229-.042-.461-.078-.517-.078Zm-.264,1.242a.087.087,0,1,1,.047-.168,3.679,3.679,0,0,1,.5.293,4.114,4.114,0,0,0,.454.273.087.087,0,1,1-.03.172,3.045,3.045,0,0,1-.518-.3,4.165,4.165,0,0,0-.452-.272Zm-5.639-.322a.087.087,0,1,1,.091.148c-.082.051-.317.181-.533.3-.118.065-.23.126-.311.172a.087.087,0,1,1-.085-.152c.075-.043.191-.106.312-.173.215-.119.45-.248.526-.295Zm-.095-1.815a.087.087,0,0,1-.024.172c-.187-.027-.353-.049-.52-.068h0c-.165-.018-.333-.035-.524-.051a.087.087,0,0,1,.014-.174c.19.016.359.033.53.052s.337.041.524.069Zm.238-1.132a.087.087,0,0,1-.063.163,6.448,6.448,0,0,1-.791-.427c-.141-.083-.271-.161-.366-.211a.088.088,0,0,1-.036-.118.087.087,0,0,1,.118-.036c.1.056.234.133.372.215a6.453,6.453,0,0,0,.766.414Zm1.268-1.036a.087.087,0,0,1-.107.137,6.426,6.426,0,0,1-.517-.461c-.127-.121-.255-.245-.4-.371a.087.087,0,1,1,.113-.133c.152.129.283.255.411.378a6.54,6.54,0,0,0,.5.45Zm4.253,1.376c.274-.076.5-.146.709-.215s.4-.14.588-.213a.088.088,0,0,0,.051-.113.087.087,0,0,0-.113-.05c-.2.074-.381.143-.582.21s-.428.138-.7.213a.087.087,0,0,0-.06.108.086.086,0,0,0,.107.06Zm-.789-.829a2.062,2.062,0,0,0,.405-.256c.261-.19.568-.433.638-.5a.087.087,0,1,0-.118-.128c-.068.062-.368.3-.623.484a2.241,2.241,0,0,1-.344.227.088.088,0,1,0,.042.17Zm-.913-.492a.086.086,0,0,1-.122.018.088.088,0,0,1-.018-.122c.07-.094.276-.454.449-.757h0c.081-.142.155-.271.2-.35a.087.087,0,1,1,.15.089c-.053.089-.123.212-.2.347h0c-.175.3-.383.669-.461.774Zm-1.141-.183a.087.087,0,1,1-.174,0v-1.224a.087.087,0,1,1,.174,0v1.224Zm.037,4.615a.085.085,0,0,1-.033.068,1,1,0,0,0-.07.3,12.674,12.674,0,0,0,0,1.436c0,.093.008.171.009.228a3.106,3.106,0,0,0,.432.022c.06,0,.119,0,.176-.011,0-.225,0-.429-.007-.633,0-.248-.007-.5-.007-.7a1.334,1.334,0,0,0-.181-.848h0a.137.137,0,0,0-.1-.051.169.169,0,0,0-.105.042.463.463,0,0,0-.122.151Zm-.179-.029c-.01-.062-.02-.153-.032-.264-.033-.307-.085-.781-.14-1.078-.046,0-.089-.005-.126-.01a.369.369,0,0,1-.334-.251.322.322,0,0,1,.019-.242.2.2,0,0,1,.214-.116c.094.014.2.095.312.288a.673.673,0,0,1,.054.157l.063,0a.916.916,0,0,0,.2-.036c-.125-.089-.152-.184-.127-.264a.243.243,0,0,1,.112-.135.371.371,0,0,1,.159-.051.2.2,0,0,1,.245.179.445.445,0,0,1,0,.09.346.346,0,0,1-.05.148l.033.01a.979.979,0,0,0,.138.032.666.666,0,0,1,.215-.4.186.186,0,0,1,.2-.011h0a.259.259,0,0,1,.114.147.325.325,0,0,1-.077.337.466.466,0,0,1-.288.1l-.029,0c-.032.174-.055.392-.072.609-.022.3-.031.606-.031.8v0a2.4,2.4,0,0,1,.083.691c0,.253,0,.477.007.7s.006.423.007.608h.006a.845.845,0,0,0,.184-.062c-.049-.968.135-1.169.439-1.5a3.335,3.335,0,0,0,.515-.7,2.473,2.473,0,0,0,.183-2.728,2.346,2.346,0,0,0-1.875-.885,2.26,2.26,0,0,0-1.886.812c-.438.592-.517,1.519.143,2.8a5,5,0,0,0,.462.7,2.364,2.364,0,0,1,.622,1.486,1.721,1.721,0,0,0,.249.064c0-.053-.005-.119-.008-.2a13.051,13.051,0,0,1-.005-1.457,1.138,1.138,0,0,1,.1-.381Zm.141-.282.006.063a.576.576,0,0,1,.047-.041.338.338,0,0,1,.218-.078.294.294,0,0,1,.193.082c.005-.155.014-.334.027-.513.016-.214.039-.429.071-.608a1.045,1.045,0,0,1-.153-.035c-.044-.013-.084-.027-.121-.042l-.026.015a.934.934,0,0,1-.359.094l-.041,0c.058.315.106.764.138,1.061Zm-.353-1.237a.362.362,0,0,0-.027-.07c-.076-.137-.139-.192-.184-.2a.036.036,0,0,0-.036.024.144.144,0,0,0-.006.109.2.2,0,0,0,.187.13l.066.006Zm.61-.134a.189.189,0,0,0,.047-.1.338.338,0,0,0,0-.055c0-.016-.028-.021-.057-.019a.194.194,0,0,0-.083.027.086.086,0,0,0-.036.035c-.008.029.023.069.128.117Zm.52.11a.278.278,0,0,0,.156-.054.151.151,0,0,0,.033-.156.092.092,0,0,0-.034-.051h0c-.005,0-.013,0-.023,0a.465.465,0,0,0-.132.257Zm-.776,4.742a.171.171,0,0,0,.061.043.569.569,0,0,0,.229.045.6.6,0,0,0,.236-.041.153.153,0,0,0,.086-.067A4.133,4.133,0,0,1,1006.928,562.415Z" fill="#fff" fill-rule="evenodd"/>
    <circle id="Ellipse_107" data-name="Ellipse 107" cx="6.749" cy="6.749" r="6.749" transform="translate(1014.953 553.632) rotate(-17.348)" fill="#0084ca"/>
    <circle id="Ellipse_108" data-name="Ellipse 108" cx="5.728" cy="5.728" r="5.728" transform="translate(1017.679 552.333)" fill="#0084ca" stroke="#fff" stroke-miterlimit="22.926" stroke-width="0.185" stroke-dasharray="0.369 0.185"/>
    <path id="Tracé_1862" data-name="Tracé 1862" d="M1022.656,561.266l.012-.023a2.2,2.2,0,0,0-.589-1.44,5.169,5.169,0,0,1-.477-.727c-.7-1.348-.6-2.339-.128-2.981a2.436,2.436,0,0,1,2.03-.882,2.521,2.521,0,0,1,2.014.958,2.633,2.633,0,0,1-.173,2.914,3.559,3.559,0,0,1-.539.729c-.279.3-.445.485-.391,1.426l0,.049-.041.028a.853.853,0,0,1-.285.112,2.033,2.033,0,0,1-.39.043,3.179,3.179,0,0,1-.511-.03,2.212,2.212,0,0,1-.385-.085.2.2,0,0,0-.016.039v0c.011.025.065.049.147.07a1.915,1.915,0,0,0,.38.051,2.369,2.369,0,0,0,1-.111.087.087,0,0,1,.105.139,2.454,2.454,0,0,1-1.113.146,2.113,2.113,0,0,1-.415-.056.886.886,0,0,1-.092-.03.181.181,0,0,0-.01.028v0c.011.025.065.049.147.071a1.991,1.991,0,0,0,.38.051,2.365,2.365,0,0,0,1-.112.087.087,0,0,1,.105.139,2.467,2.467,0,0,1-1.113.147,2.107,2.107,0,0,1-.415-.057.587.587,0,0,1-.092-.03.248.248,0,0,0-.01.029v0c.011.024.065.048.147.07a1.911,1.911,0,0,0,.38.051,2.37,2.37,0,0,0,1-.111.087.087,0,1,1,.105.139,2.455,2.455,0,0,1-1.113.146,2.118,2.118,0,0,1-.415-.056.719.719,0,0,1-.092-.031l-.01.028v0c.011.025.065.049.147.071a1.991,1.991,0,0,0,.38.051,2.37,2.37,0,0,0,1-.111.086.086,0,0,1,.122.017.087.087,0,0,1-.017.122.809.809,0,0,1-.311.1.271.271,0,0,1-.2.255.805.805,0,0,1-.3.053.74.74,0,0,1-.3-.061.28.28,0,0,1-.179-.217,1.564,1.564,0,0,1-.234-.041.376.376,0,0,1-.264-.171.173.173,0,0,1-.005-.121.33.33,0,0,1,.031-.076.184.184,0,0,1-.026-.042.173.173,0,0,1-.005-.121.322.322,0,0,1,.031-.077.2.2,0,0,1-.026-.043.17.17,0,0,1-.005-.12.321.321,0,0,1,.031-.077.275.275,0,0,1-.026-.043.173.173,0,0,1-.005-.121.37.37,0,0,1,.033-.08Zm3.744-3.445a.087.087,0,0,1,0-.175c.064,0,.309.038.548.081a4.691,4.691,0,0,1,.511.111.087.087,0,1,1-.063.162c-.05-.019-.261-.062-.479-.1s-.461-.078-.517-.078Zm-.264,1.242a.087.087,0,0,1,.048-.168,3.687,3.687,0,0,1,.5.293,4.317,4.317,0,0,0,.454.273.087.087,0,0,1,.072.1.089.089,0,0,1-.1.071,3,3,0,0,1-.518-.3,4.15,4.15,0,0,0-.453-.272Zm-5.638-.322a.087.087,0,1,1,.091.148c-.083.051-.318.181-.534.3-.117.065-.229.126-.31.172a.087.087,0,0,1-.086-.152l.312-.173c.216-.119.45-.248.527-.295Zm-.095-1.815a.087.087,0,1,1-.025.172c-.187-.027-.353-.049-.519-.068h0c-.165-.018-.333-.035-.525-.051a.087.087,0,0,1-.08-.094.088.088,0,0,1,.095-.08c.189.016.359.033.529.052s.337.041.525.069Zm.237-1.132a.087.087,0,0,1-.063.163,6.52,6.52,0,0,1-.791-.427c-.141-.083-.271-.161-.365-.211a.087.087,0,0,1,.082-.154c.1.056.233.133.372.215a6.444,6.444,0,0,0,.765.414Zm1.268-1.036a.087.087,0,0,1-.107.137,6.6,6.6,0,0,1-.517-.461c-.126-.121-.255-.245-.4-.371a.088.088,0,0,1-.01-.123.086.086,0,0,1,.123-.01c.152.129.283.255.412.378a6.333,6.333,0,0,0,.5.45Zm4.253,1.376c.275-.076.5-.146.709-.215s.4-.14.588-.213a.088.088,0,0,0,.051-.113.087.087,0,0,0-.113-.05c-.195.074-.38.143-.581.21s-.429.138-.7.213a.087.087,0,1,0,.046.168Zm-.789-.829a2.062,2.062,0,0,0,.405-.256c.262-.19.569-.433.639-.5a.088.088,0,0,0,.005-.123.086.086,0,0,0-.123-.005c-.068.062-.368.3-.623.484a2.232,2.232,0,0,1-.345.227.088.088,0,0,0,.042.17Zm-.912-.492a.087.087,0,0,1-.14-.1c.069-.094.276-.454.449-.757h0c.081-.142.154-.271.2-.35a.089.089,0,0,1,.12-.031.088.088,0,0,1,.03.12c-.052.089-.123.212-.2.347h0c-.175.3-.383.669-.46.774Zm-1.141-.183a.087.087,0,0,1-.175,0v-1.224a.087.087,0,0,1,.175,0v1.224Zm.036,4.615a.087.087,0,0,1-.032.068,1,1,0,0,0-.071.3,12.68,12.68,0,0,0,.005,1.436c0,.093.007.171.009.228a3.09,3.09,0,0,0,.432.022c.06,0,.119,0,.175-.011,0-.225,0-.429-.006-.633,0-.248-.007-.5-.007-.7a1.332,1.332,0,0,0-.182-.848h0a.137.137,0,0,0-.095-.051.169.169,0,0,0-.106.042.491.491,0,0,0-.122.151Zm-.179-.029c-.01-.062-.02-.153-.032-.264-.033-.307-.084-.781-.14-1.078-.046,0-.088-.005-.126-.01a.367.367,0,0,1-.333-.251.322.322,0,0,1,.018-.242.2.2,0,0,1,.215-.116c.093.014.2.095.312.288a.687.687,0,0,1,.053.157l.063,0a.925.925,0,0,0,.2-.036c-.126-.089-.153-.184-.128-.264a.247.247,0,0,1,.112-.135.376.376,0,0,1,.159-.051c.122-.01.234.04.245.179a.451.451,0,0,1,0,.09.36.36,0,0,1-.05.148l.032.01a.961.961,0,0,0,.139.032.661.661,0,0,1,.214-.4.188.188,0,0,1,.2-.011h0a.264.264,0,0,1,.114.147.325.325,0,0,1-.078.337.463.463,0,0,1-.288.1l-.029,0a6.012,6.012,0,0,0-.071.609c-.023.3-.032.606-.032.8v0a2.359,2.359,0,0,1,.084.691c0,.253,0,.477.006.7s.006.423.007.608h.007a.836.836,0,0,0,.183-.062c-.049-.968.135-1.169.44-1.5a3.411,3.411,0,0,0,.515-.7,2.473,2.473,0,0,0,.183-2.728,2.349,2.349,0,0,0-1.876-.885,2.261,2.261,0,0,0-1.886.812c-.438.592-.517,1.519.143,2.8a5,5,0,0,0,.462.7,2.365,2.365,0,0,1,.623,1.486,1.7,1.7,0,0,0,.248.064c0-.053,0-.119-.007-.2a12.807,12.807,0,0,1-.005-1.457,1.138,1.138,0,0,1,.1-.381Zm.142-.282.006.063a.448.448,0,0,1,.047-.041.335.335,0,0,1,.217-.078.3.3,0,0,1,.194.082c.005-.155.013-.334.027-.513.016-.214.039-.429.07-.608a1.006,1.006,0,0,1-.152-.035,1.252,1.252,0,0,1-.122-.042l-.025.015a.943.943,0,0,1-.359.094l-.042,0c.058.315.107.764.139,1.061Zm-.354-1.237a.366.366,0,0,0-.027-.07c-.076-.137-.139-.192-.184-.2a.038.038,0,0,0-.036.024.149.149,0,0,0-.006.109.2.2,0,0,0,.188.13l.065.006Zm.611-.134a.187.187,0,0,0,.046-.1.247.247,0,0,0,0-.055c0-.016-.027-.021-.056-.019a.185.185,0,0,0-.083.027.075.075,0,0,0-.036.035c-.009.029.022.069.128.117Zm.519.11a.275.275,0,0,0,.156-.054.151.151,0,0,0,.034-.156.093.093,0,0,0-.035-.051h0c-.005,0-.013,0-.023,0a.465.465,0,0,0-.132.257Zm-.775,4.742a.175.175,0,0,0,.06.043.576.576,0,0,0,.229.045.607.607,0,0,0,.237-.041.147.147,0,0,0,.085-.067A4.12,4.12,0,0,1,1023.319,562.415Z" fill="#fff" fill-rule="evenodd"/>
  </g>
</svg>
