<svg xmlns="http://www.w3.org/2000/svg" xmlns:xlink="http://www.w3.org/1999/xlink" width="7.545" height="7.99" viewBox="0 0 7.545 7.99">
  <defs>
    <linearGradient id="linear-gradient" y1="0.5" x2="1" y2="0.5" gradientUnits="objectBoundingBox">
      <stop offset="0" stop-color="#4b5149"/>
      <stop offset="0.422" stop-color="#286029"/>
      <stop offset="0.994" stop-color="#8ab211"/>
    </linearGradient>
    <linearGradient id="linear-gradient-2" x1="0" y1="0.5" x2="1" y2="0.5" xlink:href="#linear-gradient"/>
  </defs>
  <g id="Groupe_4088" data-name="Groupe 4088" transform="translate(-2208.112 -804.182)">
    <g id="Groupe_4087" data-name="Groupe 4087">
      <g id="Groupe_4085" data-name="Groupe 4085">
        <path id="Tracé_5873" data-name="Tracé 5873" d="M2211.885,808.023a1.921,1.921,0,1,1,1.92-1.921A1.923,1.923,0,0,1,2211.885,808.023Zm0-3.409a1.488,1.488,0,1,0,1.488,1.488A1.49,1.49,0,0,0,2211.885,804.614Z" fill="url(#linear-gradient)"/>
      </g>
      <g id="Groupe_4086" data-name="Groupe 4086">
        <path id="Tracé_5874" data-name="Tracé 5874" d="M2215.442,812.172a.215.215,0,0,1-.216-.216,3.048,3.048,0,0,0-3.045-3.044h-.593a3.048,3.048,0,0,0-3.044,3.044.216.216,0,1,1-.432,0,3.479,3.479,0,0,1,3.476-3.476h.593a3.48,3.48,0,0,1,3.476,3.476A.215.215,0,0,1,2215.442,812.172Z" fill="url(#linear-gradient-2)"/>
      </g>
    </g>
  </g>
</svg>
