<svg xmlns="http://www.w3.org/2000/svg" width="5.655" height="4.849" viewBox="0 0 5.655 4.849">
  <g id="Groupe_4110" data-name="Groupe 4110" transform="translate(-2189.876 -728.099)">
    <path id="Tracé_5886" data-name="Tracé 5886" d="M2190.624,731.878c-.07,0-.118.008-.165.009-.2.005-.3-.07-.32-.267-.054-.566-.1-1.133-.153-1.7-.034-.381-.064-.762-.1-1.142-.026-.241.053-.351.292-.37l3.16-.261c.152-.013.3-.025.457-.044a.287.287,0,0,1,.362.3c.016.2.034.4.052.607.348.019.687.037,1.025.058a.286.286,0,0,1,.3.336q-.078,1.448-.158,2.9c-.006.11-.009.22-.015.33a.3.3,0,0,1-.339.32c-.65-.029-1.3-.062-1.95-.094-.7-.034-1.4-.07-2.093-.1-.3-.013-.4-.1-.382-.4C2190.6,732.2,2190.613,732.045,2190.624,731.878Zm4.36.244c.045-.852.09-1.663.13-2.474a.15.15,0,0,0-.159-.178c-.211-.007-.421-.022-.631-.032q-1.477-.07-2.954-.139c-.188-.008-.221.03-.231.221-.036.692-.074,1.385-.11,2.078-.005.1,0,.194,0,.327.044-.05.064-.076.086-.1.407-.438.813-.878,1.221-1.315a.252.252,0,0,1,.435,0c.147.164.29.331.436.5.2.224.229.227.472.05s.271-.166.458.056Zm-4.533-1.02.041.016a1.159,1.159,0,0,0,.179-.359c.046-.5.066-1,.089-1.5.014-.312.1-.4.409-.387.789.036,1.577.075,2.366.112.1.005.2,0,.308,0-.011-.118-.024-.222-.03-.326-.007-.12-.065-.171-.186-.159-.224.021-.448.039-.672.057q-1.272.1-2.544.2c-.12.009-.168.07-.157.189Q2190.355,730.024,2190.451,731.1Z" fill="#747474"/>
    <path id="Tracé_5887" data-name="Tracé 5887" d="M2194.619,730.152a.438.438,0,1,1-.441-.434A.431.431,0,0,1,2194.619,730.152Z" fill="#747474"/>
  </g>
</svg>
