<svg xmlns="http://www.w3.org/2000/svg" viewBox="0 0 6.57 6.24"><defs><style>.cls-1{fill:#616160;}</style></defs><g id="Calque_2" data-name="Calque 2"><g id="Calque_1-2" data-name="Calque 1"><path class="cls-1" d="M4.82,6.24H.17A.18.18,0,0,1,0,6.07V.17A.18.18,0,0,1,.17,0H4.82A.17.17,0,0,1,5,.17V3.41a.17.17,0,0,1-.16.17.17.17,0,0,1-.17-.17V.34H.34V5.9H4.82A.16.16,0,0,1,5,6.07.17.17,0,0,1,4.82,6.24Z"/><path class="cls-1" d="M3.65,2.3H1.33a.17.17,0,0,1-.17-.17A.17.17,0,0,1,1.33,2H3.65a.16.16,0,0,1,.17.16A.16.16,0,0,1,3.65,2.3Z"/><path class="cls-1" d="M3.65,3.23H1.33a.17.17,0,0,1-.17-.17.18.18,0,0,1,.17-.17H3.65a.17.17,0,0,1,.17.17A.16.16,0,0,1,3.65,3.23Z"/><path class="cls-1" d="M5.09,6.23A1.48,1.48,0,1,1,6.57,4.75,1.47,1.47,0,0,1,5.09,6.23Zm0-2.61A1.14,1.14,0,1,0,6.23,4.75,1.14,1.14,0,0,0,5.09,3.62Z"/><path class="cls-1" d="M5,5.31a.21.21,0,0,1-.12,0l-.46-.47a.16.16,0,0,1,0-.24.18.18,0,0,1,.24,0L5,4.89l.6-.7a.16.16,0,0,1,.24,0,.16.16,0,0,1,0,.23l-.72.85A.23.23,0,0,1,5,5.31Z"/></g></g></svg>