<svg xmlns="http://www.w3.org/2000/svg" width="70.866" height="70.866" viewBox="0 0 70.866 70.866">
  <g id="Groupe_160" data-name="Groupe 160" transform="translate(-617.572 -484.444)">
    <rect id="Rectangle_44" data-name="Rectangle 44" width="70.866" height="70.866" rx="0.326" transform="translate(617.572 484.444)" fill="#d4e5c6"/>
    <g id="Groupe_159" data-name="Groupe 159">
      <g id="Groupe_156" data-name="Groupe 156">
        <path id="Tracé_661" data-name="Tracé 661" d="M672.763,504.429a3.295,3.295,0,1,1-.965-2.329A3.295,3.295,0,0,1,672.763,504.429Z" fill="#ffc913" stroke="#272727" stroke-linecap="round" stroke-linejoin="round" stroke-width="0.567"/>
        <path id="Tracé_662" data-name="Tracé 662" d="M668.525,507.784h1.887a.674.674,0,1,1,0,1.347h-1.887a.674.674,0,1,1,0-1.347Z" fill="#fff" stroke="#272727" stroke-linecap="round" stroke-linejoin="round" stroke-width="0.51"/>
        <rect id="Rectangle_45" data-name="Rectangle 45" width="4.253" height="1.078" rx="0.172" transform="translate(667.342 507.125)" fill="#fff" stroke="#272727" stroke-linecap="round" stroke-linejoin="round" stroke-width="0.51"/>
        <path id="Tracé_663" data-name="Tracé 663" d="M669.561,497.433a.283.283,0,0,0-.279.287V499.4a.284.284,0,0,0,.14.249.284.284,0,0,0,.427-.249V497.72a.283.283,0,0,0-.288-.287Z" fill="#272727" fill-rule="evenodd"/>
        <path id="Tracé_664" data-name="Tracé 664" d="M675.768,502.6a.279.279,0,0,0-.076.011l-1.626.435a.284.284,0,1,0,.147.548l1.626-.436a.283.283,0,0,0-.071-.558Z" fill="#272727" fill-rule="evenodd"/>
        <path id="Tracé_665" data-name="Tracé 665" d="M663.212,502.6a.283.283,0,0,0-.062.558l1.626.436a.284.284,0,1,0,.147-.548l-1.627-.435A.262.262,0,0,0,663.212,502.6Z" fill="#272727" fill-rule="evenodd"/>
      </g>
      <g id="Groupe_158" data-name="Groupe 158">
        <path id="Tracé_666" data-name="Tracé 666" d="M649.706,502.822a19.75,19.75,0,1,0,13.97,33.712.567.567,0,1,0-.8-.8,18.621,18.621,0,1,1,5.3-10.819.567.567,0,1,0,1.125.142,19.749,19.749,0,0,0-19.594-22.233Z" fill="#272727"/>
        <path id="Tracé_667" data-name="Tracé 667" d="M668.081,527.885a.566.566,0,0,0-.531.412,15.739,15.739,0,0,1-2.406,4.795.567.567,0,1,0,.933.644,17.036,17.036,0,0,0,2.559-5.114.567.567,0,0,0-.555-.737Z" fill="#272727"/>
        <g id="Groupe_157" data-name="Groupe 157">
          <path id="Tracé_668" data-name="Tracé 668" d="M648.384,527.844c-.339,0-.339,0-.339-.339v-2c0-1.458,0-1.458.542-2.374a7.585,7.585,0,0,1,1.7-2.068,7.29,7.29,0,0,0,1.7-2.068c.576-.949.576-.949.576-2.441,0-1.7,0-1.7-.78-2.712-.746-1.051-.746-1.051-2-1.051-1.356,0-1.356,0-2.17,1.051-.78,1.051-.78,1.051-.78,2.746v1.051c0,.339,0,.339-.339.339l-1.729-.1c-.339,0-.339,0-.339-.339v-.949c0-2.678,0-2.678,1.492-4.34s1.492-1.661,3.9-1.661c2.373,0,2.373,0,3.763,1.628,1.424,1.627,1.424,1.627,1.424,4.339a4.917,4.917,0,0,1-.407,2.577,3.916,3.916,0,0,1-.915,1.763,10.014,10.014,0,0,1-1.39,1.559,6.182,6.182,0,0,0-1.356,1.56,1.993,1.993,0,0,0-.441,1.627v1.865c0,.339,0,.339-.339.339Zm.915,6.713c-.847,0-.847,0-1.39-.543-.508-.542-.508-.542-.508-1.356,0-.847,0-.847.508-1.356.543-.542.543-.542,1.39-.542.814,0,.814,0,1.356.542.543.509.543.509.543,1.356,0,.814,0,.814-.543,1.356S650.113,534.557,649.3,534.557Z" fill="#272727"/>
        </g>
      </g>
    </g>
  </g>
</svg>
