<svg xmlns="http://www.w3.org/2000/svg" viewBox="0 0 15.57 15.57"><defs><style>.cls-1{fill:#e52629;}</style></defs><g id="Calque_2" data-name="Calque 2"><g id="Calque_1-2" data-name="Calque 1"><path class="cls-1" d="M7.78,9.13l1.53,1.52a.94.94,0,0,0,1.34,0,.93.93,0,0,0,.28-.67,1,1,0,0,0-.28-.67L9.13,7.78l1.52-1.52A.95.95,0,0,0,9.31,4.92L7.78,6.44,6.26,4.92a1,1,0,0,0-.67-.28,1,1,0,0,0-1,1,1,1,0,0,0,.28.67L6.44,7.78,4.92,9.31a1,1,0,0,0-.28.67,1,1,0,0,0,1,.95,1,1,0,0,0,.67-.28Z"/><path class="cls-1" d="M13.29,2.28a7.79,7.79,0,0,0-11,11,7.79,7.79,0,0,0,11-11ZM10.42,14a6.82,6.82,0,0,1-5.27,0A6.69,6.69,0,0,1,3,12.57a6.8,6.8,0,0,1-1.45-2.15A6.62,6.62,0,0,1,1,7.78a6.58,6.58,0,0,1,.53-2.63,6.79,6.79,0,0,1,3.6-3.6A6.58,6.58,0,0,1,7.78,1a6.62,6.62,0,0,1,2.64.53A6.8,6.8,0,0,1,12.57,3a6.73,6.73,0,0,1,2,4.78A6.77,6.77,0,0,1,10.42,14Z"/></g></g></svg>