<svg xmlns="http://www.w3.org/2000/svg" width="38.62" height="38.621" viewBox="0 0 38.62 38.621">
  <g id="Groupe_557" data-name="Groupe 557" transform="translate(-1040.183 -536.358)">
    <g id="Groupe_544" data-name="Groupe 544">
      <g id="Groupe_542" data-name="Groupe 542">
        <path id="Tracé_1732" data-name="Tracé 1732" d="M1078.12,555.668a18.558,18.558,0,0,1-5.921,13.619.293.293,0,0,1-.043.037,17.488,17.488,0,0,1-1.631,1.354q-.469.345-.961.662a18,18,0,0,1-1.867,1.055c-.04.021-.08.04-.117.058a18.328,18.328,0,0,1-2.526,1c-.307.1-.616.184-.929.265a17.9,17.9,0,0,1-1.914.384c-.155.024-.312.045-.473.061-.5.062-1.011.1-1.529.121a.325.325,0,0,1-.043,0l0,0-.005,0c-.222.011-.443.014-.665.014-.147,0-.294,0-.438-.006a18.667,18.667,0,0,1-1.991-.152,18.427,18.427,0,0,1-5.9-1.8c-.5-.248-.988-.52-1.457-.814a18.628,18.628,0,1,1,28.414-15.851Z" fill="#f5f6f5" stroke="#040405" stroke-miterlimit="10" stroke-width="0.298"/>
      </g>
      <g id="Groupe_543" data-name="Groupe 543">
        <path id="Tracé_1733" data-name="Tracé 1733" d="M1059.493,574.83c-.15,0-.3,0-.448-.006a19.561,19.561,0,0,1-2.051-.156,18.8,18.8,0,0,1-2.375-.465,18.9,18.9,0,0,1-3.7-1.392c-.518-.258-1.024-.54-1.5-.839a19.155,19.155,0,1,1,27.966-9.441,19.261,19.261,0,0,1-4.825,7.147.771.771,0,0,1-.062.055,18.258,18.258,0,0,1-1.661,1.376c-.329.241-.661.471-.988.68a18.445,18.445,0,0,1-1.92,1.085l-.084.043-.03.015a19.1,19.1,0,0,1-2.606,1.027c-.314.1-.635.19-.954.272a18.578,18.578,0,0,1-1.971.395c-.158.025-.325.048-.495.065-.508.062-1.015.1-1.537.121l-.017,0a.579.579,0,0,1-.11,0C1059.932,574.827,1059.712,574.83,1059.493,574.83Zm0-37.255a18.095,18.095,0,0,0-9.507,33.49c.451.282.927.547,1.415.79a18.271,18.271,0,0,0,1.746.763,18.157,18.157,0,0,0,3.985.991,18.462,18.462,0,0,0,1.936.147c.344.007.708.01,1.064-.007h.021l.037,0c.5-.018.987-.056,1.484-.117.162-.016.31-.036.455-.059a17.333,17.333,0,0,0,1.864-.374c.3-.077.6-.163.9-.256a18.1,18.1,0,0,0,2.454-.968l.1-.049a17.624,17.624,0,0,0,1.828-1.031c.309-.2.623-.415.935-.644a17.308,17.308,0,0,0,1.582-1.313l.039-.034a18.221,18.221,0,0,0,4.561-6.752,18.105,18.105,0,0,0-16.9-24.574Zm12.33,31.333-.006.005Zm.034-.026Zm0,0h0Z" fill="#f69037" stroke="#040405" stroke-miterlimit="10" stroke-width="0.298"/>
      </g>
    </g>
    <g id="Groupe_554" data-name="Groupe 554">
      <g id="Groupe_545" data-name="Groupe 545">
        <path id="Tracé_1734" data-name="Tracé 1734" d="M1064.141,546.723a.3.3,0,0,1-.11-.183q-.1-.4-.311-1.217l-.336-1.335a.284.284,0,0,1,.043-.228.3.3,0,0,1,.193-.131.282.282,0,0,1,.227.044.3.3,0,0,1,.132.192q.131.579.424,1.764.324-.884.666-1.807a.277.277,0,0,1,.114-.138.305.305,0,0,1,.17-.051.319.319,0,0,1,.193.064.82.82,0,0,1,.166.422l.311.88.193.661q.035-.109.194-.784t.283-1.041a.305.305,0,0,1,.56-.06.3.3,0,0,1,.026.235q-.123.363-.249.871c-.085.338-.141.553-.167.643l-.17.521-.145.495a.319.319,0,0,1-.094.153.268.268,0,0,1-.16.07.282.282,0,0,1-.212-.022.325.325,0,0,1-.147-.171q-.215-.608-.415-1.247c-.073-.228-.141-.414-.2-.56l-.661,1.816a.315.315,0,0,1-.124.155.276.276,0,0,1-.191.042A.245.245,0,0,1,1064.141,546.723Z" fill="#1f69a9" stroke="#040405" stroke-miterlimit="10" stroke-width="0.298"/>
      </g>
      <g id="Groupe_546" data-name="Groupe 546">
        <path id="Tracé_1735" data-name="Tracé 1735" d="M1067.831,546.662a1.016,1.016,0,0,1-.4-.4,1.119,1.119,0,0,1-.138-.552,1.448,1.448,0,0,1,.14-.658,1.077,1.077,0,0,1,.4-.44,1.109,1.109,0,0,1,.6-.162,1.147,1.147,0,0,1,.585.14.912.912,0,0,1,.365.379,1.141,1.141,0,0,1,.123.531.29.29,0,0,1-.1.232.428.428,0,0,1-.258.1q-.328.031-.582.031c-.161,0-.333,0-.517-.013l-.153,0a.5.5,0,0,0,.169.335.623.623,0,0,0,.431.111.705.705,0,0,0,.21-.033.386.386,0,0,0,.14-.085l.075-.074a.288.288,0,0,1,.087-.062.3.3,0,0,1,.118-.021.261.261,0,0,1,.191.076.242.242,0,0,1,.076.177.359.359,0,0,1-.14.267,1.01,1.01,0,0,1-.361.2,1.413,1.413,0,0,1-.449.074A1.211,1.211,0,0,1,1067.831,546.662Zm.647-1.238a2.086,2.086,0,0,0,.443-.04.4.4,0,0,0-.482-.411.651.651,0,0,0-.363.1.439.439,0,0,0-.171.324A3.557,3.557,0,0,0,1068.478,545.424Z" fill="#1f69a9" stroke="#040405" stroke-miterlimit="10" stroke-width="0.298"/>
      </g>
      <g id="Groupe_547" data-name="Groupe 547">
        <path id="Tracé_1736" data-name="Tracé 1736" d="M1070.394,546.737a.293.293,0,0,1-.217.085.306.306,0,0,1-.3-.309q.009,0,0-1.26l0-1.34a.307.307,0,0,1,.613,0c0,.234,0,.524,0,.871s0,.662,0,.944,0,.546,0,.794A.309.309,0,0,1,1070.394,546.737Z" fill="#1f69a9" stroke="#040405" stroke-miterlimit="10" stroke-width="0.298"/>
      </g>
      <g id="Groupe_548" data-name="Groupe 548">
        <path id="Tracé_1737" data-name="Tracé 1737" d="M1071.492,546.737a.29.29,0,0,1-.216.085.3.3,0,0,1-.215-.092.3.3,0,0,1-.088-.217q.009,0,.005-1.26l-.005-1.34a.307.307,0,0,1,.613,0q0,.351,0,.871c0,.348,0,.662,0,.944s0,.546,0,.794A.3.3,0,0,1,1071.492,546.737Z" fill="#1f69a9" stroke="#040405" stroke-miterlimit="10" stroke-width="0.298"/>
      </g>
      <g id="Groupe_549" data-name="Groupe 549">
        <path id="Tracé_1738" data-name="Tracé 1738" d="M1062.379,551.533a.3.3,0,0,1-.21-.1.289.289,0,0,1-.088-.212q0-.2,0-1.258t.009-1.263a.287.287,0,0,1,.1-.206.3.3,0,0,1,.221-.083.245.245,0,0,1,.079-.013c.114-.012.2-.019.252-.022s.143-.007.267-.011a1.665,1.665,0,0,1,.315.015c.086.015.184.035.293.06a1.14,1.14,0,0,1,.309.116,1.265,1.265,0,0,1,.262.188,1.317,1.317,0,0,1,.344.494,1.636,1.636,0,0,1,.112.628,2.068,2.068,0,0,1-.1.626,1.557,1.557,0,0,1-.291.521,1.433,1.433,0,0,1-.46.366,1.938,1.938,0,0,1-.726.153c-.061,0-.171,0-.328,0l-.3,0A.488.488,0,0,1,1062.379,551.533Zm1.138-.692a.858.858,0,0,0,.4-.425,1.218,1.218,0,0,0,.1-.663.851.851,0,0,0-.249-.558.82.82,0,0,0-.431-.193,2.974,2.974,0,0,0-.65-.008q0,.415,0,.639t0,.661c0,.292,0,.505,0,.639.143.006.257.007.342,0A1.384,1.384,0,0,0,1063.517,550.841Z" fill="#1f69a9" stroke="#040405" stroke-miterlimit="10" stroke-width="0.298"/>
      </g>
      <g id="Groupe_550" data-name="Groupe 550">
        <path id="Tracé_1739" data-name="Tracé 1739" d="M1065.229,551.217a1.235,1.235,0,0,1-.263-.63,1.481,1.481,0,0,1,.074-.659,1.227,1.227,0,0,1,.368-.545.7.7,0,0,1,.258-.135l.092-.027a.22.22,0,0,0,.053-.017.3.3,0,0,1,.245.009,2.216,2.216,0,0,1,.551.135.818.818,0,0,1,.276.219.86.86,0,0,1,.16.3,2.071,2.071,0,0,1,.068.328,1.01,1.01,0,0,1-.005.313,1.6,1.6,0,0,1-.1.413,1.265,1.265,0,0,1-.227.379.852.852,0,0,1-.359.254,1.147,1.147,0,0,1-.6.018A.957.957,0,0,1,1065.229,551.217Zm.993-.245a.377.377,0,0,0,.169-.173.878.878,0,0,0,.109-.361.8.8,0,0,0-.028-.361.3.3,0,0,0-.127-.177.493.493,0,0,0-.1-.037c-.032-.007-.078-.015-.138-.022a1.313,1.313,0,0,1-.177-.033c-.05.015-.076.022-.079.022l-.044.017a.667.667,0,0,0-.188.289.807.807,0,0,0-.04.381.6.6,0,0,0,.116.306.409.409,0,0,0,.248.149A.556.556,0,0,0,1066.222,550.972Z" fill="#1f69a9" stroke="#040405" stroke-miterlimit="10" stroke-width="0.298"/>
      </g>
      <g id="Groupe_551" data-name="Groupe 551">
        <path id="Tracé_1740" data-name="Tracé 1740" d="M1069.391,551.463a.274.274,0,0,1-.206.078.277.277,0,0,1-.2-.092.273.273,0,0,1-.079-.2c0-.032,0-.129.011-.289s.012-.285.013-.372,0-.189-.011-.3a1.11,1.11,0,0,0-.048-.277.253.253,0,0,0-.1-.138.384.384,0,0,0-.2-.064.454.454,0,0,0-.225.029.309.309,0,0,0-.151.116.583.583,0,0,0-.02.076c0,.013,0,.033,0,.059,0,.1,0,.286,0,.55s.005.464.005.6a.306.306,0,0,1-.613,0q0-.185-.007-.753t-.037-.871a.3.3,0,0,1,.062-.252.27.27,0,0,1,.214-.094.264.264,0,0,1,.276.227.706.706,0,0,1,.556-.267.78.78,0,0,1,.507.169.917.917,0,0,1,.285.436,1.717,1.717,0,0,1,.068.376,3.737,3.737,0,0,1,.017.383c0,.1-.006.242-.013.414s-.011.259-.011.262A.283.283,0,0,1,1069.391,551.463Z" fill="#1f69a9" stroke="#040405" stroke-miterlimit="10" stroke-width="0.298"/>
      </g>
      <g id="Groupe_552" data-name="Groupe 552">
        <path id="Tracé_1741" data-name="Tracé 1741" d="M1070.442,551.427a1.023,1.023,0,0,1-.4-.4,1.118,1.118,0,0,1-.138-.551,1.453,1.453,0,0,1,.14-.659,1.082,1.082,0,0,1,.4-.44,1.112,1.112,0,0,1,.6-.162,1.155,1.155,0,0,1,.584.14.917.917,0,0,1,.365.379,1.142,1.142,0,0,1,.123.532.289.289,0,0,1-.1.232.441.441,0,0,1-.258.1c-.219.02-.413.031-.582.031s-.333-.005-.516-.014l-.154,0a.5.5,0,0,0,.169.335.626.626,0,0,0,.431.111.673.673,0,0,0,.21-.032.405.405,0,0,0,.14-.086l.075-.074a.286.286,0,0,1,.087-.061.279.279,0,0,1,.118-.022.259.259,0,0,1,.191.076.244.244,0,0,1,.076.178.359.359,0,0,1-.14.266,1,1,0,0,1-.361.2,1.385,1.385,0,0,1-.448.074A1.213,1.213,0,0,1,1070.442,551.427Zm.647-1.238a2.1,2.1,0,0,0,.443-.04.467.467,0,0,0-.112-.3.477.477,0,0,0-.37-.109.644.644,0,0,0-.363.1.437.437,0,0,0-.171.323A3.456,3.456,0,0,0,1071.089,550.189Z" fill="#1f69a9" stroke="#040405" stroke-miterlimit="10" stroke-width="0.298"/>
      </g>
      <g id="Groupe_553" data-name="Groupe 553">
        <path id="Tracé_1742" data-name="Tracé 1742" d="M1072.508,548.762a.306.306,0,1,1,.613,0v1.786a.3.3,0,0,1-.088.216.293.293,0,0,1-.215.092.29.29,0,0,1-.216-.085.3.3,0,0,1-.094-.215Zm.613,2.569a.307.307,0,1,1-.307-.306.314.314,0,0,1,.307.306Z" fill="#1f69a9" stroke="#040405" stroke-miterlimit="10" stroke-width="0.298"/>
      </g>
    </g>
    <g id="Groupe_555" data-name="Groupe 555">
      <circle id="Ellipse_75" data-name="Ellipse 75" cx="6.749" cy="6.749" r="6.749" transform="matrix(0.23, -0.973, 0.973, 0.23, 1044.348, 555.131)" fill="#ffbd00"/>
      <circle id="Ellipse_76" data-name="Ellipse 76" cx="5.728" cy="5.728" r="5.728" transform="translate(1046.738 544.385)" fill="#ffbd00" stroke="#fff" stroke-miterlimit="22.926" stroke-width="0.185" stroke-dasharray="0.369 0.185"/>
      <path id="Tracé_1743" data-name="Tracé 1743" d="M1048.488,550.916a.461.461,0,0,1,.02-.651.839.839,0,0,1,.91.054l1.305,1.183c.317.236.521.375.832.1,1.47-1.324,2.1-1.806,4.876-3.937.436-.334.27-.04.1.17-.805.993-3.148,3.549-4.306,4.8-.754.814-1.09,1.057-1.907.229Z" fill="#fff" fill-rule="evenodd"/>
    </g>
    <g id="Groupe_556" data-name="Groupe 556">
      <circle id="Ellipse_77" data-name="Ellipse 77" cx="6.749" cy="6.749" r="6.749" transform="matrix(0.23, -0.973, 0.973, 0.23, 1054.95, 565.993)" fill="#ffbd00"/>
      <circle id="Ellipse_78" data-name="Ellipse 78" cx="5.728" cy="5.728" r="5.728" transform="translate(1057.34 555.247)" fill="#ffbd00" stroke="#fff" stroke-miterlimit="22.926" stroke-width="0.185" stroke-dasharray="0.369 0.185"/>
      <path id="Tracé_1744" data-name="Tracé 1744" d="M1059.09,561.777a.461.461,0,0,1,.02-.651.839.839,0,0,1,.91.055l1.3,1.183c.317.235.521.375.832.095,1.47-1.323,2.1-1.806,4.876-3.936.436-.334.27-.04.1.169-.806.993-3.149,3.549-4.307,4.8-.754.814-1.09,1.058-1.907.23Z" fill="#fff" fill-rule="evenodd"/>
    </g>
  </g>
</svg>
