<svg xmlns="http://www.w3.org/2000/svg" width="38.62" height="38.621" viewBox="0 0 38.62 38.621">
  <g id="Groupe_611" data-name="Groupe 611" transform="translate(-1040.183 -450.85)">
    <g id="Groupe_608" data-name="Groupe 608">
      <g id="Groupe_605" data-name="Groupe 605">
        <path id="Tracé_1846" data-name="Tracé 1846" d="M1078.12,470.161a18.558,18.558,0,0,1-5.921,13.619.373.373,0,0,1-.043.037,17.8,17.8,0,0,1-1.631,1.354c-.313.229-.633.451-.961.662a18.074,18.074,0,0,1-1.866,1.054c-.041.022-.081.04-.118.059a18.461,18.461,0,0,1-2.526,1c-.307.1-.616.184-.929.264a18.154,18.154,0,0,1-1.914.385c-.155.024-.312.045-.473.061-.5.061-1.011.1-1.529.12a.213.213,0,0,1-.043,0l0,0-.005,0c-.222.01-.443.013-.665.013-.147,0-.294,0-.438-.005a18.956,18.956,0,0,1-1.991-.152c-.55-.072-1.092-.166-1.624-.289-.229-.048-.459-.1-.686-.163a18.423,18.423,0,0,1-1.794-.568,18.662,18.662,0,0,1-1.8-.785c-.5-.249-.988-.521-1.457-.815a18.659,18.659,0,0,1-3.984-3.307,18.047,18.047,0,0,1-1.919-2.505,1.64,1.64,0,0,1-.1-.16h0a17.638,17.638,0,0,1-1.124-2.08,18.286,18.286,0,0,1-.942-2.488v0a18.567,18.567,0,0,1-.686-3.572c-.053-.571-.08-1.151-.08-1.735,0-.363.01-.726.032-1.084a18.627,18.627,0,0,1,37.222,1.084Z" fill="#f5f6f5" stroke="#040405" stroke-miterlimit="10" stroke-width="0.298"/>
      </g>
      <g id="Groupe_606" data-name="Groupe 606">
        <path id="Tracé_1847" data-name="Tracé 1847" d="M1062.394,480.19c0-.187,0-.334,0-.442v-.367l-.645-1.071q-.477-.78-.71-1.218a.424.424,0,0,1-.038-.339.452.452,0,0,1,.558-.306.428.428,0,0,1,.267.219q.213.381.967,1.631l.349-.541.735-1.11a.439.439,0,0,1,.277-.2.422.422,0,0,1,.339.054.454.454,0,0,1,.2.281.425.425,0,0,1-.058.342q-.039.064-.748,1.135c-.254.382-.454.7-.6.96,0,.1.007.316.007.652s0,.58.006.735a.43.43,0,0,1-.123.322.438.438,0,0,1-.316.142.429.429,0,0,1-.322-.122.443.443,0,0,1-.142-.316C1062.4,480.524,1062.4,480.377,1062.394,480.19Z" fill="#d52647" stroke="#040405" stroke-miterlimit="10" stroke-width="0.298"/>
        <path id="Tracé_1848" data-name="Tracé 1848" d="M1064.222,480.451l1.445-3.721a.462.462,0,0,1,.161-.2.456.456,0,0,1,.245-.083.418.418,0,0,1,.28.048.487.487,0,0,1,.21.209l.477,1.187.561,1.386.445,1.161a.431.431,0,0,1,0,.345.441.441,0,0,1-.252.242.463.463,0,0,1-.6-.245l-.374-.851q-.722-.02-1.432.013l-.316.851a.469.469,0,0,1-.251.242.43.43,0,0,1-.348,0,.441.441,0,0,1-.245-.242A.413.413,0,0,1,1064.222,480.451Zm2.251-1.431-.342-.929-.368.929Z" fill="#d52647" stroke="#040405" stroke-miterlimit="10" stroke-width="0.298"/>
        <path id="Tracé_1849" data-name="Tracé 1849" d="M1069.016,480.19c0-.187,0-.334,0-.442v-.367l-.645-1.071q-.477-.78-.709-1.218a.428.428,0,0,1-.039-.339.441.441,0,0,1,.216-.268.445.445,0,0,1,.61.181q.213.381.967,1.631l.348-.541.735-1.11a.441.441,0,0,1,.278-.2.42.42,0,0,1,.338.054.453.453,0,0,1,.2.281.421.421,0,0,1-.058.342q-.037.064-.748,1.135c-.254.382-.453.7-.6.96q.007.148.007.652t.006.735a.425.425,0,0,1-.122.322.439.439,0,0,1-.316.142.431.431,0,0,1-.323-.122.442.442,0,0,1-.141-.316C1069.02,480.524,1069.018,480.377,1069.016,480.19Z" fill="#d52647" stroke="#040405" stroke-miterlimit="10" stroke-width="0.298"/>
        <path id="Tracé_1850" data-name="Tracé 1850" d="M1071.715,476.969a.434.434,0,0,1,.132-.319.45.45,0,0,1,.639,0,.434.434,0,0,1,.132.319V479.6a.452.452,0,0,1-.445.455.429.429,0,0,1-.319-.126.452.452,0,0,1-.139-.316Zm.9,3.785a.452.452,0,1,1-.451-.451.461.461,0,0,1,.451.451Z" fill="#d52647" stroke="#040405" stroke-miterlimit="10" stroke-width="0.298"/>
      </g>
      <g id="Groupe_607" data-name="Groupe 607">
        <path id="Tracé_1851" data-name="Tracé 1851" d="M1059.493,489.322c-.146,0-.292,0-.435-.005a19.7,19.7,0,0,1-2.064-.157c-.6-.079-1.15-.176-1.674-.3-.227-.048-.465-.106-.7-.167a19.259,19.259,0,0,1-1.847-.585,19.02,19.02,0,0,1-1.848-.808c-.518-.257-1.024-.54-1.5-.839a19.225,19.225,0,0,1-4.095-3.4,18.628,18.628,0,0,1-1.975-2.578c-.027-.037-.059-.087-.09-.139l-.015-.022a18.06,18.06,0,0,1-1.158-2.143,18.794,18.794,0,0,1-.969-2.557l-.008-.03a19.228,19.228,0,0,1-.7-3.649c-.055-.586-.082-1.187-.082-1.784,0-.374.011-.749.033-1.116a19.165,19.165,0,1,1,32.2,15.125.8.8,0,0,1-.062.056,18.286,18.286,0,0,1-1.661,1.375c-.326.241-.659.47-.988.681a18.605,18.605,0,0,1-1.92,1.085c-.015.009-.048.025-.08.04l-.033.017a19.121,19.121,0,0,1-2.607,1.028c-.313.1-.635.19-.954.271a18.578,18.578,0,0,1-1.971.4c-.158.025-.325.047-.495.064-.51.062-1.019.1-1.546.122h0a.5.5,0,0,1-.117.005C1059.931,489.319,1059.712,489.322,1059.493,489.322Zm-15.367-9.606a.481.481,0,0,1,.043.065,1.024,1.024,0,0,0,.072.113,17.689,17.689,0,0,0,1.875,2.449,18.121,18.121,0,0,0,3.871,3.214c.451.283.926.548,1.414.791a17.738,17.738,0,0,0,3.489,1.315c.217.056.439.11.66.157.5.115,1.015.207,1.583.281a18.387,18.387,0,0,0,1.935.148c.37.007.711.009,1.064-.008h.024l.033,0c.5-.019.989-.057,1.485-.117.162-.016.31-.037.455-.059a17.773,17.773,0,0,0,1.864-.374c.3-.077.6-.164.9-.257a18.047,18.047,0,0,0,2.454-.967l.1-.048a17.7,17.7,0,0,0,1.829-1.033c.311-.2.625-.416.935-.644a17.2,17.2,0,0,0,1.582-1.312.408.408,0,0,1,.039-.034,18.221,18.221,0,0,0,4.561-6.753,18.1,18.1,0,1,0-34.96-7.534c-.021.347-.031.7-.031,1.054,0,.564.026,1.131.077,1.686a18.13,18.13,0,0,0,.667,3.47l.007.026a17.683,17.683,0,0,0,.907,2.39A17.078,17.078,0,0,0,1044.126,479.716Zm27.7,3.684-.008.007Zm.032-.025h0Zm0,0h0Zm0,0h0Z" fill="#ea7c94" stroke="#040405" stroke-miterlimit="10" stroke-width="0.298"/>
      </g>
    </g>
    <g id="Groupe_609" data-name="Groupe 609">
      <circle id="Ellipse_101" data-name="Ellipse 101" cx="6.749" cy="6.749" r="6.749" transform="translate(1052.672 457.7) rotate(-7.501)" fill="#dc091d"/>
      <circle id="Ellipse_102" data-name="Ellipse 102" cx="5.728" cy="5.728" r="5.728" transform="translate(1054.516 457.782)" fill="#dc091d" stroke="#fff" stroke-miterlimit="22.926" stroke-width="0.185" stroke-dasharray="0.369 0.185"/>
      <path id="Tracé_1852" data-name="Tracé 1852" d="M1060.244,458.838l1.5,2.764,3.092.571-2.166,2.279.412,3.117-2.837-1.355-2.837,1.355.412-3.117-2.166-2.279,3.092-.571Z" fill="#fff" fill-rule="evenodd"/>
    </g>
    <g id="Groupe_610" data-name="Groupe 610">
      <circle id="Ellipse_103" data-name="Ellipse 103" cx="6.749" cy="6.749" r="6.749" transform="translate(1042.796 467.576) rotate(-7.501)" fill="#dc091d"/>
      <circle id="Ellipse_104" data-name="Ellipse 104" cx="5.728" cy="5.728" r="5.728" transform="translate(1044.64 467.658)" fill="#dc091d" stroke="#fff" stroke-miterlimit="22.926" stroke-width="0.185" stroke-dasharray="0.369 0.185"/>
      <path id="Tracé_1853" data-name="Tracé 1853" d="M1050.368,468.714l1.5,2.764,3.092.571-2.166,2.279.412,3.117-2.837-1.355-2.837,1.355.412-3.117-2.166-2.279,3.092-.571Z" fill="#fff" fill-rule="evenodd"/>
    </g>
  </g>
</svg>
