<svg xmlns="http://www.w3.org/2000/svg" width="20.118" height="16.172" viewBox="0 0 20.118 16.172">
  <g id="Groupe_2499" data-name="Groupe 2499" transform="translate(-1353.083 -451.839)">
    <g id="Groupe_2496" data-name="Groupe 2496">
      <path id="Tracé_4133" data-name="Tracé 4133" d="M1368.048,462.707l-1.383,2.369-.121-.121.793-1.927Z" fill="#a86046"/>
      <path id="Tracé_4134" data-name="Tracé 4134" d="M1364.751,462.707l1.383,2.369.121-.121-.794-1.927Z" fill="#a86046"/>
    </g>
    <g id="Groupe_2497" data-name="Groupe 2497">
      <path id="Tracé_4135" data-name="Tracé 4135" d="M1372.356,458.748a21.7,21.7,0,0,0,.688-5.524,2.321,2.321,0,0,0-.109-.826.845.845,0,0,0-.587-.548.858.858,0,0,0-.883.568,2.389,2.389,0,0,0-.088,1.123,37.491,37.491,0,0,0,.943,5.736Z" fill="#e6e6e6"/>
      <path id="Tracé_4136" data-name="Tracé 4136" d="M1372.2,459.517a21.715,21.715,0,0,0-.688,5.524,2.315,2.315,0,0,0,.109.826.843.843,0,0,0,.587.548.857.857,0,0,0,.883-.568,2.388,2.388,0,0,0,.088-1.123,37.511,37.511,0,0,0-.943-5.736Z" fill="#e6e6e6"/>
    </g>
    <path id="Tracé_4137" data-name="Tracé 4137" d="M1361.011,458.349c-.043-.7.163-3.912-.856-3.844-1.175.08-.727,3.009-.732,3.67Z" fill="#a86046"/>
    <path id="Tracé_4138" data-name="Tracé 4138" d="M1371.441,458.276a1.334,1.334,0,0,1,.946.107.743.743,0,1,1-.87,1.2Z" fill="#ffab2b"/>
    <g id="Groupe_2498" data-name="Groupe 2498">
      <path id="Tracé_4139" data-name="Tracé 4139" d="M1369.874,456.051c.117.061.231.125.342.2a3.467,3.467,0,0,1,1.761,3.082,3.672,3.672,0,0,1-.98,2.012,6.813,6.813,0,0,1-1.323,1.152A9.464,9.464,0,0,1,1369.874,456.051Z" fill="#f3f2f2"/>
      <path id="Tracé_4140" data-name="Tracé 4140" d="M1353.125,456.382a1.412,1.412,0,0,1,.924-1.1c.788-.219,1.5.471,2.257.79a3.178,3.178,0,0,0,3.085-.517,3.676,3.676,0,0,0,7.236-.4,12.223,12.223,0,0,1,3.247.9,9.464,9.464,0,0,0-.2,6.441,8.912,8.912,0,0,1-2.912,1.241,16.668,16.668,0,0,1-4.916.283,13.613,13.613,0,0,1-6.153-1.778h-.052a10.444,10.444,0,0,1-2.393-4.359A3.3,3.3,0,0,1,1353.125,456.382Z" fill="#ffab2b"/>
    </g>
    <path id="Tracé_4141" data-name="Tracé 4141" d="M1360.619,460.882l-1.3,4.423a2.423,2.423,0,0,0,.107,2.274,1.6,1.6,0,0,0,1.832.263,4.16,4.16,0,0,0,1.458-1.318,24.8,24.8,0,0,0,3.173-5.325,3.854,3.854,0,0,0-2.363-1.276A4.965,4.965,0,0,0,1360.619,460.882Z" fill="#ef7534"/>
    <path id="Tracé_4142" data-name="Tracé 4142" d="M1355.358,460.481q-.266.794-.53,1.585a2.327,2.327,0,0,0-.17.862.789.789,0,0,0,.451.7,1.179,1.179,0,0,0,1.049-.332l1.621-1.194A2.57,2.57,0,0,0,1355.358,460.481Z" fill="#f3f2f2"/>
    <path id="Tracé_4143" data-name="Tracé 4143" d="M1366.892,466.782c1.174-.657.112-2.486-.993-1.789h0A1.023,1.023,0,0,0,1366.892,466.782Zm-1.17-1.3.546.353a.108.108,0,0,0-.006.024l-.632.145A.732.732,0,0,1,1365.722,465.485Zm1.385.756-.54-.338.594-.127A.746.746,0,0,1,1367.107,466.241Zm-1.093-1.044a.805.805,0,0,1,.174-.083l.148.644-.56-.351a.95.95,0,0,1,.238-.21Zm.773,0-.343.546-.141-.66A.667.667,0,0,1,1366.787,465.2Zm.344.463-.593.137.341-.527A.924.924,0,0,1,1367.131,465.662Zm-.35.915a.965.965,0,0,1-.145.065l-.139-.648.005,0,.546.354A.8.8,0,0,1,1366.781,466.577Zm-.749.005.356-.552h.011l.146.636A.713.713,0,0,1,1366.032,466.582Zm-.379-.483.632-.136.012.017-.344.549A.861.861,0,0,1,1365.653,466.1Z" fill="#a86046"/>
  </g>
</svg>
