<svg xmlns="http://www.w3.org/2000/svg" width="25.512" height="2.749" viewBox="0 0 25.512 2.749">
  <path id="Tracé_4506" data-name="Tracé 4506" d="M1386.762,462.2l-1.57-1.963-1.57,1.963-1.57-1.963-1.57,1.963-1.762-2.2.383-.307,1.379,1.724,1.57-1.963,1.57,1.963,1.57-1.963,1.57,1.963,1.57-1.963,1.571,1.963,1.57-1.963,1.571,1.963,1.571-1.963,1.571,1.963,1.57-1.963,1.571,1.963,1.571-1.963,1.571,1.963,1.38-1.724.383.307-1.763,2.2-1.571-1.963-1.571,1.963-1.571-1.963-1.57,1.963-1.571-1.963-1.571,1.963-1.571-1.963-1.57,1.963-1.571-1.963Z" transform="translate(-1378.719 -459.45)" fill="#369d98"/>
</svg>
