<svg xmlns="http://www.w3.org/2000/svg" width="8.997" height="7.859" viewBox="0 0 8.997 7.859"><path d="M2252.332,951.345c-.616-.772-2.235-.9-2.652.073a1.612,1.612,0,0,0-.771-.558,1.86,1.86,0,0,0-1.981.464c0-.037.008-.073.008-.111a5.843,5.843,0,0,1,.217-2.021,1.029,1.029,0,0,0,.7.24c.524-.024,1.019-.067,1.229-.623a1.523,1.523,0,0,0-.393-1.512.678.678,0,0,0-.723-.259,9.089,9.089,0,0,0-1.092.1c-.6.108-1.1,1.033-1.393,1.528a11.466,11.466,0,0,0-1.787,4.818.107.107,0,0,0,.053.092,7.776,7.776,0,0,0,8.047.342A1.754,1.754,0,0,0,2252.332,951.345Zm-.714,2.433a7.22,7.22,0,0,1-4.213.848,7.84,7.84,0,0,1-2.129-.491,7.26,7.26,0,0,1-1.075-.522c-.435-.258-.226-.791-.124-1.217a10.933,10.933,0,0,1,.923-2.366,11.286,11.286,0,0,1,1.28-2.133,1.659,1.659,0,0,1,.514-.481,2.443,2.443,0,0,1,.914-.149,1.051,1.051,0,0,1,.78.125,1.366,1.366,0,0,1,.406.683.931.931,0,0,1-.226.959,1.4,1.4,0,0,1-.717.174,1.176,1.176,0,0,1-.222.019c-.192-.023-.532-.236-.36-.478.073-.1.386-.153.5-.15a.107.107,0,0,0,0-.214c-.258-.007-.807.145-.843.471a.439.439,0,0,0,0,.08,4.093,4.093,0,0,0-.288,1.558c-.013.287.005.58-.016.866a2.232,2.232,0,0,1-.776,1.326.107.107,0,0,0,.151.152,2.718,2.718,0,0,0,.77-1.145.085.085,0,0,0,.025-.021,1.7,1.7,0,0,1,2-.586,1.2,1.2,0,0,1,.709.637c.032.092.186.112.207,0,.226-1.212,2.074-.879,2.5.014A1.536,1.536,0,0,1,2251.618,953.778Z" transform="translate(-2243.697 -947.03)" fill="#8a8a89"/></svg>