<?xml version="1.0" encoding="utf-8"?>
<!-- Generator: Adobe Illustrator 23.0.1, SVG Export Plug-In . SVG Version: 6.00 Build 0)  -->
<svg version="1.1" id="Calque_1" xmlns="http://www.w3.org/2000/svg" xmlns:xlink="http://www.w3.org/1999/xlink" x="0px" y="0px"
	 viewBox="0 0 87.69 71.69" style="enable-background:new 0 0 87.69 71.69;" xml:space="preserve">
<style type="text/css">
	.st0{fill:#616160;}
	.st1{fill:none;stroke:#6C6C6C;stroke-width:2;stroke-miterlimit:10;}
	.st2{fill:#75B12B;}
	.st3{fill:#E42528;}
	.st4{fill:url(#SVGID_1_);}
	.st5{fill:url(#SVGID_2_);}
	.st6{fill:#404041;}
	.st7{fill-rule:evenodd;clip-rule:evenodd;fill:#404041;}
	.st8{fill:#BBBDBE;}
	.st9{fill:#FFFFFF;}
	.st10{fill:none;stroke:#FFFFFF;stroke-width:0.5;stroke-miterlimit:10;}
	.st11{fill-rule:evenodd;clip-rule:evenodd;fill:#FFFFFF;}
	.st12{fill:#E1E1E1;}
	.st13{fill:#E8441E;}
</style>
<g>
	<g>
		
			<linearGradient id="SVGID_1_" gradientUnits="userSpaceOnUse" x1="28.8096" y1="-54.9018" x2="58.9228" y2="-85.0149" gradientTransform="matrix(1 0 0 -1 0 -34.1102)">
			<stop  offset="0" style="stop-color:#FFD100"/>
			<stop  offset="0.162" style="stop-color:#F59F26"/>
			<stop  offset="0.5503" style="stop-color:#FDC800"/>
			<stop  offset="0.8687" style="stop-color:#F6A620"/>
		</linearGradient>
		<path class="st4" d="M43.81,14.6c11.09-0.16,21.32,8.83,21.3,21.26C65.1,47.68,55.7,57.11,43.85,57.1
			c-12.37-0.01-21.32-10.11-21.26-21.33C22.66,24.04,32.07,14.6,43.81,14.6z M25.44,35.85c0.02,10.21,8.28,18.47,18.45,18.44
			c10.16-0.03,18.42-8.34,18.42-18.52c-0.01-10.16-8.29-18.36-18.54-18.35C33.57,17.44,25.42,25.63,25.44,35.85z"/>
		
			<linearGradient id="SVGID_2_" gradientUnits="userSpaceOnUse" x1="34.6842" y1="-60.8152" x2="52.9947" y2="-79.1256" gradientTransform="matrix(1 0 0 -1 0 -34.1102)">
			<stop  offset="0" style="stop-color:#FFD100"/>
			<stop  offset="0.162" style="stop-color:#F59F26"/>
			<stop  offset="0.5503" style="stop-color:#FDC800"/>
			<stop  offset="0.8687" style="stop-color:#F6A620"/>
		</linearGradient>
		<path class="st5" d="M43.89,46.53c-2.34,0-4.68-0.02-7.03,0.01c-0.71,0.01-1.09-0.22-1.32-0.92c-1.55-4.74-3.14-9.47-4.71-14.2
			c-0.08-0.25-0.33-0.56-0.09-0.76c0.23-0.19,0.51,0.09,0.75,0.2c2.45,1.13,4.9,2.26,7.34,3.43c0.59,0.29,0.85,0.18,1.12-0.4
			c1.13-2.42,2.3-4.82,3.46-7.23c0.1-0.22,0.15-0.56,0.41-0.58c0.35-0.03,0.36,0.37,0.47,0.59c1.16,2.38,2.31,4.76,3.43,7.16
			c0.28,0.61,0.55,0.74,1.18,0.44c2.43-1.18,4.88-2.3,7.33-3.43c0.24-0.11,0.53-0.37,0.75-0.17c0.23,0.21-0.03,0.52-0.11,0.76
			c-1.55,4.68-3.13,9.35-4.65,14.04c-0.27,0.84-0.71,1.1-1.55,1.08C48.41,46.5,46.15,46.53,43.89,46.53z"/>
	</g>
</g>
</svg>
