<svg xmlns="http://www.w3.org/2000/svg" width="13.986" height="7.86" viewBox="0 0 13.986 7.86"><g transform="translate(-2227.582 -947.03)"><path d="M2241.555,951.129c-.008-.122-.025-.243-.029-.365a.657.657,0,0,0-.062-.4c-.144-.191-.405-.165-.624-.16-.006-.32-.013-.64-.013-.96,0-.22.074-.6-.06-.794-.221-.322-.869-.281-1.257-.292,0-.054,0-.108-.008-.162-.071-.826-.52-.955-1.311-.961-.875-.006-1.1.3-1.163,1.16-.048.676-.065,1.358-.075,2.04-.834.069-1.726-.029-2.565-.019-.719.009-1.443.013-2.162.041-.011-.675-.03-1.35-.077-2.021-.059-.85-.286-1.166-1.162-1.16-.611,0-1.239.059-1.318.755-.014.122-.023.245-.03.369-.382.008-.978-.025-1.2.256-.284.358-.153,1.309-.156,1.728v.044a1.3,1.3,0,0,0-.522.039c-.257.109-.161.546-.159.765s-.079.589.206.649a1.927,1.927,0,0,0,.444.032,6.447,6.447,0,0,0,.149,1.531c.148.585.71.582,1.256.593,0,.075.006.153.012.227.065.741.47.79,1.126.8.416.006,1.073.153,1.316-.266a2.25,2.25,0,0,0,.122-.953c.02-.593.015-1.187.009-1.78v-.142c1.562-.019,3.138.059,4.7-.024-.006.53-.008,1.06,0,1.59a3.925,3.925,0,0,0,.059,1.106c.189.559.847.435,1.341.428.558-.009,1.021.028,1.152-.616a2.61,2.61,0,0,0,.047-.412c.519-.01,1.089-.012,1.237-.572a5.252,5.252,0,0,0,.116-1.461,1.1,1.1,0,0,0,.52-.07C2241.608,951.588,2241.569,951.317,2241.555,951.129Zm-13.636.25c-.015-.142,0-.3,0-.437,0-.086,0-.171,0-.256,0-.022.02-.129-.008-.138a1.125,1.125,0,0,1,.215,0c.051,0,.1,0,.154,0-.007.276-.017.565-.022.856A1.384,1.384,0,0,1,2227.919,951.379Zm.777,1.594a4.321,4.321,0,0,1-.048-.775c-.035-.673-.053-1.346-.047-2.019a5.835,5.835,0,0,1,.051-1.255c.109-.453.549-.4.976-.41-.014.741.056,1.5.042,2.233-.018.9-.067,1.851-.03,2.767C2229.14,953.506,2228.834,953.535,2228.7,952.973Zm3.213.9c-.023.345.012.591-.352.675a3.428,3.428,0,0,1-.709,0,.833.833,0,0,1-.862-.58,4.7,4.7,0,0,1,.007-1.033c-.007-.73-.019-1.458,0-2.187.009-.483-.006-.963-.014-1.446-.006-.381.026-.761.023-1.142-.007-.627.415-.771.99-.77a1,1,0,0,1,.8.4,1.816,1.816,0,0,1,.056.678c.019.373.026.747.037,1.12q.033,1.073.045,2.144C2231.93,952.438,2231.956,953.161,2231.909,953.872Zm.329-2.471c0-.277-.005-.554-.008-.831.718-.028,1.44-.032,2.158-.041.837-.01,1.728.087,2.56.019q0,.416-.009.829C2235.379,951.46,2233.8,951.382,2232.238,951.4Zm6.965-2.141c-.012.482-.023.963-.013,1.446.013.683,0,1.365,0,2.049-.009.754.221,1.73-.848,1.746a1.977,1.977,0,0,1-.678-.007c-.479-.212-.392-.582-.4-.972q-.019-1.009-.005-2.02c.009-.7.027-1.4.049-2.1.023-.757-.2-2.061.887-2.053.647.005.9.217,1,.9A5.729,5.729,0,0,1,2239.2,949.26Zm1.319,2.993a3.483,3.483,0,0,1-.04.708c-.136.533-.47.505-.943.512-.006-.338-.036-.683-.031-.995.009-.592.011-1.181,0-1.772-.014-.743.04-1.491.018-2.234a2.64,2.64,0,0,1,.589.051c.355.1.361.132.4.534.045.5.011,1.016.017,1.514C2240.537,951.132,2240.541,951.693,2240.522,952.253Zm.357-.824c-.013-.3-.028-.589-.032-.858v-.052c.073,0,.147,0,.22,0,.108,0,.109-.019.141.065a.971.971,0,0,1,0,.253c.005.091.017.181.024.271.006.073.01.147.009.22a.631.631,0,0,0,0,.077.086.086,0,0,1-.033.009C2241.1,951.416,2240.989,951.426,2240.879,951.429Z" fill="#8a8a89"/><path d="M2230.322,948.156a2.46,2.46,0,0,0-.058,1.2c.025.2.343.2.318,0a2.3,2.3,0,0,1,.046-1.115C2230.707,948.052,2230.4,947.97,2230.322,948.156Z" fill="#8a8a89"/><path d="M2230.761,947.686a.159.159,0,0,0,0,.317A.159.159,0,0,0,2230.761,947.686Z" fill="#8a8a89"/><path d="M2237.689,948.011a1.184,1.184,0,0,0-.143.559,3.6,3.6,0,0,0-.02.686c.018.2.335.2.318,0a3.366,3.366,0,0,1,.009-.57,1.059,1.059,0,0,1,.111-.515C2238.085,948.006,2237.81,947.848,2237.689,948.011Z" fill="#8a8a89"/><path d="M2238.141,947.6a.159.159,0,0,0,0,.318A.159.159,0,0,0,2238.141,947.6Z" fill="#8a8a89"/></g></svg>