<svg xmlns="http://www.w3.org/2000/svg" xmlns:xlink="http://www.w3.org/1999/xlink" width="7.99" height="7.99" viewBox="0 0 7.99 7.99">
  <defs>
    <linearGradient id="linear-gradient" y1="0.5" x2="1" y2="0.5" gradientUnits="objectBoundingBox">
      <stop offset="0" stop-color="#4b5149"/>
      <stop offset="0.422" stop-color="#286029"/>
      <stop offset="0.994" stop-color="#8ab211"/>
    </linearGradient>
    <linearGradient id="linear-gradient-2" x1="0" y1="0.5" x2="0.999" y2="0.5" xlink:href="#linear-gradient"/>
    <linearGradient id="linear-gradient-3" x1="0" y1="0.501" x2="1" y2="0.501" xlink:href="#linear-gradient"/>
  </defs>
  <g id="Groupe_4098" data-name="Groupe 4098" transform="translate(-2149.392 -804.182)">
    <g id="Groupe_4097" data-name="Groupe 4097">
      <g id="Groupe_4093" data-name="Groupe 4093">
        <path id="Tracé_5876" data-name="Tracé 5876" d="M2155.651,812.172h-4.528a1.732,1.732,0,0,1-1.731-1.731v-4.528a1.733,1.733,0,0,1,1.731-1.731h4.528a1.734,1.734,0,0,1,1.731,1.731v4.528A1.733,1.733,0,0,1,2155.651,812.172Zm-4.528-7.558a1.3,1.3,0,0,0-1.3,1.3v4.528a1.3,1.3,0,0,0,1.3,1.3h4.528a1.3,1.3,0,0,0,1.3-1.3v-4.528a1.3,1.3,0,0,0-1.3-1.3Z" fill="url(#linear-gradient)"/>
      </g>
      <g id="Groupe_4096" data-name="Groupe 4096">
        <g id="Groupe_4094" data-name="Groupe 4094">
          <path id="Tracé_5877" data-name="Tracé 5877" d="M2153.387,810.256a.216.216,0,0,1-.216-.215v-3.727a.216.216,0,0,1,.432,0v3.727A.215.215,0,0,1,2153.387,810.256Z" fill="url(#linear-gradient-2)"/>
        </g>
        <g id="Groupe_4095" data-name="Groupe 4095">
          <path id="Tracé_5878" data-name="Tracé 5878" d="M2155.25,808.393h-3.726a.216.216,0,0,1,0-.432h3.726a.216.216,0,1,1,0,.432Z" fill="url(#linear-gradient-3)"/>
        </g>
      </g>
    </g>
  </g>
</svg>
