<svg xmlns="http://www.w3.org/2000/svg" width="2.828" height="5.654" viewBox="0 0 2.828 5.654">
  <g id="Groupe_4112" data-name="Groupe 4112" transform="translate(-2217.846 -727.293)">
    <path id="Tracé_5892" data-name="Tracé 5892" d="M2219.1,732.947a3.825,3.825,0,0,1-.369-.106,1.382,1.382,0,0,1-.881-1.306q0-1.549,0-3.1a1.058,1.058,0,0,1,.9-1.129c.007,0,.013-.01.019-.015h.277a2.263,2.263,0,0,1,.282.091,1.015,1.015,0,0,1,.632.959q.011,1.594,0,3.19a.7.7,0,1,1-1.4.008c-.006-.917,0-1.834,0-2.751a.636.636,0,0,1,.011-.078h.333v2.713c0,.291.135.465.36.465s.358-.174.359-.466q0-1.508,0-3.015a.721.721,0,0,0-.648-.762.707.707,0,0,0-.773.71c-.007,1.063-.011,2.127,0,3.19a1.059,1.059,0,0,0,2.088.242,1.453,1.453,0,0,0,.037-.348q0-1.639,0-3.278v-.157h.348v3.551a1.4,1.4,0,0,1-1.182,1.367.415.415,0,0,0-.068.023Z" fill="#747474"/>
  </g>
</svg>
