<svg xmlns="http://www.w3.org/2000/svg" width="38.62" height="38.621" viewBox="0 0 38.62 38.621">
  <g id="Groupe_587" data-name="Groupe 587" transform="translate(-1040.183 -493.964)">
    <g id="Groupe_584" data-name="Groupe 584">
      <g id="Groupe_579" data-name="Groupe 579">
        <path id="Tracé_1790" data-name="Tracé 1790" d="M1078.12,513.275a18.558,18.558,0,0,1-5.921,13.619.379.379,0,0,1-.043.037c-.141.133-.286.264-.432.39-.385.339-.785.659-1.2.964-.313.229-.633.451-.961.662l-.043.026A17.828,17.828,0,0,1,1067.7,530c-.04.022-.08.04-.117.059a18.461,18.461,0,0,1-2.526,1c-.307.1-.616.184-.929.264a18.161,18.161,0,0,1-1.914.385c-.155.024-.312.045-.473.061-.5.061-1.011.1-1.529.12a.213.213,0,0,1-.043,0l0,0-.005,0c-.222.01-.443.013-.665.013-.147,0-.294,0-.438-.005-.1,0-.2-.006-.3-.011-.134-.005-.267-.011-.4-.021q-.521-.028-1.033-.088l-.256-.032c-.089-.011-.177-.024-.262-.038a17.812,17.812,0,0,1-2.048-.414,18.44,18.44,0,0,1-1.794-.568c-.024-.008-.048-.019-.072-.027a18.471,18.471,0,0,1-1.725-.758c-.5-.249-.988-.521-1.457-.815a18.628,18.628,0,1,1,28.414-15.85Z" fill="#f5f6f5" stroke="#040405" stroke-miterlimit="10" stroke-width="0.298"/>
      </g>
      <g id="Groupe_580" data-name="Groupe 580">
        <path id="Tracé_1791" data-name="Tracé 1791" d="M1047.626,504.006l1.186-3.056a.371.371,0,0,1,.132-.164.38.38,0,0,1,.2-.069.351.351,0,0,1,.231.039.409.409,0,0,1,.172.173l.392.974.461,1.139.365.953a.348.348,0,0,1,0,.283.38.38,0,0,1-.7,0l-.307-.7q-.594-.016-1.176.01l-.259.7a.391.391,0,0,1-.207.2.356.356,0,0,1-.286,0,.367.367,0,0,1-.2-.2A.335.335,0,0,1,1047.626,504.006Zm1.848-1.176-.281-.763-.3.763Z" fill="#0e2969" stroke="#040405" stroke-miterlimit="10" stroke-width="0.298"/>
        <path id="Tracé_1792" data-name="Tracé 1792" d="M1051.47,504.414a.918.918,0,0,1-.185-.377q-.233-.762-.493-1.779a.525.525,0,0,1,0-.273.364.364,0,0,1,.136-.2.375.375,0,0,1,.225-.071.337.337,0,0,1,.344.312q.1.467.265,1.081l.037.137q.074-.211.185-.667l.138-.5a.462.462,0,0,1,.145-.238.343.343,0,0,1,.22-.08.35.35,0,0,1,.217.072.4.4,0,0,1,.138.225l.334,1.133.222-1.112q.074-.36.371-.36a.291.291,0,0,1,.275.148.486.486,0,0,1,.037.36q-.276,1.224-.508,1.986a.428.428,0,0,1-.154.225.387.387,0,0,1-.233.077.354.354,0,0,1-.225-.077.419.419,0,0,1-.14-.2l-.376-1.144-.3,1.033q-.117.4-.418.4A.355.355,0,0,1,1051.47,504.414Z" fill="#0e2969" stroke="#040405" stroke-miterlimit="10" stroke-width="0.298"/>
        <path id="Tracé_1793" data-name="Tracé 1793" d="M1054.987,504.371a1.236,1.236,0,0,1-.485-.482,1.356,1.356,0,0,1-.167-.667,1.751,1.751,0,0,1,.17-.8,1.306,1.306,0,0,1,.487-.533,1.35,1.35,0,0,1,.72-.2,1.4,1.4,0,0,1,.708.169,1.108,1.108,0,0,1,.442.458,1.388,1.388,0,0,1,.148.644.349.349,0,0,1-.117.28.531.531,0,0,1-.312.117c-.265.024-.5.037-.7.037s-.4-.005-.625-.016l-.186,0a.606.606,0,0,0,.2.4.758.758,0,0,0,.522.135.86.86,0,0,0,.254-.04.494.494,0,0,0,.17-.1l.089-.09a.349.349,0,0,1,.107-.074.335.335,0,0,1,.143-.027.313.313,0,0,1,.23.093.294.294,0,0,1,.093.214.438.438,0,0,1-.17.323,1.216,1.216,0,0,1-.437.244,1.689,1.689,0,0,1-.543.09A1.478,1.478,0,0,1,1054.987,504.371Zm.784-1.5a2.558,2.558,0,0,0,.534-.047.561.561,0,0,0-.134-.366.581.581,0,0,0-.448-.132.777.777,0,0,0-.439.122.53.53,0,0,0-.207.392A4.34,4.34,0,0,0,1055.771,502.872Z" fill="#0e2969" stroke="#040405" stroke-miterlimit="10" stroke-width="0.298"/>
        <path id="Tracé_1794" data-name="Tracé 1794" d="M1058.013,504.482a1.124,1.124,0,0,1-.368-.164.908.908,0,0,1-.2-.238l-.037-.064-.048-.084a.365.365,0,0,1-.047-.165.316.316,0,0,1,.114-.241.368.368,0,0,1,.256-.1.326.326,0,0,1,.286.159l.064.106.032.063a.221.221,0,0,0,.122.1.829.829,0,0,0,.238.042,1.29,1.29,0,0,0,.185-.016c.187-.038.285-.1.291-.174v-.021a.171.171,0,0,0-.058-.122,1.186,1.186,0,0,0-.317-.164l-.234-.09a2.512,2.512,0,0,1-.28-.112.935.935,0,0,1-.5-.413.694.694,0,0,1-.08-.312.55.55,0,0,1,.053-.238.833.833,0,0,1,.493-.419,1.411,1.411,0,0,1,.524-.1c.035,0,.088,0,.159.011a1.394,1.394,0,0,1,.815.366.3.3,0,0,1,.112.243.368.368,0,0,1-.1.249.31.31,0,0,1-.241.111.4.4,0,0,1-.223-.074l-.127-.1a.706.706,0,0,0-.132-.08.966.966,0,0,0-.3-.053.848.848,0,0,0-.228.027c-.046.018-.069.042-.069.074a.063.063,0,0,0,.035.053c.023.014.061.033.114.058a2.725,2.725,0,0,0,.275.1,2.041,2.041,0,0,1,.249.1l.188.082a1.221,1.221,0,0,1,.215.125.878.878,0,0,1,.275.288.748.748,0,0,1,.1.384.737.737,0,0,1-.3.615,1.378,1.378,0,0,1-.6.233,1.909,1.909,0,0,1-.244.016A1.76,1.76,0,0,1,1058.013,504.482Z" fill="#0e2969" stroke="#040405" stroke-miterlimit="10" stroke-width="0.298"/>
        <path id="Tracé_1795" data-name="Tracé 1795" d="M1060.3,504.117a1.5,1.5,0,0,1-.318-.763,1.766,1.766,0,0,1,.09-.8,1.473,1.473,0,0,1,.445-.659.84.84,0,0,1,.312-.164s.041-.011.112-.032a.326.326,0,0,0,.063-.021.362.362,0,0,1,.3.01,2.652,2.652,0,0,1,.667.165.965.965,0,0,1,.334.264,1.037,1.037,0,0,1,.193.358,2.567,2.567,0,0,1,.082.4,1.223,1.223,0,0,1-.005.379,2.023,2.023,0,0,1-.117.5,1.524,1.524,0,0,1-.275.458,1.022,1.022,0,0,1-.434.307,1.375,1.375,0,0,1-.726.022A1.16,1.16,0,0,1,1060.3,504.117Zm1.2-.3a.456.456,0,0,0,.2-.209,1.062,1.062,0,0,0,.132-.437.966.966,0,0,0-.034-.437.364.364,0,0,0-.154-.214.61.61,0,0,0-.127-.045c-.039-.009-.094-.018-.167-.027a1.711,1.711,0,0,1-.214-.039l-.095.026-.053.021a.8.8,0,0,0-.228.35.97.97,0,0,0-.048.46.716.716,0,0,0,.141.371.49.49,0,0,0,.3.18A.674.674,0,0,0,1061.506,503.82Z" fill="#0e2969" stroke="#040405" stroke-miterlimit="10" stroke-width="0.298"/>
        <path id="Tracé_1796" data-name="Tracé 1796" d="M1065.3,504.414a.334.334,0,0,1-.249.1.346.346,0,0,1-.244-.111.331.331,0,0,1-.1-.249c0-.06.009-.165.016-.313l.01-.307c0-.088,0-.2,0-.331a3.182,3.182,0,0,0-.021-.326.206.206,0,0,1-.005-.042,1.4,1.4,0,0,0-.042-.2.323.323,0,0,0-.127-.167.474.474,0,0,0-.239-.077.555.555,0,0,0-.272.035.366.366,0,0,0-.183.14c0,.011-.009.03-.016.058v.021q.01.964.01,1.489a.37.37,0,1,1-.741,0q0-.5-.016-2.055a.376.376,0,0,1,.366-.376.375.375,0,0,1,.259.1,1.241,1.241,0,0,1,.651-.112,1.15,1.15,0,0,1,.689.292,1.139,1.139,0,0,1,.434-.234,1.349,1.349,0,0,1,.482-.047,1.259,1.259,0,0,1,.6.217.958.958,0,0,1,.375.514,2.154,2.154,0,0,1,.083.479c.016.2.022.355.021.466s-.007.269-.016.474-.013.309-.013.312a.343.343,0,0,1-.112.244.326.326,0,0,1-.248.1.338.338,0,0,1-.244-.111.332.332,0,0,1-.1-.249c0-.042.005-.158.014-.347s.014-.329.016-.421,0-.215-.014-.37a1.508,1.508,0,0,0-.058-.361.311.311,0,0,0-.127-.166.47.47,0,0,0-.238-.077.561.561,0,0,0-.273.034.382.382,0,0,0-.183.141c0,.01-.009.03-.016.058v.032l-.01.042v.032c0,.032-.007.06-.011.085.011.109.018.241.021.4s0,.281,0,.376-.008.206-.015.331-.011.206-.011.241A.349.349,0,0,1,1065.3,504.414Z" fill="#0e2969" stroke="#040405" stroke-miterlimit="10" stroke-width="0.298"/>
        <path id="Tracé_1797" data-name="Tracé 1797" d="M1068.173,504.371a1.234,1.234,0,0,1-.484-.482,1.356,1.356,0,0,1-.167-.667,1.751,1.751,0,0,1,.169-.8,1.315,1.315,0,0,1,.488-.533,1.347,1.347,0,0,1,.72-.2,1.393,1.393,0,0,1,.707.169,1.106,1.106,0,0,1,.442.458,1.388,1.388,0,0,1,.149.644.349.349,0,0,1-.117.28.535.535,0,0,1-.313.117c-.264.024-.5.037-.7.037s-.4-.005-.625-.016l-.185,0a.6.6,0,0,0,.2.4.753.753,0,0,0,.521.135.874.874,0,0,0,.255-.04.49.49,0,0,0,.169-.1l.09-.09a.346.346,0,0,1,.106-.074.337.337,0,0,1,.143-.027.311.311,0,0,1,.23.093.294.294,0,0,1,.093.214.44.44,0,0,1-.169.323,1.216,1.216,0,0,1-.437.244,1.7,1.7,0,0,1-.543.09A1.48,1.48,0,0,1,1068.173,504.371Zm.784-1.5a2.567,2.567,0,0,0,.535-.047.567.567,0,0,0-.135-.366.579.579,0,0,0-.448-.132.78.78,0,0,0-.439.122.533.533,0,0,0-.207.392A4.353,4.353,0,0,0,1068.957,502.872Z" fill="#0e2969" stroke="#040405" stroke-miterlimit="10" stroke-width="0.298"/>
        <path id="Tracé_1798" data-name="Tracé 1798" d="M1070.673,501.146a.37.37,0,1,1,.741,0v2.161a.37.37,0,0,1-.365.373.352.352,0,0,1-.262-.1.364.364,0,0,1-.114-.26Zm.741,3.109a.371.371,0,1,1-.37-.371.379.379,0,0,1,.37.371Z" fill="#0e2969" stroke="#040405" stroke-miterlimit="10" stroke-width="0.298"/>
      </g>
      <g id="Groupe_581" data-name="Groupe 581">
        <path id="Tracé_1799" data-name="Tracé 1799" d="M1071.556,510.5c-.01.039-.015.072-.026.1l-.447,1.314c-.019.056-.04.112-.061.167a.792.792,0,0,1-.046.1c-.037.063-.082.115-.165.1s-.111-.059-.122-.158c-.011-.115-.018-.23-.027-.346-.026-.336-.054-.671-.077-1.007-.008-.115,0-.231-.005-.355l-.1.012c-.219.026-.438.056-.658.077-.28.028-.559.051-.839.073a1.453,1.453,0,0,1-.2,0,.351.351,0,0,1-.106-.022.14.14,0,0,1-.062-.227.757.757,0,0,1,.138-.127q.6-.444,1.2-.884c.12-.087.122-.084.1-.229-.087-.521-.181-1.041-.231-1.568-.007-.079-.013-.158-.017-.237a.471.471,0,0,1,.007-.118.144.144,0,0,1,.219-.107.9.9,0,0,1,.186.146c.17.167.336.336.5.507.251.258.5.518.75.777.027.028.056.055.093.091.122-.067.245-.131.363-.2.173-.1.342-.214.514-.319a2.071,2.071,0,0,1,.193-.1.146.146,0,0,1,.168.015.149.149,0,0,1,.038.164,1.252,1.252,0,0,1-.06.168c-.171.394-.343.788-.52,1.18a.169.169,0,0,0,.012.182c.1.157.2.317.305.475a6.673,6.673,0,0,1,.437.788.517.517,0,0,1,.043.131.141.141,0,0,1-.2.169.968.968,0,0,1-.153-.072,12.25,12.25,0,0,1-1.07-.623A.819.819,0,0,0,1071.556,510.5Zm-.671,1.248.022,0c.063-.191.127-.382.189-.573.1-.3.193-.591.291-.885a.109.109,0,0,1,.193-.048.585.585,0,0,0,.107.086q.507.293,1.015.582a.324.324,0,0,0,.053.015c-.014-.033-.023-.053-.033-.074-.194-.4-.463-.754-.689-1.134a.236.236,0,0,1-.016-.241c.165-.368.327-.738.489-1.107.013-.029.023-.059.039-.1a.913.913,0,0,0-.1.046c-.093.057-.184.116-.277.174a3.56,3.56,0,0,1-.564.288.184.184,0,0,1-.21-.039c-.019-.018-.037-.038-.056-.057q-.506-.523-1.012-1.047c-.092-.094-.186-.186-.3-.294,0,.054,0,.087.006.119.045.347.089.694.138,1.041.034.238.076.476.111.714a.16.16,0,0,1-.065.173c-.41.3-.817.606-1.224.911a.851.851,0,0,0-.067.061c.057,0,.089,0,.122-.006.128-.013.256-.03.384-.039a9.021,9.021,0,0,0,1.171-.131.274.274,0,0,1,.05,0,.14.14,0,0,1,.153.136c0,.029,0,.059,0,.089,0,.132-.007.264,0,.4.015.25.039.5.06.751Z" fill="#ffc83e" stroke="#040405" stroke-miterlimit="10" stroke-width="0.298"/>
      </g>
      <g id="Groupe_582" data-name="Groupe 582">
        <path id="Tracé_1800" data-name="Tracé 1800" d="M1047.121,510.457c-.341.235-.709.423-1.071.623a.954.954,0,0,1-.152.071.141.141,0,0,1-.2-.168.562.562,0,0,1,.044-.131,6.726,6.726,0,0,1,.436-.789c.1-.158.2-.317.306-.474a.168.168,0,0,0,.011-.183c-.177-.391-.348-.785-.52-1.179a1.468,1.468,0,0,1-.06-.168.149.149,0,0,1,.039-.164.142.142,0,0,1,.167-.015,1.967,1.967,0,0,1,.194.1c.172.1.34.215.513.319.118.071.241.134.364.2.037-.037.065-.063.092-.092l.75-.777c.166-.17.333-.34.5-.506a.9.9,0,0,1,.186-.146.143.143,0,0,1,.218.106.468.468,0,0,1,.007.118c0,.08-.009.159-.017.238-.049.526-.144,1.046-.23,1.568-.024.144-.022.141.1.229q.6.439,1.195.884a.748.748,0,0,1,.137.127.139.139,0,0,1-.062.226.3.3,0,0,1-.106.022,1.631,1.631,0,0,1-.2,0c-.279-.023-.559-.045-.838-.073-.22-.022-.439-.051-.659-.077l-.1-.012c0,.124,0,.24,0,.354-.023.336-.052.672-.078,1.008-.009.115-.015.231-.027.346-.01.1-.05.147-.121.158a.16.16,0,0,1-.165-.1.6.6,0,0,1-.046-.1c-.022-.055-.042-.111-.061-.168-.15-.437-.3-.876-.448-1.314-.01-.031-.016-.063-.026-.1A.8.8,0,0,0,1047.121,510.457Zm.761,1.011c.02-.25.044-.5.06-.751.008-.131,0-.264,0-.4a.656.656,0,0,1,0-.089.14.14,0,0,1,.153-.135.262.262,0,0,1,.049,0,9.044,9.044,0,0,0,1.171.13c.129.01.257.027.385.04.032,0,.065,0,.122.005-.033-.03-.049-.047-.067-.061-.408-.3-.814-.61-1.225-.911a.163.163,0,0,1-.065-.173c.035-.238.078-.475.111-.713.049-.347.093-.694.139-1.042,0-.031,0-.064.005-.118-.108.108-.2.2-.294.294q-.507.522-1.013,1.047c-.018.019-.036.039-.055.057a.185.185,0,0,1-.21.039,3.54,3.54,0,0,1-.565-.289c-.092-.057-.184-.117-.277-.174a.934.934,0,0,0-.1-.045c.016.042.027.072.039.1.163.369.324.739.489,1.107a.236.236,0,0,1-.015.24c-.226.381-.495.735-.69,1.135-.01.02-.018.041-.033.074a.277.277,0,0,0,.053-.015c.339-.194.678-.387,1.015-.583a.621.621,0,0,0,.108-.085.109.109,0,0,1,.193.047c.1.3.193.591.29.886l.19.573.022,0C1047.872,511.6,1047.876,511.533,1047.882,511.468Z" fill="#ffc83e" stroke="#040405" stroke-miterlimit="10" stroke-width="0.298"/>
      </g>
      <g id="Groupe_583" data-name="Groupe 583">
        <path id="Tracé_1801" data-name="Tracé 1801" d="M1059.493,532.436c-.15,0-.3,0-.447,0-.111,0-.217-.006-.321-.012-.146-.006-.28-.011-.414-.022-.346-.019-.705-.049-1.053-.09l-.261-.033c-.092-.011-.186-.025-.277-.039a18.758,18.758,0,0,1-2.1-.425,19.143,19.143,0,0,1-1.846-.585l-.043-.016-.032-.012a18.835,18.835,0,0,1-1.774-.78c-.516-.256-1.022-.539-1.5-.839a19.154,19.154,0,1,1,27.965-9.44,19.258,19.258,0,0,1-4.825,7.146.567.567,0,0,1-.063.056q-.211.2-.429.387c-.379.334-.8.668-1.23.988-.328.241-.661.471-.989.681l-.027.017-.027.017a18.36,18.36,0,0,1-1.866,1.051l-.077.039-.035.017a19.154,19.154,0,0,1-2.608,1.029c-.312.1-.634.189-.954.271a18.571,18.571,0,0,1-1.971.4c-.159.025-.326.047-.5.064-.506.062-1.015.1-1.545.122h0a.49.49,0,0,1-.115.005C1059.932,532.433,1059.712,532.436,1059.493,532.436Zm-6.415-2.237.041.015.028.011a18.2,18.2,0,0,0,1.743.552,17.559,17.559,0,0,0,1.987.4c.087.013.169.026.251.035l.258.033c.323.038.659.066,1,.085.134.01.255.015.375.02s.215.008.312.011c.339.006.706.01,1.063-.008h.024l.033,0c.506-.018.992-.056,1.485-.116.162-.016.31-.037.455-.059a17.824,17.824,0,0,0,1.864-.374c.3-.078.6-.164.9-.257a17.929,17.929,0,0,0,2.455-.967l.1-.049a17.431,17.431,0,0,0,1.786-1.006l.061-.037c.291-.188.6-.4.916-.633.409-.3.8-.615,1.162-.934.146-.125.283-.25.419-.378l.041-.035a18.219,18.219,0,0,0,4.56-6.752,18.1,18.1,0,1,0-26.405,8.916c.453.283.929.549,1.415.791a18.009,18.009,0,0,0,1.677.737Zm18.745-3.684-.007.006Zm.039-.03h0Zm0,0h0Z" fill="#ffc83e" stroke="#040405" stroke-miterlimit="10" stroke-width="0.298"/>
      </g>
    </g>
    <g id="Groupe_585" data-name="Groupe 585">
      <circle id="Ellipse_89" data-name="Ellipse 89" cx="6.749" cy="6.749" r="6.749" transform="translate(1058.241 513.958) rotate(-11.987)" fill="#ffbd00"/>
      <circle id="Ellipse_90" data-name="Ellipse 90" cx="5.728" cy="5.728" r="5.728" transform="translate(1058.992 515.549) rotate(-18.542)" fill="#ffbd00" stroke="#fff" stroke-miterlimit="22.926" stroke-width="0.185" stroke-dasharray="0.369 0.185"/>
      <path id="Tracé_1802" data-name="Tracé 1802" d="M1063.246,517.718l.755,1.392,1.557.288-1.091,1.148.208,1.57-1.429-.683-1.429.683.208-1.57-1.091-1.148,1.557-.288Z" fill="#fff" fill-rule="evenodd"/>
      <path id="Tracé_1803" data-name="Tracé 1803" d="M1069.05,517.718l.755,1.392,1.557.288-1.091,1.148.208,1.57-1.429-.683-1.429.683.208-1.57-1.091-1.148,1.557-.288Z" fill="#fff" fill-rule="evenodd"/>
      <path id="Tracé_1804" data-name="Tracé 1804" d="M1066.244,513.758l.755,1.392,1.557.288-1.091,1.148.208,1.57-1.429-.683-1.429.683.208-1.57-1.091-1.148,1.557-.288Z" fill="#fff" fill-rule="evenodd"/>
    </g>
    <g id="Groupe_586" data-name="Groupe 586">
      <circle id="Ellipse_91" data-name="Ellipse 91" cx="6.749" cy="6.749" r="6.749" transform="translate(1043.939 513.958) rotate(-11.987)" fill="#ffbd00"/>
      <circle id="Ellipse_92" data-name="Ellipse 92" cx="5.728" cy="5.728" r="5.728" transform="translate(1044.69 515.549) rotate(-18.542)" fill="#ffbd00" stroke="#fff" stroke-miterlimit="22.926" stroke-width="0.185" stroke-dasharray="0.369 0.185"/>
      <path id="Tracé_1805" data-name="Tracé 1805" d="M1048.944,517.718l.755,1.392,1.557.288-1.091,1.148.208,1.57-1.429-.683-1.429.683.208-1.57-1.091-1.148,1.557-.288Z" fill="#fff" fill-rule="evenodd"/>
      <path id="Tracé_1806" data-name="Tracé 1806" d="M1054.748,517.718l.755,1.392,1.557.288-1.091,1.148.208,1.57-1.429-.683-1.429.683.208-1.57-1.091-1.148,1.557-.288Z" fill="#fff" fill-rule="evenodd"/>
      <path id="Tracé_1807" data-name="Tracé 1807" d="M1051.942,513.758l.755,1.392,1.557.288-1.091,1.148.208,1.57-1.429-.683-1.429.683.208-1.57-1.091-1.148,1.557-.288Z" fill="#fff" fill-rule="evenodd"/>
    </g>
  </g>
</svg>
