<svg xmlns="http://www.w3.org/2000/svg" xmlns:xlink="http://www.w3.org/1999/xlink" width="4.868" height="5.669" viewBox="0 0 4.868 5.669">
  <defs>
    <linearGradient id="linear-gradient" x1="0.5" y1="1" x2="0.5" gradientUnits="objectBoundingBox">
      <stop offset="0.087" stop-color="#286029"/>
      <stop offset="0.556" stop-color="#286029"/>
      <stop offset="0.994" stop-color="#8ab211"/>
    </linearGradient>
  </defs>
  <path id="Tracé_6220" data-name="Tracé 6220" d="M2519.736,1534.025h4.061a.4.4,0,0,0,.4-.4v-.37h-4.868v.37a.4.4,0,0,0,.4.4Zm4.465-1.054v-.651a.4.4,0,0,0-.091-.254.445.445,0,0,1-.351.177.532.532,0,0,0-.154-.152c-.177-.117-.408.254-.616.254-.25,0-.4-.363-.616-.253a1.286,1.286,0,0,1-1.213,0c-.219-.11-.366.253-.616.253-.208,0-.439-.371-.616-.254a.52.52,0,0,0-.154.152.446.446,0,0,1-.351-.177.4.4,0,0,0-.09.254v.651Zm-3.387-3.4s-.241-.334.034-.334.051.326.053.329c.056-.044.1-.076.126-.1.115-.108.027-.243-.015-.393s-.043-.331-.107-.331c-.175-.01-.342.476-.3.6,0,.074.131.156.208.229Zm-.259,1.127h.59v-.6a.3.3,0,1,0-.59,0v.6Zm.917,0h.59v-1.027a.3.3,0,1,0-.59,0v1.027Zm.916,0h.59v-.6a.3.3,0,1,0-.59,0v.6Zm-2.614,1.222a.448.448,0,0,1,.006-.9h3.973a.448.448,0,0,1,.006.9.508.508,0,0,0-.154-.152c-.177-.118-.408.253-.616.253-.25,0-.4-.362-.616-.253a1.286,1.286,0,0,1-1.213,0c-.219-.109-.366.253-.616.253-.208,0-.439-.371-.616-.253a.52.52,0,0,0-.154.152Zm2.882-2.349s-.241-.334.034-.334.05.326.053.329c.056-.044.1-.076.126-.1.115-.108.026-.243-.015-.393s-.043-.331-.107-.331c-.176-.01-.343.476-.3.6,0,.074.132.156.209.229Zm-.917-.383s-.24-.334.034-.334.051.326.054.329c.055-.044.1-.076.125-.1.116-.108.027-.243-.015-.393s-.043-.331-.107-.331c-.175-.01-.342.476-.3.6C2521.531,1529.033,2521.662,1529.115,2521.739,1529.188Z" transform="translate(-2519.333 -1528.356)" fill-rule="evenodd" fill="url(#linear-gradient)"/>
</svg>
