<svg xmlns="http://www.w3.org/2000/svg" width="22.699" height="16.384" viewBox="0 0 22.699 16.384">
  <g id="Groupe_2501" data-name="Groupe 2501" transform="translate(-1473.87 -454.789)">
    <g id="Groupe_2500" data-name="Groupe 2500">
      <rect id="Rectangle_2291" data-name="Rectangle 2291" width="0.318" height="1.973" transform="matrix(0.995, -0.103, 0.103, 0.995, 1484.074, 468.761)" fill="#171716"/>
      <rect id="Rectangle_2292" data-name="Rectangle 2292" width="2.05" height="0.318" transform="matrix(0.111, -0.994, 0.994, 0.111, 1486.793, 470.738)" fill="#171716"/>
      <path id="Tracé_4144" data-name="Tracé 4144" d="M1488.735,471.173h-.008l-4.746-.146a2.946,2.946,0,0,1-1.455-.306A1.2,1.2,0,0,1,1482,469.2a.265.265,0,0,1,.466.252.68.68,0,0,0,.335.809,2.5,2.5,0,0,0,1.2.232l4.746.146a.265.265,0,0,1-.008.53Z" fill="#171716"/>
    </g>
    <path id="Tracé_4145" data-name="Tracé 4145" d="M1482.489,455.983c1.005-.357,8.025-2.278,8.53-.342s-7.471.573-8.412.646Z" fill="#f3f2f2"/>
    <path id="Tracé_4146" data-name="Tracé 4146" d="M1482.419,456.24c-1.024.3-8.145,1.8-8.535-.164s7.492-.129,8.436-.146Z" fill="#e6e6e6"/>
    <path id="Tracé_4147" data-name="Tracé 4147" d="M1481.468,457.069a2.511,2.511,0,0,1,.17-.92.756.756,0,0,1,1.4-.1,2.518,2.518,0,0,1,.279.788Z" fill="#171716"/>
    <path id="Tracé_4148" data-name="Tracé 4148" d="M1487.335,459.232a4.729,4.729,0,0,0-8.848.814c-1.451,4.984,1.89,8.768,6.684,8.9.162.005.328.009.5.012l3.185-4.939C1487.824,462.755,1488.032,460.62,1487.335,459.232Z" fill="#7bc2bf"/>
    <path id="Tracé_4149" data-name="Tracé 4149" d="M1493.851,462.338a2.657,2.657,0,0,1-2.057,2.538l.713,2.024A5.645,5.645,0,0,0,1493.851,462.338Z" fill="#7bc2bf"/>
    <path id="Tracé_4150" data-name="Tracé 4150" d="M1489.508,464.588a2.475,2.475,0,0,1-.656-.57l-3.185,4.939a11.416,11.416,0,0,0,5.214-.786l-.5-3.24A2.857,2.857,0,0,1,1489.508,464.588Z" fill="#ffab2b"/>
    <path id="Tracé_4151" data-name="Tracé 4151" d="M1490.378,464.931l.5,3.24a4.607,4.607,0,0,0,.746-.465,6.816,6.816,0,0,0,.88-.806l-.713-2.024A2.9,2.9,0,0,1,1490.378,464.931Z" fill="#369d98"/>
    <path id="Tracé_4152" data-name="Tracé 4152" d="M1493.992,463.287c-2.221,2.935-2.389-.419-.148-.147Z" fill="#e6e6e6"/>
    <path id="Tracé_4153" data-name="Tracé 4153" d="M1482.146,466.591a4.48,4.48,0,0,0,3.182-1.815,4.413,4.413,0,0,0,.628-2.47,4.52,4.52,0,0,0-.673-2.435,4.472,4.472,0,0,0-3.324-1.809,8.319,8.319,0,0,0-2.543.193,5.051,5.051,0,0,0-.929,1.791,6.717,6.717,0,0,0,1.217,6.528A9.785,9.785,0,0,0,1482.146,466.591Z" fill="#f3f2f2"/>
    <path id="Tracé_4154" data-name="Tracé 4154" d="M1493.88,463.044c3.806-3.679,3.3,1.124.178.242Z" fill="#f3f2f2"/>
    <path id="Tracé_4155" data-name="Tracé 4155" d="M1494.077,463.161c3,3.869-1.364,2.926-.24.139Z" fill="#f3f2f2"/>
    <path id="Tracé_4156" data-name="Tracé 4156" d="M1493.761,463.1c-1.994-3.679,1.557-2.277.222-.084Z" fill="#e6e6e6"/>
    <path id="Tracé_4157" data-name="Tracé 4157" d="M1494.038,462.891a.343.343,0,0,1,.217.326.342.342,0,1,1-.217-.326Z" fill="#d4d4d4"/>
  </g>
</svg>
