<svg xmlns="http://www.w3.org/2000/svg" width="38.62" height="38.621" viewBox="0 0 38.62 38.621">
  <g id="Groupe_578" data-name="Groupe 578" transform="translate(-1083.426 -494.272)">
    <g id="Groupe_575" data-name="Groupe 575">
      <g id="Groupe_572" data-name="Groupe 572">
        <path id="Tracé_1773" data-name="Tracé 1773" d="M1121.363,513.582a18.642,18.642,0,0,1-5.921,13.619.307.307,0,0,1-.043.038.8.8,0,0,1-.075.066,17.15,17.15,0,0,1-1.556,1.287q-.469.345-.962.662a17.975,17.975,0,0,1-1.866,1.055l-.117.059a18.455,18.455,0,0,1-2.526.995q-.461.146-.929.265a17.95,17.95,0,0,1-1.914.384c-.155.024-.313.046-.473.062-.5.061-1.012.1-1.53.12a.294.294,0,0,1-.042,0l0,0-.005,0c-.222.011-.443.014-.665.014-.147,0-.294,0-.438-.006q-.676-.015-1.345-.08c-.217-.018-.433-.045-.647-.072A18.163,18.163,0,0,1,1098,531.6a18.363,18.363,0,0,1-3.591-1.354c-.5-.248-.988-.52-1.458-.814a18.628,18.628,0,1,1,28.415-15.851Z" fill="#f5f6f5" stroke="#040405" stroke-miterlimit="10" stroke-width="0.298"/>
      </g>
      <g id="Groupe_573" data-name="Groupe 573">
        <path id="Tracé_1774" data-name="Tracé 1774" d="M1092.71,503.7a1.269,1.269,0,0,1-.5-.341,1.777,1.777,0,0,1-.322-.581,1.964,1.964,0,0,1-.14-.67,1.647,1.647,0,0,1,.231-.841,1.829,1.829,0,0,1,.619-.639,1.526,1.526,0,0,1,.826-.243,1.485,1.485,0,0,1,.542.1,1.259,1.259,0,0,1,.338.2,2.856,2.856,0,0,1,.339.364.377.377,0,0,1,.107.234.3.3,0,0,1-.1.221.321.321,0,0,1-.227.1.288.288,0,0,1-.229-.112l-.2-.243a.554.554,0,0,0-.247-.173.924.924,0,0,0-.313-.056.935.935,0,0,0-.507.152,1.165,1.165,0,0,0-.387.4,1.017,1.017,0,0,0-.148.529,1.224,1.224,0,0,0,.094.46,1.452,1.452,0,0,0,.215.381.689.689,0,0,0,.317.187,1.477,1.477,0,0,0,.472.075.873.873,0,0,0,.317-.052.428.428,0,0,0,.2-.14.943.943,0,0,0,.1-.229l.075-.187a.3.3,0,0,1,.275-.186.329.329,0,0,1,.227.091.285.285,0,0,1,.1.221.342.342,0,0,1-.028.127l-.042.116c-.031.084-.062.158-.091.222a1.539,1.539,0,0,1-.114.2.95.95,0,0,1-.472.34,1.944,1.944,0,0,1-.64.1A1.814,1.814,0,0,1,1092.71,503.7Z" fill="#b73d69" stroke="#040405" stroke-miterlimit="10" stroke-width="0.298"/>
        <path id="Tracé_1775" data-name="Tracé 1775" d="M1095.3,503.7a.3.3,0,0,1-.1-.238q0-.435-.019-1.331t-.019-1.443a.3.3,0,0,1,.1-.238.354.354,0,0,1,.458,0,.3.3,0,0,1,.1.238c0,.367,0,.631.005.789a1.2,1.2,0,0,1,.2-.121.748.748,0,0,1,.341-.075.906.906,0,0,1,.492.14.705.705,0,0,1,.3.369,1.585,1.585,0,0,1,.066.434c0,.053,0,.151,0,.294v.183l-.028.779a.277.277,0,0,1-.093.215.314.314,0,0,1-.21.075.323.323,0,0,1-.224-.084.284.284,0,0,1-.089-.234l.028-.761.005-.252-.005-.191a.986.986,0,0,0-.023-.2c-.031-.094-.113-.14-.243-.14a.667.667,0,0,0-.28.061.717.717,0,0,0-.225.158q.02.9.019,1.336a.3.3,0,0,1-.1.238.353.353,0,0,1-.457,0Z" fill="#b73d69" stroke="#040405" stroke-miterlimit="10" stroke-width="0.298"/>
        <path id="Tracé_1776" data-name="Tracé 1776" d="M1098.259,503.706a1.035,1.035,0,0,1-.406-.275.836.836,0,0,1-.2-.406,1.469,1.469,0,0,1,.093-.869,1.563,1.563,0,0,1,.472-.625,1.087,1.087,0,0,1,.691-.239,1.363,1.363,0,0,1,.3.038.667.667,0,0,1,.21.1h.024l.046-.005a.3.3,0,0,1,.208.084.319.319,0,0,1,.1.206l.033.322q.009.205.023.7l.01.252c.006.156.01.258.011.306a.784.784,0,0,1-.007.138.442.442,0,0,1-.1.231.286.286,0,0,1-.213.1.311.311,0,0,1-.193-.054.34.34,0,0,1-.124-.213.645.645,0,0,1-.262.192,1.088,1.088,0,0,1-.364.084A1.147,1.147,0,0,1,1098.259,503.706Zm.658-.681a.514.514,0,0,0,.084-.07l.07-.066.08-.112a.147.147,0,0,1,.065-.046q0-.393-.023-.663l-.047-.033-.065-.051-.042-.029a.537.537,0,0,0-.117-.018.5.5,0,0,0-.325.131.892.892,0,0,0-.249.364.867.867,0,0,0-.075.327.358.358,0,0,0,.058.21.328.328,0,0,0,.166.121.4.4,0,0,0,.131.023A.565.565,0,0,0,1098.917,503.025Z" fill="#b73d69" stroke="#040405" stroke-miterlimit="10" stroke-width="0.298"/>
        <path id="Tracé_1777" data-name="Tracé 1777" d="M1102.349,503.688a.291.291,0,0,1-.219.084.3.3,0,0,1-.215-.1.294.294,0,0,1-.084-.22c0-.052.008-.144.014-.275l.009-.271c0-.078,0-.175,0-.292s-.009-.212-.018-.287a.117.117,0,0,1-.005-.037,1.263,1.263,0,0,0-.037-.173.278.278,0,0,0-.113-.147.422.422,0,0,0-.21-.068.5.5,0,0,0-.24.03.335.335,0,0,0-.161.124c0,.01-.008.027-.014.052v.018q.009.851.009,1.312a.327.327,0,0,1-.558.231.311.311,0,0,1-.095-.231q0-.443-.015-1.811a.318.318,0,0,1,.094-.232.325.325,0,0,1,.228-.1.33.33,0,0,1,.229.089,1.1,1.1,0,0,1,.575-.1,1.014,1.014,0,0,1,.607.257.993.993,0,0,1,.382-.206,1.194,1.194,0,0,1,.425-.042,1.111,1.111,0,0,1,.528.192.851.851,0,0,1,.332.453,1.908,1.908,0,0,1,.072.422c.014.176.02.313.019.411s-.007.237-.014.418-.012.272-.012.275a.3.3,0,0,1-.1.215.3.3,0,0,1-.22.084.3.3,0,0,1-.214-.1.285.285,0,0,1-.084-.22c0-.037,0-.139.011-.3s.013-.291.014-.371,0-.19-.011-.327a1.373,1.373,0,0,0-.052-.318.277.277,0,0,0-.112-.147.411.411,0,0,0-.21-.067.478.478,0,0,0-.24.03.338.338,0,0,0-.162.124c0,.009-.007.026-.014.051v.028l-.009.037v.028q0,.042-.009.075c.009.1.015.213.018.35s0,.248,0,.332-.007.181-.013.292-.01.181-.01.212A.3.3,0,0,1,1102.349,503.688Z" fill="#b73d69" stroke="#040405" stroke-miterlimit="10" stroke-width="0.298"/>
        <path id="Tracé_1778" data-name="Tracé 1778" d="M1104.934,504.612a.327.327,0,0,1-.46-.007.317.317,0,0,1-.094-.231q.015-.807.014-2.745a.326.326,0,0,1,.327-.327.31.31,0,0,1,.276.154,1.025,1.025,0,0,1,.961-.075,1.161,1.161,0,0,1,.589.663,1.452,1.452,0,0,1,.091.409,1.5,1.5,0,0,1-.033.439,1.113,1.113,0,0,1-.2.427,1.042,1.042,0,0,1-.388.317.978.978,0,0,1-.719.108.925.925,0,0,1-.257-.122q0,.36-.009.761A.325.325,0,0,1,1104.934,504.612Zm.8-1.531a.482.482,0,0,0,.243-.32.839.839,0,0,0-.024-.483.572.572,0,0,0-.262-.3.391.391,0,0,0-.317-.014.789.789,0,0,0-.322.318v.537a.666.666,0,0,0,.21.249.412.412,0,0,0,.229.078A.387.387,0,0,0,1105.73,503.081Z" fill="#b73d69" stroke="#040405" stroke-miterlimit="10" stroke-width="0.298"/>
        <path id="Tracé_1779" data-name="Tracé 1779" d="M1107.691,500.721a.337.337,0,1,1-.336-.339.317.317,0,0,1,.238.1A.313.313,0,0,1,1107.691,500.721Zm-.64.875a.306.306,0,0,1,.1-.226.323.323,0,0,1,.236-.087.306.306,0,0,1,.226.105.323.323,0,0,1,.087.236q-.028.873-.014,1.816a.327.327,0,0,1-.554.238.325.325,0,0,1-.1-.229Q1107.023,502.461,1107.051,501.6Z" fill="#b73d69" stroke="#040405" stroke-miterlimit="10" stroke-width="0.298"/>
        <path id="Tracé_1780" data-name="Tracé 1780" d="M1108.414,503.426a1.325,1.325,0,0,1-.28-.672,1.575,1.575,0,0,1,.079-.7,1.3,1.3,0,0,1,.393-.581.741.741,0,0,1,.275-.145s.036-.009.1-.028a.285.285,0,0,0,.056-.018.32.32,0,0,1,.262.009,2.392,2.392,0,0,1,.588.144.868.868,0,0,1,.294.234.919.919,0,0,1,.171.315,2.384,2.384,0,0,1,.072.35,1.084,1.084,0,0,1-.005.334,1.788,1.788,0,0,1-.1.442,1.346,1.346,0,0,1-.243.4.9.9,0,0,1-.383.271,1.223,1.223,0,0,1-.64.019A1.022,1.022,0,0,1,1108.414,503.426Zm1.06-.261a.413.413,0,0,0,.18-.185.936.936,0,0,0,.117-.385.845.845,0,0,0-.031-.385.317.317,0,0,0-.135-.189.593.593,0,0,0-.112-.04c-.034-.007-.084-.015-.147-.023a1.5,1.5,0,0,1-.189-.035.792.792,0,0,1-.085.023l-.046.019a.713.713,0,0,0-.2.308.848.848,0,0,0-.042.406.633.633,0,0,0,.124.327.438.438,0,0,0,.264.159A.606.606,0,0,0,1109.474,503.165Z" fill="#b73d69" stroke="#040405" stroke-miterlimit="10" stroke-width="0.298"/>
        <path id="Tracé_1781" data-name="Tracé 1781" d="M1112.854,503.688a.291.291,0,0,1-.219.084.3.3,0,0,1-.215-.1.294.294,0,0,1-.084-.22c0-.034,0-.137.012-.308s.012-.3.014-.4,0-.2-.012-.324a1.256,1.256,0,0,0-.051-.3.281.281,0,0,0-.112-.147.412.412,0,0,0-.21-.067.482.482,0,0,0-.241.03.339.339,0,0,0-.161.124.721.721,0,0,0-.021.081c0,.014,0,.035,0,.063,0,.109,0,.3,0,.586s.005.5.005.642a.328.328,0,0,1-.327.327.315.315,0,0,1-.231-.1.311.311,0,0,1-.1-.231q0-.2-.008-.8t-.039-.929a.318.318,0,0,1,.065-.268.291.291,0,0,1,.229-.1.28.28,0,0,1,.294.243.754.754,0,0,1,.593-.285.836.836,0,0,1,.542.18.98.98,0,0,1,.3.465,1.833,1.833,0,0,1,.073.4,4.03,4.03,0,0,1,.018.408c0,.111-.006.258-.014.442s-.012.277-.012.28A.3.3,0,0,1,1112.854,503.688Z" fill="#b73d69" stroke="#040405" stroke-miterlimit="10" stroke-width="0.298"/>
        <path id="Tracé_1782" data-name="Tracé 1782" d="M1113.494,500.807a.327.327,0,0,1,.654,0v1.9a.317.317,0,0,1-.094.231.326.326,0,0,1-.459.007.322.322,0,0,1-.1-.229Zm.654,2.741a.327.327,0,1,1-.327-.327.335.335,0,0,1,.327.327Z" fill="#b73d69" stroke="#040405" stroke-miterlimit="10" stroke-width="0.298"/>
      </g>
      <g id="Groupe_574" data-name="Groupe 574">
        <path id="Tracé_1783" data-name="Tracé 1783" d="M1102.736,532.744c-.15,0-.3,0-.448-.006-.465-.011-.931-.038-1.387-.082-.218-.019-.441-.046-.661-.074a19.1,19.1,0,0,1-4.224-1.049,19.18,19.18,0,0,1-1.849-.808c-.514-.256-1.02-.538-1.5-.839a19.185,19.185,0,1,1,25.079-4.394,19.284,19.284,0,0,1-1.938,2.1.681.681,0,0,1-.059.054c-.023.022-.047.043-.072.063a17.89,17.89,0,0,1-1.591,1.314c-.329.242-.661.471-.989.682a18.537,18.537,0,0,1-1.92,1.084c-.015.009-.047.024-.077.039l-.035.017a18.906,18.906,0,0,1-2.608,1.029c-.314.1-.635.19-.954.272a18.949,18.949,0,0,1-1.971.4c-.158.024-.326.047-.5.064-.506.062-1.015.1-1.544.122h-.005a.542.542,0,0,1-.114.005C1103.174,532.741,1102.955,532.744,1102.736,532.744Zm0-37.255a18.095,18.095,0,0,0-9.507,33.49c.455.284.93.549,1.415.79a17.947,17.947,0,0,0,5.731,1.754c.2.025.414.051.624.07.434.041.874.067,1.312.078.342.006.707.009,1.064-.008h.023l.034,0c.506-.018.992-.056,1.485-.117.162-.016.31-.036.455-.058a17.669,17.669,0,0,0,1.864-.375c.3-.077.6-.163.9-.256a17.974,17.974,0,0,0,2.454-.968l.1-.049a17.624,17.624,0,0,0,1.828-1.031c.31-.2.624-.416.934-.644a16.713,16.713,0,0,0,1.508-1.247l.033-.028a.211.211,0,0,0,.027-.024.56.56,0,0,1,.051-.046l.007-.006a18.206,18.206,0,0,0,1.831-1.984,18.091,18.091,0,0,0-14.172-29.338Zm12.37,31.3h0Zm0,0h0Zm0,0h0Z" fill="#479ec6" stroke="#040405" stroke-miterlimit="10" stroke-width="0.298"/>
      </g>
    </g>
    <g id="Groupe_576" data-name="Groupe 576">
      <circle id="Ellipse_85" data-name="Ellipse 85" cx="6.749" cy="6.749" r="6.749" transform="translate(1094.149 528.092) rotate(-70.875)" fill="#dc091d"/>
      <circle id="Ellipse_86" data-name="Ellipse 86" cx="5.728" cy="5.728" r="5.728" transform="translate(1096.518 529.119) rotate(-84.864)" fill="#dc091d" stroke="#fff" stroke-miterlimit="22.926" stroke-width="0.185" stroke-dasharray="0.369 0.185"/>
      <path id="Tracé_1784" data-name="Tracé 1784" d="M1099.738,522.486l.755,1.392,1.557.288-1.091,1.148.208,1.57-1.429-.683-1.429.683.208-1.57-1.091-1.148,1.557-.288Z" fill="#fff" fill-rule="evenodd"/>
      <path id="Tracé_1785" data-name="Tracé 1785" d="M1105.542,522.486l.755,1.392,1.557.288-1.091,1.148.208,1.57-1.429-.683-1.429.683.208-1.57-1.091-1.148,1.557-.288Z" fill="#fff" fill-rule="evenodd"/>
      <path id="Tracé_1786" data-name="Tracé 1786" d="M1102.736,518.527l.755,1.392,1.557.288-1.091,1.148.208,1.57-1.429-.683-1.429.683.208-1.57-1.091-1.148,1.557-.288Z" fill="#fff" fill-rule="evenodd"/>
    </g>
    <g id="Groupe_577" data-name="Groupe 577">
      <circle id="Ellipse_87" data-name="Ellipse 87" cx="6.749" cy="6.749" r="6.749" transform="matrix(0.328, -0.945, 0.945, 0.328, 1104.199, 517.738)" fill="#dc091d"/>
      <circle id="Ellipse_88" data-name="Ellipse 88" cx="5.728" cy="5.728" r="5.728" transform="translate(1106.568 518.765) rotate(-84.864)" fill="#dc091d" stroke="#fff" stroke-miterlimit="22.926" stroke-width="0.185" stroke-dasharray="0.369 0.185"/>
      <path id="Tracé_1787" data-name="Tracé 1787" d="M1109.788,512.132l.755,1.392,1.557.287-1.091,1.148.208,1.57-1.429-.683-1.429.683.208-1.57-1.091-1.148,1.557-.288Z" fill="#fff" fill-rule="evenodd"/>
      <path id="Tracé_1788" data-name="Tracé 1788" d="M1115.592,512.132l.755,1.392,1.557.288-1.091,1.148.208,1.57-1.429-.683-1.429.683.208-1.57-1.091-1.148,1.557-.288Z" fill="#fff" fill-rule="evenodd"/>
      <path id="Tracé_1789" data-name="Tracé 1789" d="M1112.786,508.173l.755,1.392,1.557.288L1114.007,511l.208,1.57-1.429-.683-1.429.683.208-1.57-1.091-1.148,1.557-.288Z" fill="#fff" fill-rule="evenodd"/>
    </g>
  </g>
</svg>
