<svg xmlns="http://www.w3.org/2000/svg" viewBox="0 0 7.55 5.91"><defs><style>.cls-1{fill:#616160;}</style></defs><g id="Calque_2" data-name="Calque 2"><g id="Calque_1-2" data-name="Calque 1"><path class="cls-1" d="M4.55,5.91a.58.58,0,0,1-.18,0,.43.43,0,0,1-.26-.4V4.61c-.7,0-1.65,0-1.66,0a1.9,1.9,0,0,0-1.64,1A.42.42,0,0,1,0,5.44,3.78,3.78,0,0,1,3.34,1.1h.77V.43A.42.42,0,0,1,4.37,0a.45.45,0,0,1,.47.07L7.26,2.28A.9.9,0,0,1,7.55,3a.88.88,0,0,1-.29.67L4.84,5.8A.48.48,0,0,1,4.55,5.91Zm0-1.76V5.42L7,3.28A.41.41,0,0,0,7.1,3,.44.44,0,0,0,7,2.62L4.57.48V1.56H3.37A3.27,3.27,0,0,0,.47,5.3a2.3,2.3,0,0,1,2-1.18s1.18,0,1.88,0Z"/></g></g></svg>