<svg xmlns="http://www.w3.org/2000/svg" xmlns:xlink="http://www.w3.org/1999/xlink" width="15.152" height="15.152" viewBox="0 0 15.152 15.152">
  <defs>
    <linearGradient id="linear-gradient" x1="-622.53" y1="0.948" x2="-621.683" y2="0.061" gradientUnits="objectBoundingBox">
      <stop offset="0" stop-color="#5cb5a5"/>
      <stop offset="1" stop-color="#0d4492"/>
    </linearGradient>
    <linearGradient id="linear-gradient-2" x1="-1127.388" y1="0.803" x2="-1126.594" y2="0.154" gradientUnits="objectBoundingBox">
      <stop offset="0" stop-color="#ffeba2"/>
      <stop offset="0.079" stop-color="#fde3a1"/>
      <stop offset="0.454" stop-color="#f9c59f"/>
      <stop offset="0.774" stop-color="#f6b29d"/>
      <stop offset="1" stop-color="#f5ac9d"/>
    </linearGradient>
    <radialGradient id="radial-gradient" cx="0.497" cy="0.982" r="0.972" gradientTransform="translate(-362.6) scale(0.849 1)" gradientUnits="objectBoundingBox">
      <stop offset="0" stop-color="#c75497"/>
      <stop offset="1" stop-color="#e33f29"/>
    </radialGradient>
    <radialGradient id="radial-gradient-2" cx="0.486" cy="0.992" r="0.985" gradientTransform="translate(-362.654) scale(0.849 1)" xlink:href="#radial-gradient"/>
  </defs>
  <g id="Groupe_2586" data-name="Groupe 2586" transform="translate(-1346.942 -428.073)">
    <g id="Groupe_2585" data-name="Groupe 2585">
      <g id="Groupe_2580" data-name="Groupe 2580">
        <g id="Groupe_2579" data-name="Groupe 2579">
          <path id="Tracé_4502" data-name="Tracé 4502" d="M1350,443.225a3.059,3.059,0,0,1-3.056-3.056v-9.04a3.06,3.06,0,0,1,3.056-3.056h9.04a3.06,3.06,0,0,1,3.056,3.056v9.04a3.06,3.06,0,0,1-3.056,3.056Z" fill="url(#linear-gradient)"/>
        </g>
      </g>
      <g id="Groupe_2581" data-name="Groupe 2581">
        <path id="Tracé_4503" data-name="Tracé 4503" d="M1354.475,430.535a4.191,4.191,0,0,0-4.184,4.5c0,2.54,1.626,5.726,4.184,5.726s4.183-3.186,4.183-5.726A4.191,4.191,0,0,0,1354.475,430.535Z" fill="url(#linear-gradient-2)"/>
      </g>
      <g id="Groupe_2584" data-name="Groupe 2584">
        <path id="Tracé_4504" data-name="Tracé 4504" d="M1352.515,433.4a1.04,1.04,0,0,1-1.84,0,1.042,1.042,0,0,0-.746,1.77h0l0,0,1.662,1.558,1.6-1.5a1.042,1.042,0,0,0-.677-1.834Z" fill="url(#radial-gradient)"/>
        <g id="Groupe_2583" data-name="Groupe 2583">
          <g id="Groupe_2582" data-name="Groupe 2582">
            <path id="Tracé_4505" data-name="Tracé 4505" d="M1357.354,436.737l-1.662-1.558,0,0h0a2.02,2.02,0,1,1,3.263.064Z" fill="url(#radial-gradient-2)"/>
          </g>
        </g>
      </g>
    </g>
  </g>
</svg>
