<svg xmlns="http://www.w3.org/2000/svg" width="7.546" height="8.504" viewBox="0 0 7.546 8.504">
  <g id="Groupe_117" data-name="Groupe 117" transform="translate(-290.122 -455.092)">
    <path id="Tracé_549" data-name="Tracé 549" d="M292.046,456.3h.151c.689,0,1.377,0,2.065,0a.262.262,0,0,1,.208.083c.479.494.964.983,1.443,1.477a.254.254,0,0,1,.067.163q0,2.543,0,5.086a.429.429,0,0,1-.49.485h-4.843c-.358,0-.524-.164-.524-.52q0-1.656,0-3.311c0-.04-.013-.091.007-.116.04-.051.1-.121.15-.122s.111.067.15.118c.022.029.011.084.011.128v3.276c0,.224.013.237.232.237h4.784c.189,0,.2-.012.2-.2q0-2.274,0-4.546v-.147h-.118c-.288,0-.577,0-.866,0a.475.475,0,0,1-.518-.517q0-.551,0-1.1c0-.047.006-.094.01-.157h-3.542c-.16,0-.182.02-.184.186,0,.285,0,.57,0,.855a.95.95,0,0,1,0,.107.151.151,0,0,1-.158.146.147.147,0,0,1-.155-.149c0-.352-.014-.705.007-1.056.017-.276.181-.4.461-.4h1.139c0-.224.012-.437,0-.648a.528.528,0,0,1,.567-.564c1.223.011,2.446,0,3.668.007a.238.238,0,0,1,.155.056q.744.748,1.48,1.506a.241.241,0,0,1,.063.153q.006,2.555,0,5.111a.431.431,0,0,1-.472.471c-.194,0-.388,0-.582,0-.136,0-.2-.056-.2-.162s.07-.156.207-.157c.19,0,.38,0,.57,0,.135,0,.159-.023.159-.159q0-.5,0-1,0-1.816,0-3.632c0-.031,0-.062-.006-.106-.249,0-.493,0-.738,0-.1,0-.2,0-.308,0a.438.438,0,0,1-.44-.4c-.016-.449-.005-.9-.005-1.366h-3.523c-.238,0-.281.044-.281.286Zm4.12-.6a.325.325,0,0,0,0,.045c0,.3,0,.6,0,.9,0,.176.046.221.227.221h.985Zm-.469,2.367-1.217-1.179c0,.334,0,.68,0,1.025,0,.108.069.154.171.154Z" fill="#efcd1b"/>
    <path id="Tracé_550" data-name="Tracé 550" d="M293.03,459.033h1.7c.036,0,.083-.012.105.006.049.042.119.1.119.149s-.072.106-.119.151c-.015.014-.053.005-.081.005h-3.43a.3.3,0,0,1-.116-.014.145.145,0,0,1-.086-.176.142.142,0,0,1,.154-.119h1.757Z" fill="#20a091"/>
    <path id="Tracé_551" data-name="Tracé 551" d="M292.828,461.839h1.494c.039,0,.092-.011.115.01a.32.32,0,0,1,.115.156.128.128,0,0,1-.127.143.931.931,0,0,1-.118.005H291.3c-.12-.005-.181-.059-.18-.158s.067-.155.183-.155c.281,0,.562,0,.842,0Z" fill="#006cb6"/>
    <path id="Tracé_552" data-name="Tracé 552" d="M292.528,460.393c.384,0,.767,0,1.15,0,.04,0,.092-.011.116.01.049.042.111.1.114.155s-.065.1-.113.141c-.026.021-.076.014-.115.014h-2.323c-.169,0-.241-.049-.242-.16s.073-.16.24-.16Z" fill="#27a4e1"/>
    <path id="Tracé_553" data-name="Tracé 553" d="M292.187,457.984c-.288,0-.576,0-.864,0a.265.265,0,0,1-.183-.078c-.081-.1.006-.234.153-.237.178,0,.355,0,.533,0,.414,0,.829,0,1.243,0,.167,0,.261.126.175.237a.262.262,0,0,1-.181.079c-.291.008-.584,0-.876,0Z" fill="#d80043"/>
    <path id="Tracé_554" data-name="Tracé 554" d="M290.126,458.668c0-.091,0-.182,0-.273a.15.15,0,0,1,.158-.158.147.147,0,0,1,.156.158c0,.186.005.371,0,.557a.144.144,0,0,1-.156.156.148.148,0,0,1-.158-.156c-.006-.1,0-.19,0-.284Z" fill="#f58508"/>
  </g>
</svg>
