<svg xmlns="http://www.w3.org/2000/svg" width="70.866" height="70.866" viewBox="0 0 70.866 70.866">
  <g id="Groupe_210" data-name="Groupe 210" transform="translate(-617.572 -554.615)">
    <rect id="Rectangle_56" data-name="Rectangle 56" width="70.866" height="70.866" rx="0.326" transform="translate(617.572 554.615)" fill="#fff5b3"/>
    <g id="Groupe_209" data-name="Groupe 209">
      <g id="Groupe_206" data-name="Groupe 206">
        <g id="Groupe_203" data-name="Groupe 203">
          <path id="Tracé_991" data-name="Tracé 991" d="M643.768,603.306a.283.283,0,0,0-.064.561l.687.149a.283.283,0,1,0,.12-.554l-.686-.149A.28.28,0,0,0,643.768,603.306Z" fill="#272727"/>
          <path id="Tracé_992" data-name="Tracé 992" d="M637.375,601.7a3.743,3.743,0,0,0-1,7.358h0a3.738,3.738,0,0,0,2.974-.461l3.2.857a3.782,3.782,0,0,0,2.387,1.943h0a3.786,3.786,0,0,0,1.984-7.308l-.016-.005-.008,0h0c-.107-.028-.214-.049-.322-.067l-1.131-.3a.283.283,0,1,0-.147.547l1.134.3.029.006c.1.016.2.036.294.061A3.22,3.22,0,1,1,643,609.088a.283.283,0,0,0-.184-.155l-3.435-.92a.282.282,0,0,0-.234.04,3.177,3.177,0,0,1-2.623.453h0a3.174,3.174,0,0,1-2.247-3.891h0a3.173,3.173,0,0,1,3.707-2.288.293.293,0,0,0,.118,0l4.656,1.247a.283.283,0,1,0,.147-.547l-4.724-1.266a.362.362,0,0,0-.173,0A3.7,3.7,0,0,0,637.375,601.7Z" fill="#272727"/>
          <path id="Tracé_993" data-name="Tracé 993" d="M638.672,605.191a1.677,1.677,0,1,1-.168-1.272A1.677,1.677,0,0,1,638.672,605.191Z" fill="#fff" stroke="#272727" stroke-linecap="round" stroke-linejoin="round" stroke-width="0.092"/>
          <path id="Tracé_994" data-name="Tracé 994" d="M637.033,603.529a.123.123,0,0,0-.15.087l-.155.579-.579-.155a.121.121,0,0,0-.149.086l-.175.651a.123.123,0,0,0,.087.15l.579.155-.156.579a.121.121,0,0,0,.087.149l.651.175a.121.121,0,0,0,.149-.087l.156-.579.579.156a.122.122,0,0,0,.149-.087l.175-.651a.121.121,0,0,0-.087-.149l-.579-.156.155-.579a.121.121,0,0,0-.086-.149Z" fill="#272727"/>
          <path id="Tracé_995" data-name="Tracé 995" d="M648.219,607.749a1.675,1.675,0,1,1-.167-1.272A1.676,1.676,0,0,1,648.219,607.749Z" fill="#fff" stroke="#272727" stroke-linecap="round" stroke-linejoin="round" stroke-width="0.092"/>
          <path id="Tracé_996" data-name="Tracé 996" d="M639.864,608.187a1.239,1.239,0,1,1-.124-.939A1.238,1.238,0,0,1,639.864,608.187Z" fill="#fff" stroke="#272727" stroke-linecap="round" stroke-linejoin="round" stroke-width="0.141"/>
          <path id="Tracé_997" data-name="Tracé 997" d="M639.532,608.1a.894.894,0,1,1-.089-.678A.894.894,0,0,1,639.532,608.1Z" fill="#272727"/>
          <path id="Tracé_998" data-name="Tracé 998" d="M644.8,609.509a1.236,1.236,0,1,1-.123-.94A1.238,1.238,0,0,1,644.8,609.509Z" fill="#fff" stroke="#272727" stroke-linecap="round" stroke-linejoin="round" stroke-width="0.141"/>
          <path id="Tracé_999" data-name="Tracé 999" d="M644.464,609.42a.894.894,0,1,1-.089-.679A.895.895,0,0,1,644.464,609.42Z" fill="#272727"/>
          <path id="Tracé_1000" data-name="Tracé 1000" d="M647.232,606.523a.405.405,0,1,1-.286-.5A.407.407,0,0,1,647.232,606.523Z" fill="#ffc913" stroke="#272727" stroke-linecap="round" stroke-linejoin="round" stroke-width="0.084"/>
          <path id="Tracé_1001" data-name="Tracé 1001" d="M646.751,608.317a.4.4,0,0,1-.189.247.406.406,0,1,1,.149-.554A.4.4,0,0,1,646.751,608.317Z" fill="#74ac2b" stroke="#272727" stroke-linecap="round" stroke-linejoin="round" stroke-width="0.084"/>
          <path id="Tracé_1002" data-name="Tracé 1002" d="M647.979,607.685a.405.405,0,0,1-.783-.21.4.4,0,0,1,.742-.1A.4.4,0,0,1,647.979,607.685Z" fill="#de1e27" stroke="#272727" stroke-linecap="round" stroke-linejoin="round" stroke-width="0.084"/>
          <path id="Tracé_1003" data-name="Tracé 1003" d="M646.005,607.156a.407.407,0,1,1-.041-.308A.405.405,0,0,1,646.005,607.156Z" fill="#2261ab" stroke="#272727" stroke-linecap="round" stroke-linejoin="round" stroke-width="0.084"/>
          <path id="Tracé_1004" data-name="Tracé 1004" d="M641.482,605.06a.29.29,0,0,1-.106.4l-.689.4a.291.291,0,1,1-.291-.5l.689-.4A.291.291,0,0,1,641.482,605.06Z" fill="#272727"/>
          <path id="Tracé_1005" data-name="Tracé 1005" d="M643.507,605.6a.29.29,0,0,1-.107.4l-.688.4a.291.291,0,1,1-.291-.5l.689-.4A.29.29,0,0,1,643.507,605.6Z" fill="#272727"/>
        </g>
        <g id="Groupe_204" data-name="Groupe 204">
          <path id="Tracé_1006" data-name="Tracé 1006" d="M665.563,602.411a.317.317,0,0,0-.076.009l-.681.168a.284.284,0,1,0,.135.551l.681-.168a.284.284,0,0,0-.059-.56Z" fill="#272727"/>
          <path id="Tracé_1007" data-name="Tracé 1007" d="M668.771,601.7a3.788,3.788,0,0,0-1.131.126h0l-.017.006-.007,0c-.1.028-.193.059-.287.095l-1.132.3a.284.284,0,1,0,.147.548l1.134-.3.028-.009c.093-.036.188-.067.285-.094a3.22,3.22,0,1,1-1.018,5.741.288.288,0,0,0-.237-.042l-3.435.921a.282.282,0,0,0-.183.152,3.176,3.176,0,0,1-5.936-.543h0a3.173,3.173,0,0,1,2.066-3.835.292.292,0,0,0,.1-.06l4.656-1.248a.283.283,0,1,0-.147-.547l-4.723,1.266a.346.346,0,0,0-.151.084,3.741,3.741,0,1,0,4.579,5.247l3.2-.857a3.787,3.787,0,0,0,3.039.489h0a3.787,3.787,0,0,0-.829-7.442Z" fill="#272727"/>
          <path id="Tracé_1008" data-name="Tracé 1008" d="M661.073,606.9a1.678,1.678,0,1,1-.781-1.017A1.678,1.678,0,0,1,661.073,606.9Z" fill="#fff" stroke="#272727" stroke-linecap="round" stroke-linejoin="round" stroke-width="0.092"/>
          <path id="Tracé_1009" data-name="Tracé 1009" d="M658.823,606.283a.121.121,0,0,0-.087.149l.156.579-.58.156a.122.122,0,0,0-.086.149l.175.651a.121.121,0,0,0,.149.087l.579-.155.155.579a.123.123,0,0,0,.15.086l.651-.175a.121.121,0,0,0,.086-.149l-.155-.579.579-.155a.123.123,0,0,0,.087-.15l-.175-.651a.121.121,0,0,0-.149-.086l-.579.155-.156-.579a.122.122,0,0,0-.149-.087Z" fill="#272727"/>
          <path id="Tracé_1010" data-name="Tracé 1010" d="M670.62,604.344a1.676,1.676,0,1,1-2.053-1.185A1.677,1.677,0,0,1,670.62,604.344Z" fill="#fff" stroke="#272727" stroke-linecap="round" stroke-linejoin="round" stroke-width="0.092"/>
          <path id="Tracé_1011" data-name="Tracé 1011" d="M663.6,608.9a1.238,1.238,0,1,1-1.516-.875A1.239,1.239,0,0,1,663.6,608.9Z" fill="#fff" stroke="#272727" stroke-linecap="round" stroke-linejoin="round" stroke-width="0.141"/>
          <path id="Tracé_1012" data-name="Tracé 1012" d="M663.271,608.99a.894.894,0,1,1-1.095-.632A.89.89,0,0,1,663.271,608.99Z" fill="#272727"/>
          <path id="Tracé_1013" data-name="Tracé 1013" d="M668.536,607.58a1.238,1.238,0,1,1-1.517-.876A1.238,1.238,0,0,1,668.536,607.58Z" fill="#fff" stroke="#272727" stroke-linecap="round" stroke-linejoin="round" stroke-width="0.141"/>
          <path id="Tracé_1014" data-name="Tracé 1014" d="M668.2,607.669a.894.894,0,1,1-.417-.544A.9.9,0,0,1,668.2,607.669Z" fill="#272727"/>
          <path id="Tracé_1015" data-name="Tracé 1015" d="M669.152,603.776a.4.4,0,0,1-.286.5.4.4,0,0,1-.5-.286.405.405,0,1,1,.783-.21Z" fill="#ffc913" stroke="#272727" stroke-linecap="round" stroke-linejoin="round" stroke-width="0.084"/>
          <path id="Tracé_1016" data-name="Tracé 1016" d="M669.633,605.57a.405.405,0,1,1-.5-.286A.405.405,0,0,1,669.633,605.57Z" fill="#74ac2b" stroke="#272727" stroke-linecap="round" stroke-linejoin="round" stroke-width="0.084"/>
          <path id="Tracé_1017" data-name="Tracé 1017" d="M670.38,604.409a.4.4,0,0,1-.041.307.4.4,0,0,1-.742-.1.4.4,0,0,1,.04-.307.405.405,0,0,1,.743.1Z" fill="#de1e27" stroke="#272727" stroke-linecap="round" stroke-linejoin="round" stroke-width="0.084"/>
          <path id="Tracé_1018" data-name="Tracé 1018" d="M668.406,604.938a.405.405,0,0,1-.6.455.406.406,0,0,1-.148-.553.405.405,0,0,1,.743.1Z" fill="#2261ab" stroke="#272727" stroke-linecap="round" stroke-linejoin="round" stroke-width="0.084"/>
          <path id="Tracé_1019" data-name="Tracé 1019" d="M663.441,605.384a.29.29,0,0,1,.107.4l-.4.689a.291.291,0,0,1-.5-.291l.4-.688A.29.29,0,0,1,663.441,605.384Z" fill="#272727"/>
          <path id="Tracé_1020" data-name="Tracé 1020" d="M665.466,604.842a.29.29,0,0,1,.106.4l-.4.688a.291.291,0,1,1-.5-.29l.4-.689A.29.29,0,0,1,665.466,604.842Z" fill="#272727"/>
        </g>
        <g id="Groupe_205" data-name="Groupe 205">
          <path id="Tracé_1021" data-name="Tracé 1021" d="M648.573,596.822h8.863a1.685,1.685,0,1,1,0,3.37h-8.863a1.685,1.685,0,0,1,0-3.37Z" fill="#272727"/>
          <path id="Tracé_1022" data-name="Tracé 1022" d="M632.43,571a.784.784,0,0,0-.776.777v25.108a.784.784,0,0,0,.776.777h41.149a.785.785,0,0,0,.777-.777V584.248a.426.426,0,1,0-.851,0v12.567h-41v-24.96h41v7.712a.426.426,0,1,0,.851,0v-7.786a.785.785,0,0,0-.777-.777Z" fill="#272727"/>
          <path id="Tracé_1023" data-name="Tracé 1023" d="M673.926,580.942a.274.274,0,0,0-.271.28v1.371a.274.274,0,0,0,.136.243.278.278,0,0,0,.279,0,.274.274,0,0,0,.136-.243v-1.371a.276.276,0,0,0-.08-.2A.28.28,0,0,0,673.926,580.942Z" fill="#272727"/>
          <rect id="Rectangle_57" data-name="Rectangle 57" width="37.759" height="22.033" rx="0.733" transform="translate(634.125 573.319)" fill="#fff"/>
        </g>
      </g>
      <g id="Groupe_208" data-name="Groupe 208">
        <g id="Groupe_207" data-name="Groupe 207">
          <path id="Tracé_1024" data-name="Tracé 1024" d="M652.32,575.637c.07-.266.156-.527.246-.787a2.025,2.025,0,0,1,.307-.678.226.226,0,0,1,.334-.048.772.772,0,0,1,.169.44c.063.483.145.96.223,1.44a2.615,2.615,0,0,1,.057.5c-.232.033-.464.066-.7.077-.16.008-.32,0-.48.018-.1.009-.266.079-.308-.056a1.041,1.041,0,0,1,.046-.416C652.242,575.959,652.278,575.8,652.32,575.637Z" fill="#0c2439"/>
          <path id="Tracé_1025" data-name="Tracé 1025" d="M650.348,576.69c-.116-.191-.232-.383-.342-.578a1.058,1.058,0,0,1-.183-.588c.02-.218.314-.157.447-.107a3.442,3.442,0,0,1,.415.221,5.545,5.545,0,0,1,.839.568c.16.129.333.252.48.394.028.027.056.056.026.091a.264.264,0,0,1-.034.033c-.01.009-.025.015-.031.028a.2.2,0,0,1-.062.058,1.428,1.428,0,0,0-.161.151,3.311,3.311,0,0,1-.351.307,1.358,1.358,0,0,0-.326.265.106.106,0,0,1-.085.058c-.039,0-.064-.039-.087-.07C650.693,577.254,650.522,576.975,650.348,576.69Z" fill="#0c2439"/>
          <path id="Tracé_1026" data-name="Tracé 1026" d="M650.268,577.868l-.646.094a3.977,3.977,0,0,0-.649.132.437.437,0,0,0-.137.063.181.181,0,0,0-.076.125c-.008.087.068.159.144.2a6.636,6.636,0,0,0,1.332.521c.065.021.792.22.794.205a.4.4,0,0,0-.056-.2,2.137,2.137,0,0,1-.087-.26.591.591,0,0,1-.031-.155,1.024,1.024,0,0,0,0-.207c-.007-.024-.017-.046-.024-.07-.035-.125.129-.4-.016-.47a.521.521,0,0,0-.236-.01A2.976,2.976,0,0,0,650.268,577.868Z" fill="#0c2439"/>
          <path id="Tracé_1027" data-name="Tracé 1027" d="M650.527,579.835c-.218.161-.433.325-.642.5a3.732,3.732,0,0,0-.431.363c-.05.055-.124.139-.111.221.03.186.326.165.46.157.68-.045,1.363-.155,2.035-.26.028,0,.062-.013.07-.04s-.022-.058-.048-.078a.92.92,0,0,1-.277-.6.355.355,0,0,0-.041-.133.58.58,0,0,0-.114-.107.972.972,0,0,1-.18-.259c-.056-.1-.111-.208-.235-.116Z" fill="#0c2439"/>
          <path id="Tracé_1028" data-name="Tracé 1028" d="M651.563,581.619a10.857,10.857,0,0,0-1.2.524.582.582,0,0,0-.258.214c-.076.164.171.229.281.264.243.077.492.131.74.19.307.073.616.14.92.226l.048.014a.806.806,0,0,0,.03-.458c-.01-.033-.026-.064-.035-.1a.57.57,0,0,1-.013-.149l0-.272a.606.606,0,0,0-.007-.121c-.007-.037-.021-.071-.028-.108-.014-.065.021-.381-.1-.353A2.272,2.272,0,0,0,651.563,581.619Z" fill="#0c2439"/>
          <path id="Tracé_1029" data-name="Tracé 1029" d="M650.49,583.622a.381.381,0,0,0-.25.043.212.212,0,0,0-.08.189c.01.1.12.169.193.226.163.128.334.253.5.381s.324.263.482.4a1.381,1.381,0,0,0,.128.1.1.1,0,0,0,.053.022.108.108,0,0,0,.08-.047,2.665,2.665,0,0,0,.356-.772.49.49,0,0,0,.035-.1c.008-.045,0-.092.009-.137a1.483,1.483,0,0,1,.046-.161c.007-.026.018-.081,0-.1-.045-.046-.126-.038-.183-.035-.417.02-.835.024-1.253,0Z" fill="#0c2439"/>
          <path id="Tracé_1030" data-name="Tracé 1030" d="M649.469,585.423c-.012-.273-.02-.548-.02-.821a.418.418,0,0,1,.029-.169c.063-.138.209-.1.3-.011a4.053,4.053,0,0,1,.343.469c.169.231.328.47.477.714.02.033.04.066.062.1s.054.057.039.088a.05.05,0,0,1-.023.02,2.4,2.4,0,0,1-.714.248,3.362,3.362,0,0,1-.374.049c-.075.006-.077-.008-.078-.079,0-.172-.024-.342-.032-.514Z" fill="#0c2439"/>
          <path id="Tracé_1031" data-name="Tracé 1031" d="M647.816,585.31a3.941,3.941,0,0,0,.28-.376c.044-.066.086-.134.126-.2a.253.253,0,0,1,.139-.126c.071-.02.115.042.135.1a1.143,1.143,0,0,1,.033.345,5.707,5.707,0,0,1-.068.815c-.006.041-.009.057-.054.053a.4.4,0,0,1-.088-.026,1.637,1.637,0,0,1-.357-.16.842.842,0,0,0-.11-.069c-.027-.013-.055-.021-.08-.035-.045-.025-.112-.077-.085-.134A.852.852,0,0,1,647.816,585.31Z" fill="#0c2439"/>
          <path id="Tracé_1032" data-name="Tracé 1032" d="M647.006,584.438a1.032,1.032,0,0,1,.263-.17.134.134,0,0,1,.1-.01c.082.041.032.182.012.246-.031.1-.065.195-.1.293a2.32,2.32,0,0,1-.095.269.094.094,0,0,1-.023.033.073.073,0,0,1-.069.007.217.217,0,0,1-.059-.041,2.392,2.392,0,0,1-.289-.307c-.061-.077.1-.175.142-.219C646.906,584.524,646.95,584.484,647.006,584.438Z" fill="#0c2439"/>
          <path id="Tracé_1033" data-name="Tracé 1033" d="M646.233,583.818h0a.363.363,0,0,1,.148-.119c.084-.019.121.059.123.13a1.471,1.471,0,0,1-.015.257c-.005.034-.009.21-.051.216a.037.037,0,0,1-.024-.008.293.293,0,0,1-.07-.057.1.1,0,0,1-.021-.029c-.006-.01-.008-.023-.015-.033-.017-.032-.059-.039-.088-.061a.211.211,0,0,1-.071-.137A.234.234,0,0,1,646.233,583.818Z" fill="#0c2439"/>
        </g>
        <path id="Tracé_1034" data-name="Tracé 1034" d="M651.905,583.947a6.255,6.255,0,0,0,.056-2.071,4.091,4.091,0,0,0-.328-1.383c-.184-.384-.433-.732-.632-1.109a2.324,2.324,0,0,1-.295-.927,2.146,2.146,0,0,1,1.8-2.042,4.975,4.975,0,0,1,2.883.483,5.557,5.557,0,0,1,2.193,1.457,2.484,2.484,0,0,1,.524,2.363,1.94,1.94,0,0,1-1.753,1.21,2.535,2.535,0,0,1-1.839-.9,1.136,1.136,0,0,0-.244-.25.109.109,0,0,0-.1,0c-.121.056-.1.24-.114.352a2.55,2.55,0,0,0,.117.879,2.417,2.417,0,0,0,1.111,1.688,4.909,4.909,0,0,0,1.125.355c.219.048.441.08.659.135a1.378,1.378,0,0,1,.636.329.56.56,0,0,1-.173.887,2.085,2.085,0,0,1-.892.117,1.031,1.031,0,0,0-.822.306,2.97,2.97,0,0,0-.357,1.212,6.787,6.787,0,0,0-.133,3.061,3.846,3.846,0,0,0,.2.6c.022.051.308.559.31.558a3.186,3.186,0,0,1-.4.309c-.153.09-.312.169-.466.256a1.154,1.154,0,0,0-.65.737,3.311,3.311,0,0,0,.017.958.59.59,0,0,1-.227.617,2.05,2.05,0,0,1-.884.13,1.171,1.171,0,0,1-.786-.147.878.878,0,0,1-.313-.738c0-.256.03-.573-.191-.754a2.955,2.955,0,0,0-.56-.32c-.662-.331-.871-1.027-1.361-1.582a6.354,6.354,0,0,0-1.063-.871,6.558,6.558,0,0,1-1.022-.948,12.389,12.389,0,0,1-1.2-1.6,6.042,6.042,0,0,1-1.066-2.612c-.015-.154-.018-.309-.018-.464a.449.449,0,0,1,.092-.344c.226-.209.472.036.611.22a7.17,7.17,0,0,0,.937,1.048,4.016,4.016,0,0,0,1.224.716,2.458,2.458,0,0,0,2.145-.138,2.8,2.8,0,0,0,1.222-1.7C651.89,584.007,651.9,583.977,651.905,583.947Z" fill="#dc0e43"/>
        <path id="Tracé_1035" data-name="Tracé 1035" d="M654.056,581.131a2.55,2.55,0,0,0,.117.879,2.417,2.417,0,0,0,1.111,1.688,4.044,4.044,0,0,0,.708.256,8.047,8.047,0,0,0-.708-1.047,7.38,7.38,0,0,1-.82-1.322,2.3,2.3,0,0,1-.262-.688c0-.028,0-.08-.007-.126l-.025.008C654.049,580.835,654.065,581.019,654.056,581.131Z" fill="#ffd400"/>
        <path id="Tracé_1036" data-name="Tracé 1036" d="M655.817,585.827a2.97,2.97,0,0,0-.357,1.212,6.787,6.787,0,0,0-.133,3.061,3.846,3.846,0,0,0,.2.6c.022.051.308.559.31.558a3.713,3.713,0,0,0,.953-1.35,5,5,0,0,0,.168-3.22,7.348,7.348,0,0,0-.382-1.165A.984.984,0,0,0,655.817,585.827Z" fill="#ffd400"/>
        <path id="Tracé_1037" data-name="Tracé 1037" d="M655.839,591.258l-.024.02Z" fill="none" stroke="#161615" stroke-miterlimit="10" stroke-width="0.616"/>
        <path id="Tracé_1038" data-name="Tracé 1038" d="M654.245,577.117a.8.8,0,0,1,.36,1.175.828.828,0,0,1-1.115.219.782.782,0,0,1-.16-1.108.8.8,0,0,1,.077-.087A.835.835,0,0,1,654.245,577.117Z" fill="#fff"/>
        <path id="Tracé_1039" data-name="Tracé 1039" d="M653.964,577.71a.4.4,0,0,1,.047-.023.362.362,0,0,1,.465.242.327.327,0,0,1-.207.372.356.356,0,0,1-.463-.214A.321.321,0,0,1,653.964,577.71Z" fill="#161615"/>
        <path id="Tracé_1040" data-name="Tracé 1040" d="M657.353,579.244a.506.506,0,0,1-.007-.207.12.12,0,0,1,.159-.1.311.311,0,0,1,.2.224.281.281,0,0,1-.041.289.135.135,0,0,1-.092.034C657.451,579.477,657.382,579.365,657.353,579.244Z" fill="#91102d"/>
        <path id="Tracé_1041" data-name="Tracé 1041" d="M658.169,580.5a1.665,1.665,0,0,1-.638.6,1.556,1.556,0,0,1-.947.108,2.942,2.942,0,0,1-.856-.333,3.087,3.087,0,0,1-.73-.539.19.19,0,0,1,.088-.032c.068-.009.069-.117,0-.109a.357.357,0,0,0-.3.278c-.016.068.088.1.1.029a.3.3,0,0,1,.037-.087,3.232,3.232,0,0,0,.782.571,2.871,2.871,0,0,0,.955.343,1.64,1.64,0,0,0,.941-.144,1.485,1.485,0,0,0,.463-.371c.014-.032.027-.064.039-.1A1.683,1.683,0,0,0,658.169,580.5Z" fill="#91102d"/>
      </g>
    </g>
  </g>
</svg>
