<svg xmlns="http://www.w3.org/2000/svg" viewBox="0 0 7.09 6.9"><defs><style>.cls-1{fill:#616160;}</style></defs><g id="Calque_2" data-name="Calque 2"><g id="Calque_1-2" data-name="Calque 1"><path class="cls-1" d="M6.87,5.58H.21A.21.21,0,0,1,0,5.37V.21A.22.22,0,0,1,.21,0H6.87a.22.22,0,0,1,.22.21V5.37A.21.21,0,0,1,6.87,5.58ZM.43,5.15H6.66V.43H.43Z"/><path class="cls-1" d="M4.83,6.87H2.25A.21.21,0,0,1,2,6.66a.22.22,0,0,1,.21-.22H4.83a.22.22,0,0,1,.22.22A.21.21,0,0,1,4.83,6.87Z"/><path class="cls-1" d="M3.54,6.9a.21.21,0,0,1-.21-.21V5.55a.21.21,0,0,1,.21-.21.21.21,0,0,1,.22.21V6.69A.21.21,0,0,1,3.54,6.9Z"/><path class="cls-1" d="M3.54,4.67A6.71,6.71,0,0,1,2,4.49a.23.23,0,0,1-.16-.17,1.86,1.86,0,0,1,0-.34,1.69,1.69,0,0,1,.9-1.48,1.16,1.16,0,0,1-.17-.6,1.07,1.07,0,0,1,1-1.1A1.08,1.08,0,0,1,4.6,1.9a1.16,1.16,0,0,1-.17.6A1.7,1.7,0,0,1,5.32,4a1.87,1.87,0,0,1,0,.34.23.23,0,0,1-.16.17A6.79,6.79,0,0,1,3.54,4.67ZM2.2,4.1a6.4,6.4,0,0,0,1.34.14A6.5,6.5,0,0,0,4.89,4.1V4A1.29,1.29,0,0,0,4,2.78a.25.25,0,0,1-.14-.16.21.21,0,0,1,.07-.2.72.72,0,0,0,.23-.52.65.65,0,0,0-.63-.67.65.65,0,0,0-.62.67.68.68,0,0,0,.23.52.21.21,0,0,1,.06.2.22.22,0,0,1-.14.16A1.31,1.31,0,0,0,2.19,4,.49.49,0,0,0,2.2,4.1Z"/></g></g></svg>