<svg xmlns="http://www.w3.org/2000/svg" width="38.62" height="38.621" viewBox="0 0 38.62 38.621">
  <g id="Groupe_571" data-name="Groupe 571" transform="translate(-1083.426 -536.358)">
    <g id="Groupe_568" data-name="Groupe 568">
      <g id="Groupe_565" data-name="Groupe 565">
        <path id="Tracé_1757" data-name="Tracé 1757" d="M1121.364,555.669v.1a19.962,19.962,0,0,1-.141,2.2c-.05.39-.108.771-.182,1.152-.039.212-.082.42-.129.629-.052.249-.113.495-.181.737-.009.037-.018.071-.027.108-.071.255-.145.51-.228.762q-.147.469-.322.93c-.009.019-.012.034-.022.052-.122.323-.255.636-.4.949a17.974,17.974,0,0,1-.958,1.846l-.012.022c-.065.116-.135.227-.206.341q-.3.478-.624.939a18.871,18.871,0,0,1-2.487,2.844l-.006.006a.229.229,0,0,1-.043.037c-.3.283-.608.55-.925.808-.129.107-.258.209-.393.31-.1.08-.209.16-.313.237q-.469.345-.961.663a17.3,17.3,0,0,1-1.736.986c-.04.021-.086.046-.132.067s-.08.04-.116.059c-.384.184-.771.356-1.167.513-.443.178-.9.341-1.361.482-.27.086-.541.163-.817.236-.037.013-.074.022-.11.031-.369.092-.747.178-1.125.246-.15.03-.3.061-.457.086-.111.018-.221.037-.332.052-.058.009-.12.018-.178.024s-.138.019-.209.025a.811.811,0,0,1-.086.012c-.052,0-.1.01-.15.016-.277.03-.553.058-.833.073-.181.016-.362.025-.546.031a.228.228,0,0,1-.043,0l0,0-.006,0c-.074,0-.151,0-.225.006-.147.006-.294.006-.439.006-.04,0-.083,0-.123,0-.107,0-.212,0-.316,0-.3-.006-.6-.021-.891-.043-.126-.006-.248-.018-.374-.027-.243-.022-.486-.049-.725-.08a18.463,18.463,0,0,1-2.31-.452c-.236-.061-.467-.129-.694-.2h0c-.236-.071-.467-.148-.7-.227-.135-.047-.267-.1-.4-.145a18.548,18.548,0,0,1-1.8-.786c-.5-.249-.986-.519-1.456-.814a17.175,17.175,0,0,1-1.551-1.075,18.576,18.576,0,0,1-3.535-3.562q-.516-.678-.964-1.407-.258-.4-.488-.829c-.056-.095-.108-.194-.157-.295a18.631,18.631,0,1,1,33.931-15.221c.07.191.141.384.2.581a17.963,17.963,0,0,1,.642,2.441c.049.237.089.476.126.716a19.423,19.423,0,0,1,.194,2.036C1121.358,555.159,1121.364,555.411,1121.364,555.669Z" fill="#f5f6f5" stroke="#040405" stroke-miterlimit="10" stroke-width="0.298"/>
      </g>
      <g id="Groupe_566" data-name="Groupe 566">
        <path id="Tracé_1758" data-name="Tracé 1758" d="M1102.736,574.83l-.139,0c-.106,0-.209,0-.312,0-.331-.009-.631-.023-.917-.044-.116-.007-.234-.017-.355-.028l-.027,0c-.251-.022-.5-.05-.75-.083a18.773,18.773,0,0,1-2.374-.464c-.233-.061-.461-.127-.689-.2l-.024-.007c-.215-.063-.444-.138-.721-.235-.136-.045-.275-.1-.414-.149a19.05,19.05,0,0,1-1.847-.806c-.517-.258-1.023-.54-1.5-.839a18.5,18.5,0,0,1-1.6-1.1,19.161,19.161,0,0,1,11.666-34.361,19.256,19.256,0,0,1,17.947,12.435c.075.2.147.4.214.6a18.6,18.6,0,0,1,.657,2.506c.048.239.09.484.128.732a19.538,19.538,0,0,1,.2,2.1q.016.389.016.784v.1a19.771,19.771,0,0,1-.145,2.264c-.052.415-.112.8-.185,1.186-.1.521-.215,1.032-.349,1.516-.157.578-.347,1.163-.565,1.739l-.011.03-.02.047q-.156.414-.4.953a18.886,18.886,0,0,1-1,1.925c-.062.112-.137.233-.214.354-.194.314-.411.641-.64.962a19.4,19.4,0,0,1-2.564,2.931.712.712,0,0,1-.064.058c-.318.3-.623.562-.932.811-.127.107-.264.213-.4.319-.106.082-.214.165-.325.245-.327.241-.66.47-.986.679a17.614,17.614,0,0,1-1.784,1.017l-.032.017-.1.049-.085.043-.033.016c-.391.189-.8.366-1.208.531-.468.189-.94.357-1.4.5-.314.1-.635.189-.954.271-.417.106-.8.189-1.16.256-.27.055-.539.1-.812.14-.126.018-.255.037-.387.051-.036.006-.074.01-.112.013l-.142.016c-.312.036-.594.061-.858.076-.174.013-.356.024-.542.03h0a.535.535,0,0,1-.12,0l-.171.007C1103.043,574.829,1102.889,574.83,1102.736,574.83Zm-.123-1.071h.036c.029,0,.059,0,.087,0,.141,0,.281,0,.421-.005l.224-.008h.017l.038,0c.176,0,.35-.015.524-.028.251-.015.513-.038.81-.073l.2-.021.047-.007c.123-.012.243-.03.363-.047.255-.036.5-.079.761-.131.351-.065.707-.143,1.1-.243.3-.076.6-.163.9-.256.434-.133.876-.291,1.318-.469.392-.156.773-.324,1.135-.5l.1-.049.025-.012.08-.041.041-.02a16.776,16.776,0,0,0,1.682-.959c.309-.2.623-.415.935-.644.106-.077.206-.154.306-.231.13-.1.254-.2.376-.3.3-.244.595-.5.9-.786a.372.372,0,0,1,.036-.031l.007-.007a18.333,18.333,0,0,0,2.423-2.771c.216-.3.419-.608.606-.91.071-.111.135-.214.193-.32a17.822,17.822,0,0,0,.951-1.826c.151-.341.277-.642.384-.921l.011-.027.019-.048c.2-.52.375-1.074.525-1.621.126-.457.237-.938.329-1.431.069-.362.125-.727.174-1.118a18.779,18.779,0,0,0,.137-2.138v-.1q0-.372-.015-.741a18.474,18.474,0,0,0-.187-1.981c-.036-.228-.074-.458-.121-.688a17.749,17.749,0,0,0-.623-2.375c-.064-.2-.13-.381-.2-.565a18.1,18.1,0,0,0-35.04,6.35,17.96,17.96,0,0,0,7.079,14.354,17.047,17.047,0,0,0,1.507,1.042c.452.283.927.549,1.415.791a17.952,17.952,0,0,0,1.746.763c.13.05.258.1.385.139.218.076.435.148.654.213l.028.008c.223.068.447.133.675.192a17.755,17.755,0,0,0,2.243.438c.235.032.469.058.7.078.137.012.247.021.36.029.275.019.559.033.873.042C1102.411,573.759,1102.51,573.758,1102.613,573.759Zm12.491-4.88h0Z" fill="#70bba6" stroke="#040405" stroke-miterlimit="10" stroke-width="0.298"/>
      </g>
      <g id="Groupe_567" data-name="Groupe 567">
        <path id="Tracé_1759" data-name="Tracé 1759" d="M1091.793,547.438a.327.327,0,0,1-.191-.06.384.384,0,0,1-.129-.15.364.364,0,0,1-.063-.205q.006-.184-.005-1.481-.006-.946.047-1.487a.346.346,0,0,1,.032-.126.383.383,0,0,1,.131-.171.367.367,0,0,1,.2-.071q.383,0,1.035,0c.434,0,.779,0,1.034,0a.357.357,0,0,1,.26.1.343.343,0,0,1,.108.255.359.359,0,0,1-.1.257.336.336,0,0,1-.255.108l-.877,0c-.389,0-.682,0-.878,0q-.015.321-.021.756.253,0,1.555-.005a.358.358,0,0,1,.26.1.342.342,0,0,1,.108.255.348.348,0,0,1-.108.257.353.353,0,0,1-.26.108q-1.308,0-1.549.005c.007.393.008.669.005.83q1.066.01,1.781.011a.362.362,0,1,1,0,.725Q1093.139,547.454,1091.793,547.438Z" fill="#a72350" stroke="#040405" stroke-miterlimit="10" stroke-width="0.298"/>
        <path id="Tracé_1760" data-name="Tracé 1760" d="M1095.607,546.7q-.2.288-.362.572a.365.365,0,0,1-.229.171.351.351,0,0,1-.281-.04.364.364,0,0,1-.17-.233.359.359,0,0,1,.039-.287q.235-.4.52-.835l-.594-.756a.375.375,0,0,1-.078-.279.36.36,0,0,1,.133-.254.355.355,0,0,1,.271-.082.365.365,0,0,1,.252.137l.468.593.4-.588a.364.364,0,0,1,.515-.068.388.388,0,0,1,.068.535l-.515.746.589.83a.372.372,0,0,1,.063.284.351.351,0,0,1-.153.244.364.364,0,0,1-.278.061.343.343,0,0,1-.236-.153Z" fill="#a72350" stroke="#040405" stroke-miterlimit="10" stroke-width="0.298"/>
        <path id="Tracé_1761" data-name="Tracé 1761" d="M1098.155,547.491a1.638,1.638,0,0,1-.447-.106,1.346,1.346,0,0,1-.572-.446,1.283,1.283,0,0,1-.268-.683,1.481,1.481,0,0,1,.1-.633,1.607,1.607,0,0,1,.35-.554,1.372,1.372,0,0,1,.365-.271,1.3,1.3,0,0,1,.459-.128,1.013,1.013,0,0,1,.52.089,1.133,1.133,0,0,1,.3.189l.068.063.095.079a.355.355,0,0,1,.139.239.336.336,0,0,1-.076.262.357.357,0,0,1-.245.137.353.353,0,0,1-.27-.076c-.007,0-.074-.06-.2-.168a.541.541,0,0,0-.094-.068.446.446,0,0,0-.526.141.946.946,0,0,0-.2.31.712.712,0,0,0-.056.336.617.617,0,0,0,.116.3.592.592,0,0,0,.278.224.666.666,0,0,0,.313.05.352.352,0,0,0,.207-.1.382.382,0,0,0,.063-.111c.074-.161.112-.245.116-.252a.344.344,0,0,1,.213-.176.37.37,0,0,1,.281.021.334.334,0,0,1,.181.208.343.343,0,0,1-.024.273c-.01.021-.021.043-.031.065s-.021.049-.032.077a.457.457,0,0,1-.031.068.976.976,0,0,1-.2.315.966.966,0,0,1-.425.257A1.141,1.141,0,0,1,1098.155,547.491Z" fill="#a72350" stroke="#040405" stroke-miterlimit="10" stroke-width="0.298"/>
        <path id="Tracé_1762" data-name="Tracé 1762" d="M1100.393,547.317a1.216,1.216,0,0,1-.481-.478,1.35,1.35,0,0,1-.166-.662,1.723,1.723,0,0,1,.169-.79,1.282,1.282,0,0,1,.483-.528,1.329,1.329,0,0,1,.714-.2,1.387,1.387,0,0,1,.7.168,1.1,1.1,0,0,1,.438.455,1.378,1.378,0,0,1,.147.638.347.347,0,0,1-.115.278.521.521,0,0,1-.31.116q-.394.038-.7.037c-.192,0-.4-.005-.62-.016l-.183-.005a.6.6,0,0,0,.2.4.751.751,0,0,0,.517.134.848.848,0,0,0,.252-.04.514.514,0,0,0,.169-.1l.089-.09a.36.36,0,0,1,.1-.073.347.347,0,0,1,.142-.026.306.306,0,0,1,.228.092.292.292,0,0,1,.092.212.437.437,0,0,1-.168.321,1.216,1.216,0,0,1-.433.241,1.67,1.67,0,0,1-.539.09A1.467,1.467,0,0,1,1100.393,547.317Zm.777-1.487a2.539,2.539,0,0,0,.531-.047.475.475,0,0,0-.578-.494.786.786,0,0,0-.436.121.528.528,0,0,0-.2.389A4.152,4.152,0,0,0,1101.17,545.83Z" fill="#a72350" stroke="#040405" stroke-miterlimit="10" stroke-width="0.298"/>
        <path id="Tracé_1763" data-name="Tracé 1763" d="M1103.468,547.406a.349.349,0,0,1-.26.1.369.369,0,0,1-.362-.37q.011,0,.005-1.513l-.005-1.608a.358.358,0,0,1,.107-.26.371.371,0,0,1,.521,0,.358.358,0,0,1,.107.26q0,.42,0,1.046c0,.416,0,.794,0,1.132s0,.655-.005.953A.36.36,0,0,1,1103.468,547.406Z" fill="#a72350" stroke="#040405" stroke-miterlimit="10" stroke-width="0.298"/>
        <path id="Tracé_1764" data-name="Tracé 1764" d="M1104.787,547.406a.369.369,0,0,1-.623-.267q.011,0,.006-1.513l-.006-1.608a.368.368,0,0,1,.736,0q0,.42,0,1.046c0,.416,0,.794,0,1.132s0,.655-.005.953A.364.364,0,0,1,1104.787,547.406Z" fill="#a72350" stroke="#040405" stroke-miterlimit="10" stroke-width="0.298"/>
        <path id="Tracé_1765" data-name="Tracé 1765" d="M1106.05,547.317a1.229,1.229,0,0,1-.481-.478,1.349,1.349,0,0,1-.165-.662,1.736,1.736,0,0,1,.168-.79,1.282,1.282,0,0,1,.483-.528,1.329,1.329,0,0,1,.715-.2,1.38,1.38,0,0,1,.7.168,1.11,1.11,0,0,1,.439.455,1.378,1.378,0,0,1,.147.638.347.347,0,0,1-.116.278.519.519,0,0,1-.31.116q-.393.038-.7.037c-.193,0-.4-.005-.62-.016l-.184-.005a.6.6,0,0,0,.2.4.751.751,0,0,0,.518.134.848.848,0,0,0,.252-.04.5.5,0,0,0,.168-.1l.089-.09a.389.389,0,0,1,.1-.073.353.353,0,0,1,.142-.026.306.306,0,0,1,.228.092.288.288,0,0,1,.092.212.438.438,0,0,1-.168.321,1.207,1.207,0,0,1-.433.241,1.668,1.668,0,0,1-.538.09A1.467,1.467,0,0,1,1106.05,547.317Zm.778-1.487a2.528,2.528,0,0,0,.53-.047.562.562,0,0,0-.134-.362.571.571,0,0,0-.444-.132.789.789,0,0,0-.436.121.532.532,0,0,0-.2.389A4.164,4.164,0,0,0,1106.828,545.83Z" fill="#a72350" stroke="#040405" stroke-miterlimit="10" stroke-width="0.298"/>
        <path id="Tracé_1766" data-name="Tracé 1766" d="M1110.741,547.359a.328.328,0,0,1-.247.095.34.34,0,0,1-.241-.111.328.328,0,0,1-.1-.247c0-.038,0-.154.013-.346s.014-.342.016-.447,0-.226-.013-.365a1.447,1.447,0,0,0-.058-.333.314.314,0,0,0-.126-.166.465.465,0,0,0-.236-.076.566.566,0,0,0-.271.034.373.373,0,0,0-.181.139.707.707,0,0,0-.024.092.64.64,0,0,0,0,.071q0,.185.006.659t.005.723a.367.367,0,1,1-.735,0q0-.22-.008-.9c-.006-.455-.021-.8-.045-1.045a.356.356,0,0,1,.074-.3.324.324,0,0,1,.257-.113.315.315,0,0,1,.331.273.845.845,0,0,1,.667-.32.932.932,0,0,1,.609.2,1.1,1.1,0,0,1,.342.522,2.077,2.077,0,0,1,.081.452,4.586,4.586,0,0,1,.021.46c0,.124-.007.29-.016.5s-.013.312-.013.316A.335.335,0,0,1,1110.741,547.359Z" fill="#a72350" stroke="#040405" stroke-miterlimit="10" stroke-width="0.298"/>
        <path id="Tracé_1767" data-name="Tracé 1767" d="M1112.217,547.391a.647.647,0,0,1-.11-.053l-.137-.079a1.514,1.514,0,0,1-.315-.225.551.551,0,0,1-.11-.229,2.313,2.313,0,0,1-.027-.334v-.1c0-.1-.005-.338-.005-.709,0-.15,0-.264.005-.341h-.1a.324.324,0,0,1-.229-.092.308.308,0,0,1-.1-.234.325.325,0,0,1,.1-.244.319.319,0,0,1,.231-.1h.094l.006-.226v-.163a.335.335,0,0,1,.113-.26.373.373,0,0,1,.249-.092.378.378,0,0,1,.26.1.342.342,0,0,1,.113.273l-.01.357h.194a.374.374,0,0,1,.284.1.35.35,0,0,1,.094.252.345.345,0,0,1-.1.25.392.392,0,0,1-.294.1h-.194c0,.144,0,.25-.005.32s-.006.179-.006.316c0,.224.007.418.021.583.014.014.023.021.027.021l.052.036.042.021.048.027.041.021a.757.757,0,0,1,.163.094.34.34,0,0,1,.163.294.389.389,0,0,1-.105.266.325.325,0,0,1-.252.118A.364.364,0,0,1,1112.217,547.391Z" fill="#a72350" stroke="#040405" stroke-miterlimit="10" stroke-width="0.298"/>
        <path id="Tracé_1768" data-name="Tracé 1768" d="M1113.215,544.118a.368.368,0,0,1,.736,0v2.143a.368.368,0,0,1-.623.268.366.366,0,0,1-.113-.257Zm.736,3.084a.368.368,0,1,1-.368-.368.378.378,0,0,1,.368.368Z" fill="#a72350" stroke="#040405" stroke-miterlimit="10" stroke-width="0.298"/>
      </g>
    </g>
    <g id="Groupe_569" data-name="Groupe 569">
      <circle id="Ellipse_83" data-name="Ellipse 83" cx="6.749" cy="6.749" r="6.749" transform="translate(1088.66 551.946)" fill="#ffbd00" stroke="#fff" stroke-miterlimit="22.926" stroke-width="0.185" stroke-dasharray="0.369 0.185"/>
      <path id="Tracé_1769" data-name="Tracé 1769" d="M1095.408,564.423a5.728,5.728,0,1,0-5.728-5.728A5.74,5.74,0,0,0,1095.408,564.423Z" fill="#ffbd00" stroke="#fff" stroke-miterlimit="22.926" stroke-width="0.185" stroke-dasharray="0.369 0.185" fill-rule="evenodd"/>
      <path id="Tracé_1770" data-name="Tracé 1770" d="M1095.26,557.244c1.684-2.618,5.8-1.043,3.875,2.034a12.1,12.1,0,0,1-3.875,3.531,11.247,11.247,0,0,1-4.048-3.839C1089.728,556.16,1093.617,554.689,1095.26,557.244Z" fill="#fff" fill-rule="evenodd"/>
    </g>
    <g id="Groupe_570" data-name="Groupe 570">
      <circle id="Ellipse_84" data-name="Ellipse 84" cx="6.749" cy="6.749" r="6.749" transform="translate(1104.867 551.946)" fill="#ffbd00" stroke="#fff" stroke-miterlimit="22.926" stroke-width="0.185" stroke-dasharray="0.369 0.185"/>
      <path id="Tracé_1771" data-name="Tracé 1771" d="M1111.615,564.423a5.728,5.728,0,1,0-5.728-5.728A5.74,5.74,0,0,0,1111.615,564.423Z" fill="#ffbd00" stroke="#fff" stroke-miterlimit="22.926" stroke-width="0.185" stroke-dasharray="0.369 0.185" fill-rule="evenodd"/>
      <path id="Tracé_1772" data-name="Tracé 1772" d="M1111.467,557.244c1.684-2.618,5.8-1.043,3.875,2.034a12.1,12.1,0,0,1-3.875,3.531,11.247,11.247,0,0,1-4.048-3.839C1105.935,556.16,1109.824,554.689,1111.467,557.244Z" fill="#fff" fill-rule="evenodd"/>
    </g>
  </g>
</svg>
