<svg xmlns="http://www.w3.org/2000/svg" xmlns:xlink="http://www.w3.org/1999/xlink" width="155.918" height="31.668" viewBox="0 0 155.918 31.668">
  <defs>
    <linearGradient id="linear-gradient" y1="0.5" x2="1" y2="0.5" gradientUnits="objectBoundingBox">
      <stop offset="0" stop-color="#4b5149"/>
      <stop offset="0.422" stop-color="#286029"/>
      <stop offset="0.994" stop-color="#8ab211"/>
    </linearGradient>
    <linearGradient id="linear-gradient-2" x1="0" y1="0.5" x2="1" y2="0.5" xlink:href="#linear-gradient"/>
    <linearGradient id="linear-gradient-4" x1="0" y1="0.5" x2="1" y2="0.5" xlink:href="#linear-gradient"/>
    <linearGradient id="linear-gradient-6" x1="0" y1="0.5" x2="1" y2="0.5" xlink:href="#linear-gradient"/>
    <linearGradient id="linear-gradient-10" x1="0" y1="0.5" x2="1" y2="0.5" xlink:href="#linear-gradient"/>
  </defs>
  <g id="Groupe_541" data-name="Groupe 541" transform="translate(-981.312 -403.628)" opacity="0.75">
    <g id="Groupe_540" data-name="Groupe 540">
      <g id="Groupe_539" data-name="Groupe 539">
        <path id="Tracé_1725" data-name="Tracé 1725" d="M1111.485,418.227a.355.355,0,0,1-.315-.177l-1.887-3.268-3.81,2.2a.357.357,0,0,1-.5-.153l-1.8-3.716-3.845,2.572a.354.354,0,0,1-.516-.139L1096.6,411a.354.354,0,1,1,.637-.311l2.038,4.181,3.846-2.573a.355.355,0,0,1,.517.141l1.808,3.739,3.786-2.186a.355.355,0,0,1,.485.129l1.887,3.269,3.43-1.981a.355.355,0,1,1,.355.614l-3.738,2.158A.344.344,0,0,1,1111.485,418.227Z" fill-rule="evenodd" fill="url(#linear-gradient)"/>
        <path id="Tracé_1726" data-name="Tracé 1726" d="M986.991,435.29a.179.179,0,0,1-.219-.127l-.227-.848-.849.227a.179.179,0,0,1-.219-.126l-.255-.955a.178.178,0,0,1,.126-.219l.849-.227-.228-.849a.179.179,0,0,1,.127-.219l.954-.255a.178.178,0,0,1,.219.126l.227.849.849-.228a.179.179,0,0,1,.219.127l.256.954a.179.179,0,0,1-.127.219l-.848.228.227.848a.178.178,0,0,1-.126.219Z" fill="url(#linear-gradient-2)"/>
        <path id="Tracé_1727" data-name="Tracé 1727" d="M1134.9,426.768a.235.235,0,0,0,.288-.167l.3-1.115,1.115.3a.234.234,0,0,0,.288-.166l.336-1.254a.234.234,0,0,0-.166-.288l-1.115-.3.3-1.115a.235.235,0,0,0-.167-.288l-1.254-.336a.234.234,0,0,0-.288.166l-.3,1.115-1.116-.3a.236.236,0,0,0-.288.166l-.336,1.255a.236.236,0,0,0,.167.288l1.115.3-.3,1.116a.233.233,0,0,0,.166.287Z" fill="url(#linear-gradient)"/>
        <path id="Tracé_1728" data-name="Tracé 1728" d="M1053.451,413.648a.235.235,0,0,1-.289-.167l-.3-1.118-1.119.3a.234.234,0,0,1-.288-.166l-.337-1.258a.235.235,0,0,1,.166-.289l1.119-.3-.3-1.118a.236.236,0,0,1,.167-.289l1.258-.337a.235.235,0,0,1,.289.167l.3,1.118,1.119-.3a.237.237,0,0,1,.289.167l.337,1.258a.236.236,0,0,1-.167.289l-1.118.3.3,1.118a.235.235,0,0,1-.166.289Z" fill="url(#linear-gradient-4)"/>
        <path id="Tracé_1729" data-name="Tracé 1729" d="M996.079,425.237a.275.275,0,0,1-.151-.036l-2.916-1.684a.276.276,0,1,1,.276-.479l2.677,1.545,1.472-2.55a.277.277,0,0,1,.378-.1l2.954,1.706,1.411-2.918a.274.274,0,0,1,.176-.146.277.277,0,0,1,.226.037l3,2.007,1.591-3.262a.277.277,0,1,1,.5.243l-1.729,3.547a.276.276,0,0,1-.4.108l-3-2.006-1.4,2.9a.278.278,0,0,1-.388.12l-2.972-1.717-1.472,2.55A.276.276,0,0,1,996.079,425.237Z" fill-rule="evenodd" fill="url(#linear-gradient)"/>
        <path id="Tracé_1730" data-name="Tracé 1730" d="M995.3,422.755a.275.275,0,0,1-.151-.036l-2.916-1.684a.276.276,0,1,1,.276-.479l2.677,1.545,1.472-2.55a.277.277,0,0,1,.378-.1l2.954,1.706,1.411-2.917a.275.275,0,0,1,.4-.11l3,2.008,1.59-3.262a.277.277,0,1,1,.5.242l-1.729,3.547a.277.277,0,0,1-.4.109l-3-2.007-1.4,2.9a.277.277,0,0,1-.388.119L997,420.068l-1.472,2.549A.275.275,0,0,1,995.3,422.755Z" fill-rule="evenodd" fill="url(#linear-gradient-6)"/>
        <circle id="Ellipse_72" data-name="Ellipse 72" cx="1.064" cy="1.064" r="1.064" transform="translate(1017.498 403.628)" fill="url(#linear-gradient)"/>
        <circle id="Ellipse_73" data-name="Ellipse 73" cx="1.135" cy="1.135" r="1.135" transform="translate(1130.579 410.542)" fill="url(#linear-gradient)"/>
        <circle id="Ellipse_74" data-name="Ellipse 74" cx="0.993" cy="0.993" r="0.993" transform="translate(1076.983 406.515)" fill="url(#linear-gradient)"/>
        <path id="Tracé_1731" data-name="Tracé 1731" d="M983.318,413.839a1,1,0,1,0-1,1A1,1,0,0,0,983.318,413.839Z" fill="url(#linear-gradient-10)"/>
      </g>
    </g>
  </g>
</svg>
