<svg xmlns="http://www.w3.org/2000/svg" xmlns:xlink="http://www.w3.org/1999/xlink" viewBox="0 0 6.13 5.78"><defs><style>.cls-1{fill:url(#Dégradé_sans_nom_14);}</style><linearGradient id="Dégradé_sans_nom_14" y1="2.89" x2="6.13" y2="2.89" gradientUnits="userSpaceOnUse"><stop offset="0" stop-color="#5c635b"/><stop offset="0.42" stop-color="#247238"/><stop offset="0.99" stop-color="#8ebf25"/></linearGradient></defs><g id="Calque_2" data-name="Calque 2"><g id="Calque_1-2" data-name="Calque 1"><path class="cls-1" d="M6.13.09,6.07.14c-.26.25-.52.5-.77.76s-.62.65-.91,1S3.82,2.6,3.56,3s-.53.8-.77,1.21-.63,1-.95,1.57a.08.08,0,0,1-.07,0,.12.12,0,0,1-.13-.07c-.14-.24-.26-.48-.38-.73L1,4.32a4.1,4.1,0,0,0-.39-.71A.44.44,0,0,0,.5,3.5a.48.48,0,0,0-.45-.16H0a.61.61,0,0,1,.05-.18A.74.74,0,0,1,.69,2.8a.73.73,0,0,1,.5.16,1.87,1.87,0,0,1,.44.49c.08.11.14.23.22.35a.35.35,0,0,1,0-.08A17.22,17.22,0,0,1,3,2.28c.32-.37.65-.72,1-1.06A5.92,5.92,0,0,1,4.94.5,6.71,6.71,0,0,1,5.86,0l.07,0H6a.29.29,0,0,1,.15.09Z"/></g></g></svg>