<svg xmlns="http://www.w3.org/2000/svg" viewBox="0 0 8.5 8.41"><defs><style>.cls-1{fill:#616160;}</style></defs><g id="Calque_2" data-name="Calque 2"><g id="Calque_1-2" data-name="Calque 1"><path class="cls-1" d="M5,6.93A3.47,3.47,0,1,1,8.5,3.46,3.48,3.48,0,0,1,5,6.93ZM5,.45a3,3,0,1,0,3,3A3,3,0,0,0,5,.45Z"/><path class="cls-1" d="M.22,8.41a.22.22,0,0,1-.15-.06A.22.22,0,0,1,.07,8L2.54,5.56a.22.22,0,0,1,.32,0,.21.21,0,0,1,0,.31L.38,8.35A.23.23,0,0,1,.22,8.41Z"/><path class="cls-1" d="M5.08,5.15A5.86,5.86,0,0,1,3.67,5a.24.24,0,0,1-.17-.18,1.66,1.66,0,0,1,.76-1.73,1.12,1.12,0,0,1-.14-.55,1,1,0,0,1,1-1.06,1,1,0,0,1,1,1.06,1.12,1.12,0,0,1-.14.55,1.67,1.67,0,0,1,.75,1.73A.23.23,0,0,1,6.5,5,5.88,5.88,0,0,1,5.08,5.15ZM3.92,4.59a5.5,5.5,0,0,0,1.16.12,5.36,5.36,0,0,0,1.16-.12s0-.07,0-.1a1.18,1.18,0,0,0-.77-1.11.24.24,0,0,1-.14-.17A.24.24,0,0,1,5.41,3a.65.65,0,0,0,.19-.47.58.58,0,0,0-.52-.62.58.58,0,0,0-.51.62A.65.65,0,0,0,4.76,3a.23.23,0,0,1,.06.21.22.22,0,0,1-.14.17,1.19,1.19,0,0,0-.76,1.11Z"/></g></g></svg>