<svg xmlns="http://www.w3.org/2000/svg" viewBox="0 0 7.94 8.8"><defs><style>.cls-1{fill:#616160;}</style></defs><g id="Calque_2" data-name="Calque 2"><g id="Calque_1-2" data-name="Calque 1"><path class="cls-1" d="M7.65,8.8H1a.29.29,0,0,1-.29-.29V6.93a.29.29,0,0,1,.58,0v1.3H7.36V.58H1.3V2A.29.29,0,0,1,.72,2V.29A.29.29,0,0,1,1,0H7.65a.29.29,0,0,1,.29.29V8.51A.29.29,0,0,1,7.65,8.8Z"/><path class="cls-1" d="M1.37,3.54H.29A.29.29,0,0,1,.29,3H1.37a.29.29,0,1,1,0,.58Z"/><path class="cls-1" d="M1.37,5.7H.29a.29.29,0,1,1,0-.58H1.37a.29.29,0,1,1,0,.58Z"/><path class="cls-1" d="M4.39,7a8.23,8.23,0,0,1-2-.22.27.27,0,0,1-.21-.22,1.93,1.93,0,0,1-.05-.42A2.14,2.14,0,0,1,3.26,4.29a1.46,1.46,0,0,1-.19-.72A1.35,1.35,0,0,1,4.39,2.19,1.35,1.35,0,0,1,5.7,3.57a1.46,1.46,0,0,1-.19.72A2.14,2.14,0,0,1,6.6,6.13a2,2,0,0,1,0,.42.27.27,0,0,1-.21.22A8.21,8.21,0,0,1,4.39,7ZM2.76,6.25a7.76,7.76,0,0,0,1.63.17A7.66,7.66,0,0,0,6,6.25a.49.49,0,0,0,0-.12A1.57,1.57,0,0,0,5,4.67a.28.28,0,0,1-.09-.48.85.85,0,0,0,.27-.62.78.78,0,0,0-.74-.8.77.77,0,0,0-.74.8.84.84,0,0,0,.26.62.28.28,0,0,1-.09.48A1.57,1.57,0,0,0,2.75,6.13.49.49,0,0,0,2.76,6.25Z"/></g></g></svg>