<svg xmlns="http://www.w3.org/2000/svg" xmlns:xlink="http://www.w3.org/1999/xlink" width="7.381" height="7.99" viewBox="0 0 7.381 7.99">
  <defs>
    <linearGradient id="linear-gradient" y1="0.5" x2="1" y2="0.5" gradientUnits="objectBoundingBox">
      <stop offset="0" stop-color="#4b5149"/>
      <stop offset="0.422" stop-color="#286029"/>
      <stop offset="0.994" stop-color="#8ab211"/>
    </linearGradient>
  </defs>
  <g id="Groupe_4091" data-name="Groupe 4091" transform="translate(-2091.198 -804.182)">
    <g id="Groupe_4090" data-name="Groupe 4090">
      <path id="Tracé_5875" data-name="Tracé 5875" d="M2098.363,812.172H2096a.216.216,0,0,1-.216-.216v-1.414a.889.889,0,0,0-1.777,0v1.414a.216.216,0,0,1-.216.216h-2.381a.216.216,0,0,1-.216-.216v-3.779a.22.22,0,0,1,.057-.146l3.475-3.779a.226.226,0,0,1,.161-.07.217.217,0,0,1,.16.074l3.475,3.957a.217.217,0,0,1,.053.143v3.6A.215.215,0,0,1,2098.363,812.172Zm-2.143-.432h1.928v-3.3l-3.263-3.716-3.255,3.54v3.479h1.949v-1.2a1.32,1.32,0,0,1,2.641,0Z" fill="url(#linear-gradient)"/>
    </g>
  </g>
</svg>
