<svg xmlns="http://www.w3.org/2000/svg" viewBox="0 0 4.14 4.91"><defs><style>.cls-1{fill:#91978f;}</style></defs><g id="Calque_2" data-name="Calque 2"><g id="Calque_1-2" data-name="Calque 1"><path class="cls-1" d="M2,4.89c-.45,0-.91,0-1.36,0A.64.64,0,0,1,0,4.23C0,3.64,0,3,0,2.45A.59.59,0,0,1,.7,1.87l2.81,0a.59.59,0,0,1,.63.59c0,.61,0,1.22,0,1.83a.56.56,0,0,1-.63.57L2,4.89Zm.54-1.8a.46.46,0,0,0-.32-.42.52.52,0,0,0-.56.12c-.12.15-.17.32,0,.46a.79.79,0,0,1,.16.58c0,.15,0,.29.24.3s.24-.13.25-.29a.68.68,0,0,1,.2-.59C2.56,3.22,2.56,3.13,2.58,3.09Z" transform="translate(0 0)"/><path class="cls-1" d="M1,1.49H.46A1.35,1.35,0,0,1,1.13.28,1.83,1.83,0,0,1,3,.23a1.38,1.38,0,0,1,.78,1.3H3.25a1.12,1.12,0,0,0-1.11-1A1.13,1.13,0,0,0,1,1.49Z" transform="translate(0 0)"/></g></g></svg>