<svg xmlns="http://www.w3.org/2000/svg" viewBox="0 0 7.09 7.58"><defs><style>.cls-1{fill:#616160;}</style></defs><g id="Calque_2" data-name="Calque 2"><g id="Calque_1-2" data-name="Calque 1"><path class="cls-1" d="M2.49.68A3.51,3.51,0,0,0,0,4.48a3.55,3.55,0,0,0,7.06-.3C7.13,2.52,5.91.83,4.52.68c0,.25,0,.49,0,.74a.62.62,0,0,0,.34.65,2.36,2.36,0,1,1-2.64,0c.11-.08.25-.2.26-.31C2.51,1.41,2.49,1.06,2.49.68ZM4.16,2c0-.49,0-1,0-1.46S4,0,3.58,0s-.7.11-.7.48c0,1,0,2,0,2.92a.44.44,0,0,0,.46.48h.34c.36,0,.49-.15.49-.51S4.16,2.42,4.16,2Z"/></g></g></svg>