<svg xmlns="http://www.w3.org/2000/svg" width="3.631" height="5.654" viewBox="0 0 3.631 5.654">
  <g id="Groupe_4113" data-name="Groupe 4113" transform="translate(-2222.201 -727.293)">
    <path id="Tracé_5893" data-name="Tracé 5893" d="M2223.049,729.157c0-.3,0-.6,0-.9a.974.974,0,0,1,1.947-.024c.01.617.009,1.233,0,1.849a.976.976,0,0,1-1.932.152,8.537,8.537,0,0,1-.015-.988Z" fill="#747474"/>
    <path id="Tracé_5894" data-name="Tracé 5894" d="M2225.831,730.038a1.777,1.777,0,0,1-1.338,1.736c-.183.049-.232.114-.232.3s0,.4,0,.6a.248.248,0,0,1-.24.266.251.251,0,0,1-.252-.269c0-.2,0-.4,0-.6s-.053-.249-.236-.3a1.731,1.731,0,0,1-1.264-1.245,2.677,2.677,0,0,1-.067-.622.234.234,0,0,1,.243-.248.237.237,0,0,1,.238.263,1.315,1.315,0,0,0,.623,1.242,1.332,1.332,0,0,0,2.04-1.1c0-.048,0-.1,0-.143a.241.241,0,0,1,.229-.259.246.246,0,0,1,.256.252C2225.833,729.952,2225.831,729.995,2225.831,730.038Z" fill="#747474"/>
  </g>
</svg>
