<svg xmlns="http://www.w3.org/2000/svg" width="26.255" height="26.255" viewBox="0 0 26.255 26.255">
  <g id="Groupe_131" data-name="Groupe 131" transform="translate(-363.058 -620.153)">
    <rect id="Rectangle_32" data-name="Rectangle 32" width="26.2" height="26.199" rx="3.064" transform="translate(363.058 646.352) rotate(-89.879)" fill="#246925"/>
    <g id="Groupe_130" data-name="Groupe 130">
      <g id="Groupe_129" data-name="Groupe 129">
        <path id="Tracé_647" data-name="Tracé 647" d="M375.021,634.443c-.724,0-1.357.014-1.989,0a1.162,1.162,0,1,1,0-2.319c.632-.019,1.264,0,1.989,0,0-.708-.012-1.339,0-1.968.018-.793.432-1.247,1.125-1.264.73-.018,1.173.441,1.194,1.266.015.612,0,1.225,0,1.965.644,0,1.247-.007,1.85,0,.907.013,1.379.41,1.385,1.15s-.469,1.163-1.36,1.177c-.587.009-1.175,0-1.874,0,0,.659.008,1.263,0,1.867-.015.872-.461,1.379-1.184,1.365-.695-.012-1.124-.508-1.138-1.338C375.013,635.749,375.021,635.16,375.021,634.443Z" fill="#fff"/>
      </g>
    </g>
  </g>
</svg>
