<svg xmlns="http://www.w3.org/2000/svg" width="70.866" height="70.866" viewBox="0 0 70.866 70.866">
  <g id="Groupe_202" data-name="Groupe 202" transform="translate(-688.438 -554.615)">
    <rect id="Rectangle_55" data-name="Rectangle 55" width="70.866" height="70.866" rx="0.326" transform="translate(688.438 554.615)" fill="#27a4e1"/>
    <g id="Groupe_201" data-name="Groupe 201">
      <path id="Tracé_984" data-name="Tracé 984" d="M741.1,589.8a.14.14,0,0,1-.14.141h-6.076v-1.07c.069-.069.135-.141.2-.216s.144-.18.209-.276a3.066,3.066,0,0,0,.181-.3,3.281,3.281,0,0,0,.151-.311c.045-.107.085-.215.119-.325s.063-.222.086-.336a3.274,3.274,0,0,0,.052-.342,3.337,3.337,0,0,0,.018-.346c0-.081,0-.163-.009-.244a3.291,3.291,0,0,0-.042-.344,3.228,3.228,0,0,0-.075-.338,3.424,3.424,0,0,0-.11-.328,3.315,3.315,0,0,0-.141-.316c-.052-.1-.11-.2-.172-.3s-.13-.191-.2-.281a3.452,3.452,0,0,0-.481-.5c-.089-.075-.181-.144-.276-.21s-.194-.125-.3-.181a3.555,3.555,0,0,0-.637-.269,3.228,3.228,0,0,0-.335-.085,3.5,3.5,0,0,0-.688-.07c-.082,0-.164,0-.245.009a3.323,3.323,0,0,0-.344.042,3.289,3.289,0,0,0-.338.076c-.111.031-.22.067-.328.109s-.213.089-.316.141-.2.11-.3.172-.191.13-.282.2-.177.148-.26.228-.161.165-.236.254-.144.18-.209.275a3.2,3.2,0,0,0-.181.3,3.432,3.432,0,0,0-.151.312c-.045.106-.084.215-.119.325s-.062.222-.085.335-.04.228-.052.343-.017.23-.017.345c0,.1,0,.2.013.294a3.333,3.333,0,0,0,.046.343c.022.113.049.226.081.336s.071.22.114.327.092.212.146.314a3.436,3.436,0,0,0,.177.3,3.255,3.255,0,0,0,.206.278,3.326,3.326,0,0,0,.232.257v1.07h-6.077a.141.141,0,0,1-.14-.141v-5.888h-1.069a3.463,3.463,0,1,1,0-4.9h1.07v-5.888a.14.14,0,0,1,.14-.14h17.049a.14.14,0,0,1,.14.14Z" fill="#ffd43d" stroke="#272727" stroke-linecap="round" stroke-linejoin="round" stroke-width="0.567"/>
      <path id="Tracé_985" data-name="Tracé 985" d="M724.11,607.274a.14.14,0,0,1-.14-.141v-6.076h1.069c.07.069.142.136.217.2s.18.144.275.209a3.317,3.317,0,0,0,.607.332,3.071,3.071,0,0,0,.325.119,3.235,3.235,0,0,0,.335.086,3.278,3.278,0,0,0,.342.052,3.337,3.337,0,0,0,.346.018c.082,0,.163,0,.245-.009.115-.008.23-.022.343-.041s.227-.045.338-.076.221-.067.329-.109a3.521,3.521,0,0,0,.616-.314c.1-.062.191-.13.281-.2a3.346,3.346,0,0,0,.261-.229c.082-.08.161-.165.235-.253a3.142,3.142,0,0,0,.21-.276,3.3,3.3,0,0,0,.181-.3c.055-.1.1-.2.15-.311a3.439,3.439,0,0,0,.119-.326c.034-.11.063-.222.086-.335s.04-.227.052-.342.017-.231.017-.346c0-.082,0-.163-.009-.245a3.321,3.321,0,0,0-.042-.344,3.267,3.267,0,0,0-.075-.337,3.478,3.478,0,0,0-.423-.945c-.063-.1-.13-.191-.2-.282s-.148-.177-.228-.26-.165-.161-.253-.236-.181-.144-.276-.209a3.481,3.481,0,0,0-.607-.332,3.308,3.308,0,0,0-.325-.118c-.11-.034-.222-.063-.335-.086s-.228-.04-.342-.052-.231-.017-.346-.017c-.1,0-.2,0-.294.013a3.336,3.336,0,0,0-.343.047c-.113.021-.225.048-.336.08s-.22.071-.327.114-.212.093-.314.147a3.167,3.167,0,0,0-.3.176,3.339,3.339,0,0,0-.279.206c-.089.073-.175.15-.257.232H723.97v-6.076a.14.14,0,0,1,.14-.141H730v-1.069a3.463,3.463,0,1,1,4.9,0v1.069h5.888a.14.14,0,0,1,.14.141v17.048a.14.14,0,0,1-.14.141Z" fill="#e23e46" stroke="#272727" stroke-linecap="round" stroke-linejoin="round" stroke-width="0.567"/>
      <path id="Tracé_986" data-name="Tracé 986" d="M706.637,590.272a.14.14,0,0,1,.14-.14h6.077V591.2c-.07.07-.136.142-.2.217a3.269,3.269,0,0,0-.21.275,3.436,3.436,0,0,0-.181.295c-.055.1-.106.205-.151.312a3.319,3.319,0,0,0-.119.325c-.034.11-.063.222-.086.335s-.04.227-.052.342-.017.231-.017.346c0,.082,0,.163.008.245a3.34,3.34,0,0,0,.042.344c.02.113.045.226.076.337a3.415,3.415,0,0,0,.109.329c.042.107.089.213.141.316a3.6,3.6,0,0,0,.374.582c.072.09.148.177.228.26s.165.161.254.236.18.144.275.209.194.126.295.181.206.106.312.151a3.414,3.414,0,0,0,.325.118c.111.034.222.063.336.086s.227.04.342.052.23.017.346.017c.081,0,.163,0,.245-.009.115-.008.229-.022.343-.041s.227-.045.338-.076a3.4,3.4,0,0,0,.328-.109,3.209,3.209,0,0,0,.316-.142,3.438,3.438,0,0,0,.3-.172c.1-.062.191-.13.281-.2a3.152,3.152,0,0,0,.26-.229,3.335,3.335,0,0,0,.236-.253,3.141,3.141,0,0,0,.21-.276c.065-.1.125-.193.181-.3s.1-.2.15-.311a3.439,3.439,0,0,0,.119-.326c.034-.11.063-.222.086-.335a3.272,3.272,0,0,0,.051-.342,3.352,3.352,0,0,0,.018-.346c0-.1-.005-.2-.013-.293-.01-.115-.026-.23-.047-.343a3.25,3.25,0,0,0-.081-.337,3.174,3.174,0,0,0-.114-.327,3.522,3.522,0,0,0-.528-.89c-.073-.089-.151-.175-.232-.256v-1.07h6.076a.139.139,0,0,1,.14.14v5.888h1.07a3.463,3.463,0,1,1,0,4.9h-1.07v5.888a.14.14,0,0,1-.14.141H706.777a.141.141,0,0,1-.14-.141Z" fill="#487fc1" stroke="#272727" stroke-linecap="round" stroke-linejoin="round" stroke-width="0.567"/>
      <path id="Tracé_987" data-name="Tracé 987" d="M723.667,572.823a.14.14,0,0,1,.14.14v6.077h-1.069c-.07-.069-.142-.136-.217-.2s-.18-.144-.275-.21-.194-.125-.295-.181a3.45,3.45,0,0,0-.312-.151c-.106-.045-.214-.084-.325-.119s-.222-.063-.335-.086-.227-.04-.342-.052-.231-.017-.346-.017c-.082,0-.163,0-.245.008-.115.009-.23.023-.344.042s-.226.045-.337.076a3.391,3.391,0,0,0-.645.251,3.2,3.2,0,0,0-.3.172,3.442,3.442,0,0,0-.282.2c-.09.072-.177.148-.26.229s-.161.165-.236.253-.144.18-.209.275a3.443,3.443,0,0,0-.181.3c-.055.1-.106.205-.151.311s-.084.215-.118.325-.063.223-.086.336-.04.227-.052.342-.017.23-.017.346c0,.082,0,.163.009.245.008.115.022.23.041.343s.045.227.076.338.068.221.109.329a3.525,3.525,0,0,0,.314.616c.062.1.13.191.2.281a3.346,3.346,0,0,0,.229.261c.08.082.165.161.253.235a3.133,3.133,0,0,0,.276.21,3.282,3.282,0,0,0,.295.181c.1.055.205.105.311.15a3.433,3.433,0,0,0,.326.119c.11.034.222.063.335.086a3.271,3.271,0,0,0,.342.051,3.335,3.335,0,0,0,.346.018c.1,0,.2-.005.293-.013a3.475,3.475,0,0,0,.68-.128,3.156,3.156,0,0,0,.327-.114,3.306,3.306,0,0,0,.314-.146c.1-.054.2-.113.3-.176s.189-.133.279-.206.175-.151.256-.232h1.07v6.076a.139.139,0,0,1-.14.14h-5.888v1.07a3.463,3.463,0,1,1-4.9,0v-1.07h-5.888a.139.139,0,0,1-.14-.14V572.963a.14.14,0,0,1,.14-.14Z" fill="#8bb74a" stroke="#272727" stroke-linecap="round" stroke-linejoin="round" stroke-width="0.567"/>
      <path id="Tracé_988" data-name="Tracé 988" d="M730.048,570.691a.284.284,0,1,0,0,.567h7.087a.284.284,0,1,0,0-.567Z" fill="#272727" fill-rule="evenodd"/>
      <path id="Tracé_989" data-name="Tracé 989" d="M738.555,570.691a.284.284,0,1,0,0,.567h.808a.284.284,0,1,0,0-.567Z" fill="#272727" fill-rule="evenodd"/>
      <path id="Tracé_990" data-name="Tracé 990" d="M740.714,570.691a.284.284,0,1,0,0,.567h.386a.284.284,0,1,0,0-.567Z" fill="#272727" fill-rule="evenodd"/>
    </g>
  </g>
</svg>
