<svg xmlns="http://www.w3.org/2000/svg" width="16.321" height="15.615" viewBox="0 0 16.321 15.615">
  <g id="Groupe_439" data-name="Groupe 439" transform="translate(-1180.45 -475.959)">
    <path id="Tracé_1545" data-name="Tracé 1545" d="M1192.374,484.862a1.071,1.071,0,0,0,.186-.079q.808-.565,1.611-1.135c.173-.122.178-.257.013-.39-.2-.162-.407-.319-.6-.485q-.556-.468-1.1-.944a.326.326,0,0,0-.444-.038q-.8.542-1.595,1.088c-.167.115-.178.241-.026.372.27.233.55.457.82.689.311.267.614.541.926.806A1.092,1.092,0,0,0,1192.374,484.862Zm2.1-4.783a.429.429,0,0,0-.138.042c-.163.105-.319.22-.478.331-.365.253-.729.507-1.1.757a.153.153,0,0,0-.018.251c.286.229.573.458.856.692.311.258.617.522.928.78a.374.374,0,0,0,.565.008q.723-.534,1.45-1.062c.127-.093.135-.156.014-.264-.137-.121-.279-.238-.423-.352-.42-.332-.839-.666-1.266-.991C1194.763,480.192,1194.679,480.071,1194.473,480.079Zm-4.194,4.579a2.151,2.151,0,0,0-.029-.227c-.13-.556-.264-1.111-.4-1.667-.042-.174-.1-.211-.28-.171a.486.486,0,0,0-.14.07q-.882.541-1.763,1.086a.294.294,0,0,0-.164.38c.167.626.351,1.249.5,1.879.047.2.217.233.386.116.521-.361,1.055-.708,1.578-1.067C1190.116,484.958,1190.334,484.893,1190.279,484.658Zm-3.254-7.25a1.718,1.718,0,0,0-.257.1q-.832.5-1.661,1.013c-.138.084-.143.129-.018.238.152.133.311.259.465.39.407.349.813.7,1.219,1.049a.337.337,0,0,0,.414.033c.238-.149.473-.3.709-.453l.971-.624a.173.173,0,0,0,.052-.267c-.1-.088-.21-.174-.316-.26-.424-.344-.845-.689-1.273-1.029A2.748,2.748,0,0,0,1187.025,477.408Zm4.969.644a1.925,1.925,0,0,0-.233.093c-.14.081-.273.172-.411.257l-1.128.7c-.12.075-.13.144-.024.237.166.146.333.29.505.43.415.338.835.673,1.249,1.013a.3.3,0,0,0,.428.015c.12-.084.244-.163.367-.244.4-.26.793-.519,1.189-.781a.171.171,0,0,0,.021-.261c-.089-.077-.18-.151-.273-.224-.439-.347-.876-.7-1.321-1.038C1192.26,478.171,1192.175,478.045,1191.994,478.052Zm-2.433,1.458a2.284,2.284,0,0,0-.245.112q-.818.507-1.633,1.019c-.146.091-.16.206-.037.319s.216.209.335.3a1.278,1.278,0,0,0,.312.189c.4.149.8.283,1.2.426a1.087,1.087,0,0,1,.535.337.131.131,0,0,0,.115.018q.657-.424,1.307-.859a.209.209,0,0,0,.027-.348c-.085-.08-.182-.148-.273-.222-.445-.362-.889-.725-1.336-1.085C1189.778,479.642,1189.669,479.582,1189.561,479.51Zm1.913-1.977a.332.332,0,0,0-.061-.106q-.366-.3-.739-.59c-.332-.261-.668-.52-1-.784-.133-.107-.2-.127-.351-.039q-.861.5-1.718,1c-.108.063-.108.139-.009.214.131.1.266.2.394.3.443.357.883.716,1.324,1.075a.315.315,0,0,0,.387.023q.39-.237.779-.477C1190.806,477.948,1191.128,477.748,1191.474,477.533Zm-2.462,11.359c.142-.074.263-.126.369-.2.15-.1.288-.212.433-.317.332-.241.657-.492,1-.718a.4.4,0,0,0,.174-.486c-.128-.551-.271-1.1-.41-1.649-.029-.114-.109-.151-.23-.11a.459.459,0,0,0-.113.061c-.506.349-1.005.706-1.519,1.045a.424.424,0,0,0-.2.532C1188.683,487.647,1188.837,488.243,1189.012,488.892Zm2.581,1.08a2.1,2.1,0,0,0-.028-.212c-.1-.448-.207-.894-.3-1.342-.079-.363-.186-.3-.437-.133l-.01.009c-.465.317-.926.64-1.4.95-.342.226-.414.34-.336.623q.2.729.4,1.458c.071.256.115.271.344.114.035-.024.074-.043.109-.068.456-.328.913-.656,1.367-.986C1191.45,490.279,1191.651,490.2,1191.593,489.972ZM1189.277,482c-.042-.014-.079-.024-.115-.038q-.72-.285-1.44-.572a.75.75,0,0,0-.7.028q-.891.54-1.78,1.087c-.137.083-.129.185.02.252.132.059.267.111.4.167l1.19.491a.49.49,0,0,0,.45-.021c.111-.065.219-.133.327-.2.519-.327,1.034-.66,1.56-.978A.172.172,0,0,0,1189.277,482Zm-4.352,1.1-.039.048a1.491,1.491,0,0,0,.036.222c.185.584.374,1.167.563,1.75a.611.611,0,0,0,.36.4c.522.214,1.042.432,1.564.645a1.527,1.527,0,0,0,.226.052c-.046-.186-.077-.337-.12-.486-.165-.566-.334-1.131-.5-1.7a.393.393,0,0,0-.258-.287c-.458-.166-.913-.343-1.371-.511C1185.236,483.184,1185.079,483.147,1184.925,483.1Zm-.486-.645a2.176,2.176,0,0,0,.3-.117c.247-.144.486-.3.729-.451.372-.23.745-.459,1.115-.694a.222.222,0,0,0,.09-.126c.005-.019-.062-.064-.1-.079-.467-.173-.93-.357-1.407-.5a.767.767,0,0,0-.523.014c-.624.343-1.226.719-1.835,1.086-.111.067-.1.169.018.228.03.015.061.029.092.042.335.137.669.275,1.005.409C1184.091,482.331,1184.262,482.39,1184.439,482.456Zm4.118,6.614a1.561,1.561,0,0,0-.025-.216c-.158-.573-.321-1.145-.478-1.718a.416.416,0,0,0-.267-.311c-.526-.218-1.041-.459-1.56-.69a.791.791,0,0,0-.151-.051c-.076-.014-.127.01-.121.09a.653.653,0,0,0,.019.132c.156.564.317,1.127.468,1.692a.477.477,0,0,0,.285.321q.793.352,1.591.694A1.485,1.485,0,0,0,1188.557,489.07Zm-8.107-8.174a1.321,1.321,0,0,0,.2.118c.407.163.814.328,1.228.478a.6.6,0,0,0,.508-.032q.893-.513,1.783-1.03a.125.125,0,0,0,0-.229,1.2,1.2,0,0,0-.146-.064c-.34-.124-.683-.243-1.021-.372a.653.653,0,0,0-.563.019c-.216.114-.428.234-.64.353C1181.357,480.382,1180.922,480.629,1180.45,480.9Zm2.133,1.44a1.134,1.134,0,0,0,.025.174c.2.589.4,1.18.623,1.763a.586.586,0,0,0,.279.292c.439.2.893.384,1.344.569a1.41,1.41,0,0,0,.221.047.931.931,0,0,0-.015-.212c-.182-.566-.368-1.132-.554-1.7a.564.564,0,0,0-.367-.388c-.405-.145-.8-.311-1.2-.463A3.429,3.429,0,0,0,1182.583,482.336Zm3.378,5.554.032-.029c-.059-.2-.119-.4-.176-.6-.112-.394-.225-.789-.331-1.185a.493.493,0,0,0-.312-.357c-.437-.181-.865-.381-1.3-.569a1.5,1.5,0,0,0-.232-.062.708.708,0,0,0-.008.233c.163.526.328,1.051.51,1.571a.528.528,0,0,0,.237.254c.414.221.838.426,1.261.632A3.074,3.074,0,0,0,1185.961,487.89Zm.751.838a1.906,1.906,0,0,0,.028.216q.2.715.406,1.43a.505.505,0,0,0,.254.317c.411.224.82.452,1.231.677.13.072.265.138.4.206l.034-.028c-.018-.1-.029-.2-.056-.3-.122-.434-.264-.864-.368-1.3a.725.725,0,0,0-.453-.505c-.266-.124-.524-.261-.787-.389C1187.183,488.946,1186.966,488.847,1186.712,488.728Zm-6.235-7.295a1.076,1.076,0,0,0,0,.288c.179.544.359,1.088.56,1.625a.561.561,0,0,0,.269.279c.4.184.806.343,1.212.508a.581.581,0,0,0,.147.018.4.4,0,0,0,.012-.14c-.054-.185-.115-.369-.177-.553-.136-.406-.274-.812-.411-1.218a.464.464,0,0,0-.3-.311c-.241-.086-.478-.184-.717-.275C1180.887,481.581,1180.693,481.512,1180.477,481.433Zm6.216,8.945a1.084,1.084,0,0,0-.016-.171c-.15-.519-.3-1.037-.451-1.556a.482.482,0,0,0-.281-.322c-.371-.171-.733-.357-1.1-.534-.141-.067-.288-.124-.469-.2a1.755,1.755,0,0,0,.036.259c.147.473.3.944.449,1.417a.569.569,0,0,0,.281.331c.447.247.9.484,1.353.722A1.2,1.2,0,0,0,1186.693,490.378Zm-3.093-3.616a.9.9,0,0,0-.017-.133c-.158-.512-.314-1.025-.481-1.534a.533.533,0,0,0-.276-.38c-.408-.172-.821-.336-1.234-.5a.186.186,0,0,0-.148.008.148.148,0,0,0-.016.136c.178.506.354,1.014.547,1.515a.562.562,0,0,0,.23.3c.437.21.89.391,1.337.583A.264.264,0,0,0,1183.6,486.762Zm.734,2.411a.644.644,0,0,0,0-.167c-.163-.525-.327-1.049-.5-1.571a.345.345,0,0,0-.139-.187c-.389-.213-.786-.415-1.182-.617-.094-.048-.2-.081-.319-.13.017.069.024.1.035.138.148.449.31.9.439,1.35a.8.8,0,0,0,.441.52c.17.088.335.183.5.274Zm7.575-2.531.039.024c.133-.093.267-.185.4-.279.334-.239.669-.477,1-.72a1.4,1.4,0,0,0,.392-.33c.241-.409.445-.836.661-1.257a.525.525,0,0,0,.032-.1,2,2,0,0,0-.345.215c-.466.33-.939.653-1.4.991a1.045,1.045,0,0,0-.266.329c-.11.2-.2.409-.291.615C1192.054,486.3,1191.983,486.47,1191.909,486.642Zm4.862-4.332-.032-.032c-.136.1-.273.2-.407.3-.307.227-.616.452-.919.684a1.336,1.336,0,0,0-.467.454c-.131.285-.281.562-.419.844-.057.115-.1.235-.161.373a.514.514,0,0,0,.071-.027c.413-.285.817-.581,1.24-.853a1.368,1.368,0,0,0,.5-.573c.161-.326.338-.646.506-.97C1196.718,482.443,1196.743,482.375,1196.771,482.31Zm-5.358,5.86c.076-.055.142-.1.206-.148.29-.211.584-.417.865-.637.176-.137.4-.23.489-.454.06-.155.149-.3.225-.451q.172-.338.343-.677a.634.634,0,0,0-.228.1c-.388.277-.777.552-1.16.835-.251.186-.541.342-.624.665a1.6,1.6,0,0,1-.139.339A.4.4,0,0,0,1191.413,488.17Zm4.393-3.987a.808.808,0,0,0-.106.042c-.393.271-.791.537-1.176.817-.172.125-.379.213-.479.42-.177.364-.377.718-.566,1.076a1.2,1.2,0,0,0-.051.136c.082-.049.137-.076.187-.111.407-.283.817-.563,1.217-.854.15-.108.33-.2.388-.388a1.255,1.255,0,0,1,.1-.209C1195.475,484.814,1195.631,484.517,1195.806,484.183Zm-4.372,4.2.14.6c.153-.109.306-.208.446-.322a1.771,1.771,0,0,0,.289-.292,1.55,1.55,0,0,0,.145-.292c.088-.188.173-.376.259-.564l-.034-.03Z"/>
    <path id="Tracé_1546" data-name="Tracé 1546" d="M1192.374,484.862a1.092,1.092,0,0,1-.217-.116c-.312-.265-.615-.539-.926-.806-.27-.232-.55-.456-.82-.689-.152-.131-.141-.257.026-.372q.8-.546,1.595-1.088a.326.326,0,0,1,.444.038q.549.475,1.1.944c.2.166.4.323.6.485.165.133.16.268-.013.39q-.8.568-1.611,1.135A1.071,1.071,0,0,1,1192.374,484.862Z" fill="#f58508"/>
    <path id="Tracé_1547" data-name="Tracé 1547" d="M1194.473,480.079c.206-.008.29.113.393.192.427.325.846.659,1.266.991.144.114.286.231.423.352.121.108.113.171-.014.264q-.726.529-1.45,1.062a.374.374,0,0,1-.565-.008c-.311-.258-.617-.522-.928-.78-.283-.234-.57-.463-.856-.692a.153.153,0,0,1,.018-.251c.368-.25.732-.5,1.1-.757.159-.111.315-.226.478-.331A.429.429,0,0,1,1194.473,480.079Z" fill="#20a091"/>
    <path id="Tracé_1548" data-name="Tracé 1548" d="M1190.279,484.658c.055.235-.163.3-.308.4-.523.359-1.057.706-1.578,1.067-.169.117-.339.084-.386-.116-.149-.63-.333-1.253-.5-1.879a.294.294,0,0,1,.164-.38q.881-.543,1.763-1.086a.486.486,0,0,1,.14-.07c.182-.04.238,0,.28.171.132.556.266,1.111.4,1.667A2.151,2.151,0,0,1,1190.279,484.658Z" fill="#fff"/>
    <path id="Tracé_1549" data-name="Tracé 1549" d="M1187.025,477.408a2.748,2.748,0,0,1,.3.185c.428.34.849.685,1.273,1.029.106.086.212.172.316.26a.173.173,0,0,1-.052.267l-.971.624c-.236.152-.471.3-.709.453a.337.337,0,0,1-.414-.033c-.406-.349-.812-.7-1.219-1.049-.154-.131-.313-.257-.465-.39-.125-.109-.12-.154.018-.238q.829-.508,1.661-1.013A1.718,1.718,0,0,1,1187.025,477.408Z" fill="#27a4e1"/>
    <path id="Tracé_1550" data-name="Tracé 1550" d="M1191.994,478.052c.181-.007.266.119.369.2.445.341.882.691,1.321,1.038.093.073.184.147.273.224a.171.171,0,0,1-.021.261c-.4.262-.793.521-1.189.781-.123.081-.247.16-.367.244a.3.3,0,0,1-.428-.015c-.414-.34-.834-.675-1.249-1.013-.172-.14-.339-.284-.505-.43-.106-.093-.1-.162.024-.237l1.128-.7c.138-.085.271-.176.411-.257A1.925,1.925,0,0,1,1191.994,478.052Z" fill="#246925"/>
    <path id="Tracé_1551" data-name="Tracé 1551" d="M1189.561,479.51c.108.072.217.132.311.208.447.36.891.723,1.336,1.085.091.074.188.142.273.222a.209.209,0,0,1-.027.348q-.649.435-1.307.859a.131.131,0,0,1-.115-.018,1.087,1.087,0,0,0-.535-.337c-.4-.143-.806-.277-1.2-.426a1.278,1.278,0,0,1-.312-.189c-.119-.093-.225-.2-.335-.3s-.109-.228.037-.319q.816-.51,1.633-1.019A2.284,2.284,0,0,1,1189.561,479.51Z" fill="#a12112"/>
    <path id="Tracé_1552" data-name="Tracé 1552" d="M1191.474,477.533c-.346.215-.668.415-.992.614q-.389.24-.779.477a.315.315,0,0,1-.387-.023c-.441-.359-.881-.718-1.324-1.075-.128-.1-.263-.2-.394-.3-.1-.075-.1-.151.009-.214q.858-.5,1.718-1c.152-.088.218-.068.351.039.33.264.666.523,1,.784q.372.293.739.59A.332.332,0,0,1,1191.474,477.533Z" fill="#006cb6"/>
    <path id="Tracé_1553" data-name="Tracé 1553" d="M1189.012,488.892c-.175-.649-.329-1.245-.5-1.838a.424.424,0,0,1,.2-.532c.514-.339,1.013-.7,1.519-1.045a.459.459,0,0,1,.113-.061c.121-.041.2,0,.23.11.139.549.282,1.1.41,1.649a.4.4,0,0,1-.174.486c-.344.226-.669.477-1,.718-.145.105-.283.219-.433.317C1189.275,488.766,1189.154,488.818,1189.012,488.892Z" fill="#fff"/>
    <path id="Tracé_1554" data-name="Tracé 1554" d="M1191.593,489.972c.058.229-.143.307-.289.413-.454.33-.911.658-1.367.986-.035.025-.074.044-.109.068-.229.157-.273.142-.344-.114q-.2-.729-.4-1.458c-.078-.283-.006-.4.336-.623.471-.31.932-.633,1.4-.95l.01-.009c.251-.171.358-.23.437.133.1.448.2.894.3,1.342A2.1,2.1,0,0,1,1191.593,489.972Z" fill="#fff"/>
    <path id="Tracé_1555" data-name="Tracé 1555" d="M1189.277,482a.172.172,0,0,1-.088.215c-.526.318-1.041.651-1.56.978-.108.068-.216.136-.327.2a.49.49,0,0,1-.45.021l-1.19-.491c-.134-.056-.269-.108-.4-.167-.149-.067-.157-.169-.02-.252q.89-.546,1.78-1.087a.75.75,0,0,1,.7-.028q.72.288,1.44.572C1189.2,481.98,1189.235,481.99,1189.277,482Z" fill="#fff"/>
    <path id="Tracé_1556" data-name="Tracé 1556" d="M1184.925,483.1c.154.046.311.083.461.138.458.168.913.345,1.371.511a.393.393,0,0,1,.258.287c.166.566.335,1.131.5,1.7.043.149.074.3.12.486a1.527,1.527,0,0,1-.226-.052c-.522-.213-1.042-.431-1.564-.645a.611.611,0,0,1-.36-.4c-.189-.583-.378-1.166-.563-1.75a1.491,1.491,0,0,1-.036-.222Z" fill="#f58508"/>
    <path id="Tracé_1557" data-name="Tracé 1557" d="M1184.439,482.456c-.177-.066-.348-.125-.516-.192-.336-.134-.67-.272-1.005-.409-.031-.013-.062-.027-.092-.042-.118-.059-.129-.161-.018-.228.609-.367,1.211-.743,1.835-1.086a.767.767,0,0,1,.523-.014c.477.147.94.331,1.407.5.042.015.109.06.1.079a.222.222,0,0,1-.09.126c-.37.235-.743.464-1.115.694-.243.151-.482.307-.729.451A2.176,2.176,0,0,1,1184.439,482.456Z" fill="#fff"/>
    <path id="Tracé_1558" data-name="Tracé 1558" d="M1188.557,489.07a1.485,1.485,0,0,1-.239-.057q-.8-.342-1.591-.694a.477.477,0,0,1-.285-.321c-.151-.565-.312-1.128-.468-1.692a.653.653,0,0,1-.019-.132c-.006-.08.045-.1.121-.09a.791.791,0,0,1,.151.051c.519.231,1.034.472,1.56.69a.416.416,0,0,1,.267.311c.157.573.32,1.145.478,1.718A1.561,1.561,0,0,1,1188.557,489.07Z" fill="#72866c"/>
    <path id="Tracé_1559" data-name="Tracé 1559" d="M1180.45,480.9c.472-.267.907-.514,1.343-.759.212-.119.424-.239.64-.353a.653.653,0,0,1,.563-.019c.338.129.681.248,1.021.372a1.2,1.2,0,0,1,.146.064.125.125,0,0,1,0,.229q-.891.516-1.783,1.03a.6.6,0,0,1-.508.032c-.414-.15-.821-.315-1.228-.478A1.321,1.321,0,0,1,1180.45,480.9Z" fill="#fff"/>
    <path id="Tracé_1560" data-name="Tracé 1560" d="M1182.583,482.336a3.429,3.429,0,0,1,.353.085c.4.152.8.318,1.2.463a.564.564,0,0,1,.367.388c.186.565.372,1.131.554,1.7a.931.931,0,0,1,.015.212,1.41,1.41,0,0,1-.221-.047c-.451-.185-.905-.365-1.344-.569a.586.586,0,0,1-.279-.292c-.221-.583-.419-1.174-.623-1.763A1.134,1.134,0,0,1,1182.583,482.336Z" fill="#a7352b"/>
    <path id="Tracé_1561" data-name="Tracé 1561" d="M1185.961,487.89a3.074,3.074,0,0,1-.317-.117c-.423-.206-.847-.411-1.261-.632a.528.528,0,0,1-.237-.254c-.182-.52-.347-1.045-.51-1.571a.708.708,0,0,1,.008-.233,1.5,1.5,0,0,1,.232.062c.433.188.861.388,1.3.569a.493.493,0,0,1,.312.357c.106.4.219.791.331,1.185.057.2.117.4.176.6Z" fill="#5e4038"/>
    <path id="Tracé_1562" data-name="Tracé 1562" d="M1186.712,488.728c.254.119.471.218.686.322.263.128.521.265.787.389a.725.725,0,0,1,.453.505c.1.437.246.867.368,1.3.027.1.038.2.056.3l-.034.028c-.132-.068-.267-.134-.4-.206-.411-.225-.82-.453-1.231-.677a.505.505,0,0,1-.254-.317q-.2-.714-.406-1.43A1.906,1.906,0,0,1,1186.712,488.728Z" fill="#20a091"/>
    <path id="Tracé_1563" data-name="Tracé 1563" d="M1180.477,481.433c.216.079.41.148.6.221.239.091.476.189.717.275a.464.464,0,0,1,.3.311c.137.406.275.812.411,1.218.062.184.123.368.177.553a.4.4,0,0,1-.012.14.581.581,0,0,1-.147-.018c-.406-.165-.816-.324-1.212-.508a.561.561,0,0,1-.269-.279c-.2-.537-.381-1.081-.56-1.625A1.076,1.076,0,0,1,1180.477,481.433Z" fill="#246925"/>
    <path id="Tracé_1564" data-name="Tracé 1564" d="M1186.693,490.378a1.2,1.2,0,0,1-.2-.056c-.453-.238-.906-.475-1.353-.722a.569.569,0,0,1-.281-.331c-.146-.473-.3-.944-.449-1.417a1.755,1.755,0,0,1-.036-.259c.181.078.328.135.469.2.368.177.73.363,1.1.534a.482.482,0,0,1,.281.322c.149.519.3,1.037.451,1.556A1.084,1.084,0,0,1,1186.693,490.378Z" fill="#006cb6"/>
    <path id="Tracé_1565" data-name="Tracé 1565" d="M1183.6,486.762a.264.264,0,0,1-.058,0c-.447-.192-.9-.373-1.337-.583a.562.562,0,0,1-.23-.3c-.193-.5-.369-1.009-.547-1.515a.148.148,0,0,1,.016-.136.186.186,0,0,1,.148-.008c.413.162.826.326,1.234.5a.533.533,0,0,1,.276.38c.167.509.323,1.022.481,1.534A.9.9,0,0,1,1183.6,486.762Z" fill="#7e9d35"/>
    <path id="Tracé_1566" data-name="Tracé 1566" d="M1184.334,489.173l-.723-.39c-.168-.091-.333-.186-.5-.274a.8.8,0,0,1-.441-.52c-.129-.454-.291-.9-.439-1.35-.011-.034-.018-.069-.035-.138.122.049.225.082.319.13.4.2.793.4,1.182.617a.345.345,0,0,1,.139.187c.172.522.336,1.046.5,1.571A.644.644,0,0,1,1184.334,489.173Z" fill="#27a4e1"/>
    <path id="Tracé_1567" data-name="Tracé 1567" d="M1191.909,486.642c.074-.172.145-.345.222-.516.093-.206.181-.416.291-.615a1.045,1.045,0,0,1,.266-.329c.459-.338.932-.661,1.4-.991a2,2,0,0,1,.345-.215.525.525,0,0,1-.032.1c-.216.421-.42.848-.661,1.257a1.4,1.4,0,0,1-.392.33c-.33.243-.665.481-1,.72-.132.094-.266.186-.4.279Z" fill="#fff"/>
    <path id="Tracé_1568" data-name="Tracé 1568" d="M1196.771,482.31c-.028.065-.053.133-.086.2-.168.324-.345.644-.506.97a1.368,1.368,0,0,1-.5.573c-.423.272-.827.568-1.24.853a.514.514,0,0,1-.071.027c.059-.138.1-.258.161-.373.138-.282.288-.559.419-.844a1.336,1.336,0,0,1,.467-.454c.3-.232.612-.457.919-.684.134-.1.271-.2.407-.3Z" fill="#fff"/>
    <path id="Tracé_1569" data-name="Tracé 1569" d="M1191.413,488.17a.4.4,0,0,1-.023-.424,1.6,1.6,0,0,0,.139-.339c.083-.323.373-.479.624-.665.383-.283.772-.558,1.16-.835a.634.634,0,0,1,.228-.1q-.171.339-.343.677c-.076.15-.165.3-.225.451-.088.224-.313.317-.489.454-.281.22-.575.426-.865.637C1191.555,488.069,1191.489,488.115,1191.413,488.17Z" fill="#fff"/>
    <path id="Tracé_1570" data-name="Tracé 1570" d="M1195.806,484.183c-.175.334-.331.631-.486.929a1.255,1.255,0,0,0-.1.209c-.058.191-.238.28-.388.388-.4.291-.81.571-1.217.854-.05.035-.1.062-.187.111a1.2,1.2,0,0,1,.051-.136c.189-.358.389-.712.566-1.076.1-.207.307-.3.479-.42.385-.28.783-.546,1.176-.817A.808.808,0,0,1,1195.806,484.183Z" fill="#fff"/>
    <path id="Tracé_1571" data-name="Tracé 1571" d="M1192.807,488.174l-.176.066c.026-.059.048-.117.076-.173a9.217,9.217,0,0,1,.477-.92,1.778,1.778,0,0,1,.461-.4c.336-.243.682-.475,1.025-.711a.366.366,0,0,1,.164-.066c-.2.38-.389.77-.621,1.134a1.56,1.56,0,0,1-.44.346c-.277.2-.562.384-.839.58a.808.808,0,0,0-.129.144Z" fill="#fff"/>
    <path id="Tracé_1572" data-name="Tracé 1572" d="M1191.434,488.379l1.245-.9.034.03c-.086.188-.171.376-.259.564a1.55,1.55,0,0,1-.145.292,1.771,1.771,0,0,1-.289.292c-.14.114-.293.213-.446.322Z" fill="#fff"/>
  </g>
</svg>
