<svg xmlns="http://www.w3.org/2000/svg" viewBox="0 0 5.67 7.79"><defs><style>.cls-1{fill:#616160;}</style></defs><g id="Calque_2" data-name="Calque 2"><g id="Calque_1-2" data-name="Calque 1"><path class="cls-1" d="M.71,3V2.16a2.12,2.12,0,0,1,3-1.95A2,2,0,0,1,5,2.05C5,2.36,5,2.67,5,3a1.83,1.83,0,0,1,.25.06.7.7,0,0,1,.45.66c0,.67,0,1.34,0,2A2.09,2.09,0,0,1,3.74,7.76,13.37,13.37,0,0,1,2,7.76,2.07,2.07,0,0,1,0,6,6.18,6.18,0,0,1,0,5.1V3.82A.74.74,0,0,1,.71,3Zm.71,0,0,0h2.7s.08-.06.08-.1a8.42,8.42,0,0,0,0-.87A1.42,1.42,0,0,0,3,.72a1.44,1.44,0,0,0-1.5.89A4.51,4.51,0,0,0,1.42,3ZM2.48,5.77V6a.34.34,0,0,0,.36.32A.34.34,0,0,0,3.18,6a2,2,0,0,0,0-.35.52.52,0,0,1,.17-.42.69.69,0,0,0,0-1,.71.71,0,0,0-1,0,.68.68,0,0,0-.08,1A.63.63,0,0,1,2.48,5.77Z"/></g></g></svg>