<svg xmlns="http://www.w3.org/2000/svg" width="9.19" height="8.504" viewBox="0 0 9.19 8.504">
  <g id="Groupe_119" data-name="Groupe 119" transform="translate(-289.3 -468.7)">
    <path id="Tracé_555" data-name="Tracé 555" d="M289.3,476.546h9.19v.658H289.3Z" fill="#fff"/>
    <path id="Tracé_556" data-name="Tracé 556" d="M298.208,472.85q0,1.711,0,3.423c0,.069-.019.088-.089.087-.247,0-.494,0-.742,0-.058,0-.079-.013-.079-.075q0-3.439,0-6.881c0-.055.015-.073.074-.073.252,0,.5.005.756,0,.078,0,.08.034.079.091Q298.206,471.135,298.208,472.85Z" fill="#20a091"/>
    <path id="Tracé_557" data-name="Tracé 557" d="M296.564,468.7c.056.4.1.794.167,1.185a.3.3,0,0,1-.413.326.279.279,0,0,1-.22-.25c0-.042-.011-.085-.018-.144-.055.065-.1.119-.147.176a11.176,11.176,0,0,1-1.32,1.4q-.468.426-.956.833c-.277.23-.562.45-.85.667-.33.249-.662.5-1,.732-.426.295-.859.581-1.292.867a.354.354,0,0,1-.337.027.247.247,0,0,1-.171-.206.252.252,0,0,1,.128-.248c.518-.354,1.045-.7,1.552-1.064s1-.753,1.494-1.141a15.656,15.656,0,0,0,1.634-1.485c.224-.236.427-.49.64-.735.006-.007.009-.015.025-.041l-.122.033a.361.361,0,0,1-.325-.066.229.229,0,0,1,.034-.39,3.421,3.421,0,0,1,.447-.156c.319-.1.639-.194.958-.291C296.5,468.717,296.526,468.711,296.564,468.7Z" fill="#d80043"/>
    <path id="Tracé_558" data-name="Tracé 558" d="M295.666,470.9h.894v5.453h-.894Z" fill="#006cb6"/>
    <path id="Tracé_559" data-name="Tracé 559" d="M294.076,476.354v-3.829c.025,0,.046-.005.067-.005.255,0,.509,0,.764,0,.057,0,.075.015.074.072q0,1.848,0,3.7c0,.055-.013.075-.073.074-.254,0-.509,0-.763,0C294.123,476.358,294.1,476.356,294.076,476.354Z" fill="#27a4e1"/>
    <path id="Tracé_560" data-name="Tracé 560" d="M292.438,474.21h.9v2.143h-.9Z" fill="#246925"/>
    <path id="Tracé_561" data-name="Tracé 561" d="M290.7,476.359c0-.032,0-.053,0-.074,0-.386,0-.773,0-1.16,0-.06.018-.076.078-.075.252,0,.5,0,.756,0,.022,0,.043,0,.071,0,0,.026,0,.05,0,.073,0,.384,0,.768,0,1.152,0,.065-.018.081-.082.08C291.253,476.357,290.981,476.359,290.7,476.359Z" fill="#60a423"/>
  </g>
</svg>
