<svg xmlns="http://www.w3.org/2000/svg" width="16.409" height="15.616" viewBox="0 0 16.409 15.616">
  <g id="Groupe_430" data-name="Groupe 430" transform="translate(-1180.406 -441.735)">
    <path id="Tracé_1444" data-name="Tracé 1444" d="M1182.434,452.478a1.729,1.729,0,0,1-.821-1.287,3.305,3.305,0,0,1,.139-1.89,1.612,1.612,0,0,1,.581-.758.727.727,0,0,0,.308-.5,6.7,6.7,0,0,1,1.433-3.527.334.334,0,0,0,.1-.245.752.752,0,0,1,.263-.618,6.748,6.748,0,0,1,9.338-.078.8.8,0,0,1,.306.725.208.208,0,0,0,.068.168,6.691,6.691,0,0,1,1.467,3.557.707.707,0,0,0,.28.5,1.793,1.793,0,0,1,.727,1.146,3.389,3.389,0,0,1-.1,1.953,1.722,1.722,0,0,1-.727.894,2.191,2.191,0,0,1-.355.383.638.638,0,0,0-.264.335.48.48,0,0,1-.425.337,3.532,3.532,0,0,1-1.444-.087v.564l-.014.446a.6.6,0,0,1-.65.392,5.166,5.166,0,0,0-.528,0,.665.665,0,0,1-.607-.239.764.764,0,0,1-.633.239c-.232-.007-.465,0-.7,0a4.259,4.259,0,0,1-.926-.021c-.252-.059-.472-.16-.712.011-.034.024-.1.009-.146.009-.176,0-.352-.009-.527,0-.216.015-.394-.151-.56-.158s-.348.165-.565.159c-.344-.01-.69-.013-1.034,0a.767.767,0,0,1-.684-.3,1.519,1.519,0,0,1-.072-.543v-.588a.841.841,0,0,1-.414.129c-.3,0-.591,0-.886,0a.626.626,0,0,1-.619-.448c-.017-.045-.012-.1-.063-.127a2.105,2.105,0,0,1-.49-.452l0,0C1182.484,452.523,1182.478,452.489,1182.434,452.478Zm9.9-9.686a.1.1,0,0,0-.088-.046l0,0a2.241,2.241,0,0,0-.668-.312l-.005,0c-.02-.043-.062-.053-.1-.068a6.145,6.145,0,0,0-1.888-.418,6.486,6.486,0,0,0-5,1.842.547.547,0,0,0,.04.862.5.5,0,0,0,.713-.1,5.421,5.421,0,0,1,6.5-.826,5.5,5.5,0,0,1,1.112.835.527.527,0,0,0,.773-.006.532.532,0,0,0-.041-.771c-.162-.155-.339-.295-.509-.442a3.708,3.708,0,0,0-.7-.474.27.27,0,0,0-.147-.086Zm-6.982,11.3c-.128-.03-.189.005-.18.151a.354.354,0,0,0,.18.34.184.184,0,0,0,.166.075c.457,0,.914.013,1.37,0a.392.392,0,0,0,.358-.421c0-.1-.032-.152-.146-.15-.484.006-.969.006-1.453.008Zm.047-.585h-.177c-.022-.007-.034,0-.031.024,0,.077,0,.155-.013.231-.019.139.045.177.169.151.577,0,1.153,0,1.729.007.15,0,.18-.073.172-.2s.011-.233-.165-.23c-.366.008-.731.007-1.1.01Zm2.072.829a.238.238,0,0,0,.146.295,3.332,3.332,0,0,0,.9.024.23.23,0,0,0,.212-.25c.005-.154,0-.31,0-.464.007-.122-.04-.159-.158-.157-.316.006-.633,0-.95,0-.121-.019-.183.016-.169.154S1187.469,454.206,1187.472,454.338Zm3.135-7.215c-.525,0-1.049-.006-1.574-.012-.091,0-.125.031-.123.121s.015.138.114.13c.041,0,.083,0,.125-.005.708,0,1.415,0,2.122.007.188,0,.195-.086.143-.224A4.348,4.348,0,0,0,1190.607,447.123Zm-4.285.2c-.315,0-.631.009-.944-.016-.234-.018-.187.122-.2.259-.019.18.072.2.21.173l1.727,0c.057,0,.107,0,.131-.073.075-.237-.008-.362-.246-.357-.028,0-.056.005-.083.007Zm-4.446,3.971a.248.248,0,0,0,.05.174,1.281,1.281,0,0,0,.384.641,10.152,10.152,0,0,1-.124-1.419c.033-.518.049-1.037.072-1.556l.045-.281a2.646,2.646,0,0,0-.423,2.444Zm5.211-4.557c-.1-.021-.169-.1-.272-.1-.422,0-.845,0-1.267,0a.372.372,0,0,0-.371.335c-.018.144.036.2.175.16l1.143,0h.38l.082,0c.092-.005.215.064.267-.043a.3.3,0,0,0-.085-.326A.226.226,0,0,0,1187.087,446.74Zm2.174.194c.652,0,1.305.005,1.957,0,.053,0,.133.03.154-.024.03-.078-.052-.117-.1-.16a.485.485,0,0,0-.331-.109c-.518,0-1.037,0-1.556,0a.681.681,0,0,0-.184.031c-.113.033-.243.114-.229.215s.165.027.252.049A.123.123,0,0,0,1189.261,446.934Zm4.168,6.306.051.044c.058.054.125.108.205.073s.042-.124.042-.188c0-.385,0-.771-.005-1.156l0-4.309c.016-.138-.079-.114-.149-.088a.4.4,0,0,0-.278.4q0,2.465,0,4.931a.314.314,0,0,0,.128.293Zm-1.607.994c-.132-.047-.184,0-.165.137a.241.241,0,0,0,.134.221,2.28,2.28,0,0,0,1.113.028c.119-.017.163-.143.179-.261.014-.1-.019-.14-.125-.137C1192.58,454.229,1192.2,454.231,1191.822,454.234Zm.013-.19c.366,0,.732-.006,1.1,0,.212.005.144-.142.151-.246s.028-.226-.158-.219c-.366.013-.732.006-1.1.008-.291-.037-.142.185-.169.3C1191.624,454.028,1191.7,454.078,1191.835,454.044Zm-.014-6.738c.373,0,.746,0,1.119,0,.059,0,.145.017.141-.079-.006-.156.057-.326-.082-.459-.063-.119-.179-.12-.289-.123-.188-.006-.377,0-.565,0-.434,0-.5.076-.5.518C1191.65,447.3,1191.7,447.333,1191.821,447.306Zm-1.98,6.478a2.882,2.882,0,0,0-.706-.043c-.156-.017-.182.054-.186.194-.006.172.087.161.2.147.7,0,1.393,0,2.089.008.129,0,.208-.011.208-.177s-.1-.165-.215-.169C1190.767,453.731,1190.306,453.814,1189.841,453.784Zm-5.03-6.087c-.072-.072-.168-.136-.259-.094s-.037.153-.037.232q0,2.577,0,5.153c0,.092,0,.183,0,.275s.031.118.115.1a.418.418,0,0,0,.332-.466q0-2.416,0-4.832a.328.328,0,0,0-.079-.273A.142.142,0,0,0,1184.811,447.7Zm-1.449,5.544.046.044c.01.01.018.025.029.03a2.526,2.526,0,0,0,.871.048c.064,0,.064-.064.063-.113q0-1.123-.012-2.248c.02-1.031.017-2.062,0-3.093a.438.438,0,0,0,0-.213c.015-.084-.029-.116-.106-.116-.212,0-.424-.012-.634.007a.412.412,0,0,0-.4.458q0,2.442.005,4.885a.333.333,0,0,0,.131.314Zm13.072-2.158a2.485,2.485,0,0,0-.462-2.183.565.565,0,0,0,.036.268,14.93,14.93,0,0,1-.033,2.89A1.618,1.618,0,0,0,1196.434,451.083Zm-7.285,3.525a.433.433,0,0,0,.22.061c.527,0,1.055,0,1.582,0a.472.472,0,0,0,.429-.223c.069-.117.078-.189-.1-.187-.71.007-1.42,0-2.13.005-.065,0-.152-.044-.188.038a.193.193,0,0,0,.071.225A1,1,0,0,0,1189.149,454.608Zm-6.19-7.2c-.024.138-.05.276-.07.415-.007.042-.057.107.01.127s.113-.028.133-.1a.61.61,0,0,1,.3-.389.156.156,0,0,0,.074-.119,6.118,6.118,0,0,1,1.1-2.331c.03-.039.064-.072.026-.129-.149-.229-.3-.236-.45-.016A6.318,6.318,0,0,0,1182.959,447.4Zm10.98-1.694.005,0a3.213,3.213,0,0,0-.466-.7.143.143,0,0,0-.125-.063.9.9,0,0,1-.63-.3,5.22,5.22,0,0,0-7.21.046c-.124.117-.25.257-.425.252-.291-.01-.419.179-.55.379-.092.141-.181.285-.271.428a5.94,5.94,0,0,0-.607,1.467c-.039.139.012.16.128.135.274.006.549.018.823.017.124,0,.261.16.332.07s.017-.257.02-.39a.584.584,0,0,1,.618-.626q.622-.008,1.247,0a.6.6,0,0,1,.631.642c0,.176,0,.352,0,.528,0,.078.013.111.107.1a4.874,4.874,0,0,1,1.127-.009c0-.19,0-.379,0-.568a.643.643,0,0,1,.685-.689c.521,0,1.042,0,1.563,0a.439.439,0,0,1,.227.027.481.481,0,0,0,.649,0c.045-.037.136-.024.206-.025.225,0,.45,0,.676,0a.536.536,0,0,1,.6.6c0,.151,0,.3,0,.5a.889.889,0,0,1,.574-.152c.19,0,.38-.005.57-.008.085,0,.2.047.156-.12a5.265,5.265,0,0,0-.616-1.473C1193.98,445.743,1193.976,445.714,1193.939,445.709Zm-2.111,1.775c-.139-.029-.183.029-.175.167a3.941,3.941,0,0,1,0,.522c-.01.145.047.187.179.157.189,0,.379.012.568.005.222-.007.513.1.646-.049s.028-.429.039-.653c0-.014,0-.028,0-.042.005-.075-.019-.114-.1-.118A6.614,6.614,0,0,0,1191.828,447.484Zm3.121-.033c.191.117.222.369.419.53a1.475,1.475,0,0,0,0-.207,6.538,6.538,0,0,0-1.191-2.915c-.166-.227-.166-.227-.391-.057-.039.029-.079.055-.129.09l.188.23a6.514,6.514,0,0,1,1,2.188C1194.86,447.366,1194.862,447.443,1194.949,447.451Zm.31,3.883v1.435a1.219,1.219,0,0,0,.492-.97c.013-.062.032-.123.039-.186a12.179,12.179,0,0,0-.044-2.692.949.949,0,0,0-.487-.763Zm-12.251-3.12c-.005-.015-.006-.039-.016-.043-.026-.011-.047,0-.059.029a.907.907,0,0,0-.413.7,11.607,11.607,0,0,0-.03,2.855c.012.09.02.181.038.269a1.205,1.205,0,0,0,.355.652c.029.027.06.067.107.046s.028-.061.027-.094c-.01-.4.024-.81-.019-1.214C1183.028,450.348,1183.009,449.281,1183.008,448.214Zm11.867-.513a.4.4,0,0,0-.323-.121c-.155,0-.31.01-.464,0s-.2.044-.2.2c.008.7,0,1.4,0,2.108q0,1.644.008,3.289c0,.065-.069.184.085.189.19,0,.38.007.57.006a.427.427,0,0,0,.48-.484q0-2.407,0-4.817A.387.387,0,0,0,1194.875,447.7Zm-8.8,5.625c.317,0,.634,0,.95.013.172.009.229-.038.228-.22-.006-1.62,0-3.24-.005-4.86,0-.354.092-.359-.371-.337l-1.435,0h-.087c-.114-.022-.179-.007-.178.141q.008,2.563,0,5.126c0,.144.059.169.178.141Zm1.55-.165c.323,0,.646,0,.97,0,.11,0,.146-.038.146-.146q0-2.1,0-4.2c0-.109-.033-.149-.144-.147-.323,0-.646,0-.97,0-.1-.009-.165.008-.164.143q.008,2.1,0,4.2C1187.459,453.145,1187.511,453.176,1187.621,453.161Zm4.2-4.649c-.118-.025-.173,0-.173.143q.009,2.309,0,4.615c0,.147.059.167.175.14.373,0,.745,0,1.117.006.111,0,.149-.035.145-.145-.007-.176,0-.352,0-.527,0-1.343,0-2.686,0-4.029,0-.168-.046-.216-.212-.21C1192.526,448.518,1192.174,448.511,1191.823,448.512Zm-2.673,5.052c.718,0,1.435,0,2.153.01.14,0,.137-.081.137-.179q0-2.841,0-5.681c0-.136-.035-.185-.175-.183-.7.006-1.408,0-2.112.005-.186-.041-.27.014-.251.223s.051.4.05.608c-.006,1.662,0,3.325-.006,4.988C1188.946,453.505,1188.96,453.612,1189.15,453.564Zm-.506-5.572a.246.246,0,0,0-.248-.107c-.168,0-.336,0-.5,0-.38,0-.435.055-.424.439,0,.065-.046.174.082.176s.081-.106.084-.172c.013-.256.088-.332.347-.334C1188.191,447.991,1188.4,447.992,1188.644,447.992Zm-1.179,5.495c.013.042-.021.122.078.128s.091-.079.091-.143.025-.132-.074-.139S1187.471,453.41,1187.465,453.487Z" fill="#5e4038"/>
    <path id="Tracé_1445" data-name="Tracé 1445" d="M1195.4,443.01a.81.81,0,0,0-.028-.077c-.025-.051-.061-.106-.018-.156s.1-.014.152.013a.16.16,0,0,0,.178-.005c.042-.025.092-.054.135-.014s.019.1-.007.152c0,.007,0,.015-.009.02-.086.107.122.217.01.3-.087.069-.188-.095-.3-.023-.047.031-.108.064-.155.02s-.006-.116.017-.172Z" fill="#5e4038"/>
    <path id="Tracé_1446" data-name="Tracé 1446" d="M1181.322,445.963a.205.205,0,0,1,.23-.216.2.2,0,0,1,.21.211.2.2,0,0,1-.218.226A.2.2,0,0,1,1181.322,445.963Z" fill="#5e4038"/>
    <path id="Tracé_1447" data-name="Tracé 1447" d="M1182.836,455.921c-.176.037-.228.246-.312.233-.1-.015-.178-.17-.265-.265.126-.044.17-.182.277-.248A.737.737,0,0,0,1182.836,455.921Z" fill="#5e4038"/>
    <path id="Tracé_1448" data-name="Tracé 1448" d="M1195.8,456.558a.164.164,0,0,1-.178.165.154.154,0,0,1-.161-.177.152.152,0,0,1,.161-.156A.17.17,0,0,1,1195.8,456.558Z" fill="#5e4038"/>
    <path id="Tracé_1449" data-name="Tracé 1449" d="M1183.6,457.216c-.018.084-.061.139-.155.135a.13.13,0,0,1-.135-.151.135.135,0,0,1,.151-.138A.144.144,0,0,1,1183.6,457.216Z" fill="#5e4038"/>
    <path id="Tracé_1450" data-name="Tracé 1450" d="M1180.7,447.314c-.019.082-.064.138-.156.133a.144.144,0,0,1,.014-.288A.148.148,0,0,1,1180.7,447.314Z" fill="#5e4038"/>
    <path id="Tracé_1451" data-name="Tracé 1451" d="M1196.815,444.441a.131.131,0,0,1-.149.14.126.126,0,0,1-.131-.136.129.129,0,0,1,.15-.136A.127.127,0,0,1,1196.815,444.441Z" fill="#5e4038"/>
    <path id="Tracé_1452" data-name="Tracé 1452" d="M1189.153,447.536c.7,0,1.408,0,2.112-.005.14,0,.175.047.175.183q0,2.841,0,5.681c0,.1,0,.18-.137.179-.718-.007-1.435-.007-2.153-.01Zm1.664,2.912h0c0-.148-.007-.3,0-.443.041-.761-.194-.8-.8-.778a.432.432,0,0,0-.481.484q0,.74,0,1.477a.433.433,0,0,0,.429.471,1.827,1.827,0,0,0,.484-.018.406.406,0,0,0,.37-.433C1190.821,450.955,1190.817,450.7,1190.817,450.448Z" fill="#e1401f"/>
    <path id="Tracé_1453" data-name="Tracé 1453" d="M1191.823,448.512c.351,0,.7.006,1.054-.007.166-.006.213.042.212.21-.007,1.343,0,2.686,0,4.029,0,.175-.005.351,0,.527,0,.11-.034.147-.145.145-.372-.006-.744,0-1.117-.006Q1191.823,450.962,1191.823,448.512Z" fill="#4cb6cd"/>
    <path id="Tracé_1454" data-name="Tracé 1454" d="M1192.479,442.876a3.708,3.708,0,0,1,.7.474c-.006.063-.049.07-.1.081a3.106,3.106,0,0,1-1.493-.111c-.385-.114-.748-.309-1.142-.392a5.436,5.436,0,0,0-2.658.039,5.638,5.638,0,0,0-1.607.744,2.413,2.413,0,0,1-1,.552,4.973,4.973,0,0,1-.626-.03.9.9,0,0,1,.251-.359,6.7,6.7,0,0,1,1.7-1.159,2.082,2.082,0,0,1,.868-.3,1.739,1.739,0,0,0,.928-.22.58.58,0,0,1,.218-.073,6.448,6.448,0,0,1,2.336.14,3.214,3.214,0,0,0,.729.18l0,0a1.433,1.433,0,0,0,.669.312l0,0c.016.043.051.047.088.046l0,0A.13.13,0,0,0,1192.479,442.876Z" fill="#24a3e1"/>
    <path id="Tracé_1455" data-name="Tracé 1455" d="M1187.623,448.675c.324,0,.647,0,.97,0,.111,0,.144.038.144.147q0,2.1,0,4.2c0,.108-.036.148-.146.146-.324-.006-.647,0-.97,0a21.538,21.538,0,0,1,.131-3.26C1187.84,449.487,1187.568,449.1,1187.623,448.675Z" fill="#7e9d35"/>
    <path id="Tracé_1456" data-name="Tracé 1456" d="M1185.351,447.921h.044c.014.02.028.02.043,0l1.435,0c.009.484-.06.963-.1,1.444a1.048,1.048,0,0,1-.062.489,2.333,2.333,0,0,0-.108-.251c-.093-.159-.193-.318-.412-.311a.437.437,0,0,0-.387.312,2.561,2.561,0,0,0,0,2.1.445.445,0,0,0,.513.308c.071.009.092.045.074.115a9.753,9.753,0,0,1-.325,1.2l-.719,0Q1185.352,450.624,1185.351,447.921Z" fill="#24a3e1"/>
    <path id="Tracé_1457" data-name="Tracé 1457" d="M1184.361,447.909c.015,1.031.018,2.062,0,3.093a1.772,1.772,0,0,1-.991,1.1q0-1.986,0-3.973a.407.407,0,0,1,.421-.428c.183-.006.366,0,.549,0C1184.344,447.772,1184.317,447.845,1184.361,447.909Z" fill="#f8921a"/>
    <path id="Tracé_1458" data-name="Tracé 1458" d="M1184.552,444.233a4.973,4.973,0,0,0,.626.03,2.413,2.413,0,0,0,1-.552,5.638,5.638,0,0,1,1.607-.744,5.436,5.436,0,0,1,2.658-.039c.394.083.757.278,1.142.392a3.106,3.106,0,0,0,1.493.111c.053-.011.1-.018.1-.081.17.147.347.287.509.442a.532.532,0,0,1,.041.771.527.527,0,0,1-.773.006,5.5,5.5,0,0,0-1.112-.835,5.421,5.421,0,0,0-6.5.826.5.5,0,0,1-.713.1.688.688,0,0,1-.084-.426Z" fill="#1f8ec5"/>
    <path id="Tracé_1459" data-name="Tracé 1459" d="M1194.875,447.7a.387.387,0,0,1,.16.368q0,2.409,0,4.817a.427.427,0,0,1-.48.484c-.19,0-.38,0-.57-.006q.008-.842.016-1.683a.186.186,0,0,0,.109-.092,3.261,3.261,0,0,0,.422-.933,8.791,8.791,0,0,0,.293-2.495c0-.152.054-.309-.033-.454Z" fill="#d77d1b"/>
    <path id="Tracé_1460" data-name="Tracé 1460" d="M1186.716,449.855a1.048,1.048,0,0,0,.062-.489c.035-.481.1-.96.1-1.444.463-.022.37-.017.371.337,0,1.62,0,3.24.005,4.86,0,.182-.056.229-.228.22-.316-.015-.633-.01-.95-.013a9.753,9.753,0,0,0,.325-1.2c.018-.07,0-.106-.074-.115a.85.85,0,0,0,.36-.476A2.933,2.933,0,0,0,1186.716,449.855Z" fill="#1f8ec5"/>
    <path id="Tracé_1461" data-name="Tracé 1461" d="M1182.49,451.755a11.607,11.607,0,0,1,.03-2.855.907.907,0,0,1,.413-.7l.075.014c0,1.067.02,2.134-.01,3.2C1182.872,451.592,1182.769,451.8,1182.49,451.755Z" fill="#fff"/>
    <path id="Tracé_1462" data-name="Tracé 1462" d="M1195.259,451.334v-3.176a.949.949,0,0,1,.487.763,12.179,12.179,0,0,1,.044,2.692c-.007.063-.026.124-.039.186a.668.668,0,0,1-.372-.284C1195.336,451.456,1195.358,451.354,1195.259,451.334Z" fill="#fff"/>
    <path id="Tracé_1463" data-name="Tracé 1463" d="M1183.368,452.1a1.772,1.772,0,0,0,.991-1.1q.006,1.123.012,2.248c0,.049,0,.114-.063.113a2.526,2.526,0,0,1-.871-.048c-.011-.005-.019-.02-.029-.03l-.046-.044,0,0Z" fill="#d77d1b"/>
    <path id="Tracé_1464" data-name="Tracé 1464" d="M1184.886,447.788a.328.328,0,0,1,.079.273q0,2.416,0,4.832a.418.418,0,0,1-.332.466q0-1.623.006-3.246A9.1,9.1,0,0,0,1184.886,447.788Z" fill="#d77d1b"/>
    <path id="Tracé_1465" data-name="Tracé 1465" d="M1191.578,442.442a3.214,3.214,0,0,1-.729-.18,6.448,6.448,0,0,0-2.336-.14.58.58,0,0,0-.218.073,1.739,1.739,0,0,1-.928.22,2.082,2.082,0,0,0-.868.3,6.7,6.7,0,0,0-1.7,1.159.9.9,0,0,0-.251.359h-.005c-.087,0-.12-.062-.135-.136a.464.464,0,0,1,.179-.3,6.486,6.486,0,0,1,5-1.842,6.145,6.145,0,0,1,1.888.418C1191.516,442.389,1191.558,442.4,1191.578,442.442Z" fill="#7fc8ea"/>
    <path id="Tracé_1466" data-name="Tracé 1466" d="M1189.153,447.536l0,6.028c-.19.048-.2-.059-.2-.209,0-1.663,0-3.326.006-4.988,0-.206-.032-.406-.05-.608S1188.967,447.495,1189.153,447.536Z" fill="#dda66f"/>
    <path id="Tracé_1467" data-name="Tracé 1467" d="M1193.726,447.7q0,2.154,0,4.309c-.113.005-.179.114-.287.131,0-1.306,0-2.612-.009-3.919A.5.5,0,0,1,1193.726,447.7Z" fill="#f8921a"/>
    <path id="Tracé_1468" data-name="Tracé 1468" d="M1193.843,445.122l-.188-.23c.05-.035.09-.061.129-.09.225-.17.225-.17.391.057a6.538,6.538,0,0,1,1.191,2.915,1.475,1.475,0,0,1,0,.207c-.2-.161-.228-.413-.419-.53-.022-.142-.032-.287-.066-.425a5.344,5.344,0,0,0-.8-1.7C1194.024,445.244,1193.993,445.109,1193.843,445.122Z" fill="#c6bab6"/>
    <path id="Tracé_1469" data-name="Tracé 1469" d="M1191.828,447.484a6.614,6.614,0,0,1,1.152-.011c.086,0,.11.043.1.118,0,.014,0,.028,0,.042-.011.224.092.511-.039.653s-.424.042-.646.049c-.189.007-.379,0-.568-.005Q1191.829,447.907,1191.828,447.484Z" fill="#105f85"/>
    <path id="Tracé_1470" data-name="Tracé 1470" d="M1185.648,454.094c.484,0,.969,0,1.453-.008.114,0,.146.046.146.15a.392.392,0,0,1-.358.421c-.456.016-.913.007-1.37,0a.184.184,0,0,1-.166-.075l.006-.24C1185.476,454.285,1185.6,454.232,1185.648,454.094Z" fill="#1f8ec5"/>
    <path id="Tracé_1471" data-name="Tracé 1471" d="M1184.082,444.86c.147-.22.3-.213.45.016.038.057,0,.09-.026.129a6.118,6.118,0,0,0-1.1,2.331.156.156,0,0,1-.074.119.61.61,0,0,0-.3.389c-.02.073-.065.122-.133.1s-.017-.085-.01-.127c.02-.139.046-.277.07-.415.2-.01.2-.183.229-.306a6.022,6.022,0,0,1,.847-1.906A.3.3,0,0,0,1184.082,444.86Z" fill="#c6bab6"/>
    <path id="Tracé_1472" data-name="Tracé 1472" d="M1187.629,453.789c.317,0,.634,0,.95,0,.118,0,.165.035.158.157-.008.154,0,.31,0,.464a.23.23,0,0,1-.212.25,3.332,3.332,0,0,1-.9-.024,1.052,1.052,0,0,0,0-.371Z" fill="#7e9d35"/>
    <path id="Tracé_1473" data-name="Tracé 1473" d="M1189.148,454.262c.71,0,1.42,0,2.13-.005.18,0,.171.07.1.187a.472.472,0,0,1-.429.223c-.527.006-1.055,0-1.582,0a.433.433,0,0,1-.22-.061Z" fill="#e1401f"/>
    <path id="Tracé_1474" data-name="Tracé 1474" d="M1185.351,447.921q0,2.7,0,5.408c-.119.028-.178,0-.178-.141q.006-2.563,0-5.126C1185.172,447.914,1185.237,447.9,1185.351,447.921Z" fill="#7fc8ea"/>
    <path id="Tracé_1475" data-name="Tracé 1475" d="M1196.434,451.083a1.618,1.618,0,0,1-.459.975,14.93,14.93,0,0,0,.033-2.89.4.4,0,0,1,.014-.038h.019a1.86,1.86,0,0,1,.3.662A4.518,4.518,0,0,1,1196.434,451.083Z" fill="#4cb6cd"/>
    <path id="Tracé_1476" data-name="Tracé 1476" d="M1187.623,448.675c-.055.42.217.812.129,1.226a21.538,21.538,0,0,0-.131,3.26c-.11.015-.162-.016-.162-.145q.006-2.1,0-4.2C1187.458,448.683,1187.519,448.666,1187.623,448.675Z" fill="#c6bab6"/>
    <path id="Tracé_1477" data-name="Tracé 1477" d="M1183.368,452.1l0,1.141a.333.333,0,0,1-.131-.314q0-2.443-.005-4.885a.412.412,0,0,1,.4-.458c.21-.019.422-.007.634-.007.077,0,.121.032.106.116a.166.166,0,0,0-.03.008c-.183,0-.366-.008-.549,0a.407.407,0,0,0-.421.428Q1183.365,450.117,1183.368,452.1Z" fill="#dda66f"/>
    <path id="Tracé_1478" data-name="Tracé 1478" d="M1191.823,448.512q0,2.449,0,4.9c-.116.027-.175.007-.175-.14q.008-2.307,0-4.615C1191.65,448.51,1191.7,448.487,1191.823,448.512Z" fill="#7fc8ea"/>
    <path id="Tracé_1479" data-name="Tracé 1479" d="M1182.258,449.137c-.023.519-.039,1.038-.072,1.556a10.152,10.152,0,0,0,.124,1.419,1.281,1.281,0,0,1-.384-.641c-.008-.061.025-.133-.05-.174l0,0a7.3,7.3,0,0,1-.035-.958A2.235,2.235,0,0,1,1182.258,449.137Z" fill="#4cb6cd"/>
    <path id="Tracé_1480" data-name="Tracé 1480" d="M1185.988,453.506c.365,0,.73,0,1.1-.01.176,0,.158.119.165.23s-.022.2-.172.2c-.576-.007-1.152-.005-1.729-.007.038-.111-.067-.256.084-.34C1185.619,453.567,1185.815,453.632,1185.988,453.506Z" fill="#105f85"/>
    <path id="Tracé_1481" data-name="Tracé 1481" d="M1184.639,450.113q0,1.623-.006,3.246c-.084.022-.117-.013-.115-.1s0-.183,0-.275q0-2.577,0-5.153c0-.079-.048-.193.037-.232s.187.022.259.094c-.133-.014-.182.038-.18.179C1184.639,448.621,1184.637,449.367,1184.639,450.113Z" fill="#dda66f"/>
    <path id="Tracé_1482" data-name="Tracé 1482" d="M1193.726,447.7a.5.5,0,0,0-.3.521c.012,1.307.008,2.613.009,3.919l0,1.1a.314.314,0,0,1-.128-.293q0-2.466,0-4.931a.4.4,0,0,1,.278-.4C1193.647,447.59,1193.742,447.566,1193.726,447.7Z" fill="#dda66f"/>
    <path id="Tracé_1483" data-name="Tracé 1483" d="M1186.916,447.323c.027,0,.055-.006.083-.007.238-.005.321.12.246.357-.024.073-.074.073-.131.073l-1.727,0c.005-.376.005-.375.383-.379l.548-.007A1.606,1.606,0,0,0,1186.916,447.323Z" fill="#105f85"/>
    <path id="Tracé_1484" data-name="Tracé 1484" d="M1189.841,453.784c.465.03.926-.053,1.39-.04.12,0,.216-.007.215.169s-.079.178-.208.177c-.7-.006-1.393-.006-2.089-.008.008-.288.008-.288.295-.293C1189.576,453.786,1189.709,453.785,1189.841,453.784Z" fill="#a12112"/>
    <path id="Tracé_1485" data-name="Tracé 1485" d="M1193,446.77c.139.133.076.3.082.459,0,.1-.082.079-.141.079-.373,0-.746,0-1.119,0,.012-.49.059-.535.547-.535Z" fill="#4cb6cd"/>
    <path id="Tracé_1486" data-name="Tracé 1486" d="M1194.875,447.7l-.084.006-.505-.006c-.287,0-.3.011-.3.293q0,1.55,0,3.1c0,.2.009.393.015.589q-.009.842-.016,1.683c-.154-.005-.085-.124-.085-.189q-.009-1.644-.008-3.289c0-.7.005-1.406,0-2.108,0-.157.039-.216.2-.2s.309,0,.464,0A.4.4,0,0,1,1194.875,447.7Z" fill="#dda66f"/>
    <path id="Tracé_1487" data-name="Tracé 1487" d="M1191.828,453.59c.366,0,.732.005,1.1-.008.186-.007.165.108.158.219s.061.251-.151.246c-.366-.009-.732,0-1.1,0C1191.832,453.893,1191.83,453.741,1191.828,453.59Z" fill="#105f85"/>
    <path id="Tracé_1488" data-name="Tracé 1488" d="M1191.822,454.234c.379,0,.758-.005,1.136-.012.106,0,.139.04.125.137-.016.118-.06.244-.179.261a2.28,2.28,0,0,1-1.113-.028C1191.854,454.477,1191.807,454.353,1191.822,454.234Z" fill="#4cb6cd"/>
    <path id="Tracé_1489" data-name="Tracé 1489" d="M1186.957,447.14l-.082,0a.47.47,0,0,0-.38,0l-1.143,0a.465.465,0,0,1,.514-.371l1.054.005C1186.9,446.9,1186.985,447.015,1186.957,447.14Z" fill="#24a3e1"/>
    <path id="Tracé_1490" data-name="Tracé 1490" d="M1191.414,447.14c.052.138.045.226-.143.224-.707-.007-1.414-.005-2.122-.007-.016-.168.067-.213.225-.211.411.005.822,0,1.233-.008Z" fill="#a12112"/>
    <path id="Tracé_1491" data-name="Tracé 1491" d="M1184.639,450.113c0-.746,0-1.492-.008-2.237,0-.141.047-.193.18-.179a.142.142,0,0,1,.075.091A9.1,9.1,0,0,1,1184.639,450.113Z" fill="#f8921a"/>
    <path id="Tracé_1492" data-name="Tracé 1492" d="M1182.49,451.755c.279.05.382-.163.508-.341.043.4.009.81.019,1.214,0,.033.013.076-.027.094s-.078-.019-.107-.046a1.205,1.205,0,0,1-.355-.652C1182.51,451.936,1182.5,451.845,1182.49,451.755Z" fill="#c6bab6"/>
    <path id="Tracé_1493" data-name="Tracé 1493" d="M1195.259,451.334c.1.02.077.122.12.181a.668.668,0,0,0,.372.284,1.219,1.219,0,0,1-.492.97Z" fill="#c6bab6"/>
    <path id="Tracé_1494" data-name="Tracé 1494" d="M1184.082,444.86a.3.3,0,0,1-.047.331,6.022,6.022,0,0,0-.847,1.906c-.029.123-.032.3-.229.306A6.318,6.318,0,0,1,1184.082,444.86Z" fill="#fff"/>
    <path id="Tracé_1495" data-name="Tracé 1495" d="M1193.431,453.242l0-1.1c.108-.017.174-.126.287-.131,0,.385.007.771.005,1.156,0,.064.041.152-.042.188s-.147-.019-.205-.073l-.051-.044Z" fill="#d77d1b"/>
    <path id="Tracé_1496" data-name="Tracé 1496" d="M1191.268,446.754c.052.043.134.082.1.16-.021.054-.1.024-.154.024-.652,0-1.305,0-1.957,0a.465.465,0,0,1,.407-.174C1190.2,446.762,1190.735,446.757,1191.268,446.754Z" fill="#e1401f"/>
    <path id="Tracé_1497" data-name="Tracé 1497" d="M1191.268,446.754c-.533,0-1.067.008-1.6.006a.465.465,0,0,0-.407.174.123.123,0,0,1-.041.006c-.087-.022-.236.065-.252-.049s.116-.182.229-.215a.681.681,0,0,1,.184-.031c.519,0,1.038,0,1.556,0A.485.485,0,0,1,1191.268,446.754Z" fill="#dda66f"/>
    <path id="Tracé_1498" data-name="Tracé 1498" d="M1186.92,446.776l-1.054-.005a.465.465,0,0,0-.514.371c-.139.035-.193-.016-.175-.16a.372.372,0,0,1,.371-.335c.422-.008.845,0,1.267,0,.1,0,.177.076.272.1C1187.039,446.786,1186.975,446.762,1186.92,446.776Z" fill="#7fc8ea"/>
    <path id="Tracé_1499" data-name="Tracé 1499" d="M1193.843,445.122c.15-.013.181.122.239.207a5.344,5.344,0,0,1,.8,1.7c.034.138.044.283.066.425-.087-.008-.089-.085-.1-.141A6.514,6.514,0,0,0,1193.843,445.122Z" fill="#fff"/>
    <path id="Tracé_1500" data-name="Tracé 1500" d="M1193,446.77h-.631c-.488,0-.535.045-.547.535-.119.027-.171,0-.172-.143,0-.442.062-.518.5-.518.188,0,.377,0,.565,0C1192.82,446.65,1192.936,446.651,1193,446.77Z" fill="#7fc8ea"/>
    <path id="Tracé_1501" data-name="Tracé 1501" d="M1182.258,449.137a2.235,2.235,0,0,0-.413,1.205,7.3,7.3,0,0,0,.035.958,2.646,2.646,0,0,1,.423-2.444Z" fill="#7fc8ea"/>
    <path id="Tracé_1502" data-name="Tracé 1502" d="M1188.644,447.992c-.243,0-.453,0-.663,0-.259,0-.334.078-.347.334,0,.066.046.174-.084.172s-.08-.111-.082-.176c-.011-.384.044-.439.424-.439.168,0,.336,0,.5,0A.246.246,0,0,1,1188.644,447.992Z" fill="#dda66f"/>
    <path id="Tracé_1503" data-name="Tracé 1503" d="M1196.434,451.083a4.518,4.518,0,0,0-.091-1.292,1.86,1.86,0,0,0-.3-.662h-.019a.4.4,0,0,0-.014.038.565.565,0,0,1-.036-.268A2.485,2.485,0,0,1,1196.434,451.083Z" fill="#7fc8ea"/>
    <path id="Tracé_1504" data-name="Tracé 1504" d="M1191.828,447.484q0,.423,0,.846c-.132.03-.189-.012-.179-.157a3.941,3.941,0,0,0,0-.522C1191.645,447.513,1191.689,447.455,1191.828,447.484Z" fill="#4cb6cd"/>
    <path id="Tracé_1505" data-name="Tracé 1505" d="M1186.318,447.356l-.548.007c-.378,0-.378,0-.383.379-.138.025-.229.007-.21-.173.014-.137-.033-.277.2-.259.313.025.629.012.944.016A.158.158,0,0,1,1186.318,447.356Z" fill="#4cb6cd"/>
    <path id="Tracé_1506" data-name="Tracé 1506" d="M1190.607,447.138c-.411,0-.822.013-1.233.008-.158,0-.241.043-.225.211-.042,0-.084,0-.125.005-.1.008-.113-.049-.114-.13s.032-.122.123-.121c.525.006,1.049.009,1.574.012Z" fill="#dda66f"/>
    <path id="Tracé_1507" data-name="Tracé 1507" d="M1186.92,446.776c.055-.014.119.01.167-.036a.226.226,0,0,1,.052.031.3.3,0,0,1,.085.326c-.052.107-.175.038-.267.043C1186.985,447.015,1186.9,446.9,1186.92,446.776Z" fill="#1f8ec5"/>
    <path id="Tracé_1508" data-name="Tracé 1508" d="M1189.841,453.784c-.132,0-.265,0-.4.005-.287.005-.287.005-.295.293-.113.014-.206.025-.2-.147,0-.14.03-.211.186-.194A2.882,2.882,0,0,1,1189.841,453.784Z" fill="#dda66f"/>
    <path id="Tracé_1509" data-name="Tracé 1509" d="M1187.629,453.789c-.005.157-.01.315-.014.473-.066-.008-.09.06-.143.076,0-.132,0-.264-.012-.4S1187.508,453.77,1187.629,453.789Z" fill="#c6bab6"/>
    <path id="Tracé_1510" data-name="Tracé 1510" d="M1191.828,453.59c0,.151,0,.3.007.454-.137.034-.211-.016-.176-.158C1191.686,453.775,1191.537,453.553,1191.828,453.59Z" fill="#4cb6cd"/>
    <path id="Tracé_1511" data-name="Tracé 1511" d="M1185.432,453.575c-.151.084-.046.229-.084.34-.124.026-.188-.012-.169-.151.01-.076.009-.154.013-.231a.037.037,0,0,0,.031-.024h.177Z" fill="#4cb6cd"/>
    <path id="Tracé_1512" data-name="Tracé 1512" d="M1185.359,454.345l-.006.24a.354.354,0,0,1-.18-.34c-.009-.146.052-.181.18-.151Z" fill="#7fc8ea"/>
    <path id="Tracé_1513" data-name="Tracé 1513" d="M1184.412,444.1c.015.074.048.133.135.136a.688.688,0,0,0,.084.426A.467.467,0,0,1,1184.412,444.1Z" fill="#4cb6cd"/>
    <path id="Tracé_1514" data-name="Tracé 1514" d="M1189.148,454.262v.346a1,1,0,0,1-.118-.083.193.193,0,0,1-.071-.225C1189,454.218,1189.083,454.266,1189.148,454.262Z" fill="#dda66f"/>
    <path id="Tracé_1515" data-name="Tracé 1515" d="M1191.822,454.234c-.015.119.032.243-.031.358a.241.241,0,0,1-.134-.221C1191.638,454.233,1191.69,454.187,1191.822,454.234Z" fill="#7fc8ea"/>
    <path id="Tracé_1516" data-name="Tracé 1516" d="M1185.359,454.345l-.006-.251h.295C1185.6,454.232,1185.476,454.285,1185.359,454.345Z" fill="#24a3e1"/>
    <path id="Tracé_1517" data-name="Tracé 1517" d="M1187.472,454.338c.053-.016.077-.084.143-.076a1.076,1.076,0,0,1,0,.371A.238.238,0,0,1,1187.472,454.338Z" fill="#dda66f"/>
    <path id="Tracé_1518" data-name="Tracé 1518" d="M1187.465,453.487c.006-.077-.017-.161.1-.154s.073.083.074.139.022.15-.091.143S1187.478,453.529,1187.465,453.487Z" fill="#dda66f"/>
    <path id="Tracé_1519" data-name="Tracé 1519" d="M1192.251,442.749a1.433,1.433,0,0,1-.669-.312A2.235,2.235,0,0,1,1192.251,442.749Z" fill="#7fc8ea"/>
    <path id="Tracé_1520" data-name="Tracé 1520" d="M1185.432,453.575l-.032-.066.588,0C1185.815,453.632,1185.619,453.567,1185.432,453.575Z" fill="#1f8ec5"/>
    <path id="Tracé_1521" data-name="Tracé 1521" d="M1190.607,447.138v-.015a4.348,4.348,0,0,1,.807.017Z" fill="#d77d1b"/>
    <path id="Tracé_1522" data-name="Tracé 1522" d="M1186.318,447.356a.158.158,0,0,0,0-.03l.594,0A1.606,1.606,0,0,1,1186.318,447.356Z" fill="#1f8ec5"/>
    <path id="Tracé_1523" data-name="Tracé 1523" d="M1186.495,447.144a.47.47,0,0,1,.38,0Z" fill="#1f8ec5"/>
    <path id="Tracé_1524" data-name="Tracé 1524" d="M1184.335,447.7a.166.166,0,0,1,.03-.008.438.438,0,0,1,0,.213C1184.317,447.845,1184.344,447.772,1184.335,447.7Z" fill="#d77d1b"/>
    <path id="Tracé_1525" data-name="Tracé 1525" d="M1181.876,451.3c.075.041.042.113.05.174A.248.248,0,0,1,1181.876,451.3Z" fill="#7fc8ea"/>
    <path id="Tracé_1526" data-name="Tracé 1526" d="M1192.479,442.876a.13.13,0,0,1-.147-.086A.27.27,0,0,1,1192.479,442.876Z" fill="#7fc8ea"/>
    <path id="Tracé_1527" data-name="Tracé 1527" d="M1183.008,448.214l-.075-.014c.012-.026.033-.04.059-.029C1183,448.175,1183,448.2,1183.008,448.214Z" fill="#c6bab6"/>
    <path id="Tracé_1528" data-name="Tracé 1528" d="M1192.335,442.792c-.037,0-.072,0-.088-.046A.1.1,0,0,1,1192.335,442.792Z" fill="#7fc8ea"/>
    <path id="Tracé_1529" data-name="Tracé 1529" d="M1193.429,453.24l.051.044Z" fill="#dda66f"/>
    <path id="Tracé_1530" data-name="Tracé 1530" d="M1185.223,453.509a.037.037,0,0,1-.031.024C1185.189,453.508,1185.2,453.5,1185.223,453.509Z" fill="#1f8ec5"/>
    <path id="Tracé_1531" data-name="Tracé 1531" d="M1185.438,447.92c-.015.02-.029.02-.043,0Z" fill="#1f8ec5"/>
    <path id="Tracé_1532" data-name="Tracé 1532" d="M1183.362,453.241l.046.044Z" fill="#dda66f"/>
    <path id="Tracé_1533" data-name="Tracé 1533" d="M1190.817,450.448c0,.253,0,.507,0,.76a.406.406,0,0,1-.37.433,1.827,1.827,0,0,1-.484.018.433.433,0,0,1-.429-.471q0-.738,0-1.477a.432.432,0,0,1,.481-.484c.61-.022.845.017.8.778-.008.147,0,.295,0,.443Zm-1.068.927a.861.861,0,0,0,.808.06.218.218,0,0,0,.088-.159,7.266,7.266,0,0,0,.017-1.368c-.007-.141.066-.335-.119-.439-.144-.137-.321-.063-.482-.069-.29-.012-.383.087-.384.37,0,.45,0,.9,0,1.35A.325.325,0,0,0,1189.749,451.375Z" fill="#5e4038"/>
    <path id="Tracé_1534" data-name="Tracé 1534" d="M1186.716,449.855a2.933,2.933,0,0,1-.034,1.681.85.85,0,0,1-.36.476.445.445,0,0,1-.513-.308,2.561,2.561,0,0,1,0-2.1.437.437,0,0,1,.387-.312c.219-.007.319.152.412.311A2.333,2.333,0,0,1,1186.716,449.855Zm-.386-.329c-.148-.115-.258-.09-.36.123a2.311,2.311,0,0,0-.11,1.71c-.018.093.044.16.076.236.05.12.118.239.259.246.158.008.228-.119.278-.248a2.563,2.563,0,0,0,.048-1.771A.512.512,0,0,0,1186.33,449.526Z" fill="#5e4038"/>
    <path id="Tracé_1535" data-name="Tracé 1535" d="M1194,451.681c-.006-.2-.015-.393-.015-.589q0-1.55,0-3.1c0-.282.013-.294.3-.293l.505.006c.088.145.032.3.034.454a8.791,8.791,0,0,1-.293,2.495,3.261,3.261,0,0,1-.422.933A.186.186,0,0,1,1194,451.681Z" fill="#f8921a"/>
    <path id="Tracé_1536" data-name="Tracé 1536" d="M1190.543,449.469c.185.1.112.3.119.439a7.266,7.266,0,0,1-.017,1.368.218.218,0,0,1-.088.159.864.864,0,0,1-.808-.059c0-.508,0-1.015.009-1.522,0-.281.106-.378.384-.381Z" fill="#a12112"/>
    <path id="Tracé_1537" data-name="Tracé 1537" d="M1190.543,449.469l-.4,0c-.278,0-.381.1-.384.381-.006.507-.006,1.014-.009,1.522a.329.329,0,0,1-.071-.256c0-.45,0-.9,0-1.35,0-.283.094-.382.384-.37C1190.222,449.406,1190.4,449.332,1190.543,449.469Z" fill="#dda66f"/>
    <path id="Tracé_1538" data-name="Tracé 1538" d="M1186.33,449.526a.512.512,0,0,1,.191.3,2.563,2.563,0,0,1-.048,1.771c-.05.129-.12.256-.278.248-.141-.007-.209-.126-.259-.246-.032-.076-.094-.143-.076-.236a4.435,4.435,0,0,1,0-.942C1185.949,450.082,1185.949,449.7,1186.33,449.526Z" fill="#105f85"/>
    <path id="Tracé_1539" data-name="Tracé 1539" d="M1186.33,449.526c-.381.179-.381.556-.466.891a4.435,4.435,0,0,0,0,.942,2.311,2.311,0,0,1,.11-1.71C1186.072,449.436,1186.182,449.411,1186.33,449.526Z" fill="#1f8ec5"/>
  </g>
</svg>
