<svg xmlns="http://www.w3.org/2000/svg" width="3.644" height="30.166" viewBox="0 0 3.644 30.166">
  <path id="Tracé_4132" data-name="Tracé 4132" d="M1343.432,496.531l2.212-.927-2.212-.926,2.212-.927-2.212-.926,2.212-.927-2.212-.927,2.821-1.182.214.51-1.6.672,2.212.926-2.212.927,2.212.926-2.212.927,2.212.926-2.212.927,2.212.926-2.212.926,2.212.927-2.212.926,2.212.927-2.212.926,2.212.927-2.212.926,2.212.927-2.212.927,2.212.927-2.212.927,2.212.927-2.212.927,2.212.927-2.212.927,2.212.927-2.212.927,2.212.927-2.212.927,2.212.927-2.212.927,2.212.927-2.212.928,1.6.673-.214.51-2.82-1.183,2.212-.928-2.213-.927,2.212-.927-2.212-.927,2.212-.927-2.212-.927,2.212-.927-2.212-.927,2.212-.927-2.212-.927,2.212-.927-2.212-.927,2.212-.927-2.212-.927,2.212-.927-2.212-.927,2.212-.926-2.212-.927,2.212-.926-2.212-.927,2.212-.926-2.212-.927,2.212-.926Z" transform="translate(-1343.432 -489.789)" fill="#7bc2bf"/>
</svg>
