<?xml version="1.0" encoding="utf-8"?>
<!-- Generator: Adobe Illustrator 23.0.1, SVG Export Plug-In . SVG Version: 6.00 Build 0)  -->
<svg version="1.1" id="Calque_1" xmlns="http://www.w3.org/2000/svg" xmlns:xlink="http://www.w3.org/1999/xlink" x="0px" y="0px"
	 viewBox="0 0 87.69 71.69" style="enable-background:new 0 0 87.69 71.69;" xml:space="preserve">
<style type="text/css">
	.st0{fill:#616160;}
	.st1{fill:none;stroke:#6C6C6C;stroke-width:2;stroke-miterlimit:10;}
	.st2{fill:#75B12B;}
	.st3{fill:#E42528;}
	.st4{fill:url(#SVGID_1_);}
	.st5{fill:url(#SVGID_2_);}
	.st6{fill:#404041;}
	.st7{fill-rule:evenodd;clip-rule:evenodd;fill:#404041;}
	.st8{fill:#BBBDBE;}
	.st9{fill:#FFFFFF;}
	.st10{fill:none;stroke:#FFFFFF;stroke-width:0.5;stroke-miterlimit:10;}
	.st11{fill-rule:evenodd;clip-rule:evenodd;fill:#FFFFFF;}
	.st12{fill:#E1E1E1;}
	.st13{fill:#E8441E;}
</style>
<g>
	<path class="st0" d="M60.18,59.93c-0.48,0-0.96-0.17-1.34-0.5L43.75,46.5l-14.9,12.91c-0.62,0.54-1.47,0.66-2.22,0.32
		s-1.21-1.06-1.21-1.89V16.38c0-2.55,2.07-4.62,4.62-4.62h27.61c2.55,0,4.62,2.07,4.62,4.62v41.47c0,0.82-0.46,1.54-1.21,1.89
		C60.77,59.86,60.47,59.93,60.18,59.93z M43.75,43.42c0.48,0,0.97,0.17,1.35,0.5L59.43,56.2V16.38c0-0.98-0.8-1.78-1.78-1.78H30.03
		c-0.98,0-1.78,0.8-1.78,1.78v39.79l14.14-12.25C42.77,43.59,43.26,43.42,43.75,43.42z"/>
</g>
</svg>
