<svg xmlns="http://www.w3.org/2000/svg" width="6.013" height="7.86" viewBox="0 0 6.013 7.86"><g transform="translate(-2357.514 -1037.754)"><path d="M2363.188,1045.614a.339.339,0,0,1-.22-.082l-2.462-2.11-2.432,2.107a.339.339,0,0,1-.56-.256v-6.765a.755.755,0,0,1,.754-.754h4.5a.755.755,0,0,1,.754.754v6.767a.335.335,0,0,1-.2.308A.341.341,0,0,1,2363.188,1045.614Zm-2.682-2.693a.337.337,0,0,1,.22.081l2.339,2v-6.5a.292.292,0,0,0-.292-.291h-4.5a.292.292,0,0,0-.292.291V1045l2.308-2A.336.336,0,0,1,2360.506,1042.921Z" fill="#620ef5"/></g></svg>