<svg xmlns="http://www.w3.org/2000/svg" width="7.979" height="7.86" viewBox="0 0 7.979 7.86"><g transform="translate(-2331.353 -947.03)"><path d="M2335.5,954.89a.5.5,0,0,1-.505-.506v-.55a3.654,3.654,0,0,1-3.64-3.395,4.039,4.039,0,0,1,7.979,0,2.974,2.974,0,0,1-.342,1.382,6.146,6.146,0,0,1-3.3,3.03A.5.5,0,0,1,2335.5,954.89Zm-.156-7.393a3.275,3.275,0,0,0-3.522,2.942,3.234,3.234,0,0,0,3.412,2.939l.228.006v1a.037.037,0,0,0,.017.032.036.036,0,0,0,.036,0,5.675,5.675,0,0,0,3.05-2.788l.008-.018a2.506,2.506,0,0,0,.294-1.174A3.276,3.276,0,0,0,2335.342,947.5Zm1.9,3.717a.7.7,0,1,1,.7-.7A.7.7,0,0,1,2337.24,951.214Zm0-.929a.231.231,0,1,0,.231.231A.231.231,0,0,0,2337.24,950.285Zm-1.859.929a.7.7,0,1,1,.7-.7A.7.7,0,0,1,2335.381,951.214Zm0-.929a.231.231,0,1,0,.231.231A.232.232,0,0,0,2335.381,950.285Zm-1.936.929a.7.7,0,1,1,.7-.7A.7.7,0,0,1,2333.445,951.214Zm0-.929a.231.231,0,1,0,.231.231A.232.232,0,0,0,2333.445,950.285Z" fill="#8a8a89"/></g></svg>