<svg xmlns="http://www.w3.org/2000/svg" width="8.916" height="7.859" viewBox="0 0 8.916 7.859"><path d="M2222.685,1037.8a2.345,2.345,0,0,0-1.674.393,1.246,1.246,0,0,1-1.453-.01,2.148,2.148,0,0,0-.2-.127,2.266,2.266,0,0,0-2.119-.081,2.736,2.736,0,0,0-1.262,1.429,3.586,3.586,0,0,0,.038,2.261.106.106,0,0,0,.2-.057,2.9,2.9,0,0,1,.816-3.274,2.134,2.134,0,0,1,1.937-.245,1.919,1.919,0,0,1,1.22,1.483.106.106,0,0,0,.211,0,1.949,1.949,0,0,1,2.74-1.419,2.775,2.775,0,0,1,1.258,3.261c-.239.738-1.188.555-1.812.559-.354,0-.709.005-1.063,0-.048,0-.244,0-.238,0a2.883,2.883,0,0,1-.233-.544.106.106,0,0,0-.208.028c-.069.548-.213,1.082-.326,1.621-.11-.907-.155-1.821-.307-2.724-.017-.1-.181-.1-.2,0l-.436,1.89-.2-.877c-.022-.1-.188-.1-.2,0-.023.145-.059.54-.158.609-.067.047-.319,0-.407,0l-1.152-.007c-.419,0-1.078-.086-1.06.543a1.808,1.808,0,0,0,.51.907,5.814,5.814,0,0,0,.976.937,16.268,16.268,0,0,0,1.734,1.136l1.362-.021a11.886,11.886,0,0,0,2.951-2.685c.084-.106-.065-.256-.15-.15a11.086,11.086,0,0,1-2.3,2.257c-.283.2-.9.761-1.257.712-.165-.023-.394-.234-.539-.32-.222-.132-.444-.264-.662-.4a9.922,9.922,0,0,1-1.377-1.005c-.254-.228-1.523-1.443-.687-1.7a4.57,4.57,0,0,1,1.162.008l.985.006a.108.108,0,0,0,.1-.078c.026-.08.048-.16.071-.239l.2.879a.106.106,0,0,0,.2,0q.207-.9.415-1.8c.119.94.162,1.889.319,2.825.021.129.194.079.207-.028.081-.638.262-1.256.379-1.887a.473.473,0,0,0,.363.315,9.6,9.6,0,0,0,1.525,0c.445,0,1.037.1,1.408-.2a1.549,1.549,0,0,0,.421-1.109A2.745,2.745,0,0,0,2222.685,1037.8Z" transform="translate(-2215.805 -1037.755)" fill="#f9093a"/></svg>