<svg xmlns="http://www.w3.org/2000/svg" width="8.916" height="7.86" viewBox="0 0 8.916 7.86"><path d="M2222.685,947.078a2.35,2.35,0,0,0-1.674.393,1.246,1.246,0,0,1-1.453-.01,2.354,2.354,0,0,0-.2-.127,2.268,2.268,0,0,0-2.119-.081,2.735,2.735,0,0,0-1.262,1.43,3.583,3.583,0,0,0,.038,2.26.106.106,0,0,0,.2-.056,2.9,2.9,0,0,1,.816-3.275,2.134,2.134,0,0,1,1.937-.245,1.921,1.921,0,0,1,1.22,1.483.106.106,0,0,0,.211,0,1.949,1.949,0,0,1,2.74-1.419,2.775,2.775,0,0,1,1.258,3.261c-.239.739-1.188.555-1.812.559-.354,0-.709.006-1.063,0-.048,0-.244,0-.238,0a2.845,2.845,0,0,1-.233-.543.106.106,0,0,0-.208.028c-.069.548-.213,1.081-.326,1.621-.11-.907-.155-1.822-.307-2.724-.017-.1-.181-.1-.2,0l-.436,1.89-.2-.878c-.022-.1-.188-.1-.2,0-.023.145-.059.541-.158.609-.067.048-.319,0-.407,0l-1.152-.008c-.419,0-1.078-.086-1.06.543a1.815,1.815,0,0,0,.51.908,5.844,5.844,0,0,0,.976.936,16.258,16.258,0,0,0,1.734,1.137l1.362-.022a11.846,11.846,0,0,0,2.951-2.685c.084-.105-.065-.256-.15-.149a11.111,11.111,0,0,1-2.3,2.257c-.283.2-.9.761-1.257.712-.165-.023-.394-.235-.539-.321-.222-.131-.444-.264-.662-.4a9.915,9.915,0,0,1-1.377-1c-.254-.228-1.523-1.444-.687-1.7a4.525,4.525,0,0,1,1.162.007l.985.007a.109.109,0,0,0,.1-.078c.026-.081.048-.16.071-.24l.2.88a.107.107,0,0,0,.2,0q.207-.9.415-1.8c.119.94.162,1.889.319,2.825.021.128.194.079.207-.028.081-.638.262-1.256.379-1.887a.471.471,0,0,0,.363.314,9.589,9.589,0,0,0,1.525,0c.445,0,1.037.1,1.408-.205a1.546,1.546,0,0,0,.421-1.108A2.746,2.746,0,0,0,2222.685,947.078Z" transform="translate(-2215.805 -947.03)" fill="#8a8a89"/></svg>