<svg xmlns="http://www.w3.org/2000/svg" width="10.052" height="7.86" viewBox="0 0 10.052 7.86"><g transform="translate(-2343.19 -947.03)"><path d="M2349.243,954.89a.584.584,0,0,1-.237-.051.568.568,0,0,1-.34-.525v-1.151c-.939-.005-2.2-.044-2.216-.044a2.544,2.544,0,0,0-2.182,1.388.564.564,0,0,1-.609.263.555.555,0,0,1-.436-.5,5.016,5.016,0,0,1,4.411-5.771h1.032v-.893a.574.574,0,0,1,.958-.428l3.22,2.891a1.2,1.2,0,0,1,0,1.782l-3.22,2.891A.569.569,0,0,1,2349.243,954.89Zm.028-2.334v1.689l3.169-2.844a.592.592,0,0,0,0-.882l-3.169-2.844V949.1h-1.591a4.354,4.354,0,0,0-3.865,4.981,3.087,3.087,0,0,1,2.644-1.572c.025,0,1.577.048,2.508.044Z" fill="#8a8a89"/></g></svg>