<?xml version="1.0" encoding="utf-8"?>
<!-- Generator: Adobe Illustrator 23.0.1, SVG Export Plug-In . SVG Version: 6.00 Build 0)  -->
<svg version="1.1" id="Calque_1" xmlns="http://www.w3.org/2000/svg" xmlns:xlink="http://www.w3.org/1999/xlink" x="0px" y="0px"
	 viewBox="0 0 87.69 71.69" style="enable-background:new 0 0 87.69 71.69;" xml:space="preserve">
<style type="text/css">
	.st0{fill:#616160;}
	.st1{fill:none;stroke:#6C6C6C;stroke-width:2;stroke-miterlimit:10;}
	.st2{fill:#75B12B;}
	.st3{fill:#E42528;}
	.st4{fill:url(#SVGID_1_);}
	.st5{fill:url(#SVGID_2_);}
	.st6{fill:#404041;}
	.st7{fill-rule:evenodd;clip-rule:evenodd;fill:#404041;}
	.st8{fill:#BBBDBE;}
	.st9{fill:#FFFFFF;}
	.st10{fill:none;stroke:#FFFFFF;stroke-width:0.5;stroke-miterlimit:10;}
	.st11{fill-rule:evenodd;clip-rule:evenodd;fill:#FFFFFF;}
	.st12{fill:#E1E1E1;}
	.st13{fill:#E8441E;}
</style>
<path class="st1" d="M28.74,44.14c-0.29-0.65-0.67-1.31-0.89-2.02c-0.36-1.21-1.05-1.73-2.36-1.82c-2.59-0.18-2.87-0.58-2.91-3.18
	c-0.01-0.76,0-1.51,0-2.27c0.02-2.64,0.21-2.85,2.87-3.23c2.16-0.31,3.59-3.69,2.29-5.45c-1.69-2.3-1.66-2.66,0.36-4.67
	c0.34-0.34,0.71-0.65,1.05-0.99c2.29-2.3,2.29-2.3,4.9-0.49c1.46,1.01,5.37-0.66,5.45-2.44c0.1-2.19,1.05-3.13,3.24-2.92
	c0.67,0.06,1.36-0.1,2.05-0.12c2.71-0.07,3.13,0.38,3.49,3.06c0.08,0.62,0.76,1.24,1.3,1.69c0.45,0.37,1.19,0.39,1.65,0.75
	c1.03,0.82,1.78,0.53,2.7-0.25c1.78-1.49,2.52-1.38,4.19,0.31c0.58,0.59,1.14,1.19,1.76,1.74c1.48,1.31,1.46,2.59,0.21,4.09
	c-1.5,1.8-0.09,5.15,2.27,5.43c1.88,0.22,2.92,1.01,2.73,3.05c-0.08,0.82-0.06,1.65,0,2.47c0.16,1.98-0.52,3.04-2.69,3.25
	c-2.63,0.25-3.95,3.66-2.27,5.71c1.25,1.53,1.2,2.82-0.27,4.1c-0.41,0.36-0.79,0.77-1.18,1.15c-2.46,2.47-2.46,2.47-5.27,0.5
	c-1.5-1.05-5.01,0.46-5.25,2.25c-0.4,3.06-0.6,3.23-3.76,3.28c-0.69,0.01-1.37-0.01-2.06,0.03c-1.83,0.1-2.74-0.67-2.97-2.57
	c-0.38-3.16-3.28-4.38-5.75-2.47c-1.47,1.14-2.71,1.15-3.93-0.28c-0.09-0.1-0.19-0.2-0.29-0.29C25.05,47.37,26.23,47.82,28.74,44.14
	z"/>
</svg>
